%TF.GenerationSoftware,KiCad,Pcbnew,9.0.0*%
%TF.CreationDate,2025-04-24T22:15:05+07:00*%
%TF.ProjectId,Controll_,436f6e74-726f-46c6-9cbb-2e6b69636164,rev?*%
%TF.SameCoordinates,Original*%
%TF.FileFunction,Drillmap*%
%TF.FilePolarity,Positive*%
%FSLAX45Y45*%
G04 Gerber Fmt 4.5, Leading zero omitted, Abs format (unit mm)*
G04 Created by KiCad (PCBNEW 9.0.0) date 2025-04-24 22:15:05*
%MOMM*%
%LPD*%
G01*
G04 APERTURE LIST*
%ADD10C,0.050000*%
%ADD11C,0.200000*%
%ADD12C,0.100000*%
%ADD13C,0.300000*%
G04 APERTURE END LIST*
D10*
X7500000Y-7500000D02*
X7500000Y-10000000D01*
X17599372Y-11185465D02*
X20000000Y-10000000D01*
X7500000Y-10000000D02*
X9900209Y-11184686D01*
X17599372Y-11185465D02*
G75*
G02*
X17381512Y-11250002I-217862J335455D01*
G01*
X20000000Y-7500000D02*
X20000000Y-10000000D01*
X7500000Y-7500000D02*
X10079553Y-5575000D01*
X10079553Y-5575000D02*
X17443582Y-5572697D01*
X17443582Y-5572697D02*
X20000000Y-7500000D01*
X10119265Y-11250000D02*
G75*
G02*
X9900208Y-11184688I-5J400000D01*
G01*
X17381512Y-11250000D02*
X10119265Y-11250000D01*
D11*
D12*
X13606000Y-10713000D02*
X13671000Y-10778000D01*
X13671000Y-10713000D02*
X13606000Y-10778000D01*
X14184000Y-10713000D02*
X14249000Y-10778000D01*
X14249000Y-10713000D02*
X14184000Y-10778000D01*
X16457500Y-11092500D02*
G75*
G02*
X16367500Y-11092500I-45000J0D01*
G01*
X16367500Y-11092500D02*
G75*
G02*
X16457500Y-11092500I45000J0D01*
G01*
X16757500Y-11092500D02*
G75*
G02*
X16667500Y-11092500I-45000J0D01*
G01*
X16667500Y-11092500D02*
G75*
G02*
X16757500Y-11092500I45000J0D01*
G01*
D13*
X7872500Y-9717500D02*
X7872500Y-10017500D01*
X7722500Y-9867500D02*
X8022500Y-9867500D01*
X7882500Y-7470000D02*
X7882500Y-7770000D01*
X7732500Y-7620000D02*
X8032500Y-7620000D01*
X19627500Y-9730000D02*
X19627500Y-10030000D01*
X19477500Y-9880000D02*
X19777500Y-9880000D01*
X19635000Y-7467500D02*
X19635000Y-7767500D01*
X19485000Y-7617500D02*
X19785000Y-7617500D01*
D11*
X7758277Y-11563984D02*
X7758277Y-11363984D01*
X7758277Y-11363984D02*
X7805896Y-11363984D01*
X7805896Y-11363984D02*
X7834467Y-11373508D01*
X7834467Y-11373508D02*
X7853515Y-11392555D01*
X7853515Y-11392555D02*
X7863039Y-11411603D01*
X7863039Y-11411603D02*
X7872562Y-11449698D01*
X7872562Y-11449698D02*
X7872562Y-11478269D01*
X7872562Y-11478269D02*
X7863039Y-11516365D01*
X7863039Y-11516365D02*
X7853515Y-11535412D01*
X7853515Y-11535412D02*
X7834467Y-11554460D01*
X7834467Y-11554460D02*
X7805896Y-11563984D01*
X7805896Y-11563984D02*
X7758277Y-11563984D01*
X7958277Y-11563984D02*
X7958277Y-11430650D01*
X7958277Y-11468746D02*
X7967801Y-11449698D01*
X7967801Y-11449698D02*
X7977324Y-11440174D01*
X7977324Y-11440174D02*
X7996372Y-11430650D01*
X7996372Y-11430650D02*
X8015420Y-11430650D01*
X8082086Y-11563984D02*
X8082086Y-11430650D01*
X8082086Y-11363984D02*
X8072562Y-11373508D01*
X8072562Y-11373508D02*
X8082086Y-11383031D01*
X8082086Y-11383031D02*
X8091610Y-11373508D01*
X8091610Y-11373508D02*
X8082086Y-11363984D01*
X8082086Y-11363984D02*
X8082086Y-11383031D01*
X8205896Y-11563984D02*
X8186848Y-11554460D01*
X8186848Y-11554460D02*
X8177324Y-11535412D01*
X8177324Y-11535412D02*
X8177324Y-11363984D01*
X8310658Y-11563984D02*
X8291610Y-11554460D01*
X8291610Y-11554460D02*
X8282086Y-11535412D01*
X8282086Y-11535412D02*
X8282086Y-11363984D01*
X8539229Y-11563984D02*
X8539229Y-11363984D01*
X8539229Y-11363984D02*
X8605896Y-11506841D01*
X8605896Y-11506841D02*
X8672563Y-11363984D01*
X8672563Y-11363984D02*
X8672563Y-11563984D01*
X8853515Y-11563984D02*
X8853515Y-11459222D01*
X8853515Y-11459222D02*
X8843991Y-11440174D01*
X8843991Y-11440174D02*
X8824944Y-11430650D01*
X8824944Y-11430650D02*
X8786848Y-11430650D01*
X8786848Y-11430650D02*
X8767801Y-11440174D01*
X8853515Y-11554460D02*
X8834467Y-11563984D01*
X8834467Y-11563984D02*
X8786848Y-11563984D01*
X8786848Y-11563984D02*
X8767801Y-11554460D01*
X8767801Y-11554460D02*
X8758277Y-11535412D01*
X8758277Y-11535412D02*
X8758277Y-11516365D01*
X8758277Y-11516365D02*
X8767801Y-11497317D01*
X8767801Y-11497317D02*
X8786848Y-11487793D01*
X8786848Y-11487793D02*
X8834467Y-11487793D01*
X8834467Y-11487793D02*
X8853515Y-11478269D01*
X8948753Y-11430650D02*
X8948753Y-11630650D01*
X8948753Y-11440174D02*
X8967801Y-11430650D01*
X8967801Y-11430650D02*
X9005896Y-11430650D01*
X9005896Y-11430650D02*
X9024944Y-11440174D01*
X9024944Y-11440174D02*
X9034467Y-11449698D01*
X9034467Y-11449698D02*
X9043991Y-11468746D01*
X9043991Y-11468746D02*
X9043991Y-11525888D01*
X9043991Y-11525888D02*
X9034467Y-11544936D01*
X9034467Y-11544936D02*
X9024944Y-11554460D01*
X9024944Y-11554460D02*
X9005896Y-11563984D01*
X9005896Y-11563984D02*
X8967801Y-11563984D01*
X8967801Y-11563984D02*
X8948753Y-11554460D01*
X9129705Y-11544936D02*
X9139229Y-11554460D01*
X9139229Y-11554460D02*
X9129705Y-11563984D01*
X9129705Y-11563984D02*
X9120182Y-11554460D01*
X9120182Y-11554460D02*
X9129705Y-11544936D01*
X9129705Y-11544936D02*
X9129705Y-11563984D01*
X9129705Y-11440174D02*
X9139229Y-11449698D01*
X9139229Y-11449698D02*
X9129705Y-11459222D01*
X9129705Y-11459222D02*
X9120182Y-11449698D01*
X9120182Y-11449698D02*
X9129705Y-11440174D01*
X9129705Y-11440174D02*
X9129705Y-11459222D01*
D12*
X7432500Y-11860000D02*
X7497500Y-11925000D01*
X7497500Y-11860000D02*
X7432500Y-11925000D01*
D11*
X7796372Y-11783984D02*
X7815420Y-11783984D01*
X7815420Y-11783984D02*
X7834467Y-11793508D01*
X7834467Y-11793508D02*
X7843991Y-11803031D01*
X7843991Y-11803031D02*
X7853515Y-11822079D01*
X7853515Y-11822079D02*
X7863039Y-11860174D01*
X7863039Y-11860174D02*
X7863039Y-11907793D01*
X7863039Y-11907793D02*
X7853515Y-11945888D01*
X7853515Y-11945888D02*
X7843991Y-11964936D01*
X7843991Y-11964936D02*
X7834467Y-11974460D01*
X7834467Y-11974460D02*
X7815420Y-11983984D01*
X7815420Y-11983984D02*
X7796372Y-11983984D01*
X7796372Y-11983984D02*
X7777324Y-11974460D01*
X7777324Y-11974460D02*
X7767801Y-11964936D01*
X7767801Y-11964936D02*
X7758277Y-11945888D01*
X7758277Y-11945888D02*
X7748753Y-11907793D01*
X7748753Y-11907793D02*
X7748753Y-11860174D01*
X7748753Y-11860174D02*
X7758277Y-11822079D01*
X7758277Y-11822079D02*
X7767801Y-11803031D01*
X7767801Y-11803031D02*
X7777324Y-11793508D01*
X7777324Y-11793508D02*
X7796372Y-11783984D01*
X7948753Y-11964936D02*
X7958277Y-11974460D01*
X7958277Y-11974460D02*
X7948753Y-11983984D01*
X7948753Y-11983984D02*
X7939229Y-11974460D01*
X7939229Y-11974460D02*
X7948753Y-11964936D01*
X7948753Y-11964936D02*
X7948753Y-11983984D01*
X8129705Y-11783984D02*
X8091610Y-11783984D01*
X8091610Y-11783984D02*
X8072562Y-11793508D01*
X8072562Y-11793508D02*
X8063039Y-11803031D01*
X8063039Y-11803031D02*
X8043991Y-11831603D01*
X8043991Y-11831603D02*
X8034467Y-11869698D01*
X8034467Y-11869698D02*
X8034467Y-11945888D01*
X8034467Y-11945888D02*
X8043991Y-11964936D01*
X8043991Y-11964936D02*
X8053515Y-11974460D01*
X8053515Y-11974460D02*
X8072562Y-11983984D01*
X8072562Y-11983984D02*
X8110658Y-11983984D01*
X8110658Y-11983984D02*
X8129705Y-11974460D01*
X8129705Y-11974460D02*
X8139229Y-11964936D01*
X8139229Y-11964936D02*
X8148753Y-11945888D01*
X8148753Y-11945888D02*
X8148753Y-11898269D01*
X8148753Y-11898269D02*
X8139229Y-11879222D01*
X8139229Y-11879222D02*
X8129705Y-11869698D01*
X8129705Y-11869698D02*
X8110658Y-11860174D01*
X8110658Y-11860174D02*
X8072562Y-11860174D01*
X8072562Y-11860174D02*
X8053515Y-11869698D01*
X8053515Y-11869698D02*
X8043991Y-11879222D01*
X8043991Y-11879222D02*
X8034467Y-11898269D01*
X8329705Y-11783984D02*
X8234467Y-11783984D01*
X8234467Y-11783984D02*
X8224943Y-11879222D01*
X8224943Y-11879222D02*
X8234467Y-11869698D01*
X8234467Y-11869698D02*
X8253515Y-11860174D01*
X8253515Y-11860174D02*
X8301134Y-11860174D01*
X8301134Y-11860174D02*
X8320182Y-11869698D01*
X8320182Y-11869698D02*
X8329705Y-11879222D01*
X8329705Y-11879222D02*
X8339229Y-11898269D01*
X8339229Y-11898269D02*
X8339229Y-11945888D01*
X8339229Y-11945888D02*
X8329705Y-11964936D01*
X8329705Y-11964936D02*
X8320182Y-11974460D01*
X8320182Y-11974460D02*
X8301134Y-11983984D01*
X8301134Y-11983984D02*
X8253515Y-11983984D01*
X8253515Y-11983984D02*
X8234467Y-11974460D01*
X8234467Y-11974460D02*
X8224943Y-11964936D01*
X8463039Y-11783984D02*
X8482086Y-11783984D01*
X8482086Y-11783984D02*
X8501134Y-11793508D01*
X8501134Y-11793508D02*
X8510658Y-11803031D01*
X8510658Y-11803031D02*
X8520182Y-11822079D01*
X8520182Y-11822079D02*
X8529705Y-11860174D01*
X8529705Y-11860174D02*
X8529705Y-11907793D01*
X8529705Y-11907793D02*
X8520182Y-11945888D01*
X8520182Y-11945888D02*
X8510658Y-11964936D01*
X8510658Y-11964936D02*
X8501134Y-11974460D01*
X8501134Y-11974460D02*
X8482086Y-11983984D01*
X8482086Y-11983984D02*
X8463039Y-11983984D01*
X8463039Y-11983984D02*
X8443991Y-11974460D01*
X8443991Y-11974460D02*
X8434467Y-11964936D01*
X8434467Y-11964936D02*
X8424944Y-11945888D01*
X8424944Y-11945888D02*
X8415420Y-11907793D01*
X8415420Y-11907793D02*
X8415420Y-11860174D01*
X8415420Y-11860174D02*
X8424944Y-11822079D01*
X8424944Y-11822079D02*
X8434467Y-11803031D01*
X8434467Y-11803031D02*
X8443991Y-11793508D01*
X8443991Y-11793508D02*
X8463039Y-11783984D01*
X8615420Y-11983984D02*
X8615420Y-11850650D01*
X8615420Y-11869698D02*
X8624944Y-11860174D01*
X8624944Y-11860174D02*
X8643991Y-11850650D01*
X8643991Y-11850650D02*
X8672563Y-11850650D01*
X8672563Y-11850650D02*
X8691610Y-11860174D01*
X8691610Y-11860174D02*
X8701134Y-11879222D01*
X8701134Y-11879222D02*
X8701134Y-11983984D01*
X8701134Y-11879222D02*
X8710658Y-11860174D01*
X8710658Y-11860174D02*
X8729705Y-11850650D01*
X8729705Y-11850650D02*
X8758277Y-11850650D01*
X8758277Y-11850650D02*
X8777325Y-11860174D01*
X8777325Y-11860174D02*
X8786848Y-11879222D01*
X8786848Y-11879222D02*
X8786848Y-11983984D01*
X8882086Y-11983984D02*
X8882086Y-11850650D01*
X8882086Y-11869698D02*
X8891610Y-11860174D01*
X8891610Y-11860174D02*
X8910658Y-11850650D01*
X8910658Y-11850650D02*
X8939229Y-11850650D01*
X8939229Y-11850650D02*
X8958277Y-11860174D01*
X8958277Y-11860174D02*
X8967801Y-11879222D01*
X8967801Y-11879222D02*
X8967801Y-11983984D01*
X8967801Y-11879222D02*
X8977325Y-11860174D01*
X8977325Y-11860174D02*
X8996372Y-11850650D01*
X8996372Y-11850650D02*
X9024944Y-11850650D01*
X9024944Y-11850650D02*
X9043991Y-11860174D01*
X9043991Y-11860174D02*
X9053515Y-11879222D01*
X9053515Y-11879222D02*
X9053515Y-11983984D01*
X9443991Y-11774460D02*
X9272563Y-12031603D01*
X9701134Y-11783984D02*
X9720182Y-11783984D01*
X9720182Y-11783984D02*
X9739229Y-11793508D01*
X9739229Y-11793508D02*
X9748753Y-11803031D01*
X9748753Y-11803031D02*
X9758277Y-11822079D01*
X9758277Y-11822079D02*
X9767801Y-11860174D01*
X9767801Y-11860174D02*
X9767801Y-11907793D01*
X9767801Y-11907793D02*
X9758277Y-11945888D01*
X9758277Y-11945888D02*
X9748753Y-11964936D01*
X9748753Y-11964936D02*
X9739229Y-11974460D01*
X9739229Y-11974460D02*
X9720182Y-11983984D01*
X9720182Y-11983984D02*
X9701134Y-11983984D01*
X9701134Y-11983984D02*
X9682087Y-11974460D01*
X9682087Y-11974460D02*
X9672563Y-11964936D01*
X9672563Y-11964936D02*
X9663039Y-11945888D01*
X9663039Y-11945888D02*
X9653515Y-11907793D01*
X9653515Y-11907793D02*
X9653515Y-11860174D01*
X9653515Y-11860174D02*
X9663039Y-11822079D01*
X9663039Y-11822079D02*
X9672563Y-11803031D01*
X9672563Y-11803031D02*
X9682087Y-11793508D01*
X9682087Y-11793508D02*
X9701134Y-11783984D01*
X9853515Y-11964936D02*
X9863039Y-11974460D01*
X9863039Y-11974460D02*
X9853515Y-11983984D01*
X9853515Y-11983984D02*
X9843991Y-11974460D01*
X9843991Y-11974460D02*
X9853515Y-11964936D01*
X9853515Y-11964936D02*
X9853515Y-11983984D01*
X9986848Y-11783984D02*
X10005896Y-11783984D01*
X10005896Y-11783984D02*
X10024944Y-11793508D01*
X10024944Y-11793508D02*
X10034468Y-11803031D01*
X10034468Y-11803031D02*
X10043991Y-11822079D01*
X10043991Y-11822079D02*
X10053515Y-11860174D01*
X10053515Y-11860174D02*
X10053515Y-11907793D01*
X10053515Y-11907793D02*
X10043991Y-11945888D01*
X10043991Y-11945888D02*
X10034468Y-11964936D01*
X10034468Y-11964936D02*
X10024944Y-11974460D01*
X10024944Y-11974460D02*
X10005896Y-11983984D01*
X10005896Y-11983984D02*
X9986848Y-11983984D01*
X9986848Y-11983984D02*
X9967801Y-11974460D01*
X9967801Y-11974460D02*
X9958277Y-11964936D01*
X9958277Y-11964936D02*
X9948753Y-11945888D01*
X9948753Y-11945888D02*
X9939229Y-11907793D01*
X9939229Y-11907793D02*
X9939229Y-11860174D01*
X9939229Y-11860174D02*
X9948753Y-11822079D01*
X9948753Y-11822079D02*
X9958277Y-11803031D01*
X9958277Y-11803031D02*
X9967801Y-11793508D01*
X9967801Y-11793508D02*
X9986848Y-11783984D01*
X10129706Y-11803031D02*
X10139229Y-11793508D01*
X10139229Y-11793508D02*
X10158277Y-11783984D01*
X10158277Y-11783984D02*
X10205896Y-11783984D01*
X10205896Y-11783984D02*
X10224944Y-11793508D01*
X10224944Y-11793508D02*
X10234468Y-11803031D01*
X10234468Y-11803031D02*
X10243991Y-11822079D01*
X10243991Y-11822079D02*
X10243991Y-11841127D01*
X10243991Y-11841127D02*
X10234468Y-11869698D01*
X10234468Y-11869698D02*
X10120182Y-11983984D01*
X10120182Y-11983984D02*
X10243991Y-11983984D01*
X10424944Y-11783984D02*
X10329706Y-11783984D01*
X10329706Y-11783984D02*
X10320182Y-11879222D01*
X10320182Y-11879222D02*
X10329706Y-11869698D01*
X10329706Y-11869698D02*
X10348753Y-11860174D01*
X10348753Y-11860174D02*
X10396372Y-11860174D01*
X10396372Y-11860174D02*
X10415420Y-11869698D01*
X10415420Y-11869698D02*
X10424944Y-11879222D01*
X10424944Y-11879222D02*
X10434468Y-11898269D01*
X10434468Y-11898269D02*
X10434468Y-11945888D01*
X10434468Y-11945888D02*
X10424944Y-11964936D01*
X10424944Y-11964936D02*
X10415420Y-11974460D01*
X10415420Y-11974460D02*
X10396372Y-11983984D01*
X10396372Y-11983984D02*
X10348753Y-11983984D01*
X10348753Y-11983984D02*
X10329706Y-11974460D01*
X10329706Y-11974460D02*
X10320182Y-11964936D01*
X10605896Y-11783984D02*
X10567801Y-11783984D01*
X10567801Y-11783984D02*
X10548753Y-11793508D01*
X10548753Y-11793508D02*
X10539229Y-11803031D01*
X10539229Y-11803031D02*
X10520182Y-11831603D01*
X10520182Y-11831603D02*
X10510658Y-11869698D01*
X10510658Y-11869698D02*
X10510658Y-11945888D01*
X10510658Y-11945888D02*
X10520182Y-11964936D01*
X10520182Y-11964936D02*
X10529706Y-11974460D01*
X10529706Y-11974460D02*
X10548753Y-11983984D01*
X10548753Y-11983984D02*
X10586849Y-11983984D01*
X10586849Y-11983984D02*
X10605896Y-11974460D01*
X10605896Y-11974460D02*
X10615420Y-11964936D01*
X10615420Y-11964936D02*
X10624944Y-11945888D01*
X10624944Y-11945888D02*
X10624944Y-11898269D01*
X10624944Y-11898269D02*
X10615420Y-11879222D01*
X10615420Y-11879222D02*
X10605896Y-11869698D01*
X10605896Y-11869698D02*
X10586849Y-11860174D01*
X10586849Y-11860174D02*
X10548753Y-11860174D01*
X10548753Y-11860174D02*
X10529706Y-11869698D01*
X10529706Y-11869698D02*
X10520182Y-11879222D01*
X10520182Y-11879222D02*
X10510658Y-11898269D01*
X10701134Y-11783984D02*
X10701134Y-11822079D01*
X10777325Y-11783984D02*
X10777325Y-11822079D01*
X11072563Y-12060174D02*
X11063039Y-12050650D01*
X11063039Y-12050650D02*
X11043991Y-12022079D01*
X11043991Y-12022079D02*
X11034468Y-12003031D01*
X11034468Y-12003031D02*
X11024944Y-11974460D01*
X11024944Y-11974460D02*
X11015420Y-11926841D01*
X11015420Y-11926841D02*
X11015420Y-11888746D01*
X11015420Y-11888746D02*
X11024944Y-11841127D01*
X11024944Y-11841127D02*
X11034468Y-11812555D01*
X11034468Y-11812555D02*
X11043991Y-11793508D01*
X11043991Y-11793508D02*
X11063039Y-11764936D01*
X11063039Y-11764936D02*
X11072563Y-11755412D01*
X11139230Y-11803031D02*
X11148753Y-11793508D01*
X11148753Y-11793508D02*
X11167801Y-11783984D01*
X11167801Y-11783984D02*
X11215420Y-11783984D01*
X11215420Y-11783984D02*
X11234468Y-11793508D01*
X11234468Y-11793508D02*
X11243991Y-11803031D01*
X11243991Y-11803031D02*
X11253515Y-11822079D01*
X11253515Y-11822079D02*
X11253515Y-11841127D01*
X11253515Y-11841127D02*
X11243991Y-11869698D01*
X11243991Y-11869698D02*
X11129706Y-11983984D01*
X11129706Y-11983984D02*
X11253515Y-11983984D01*
X11491610Y-11983984D02*
X11491610Y-11783984D01*
X11577325Y-11983984D02*
X11577325Y-11879222D01*
X11577325Y-11879222D02*
X11567801Y-11860174D01*
X11567801Y-11860174D02*
X11548753Y-11850650D01*
X11548753Y-11850650D02*
X11520182Y-11850650D01*
X11520182Y-11850650D02*
X11501134Y-11860174D01*
X11501134Y-11860174D02*
X11491610Y-11869698D01*
X11701134Y-11983984D02*
X11682087Y-11974460D01*
X11682087Y-11974460D02*
X11672563Y-11964936D01*
X11672563Y-11964936D02*
X11663039Y-11945888D01*
X11663039Y-11945888D02*
X11663039Y-11888746D01*
X11663039Y-11888746D02*
X11672563Y-11869698D01*
X11672563Y-11869698D02*
X11682087Y-11860174D01*
X11682087Y-11860174D02*
X11701134Y-11850650D01*
X11701134Y-11850650D02*
X11729706Y-11850650D01*
X11729706Y-11850650D02*
X11748753Y-11860174D01*
X11748753Y-11860174D02*
X11758277Y-11869698D01*
X11758277Y-11869698D02*
X11767801Y-11888746D01*
X11767801Y-11888746D02*
X11767801Y-11945888D01*
X11767801Y-11945888D02*
X11758277Y-11964936D01*
X11758277Y-11964936D02*
X11748753Y-11974460D01*
X11748753Y-11974460D02*
X11729706Y-11983984D01*
X11729706Y-11983984D02*
X11701134Y-11983984D01*
X11882087Y-11983984D02*
X11863039Y-11974460D01*
X11863039Y-11974460D02*
X11853515Y-11955412D01*
X11853515Y-11955412D02*
X11853515Y-11783984D01*
X12034468Y-11974460D02*
X12015420Y-11983984D01*
X12015420Y-11983984D02*
X11977325Y-11983984D01*
X11977325Y-11983984D02*
X11958277Y-11974460D01*
X11958277Y-11974460D02*
X11948753Y-11955412D01*
X11948753Y-11955412D02*
X11948753Y-11879222D01*
X11948753Y-11879222D02*
X11958277Y-11860174D01*
X11958277Y-11860174D02*
X11977325Y-11850650D01*
X11977325Y-11850650D02*
X12015420Y-11850650D01*
X12015420Y-11850650D02*
X12034468Y-11860174D01*
X12034468Y-11860174D02*
X12043991Y-11879222D01*
X12043991Y-11879222D02*
X12043991Y-11898269D01*
X12043991Y-11898269D02*
X11948753Y-11917317D01*
X12120182Y-11974460D02*
X12139230Y-11983984D01*
X12139230Y-11983984D02*
X12177325Y-11983984D01*
X12177325Y-11983984D02*
X12196372Y-11974460D01*
X12196372Y-11974460D02*
X12205896Y-11955412D01*
X12205896Y-11955412D02*
X12205896Y-11945888D01*
X12205896Y-11945888D02*
X12196372Y-11926841D01*
X12196372Y-11926841D02*
X12177325Y-11917317D01*
X12177325Y-11917317D02*
X12148753Y-11917317D01*
X12148753Y-11917317D02*
X12129706Y-11907793D01*
X12129706Y-11907793D02*
X12120182Y-11888746D01*
X12120182Y-11888746D02*
X12120182Y-11879222D01*
X12120182Y-11879222D02*
X12129706Y-11860174D01*
X12129706Y-11860174D02*
X12148753Y-11850650D01*
X12148753Y-11850650D02*
X12177325Y-11850650D01*
X12177325Y-11850650D02*
X12196372Y-11860174D01*
X12272563Y-12060174D02*
X12282087Y-12050650D01*
X12282087Y-12050650D02*
X12301134Y-12022079D01*
X12301134Y-12022079D02*
X12310658Y-12003031D01*
X12310658Y-12003031D02*
X12320182Y-11974460D01*
X12320182Y-11974460D02*
X12329706Y-11926841D01*
X12329706Y-11926841D02*
X12329706Y-11888746D01*
X12329706Y-11888746D02*
X12320182Y-11841127D01*
X12320182Y-11841127D02*
X12310658Y-11812555D01*
X12310658Y-11812555D02*
X12301134Y-11793508D01*
X12301134Y-11793508D02*
X12282087Y-11764936D01*
X12282087Y-11764936D02*
X12272563Y-11755412D01*
X12634468Y-12060174D02*
X12624944Y-12050650D01*
X12624944Y-12050650D02*
X12605896Y-12022079D01*
X12605896Y-12022079D02*
X12596372Y-12003031D01*
X12596372Y-12003031D02*
X12586849Y-11974460D01*
X12586849Y-11974460D02*
X12577325Y-11926841D01*
X12577325Y-11926841D02*
X12577325Y-11888746D01*
X12577325Y-11888746D02*
X12586849Y-11841127D01*
X12586849Y-11841127D02*
X12596372Y-11812555D01*
X12596372Y-11812555D02*
X12605896Y-11793508D01*
X12605896Y-11793508D02*
X12624944Y-11764936D01*
X12624944Y-11764936D02*
X12634468Y-11755412D01*
X12710658Y-11850650D02*
X12710658Y-11983984D01*
X12710658Y-11869698D02*
X12720182Y-11860174D01*
X12720182Y-11860174D02*
X12739230Y-11850650D01*
X12739230Y-11850650D02*
X12767801Y-11850650D01*
X12767801Y-11850650D02*
X12786849Y-11860174D01*
X12786849Y-11860174D02*
X12796372Y-11879222D01*
X12796372Y-11879222D02*
X12796372Y-11983984D01*
X12920182Y-11983984D02*
X12901134Y-11974460D01*
X12901134Y-11974460D02*
X12891611Y-11964936D01*
X12891611Y-11964936D02*
X12882087Y-11945888D01*
X12882087Y-11945888D02*
X12882087Y-11888746D01*
X12882087Y-11888746D02*
X12891611Y-11869698D01*
X12891611Y-11869698D02*
X12901134Y-11860174D01*
X12901134Y-11860174D02*
X12920182Y-11850650D01*
X12920182Y-11850650D02*
X12948753Y-11850650D01*
X12948753Y-11850650D02*
X12967801Y-11860174D01*
X12967801Y-11860174D02*
X12977325Y-11869698D01*
X12977325Y-11869698D02*
X12986849Y-11888746D01*
X12986849Y-11888746D02*
X12986849Y-11945888D01*
X12986849Y-11945888D02*
X12977325Y-11964936D01*
X12977325Y-11964936D02*
X12967801Y-11974460D01*
X12967801Y-11974460D02*
X12948753Y-11983984D01*
X12948753Y-11983984D02*
X12920182Y-11983984D01*
X13043992Y-11850650D02*
X13120182Y-11850650D01*
X13072563Y-11783984D02*
X13072563Y-11955412D01*
X13072563Y-11955412D02*
X13082087Y-11974460D01*
X13082087Y-11974460D02*
X13101134Y-11983984D01*
X13101134Y-11983984D02*
X13120182Y-11983984D01*
X13339230Y-11850650D02*
X13339230Y-12050650D01*
X13339230Y-11860174D02*
X13358277Y-11850650D01*
X13358277Y-11850650D02*
X13396373Y-11850650D01*
X13396373Y-11850650D02*
X13415420Y-11860174D01*
X13415420Y-11860174D02*
X13424944Y-11869698D01*
X13424944Y-11869698D02*
X13434468Y-11888746D01*
X13434468Y-11888746D02*
X13434468Y-11945888D01*
X13434468Y-11945888D02*
X13424944Y-11964936D01*
X13424944Y-11964936D02*
X13415420Y-11974460D01*
X13415420Y-11974460D02*
X13396373Y-11983984D01*
X13396373Y-11983984D02*
X13358277Y-11983984D01*
X13358277Y-11983984D02*
X13339230Y-11974460D01*
X13548753Y-11983984D02*
X13529706Y-11974460D01*
X13529706Y-11974460D02*
X13520182Y-11955412D01*
X13520182Y-11955412D02*
X13520182Y-11783984D01*
X13710658Y-11983984D02*
X13710658Y-11879222D01*
X13710658Y-11879222D02*
X13701134Y-11860174D01*
X13701134Y-11860174D02*
X13682087Y-11850650D01*
X13682087Y-11850650D02*
X13643992Y-11850650D01*
X13643992Y-11850650D02*
X13624944Y-11860174D01*
X13710658Y-11974460D02*
X13691611Y-11983984D01*
X13691611Y-11983984D02*
X13643992Y-11983984D01*
X13643992Y-11983984D02*
X13624944Y-11974460D01*
X13624944Y-11974460D02*
X13615420Y-11955412D01*
X13615420Y-11955412D02*
X13615420Y-11936365D01*
X13615420Y-11936365D02*
X13624944Y-11917317D01*
X13624944Y-11917317D02*
X13643992Y-11907793D01*
X13643992Y-11907793D02*
X13691611Y-11907793D01*
X13691611Y-11907793D02*
X13710658Y-11898269D01*
X13777325Y-11850650D02*
X13853515Y-11850650D01*
X13805896Y-11783984D02*
X13805896Y-11955412D01*
X13805896Y-11955412D02*
X13815420Y-11974460D01*
X13815420Y-11974460D02*
X13834468Y-11983984D01*
X13834468Y-11983984D02*
X13853515Y-11983984D01*
X13996373Y-11974460D02*
X13977325Y-11983984D01*
X13977325Y-11983984D02*
X13939230Y-11983984D01*
X13939230Y-11983984D02*
X13920182Y-11974460D01*
X13920182Y-11974460D02*
X13910658Y-11955412D01*
X13910658Y-11955412D02*
X13910658Y-11879222D01*
X13910658Y-11879222D02*
X13920182Y-11860174D01*
X13920182Y-11860174D02*
X13939230Y-11850650D01*
X13939230Y-11850650D02*
X13977325Y-11850650D01*
X13977325Y-11850650D02*
X13996373Y-11860174D01*
X13996373Y-11860174D02*
X14005896Y-11879222D01*
X14005896Y-11879222D02*
X14005896Y-11898269D01*
X14005896Y-11898269D02*
X13910658Y-11917317D01*
X14177325Y-11983984D02*
X14177325Y-11783984D01*
X14177325Y-11974460D02*
X14158277Y-11983984D01*
X14158277Y-11983984D02*
X14120182Y-11983984D01*
X14120182Y-11983984D02*
X14101134Y-11974460D01*
X14101134Y-11974460D02*
X14091611Y-11964936D01*
X14091611Y-11964936D02*
X14082087Y-11945888D01*
X14082087Y-11945888D02*
X14082087Y-11888746D01*
X14082087Y-11888746D02*
X14091611Y-11869698D01*
X14091611Y-11869698D02*
X14101134Y-11860174D01*
X14101134Y-11860174D02*
X14120182Y-11850650D01*
X14120182Y-11850650D02*
X14158277Y-11850650D01*
X14158277Y-11850650D02*
X14177325Y-11860174D01*
X14253515Y-12060174D02*
X14263039Y-12050650D01*
X14263039Y-12050650D02*
X14282087Y-12022079D01*
X14282087Y-12022079D02*
X14291611Y-12003031D01*
X14291611Y-12003031D02*
X14301134Y-11974460D01*
X14301134Y-11974460D02*
X14310658Y-11926841D01*
X14310658Y-11926841D02*
X14310658Y-11888746D01*
X14310658Y-11888746D02*
X14301134Y-11841127D01*
X14301134Y-11841127D02*
X14291611Y-11812555D01*
X14291611Y-11812555D02*
X14282087Y-11793508D01*
X14282087Y-11793508D02*
X14263039Y-11764936D01*
X14263039Y-11764936D02*
X14253515Y-11755412D01*
D12*
X7497500Y-12156500D02*
G75*
G02*
X7407500Y-12156500I-45000J0D01*
G01*
X7407500Y-12156500D02*
G75*
G02*
X7497500Y-12156500I45000J0D01*
G01*
D11*
X7796372Y-12047984D02*
X7815420Y-12047984D01*
X7815420Y-12047984D02*
X7834467Y-12057508D01*
X7834467Y-12057508D02*
X7843991Y-12067031D01*
X7843991Y-12067031D02*
X7853515Y-12086079D01*
X7853515Y-12086079D02*
X7863039Y-12124174D01*
X7863039Y-12124174D02*
X7863039Y-12171793D01*
X7863039Y-12171793D02*
X7853515Y-12209888D01*
X7853515Y-12209888D02*
X7843991Y-12228936D01*
X7843991Y-12228936D02*
X7834467Y-12238460D01*
X7834467Y-12238460D02*
X7815420Y-12247984D01*
X7815420Y-12247984D02*
X7796372Y-12247984D01*
X7796372Y-12247984D02*
X7777324Y-12238460D01*
X7777324Y-12238460D02*
X7767801Y-12228936D01*
X7767801Y-12228936D02*
X7758277Y-12209888D01*
X7758277Y-12209888D02*
X7748753Y-12171793D01*
X7748753Y-12171793D02*
X7748753Y-12124174D01*
X7748753Y-12124174D02*
X7758277Y-12086079D01*
X7758277Y-12086079D02*
X7767801Y-12067031D01*
X7767801Y-12067031D02*
X7777324Y-12057508D01*
X7777324Y-12057508D02*
X7796372Y-12047984D01*
X7948753Y-12228936D02*
X7958277Y-12238460D01*
X7958277Y-12238460D02*
X7948753Y-12247984D01*
X7948753Y-12247984D02*
X7939229Y-12238460D01*
X7939229Y-12238460D02*
X7948753Y-12228936D01*
X7948753Y-12228936D02*
X7948753Y-12247984D01*
X8053515Y-12247984D02*
X8091610Y-12247984D01*
X8091610Y-12247984D02*
X8110658Y-12238460D01*
X8110658Y-12238460D02*
X8120182Y-12228936D01*
X8120182Y-12228936D02*
X8139229Y-12200365D01*
X8139229Y-12200365D02*
X8148753Y-12162269D01*
X8148753Y-12162269D02*
X8148753Y-12086079D01*
X8148753Y-12086079D02*
X8139229Y-12067031D01*
X8139229Y-12067031D02*
X8129705Y-12057508D01*
X8129705Y-12057508D02*
X8110658Y-12047984D01*
X8110658Y-12047984D02*
X8072562Y-12047984D01*
X8072562Y-12047984D02*
X8053515Y-12057508D01*
X8053515Y-12057508D02*
X8043991Y-12067031D01*
X8043991Y-12067031D02*
X8034467Y-12086079D01*
X8034467Y-12086079D02*
X8034467Y-12133698D01*
X8034467Y-12133698D02*
X8043991Y-12152746D01*
X8043991Y-12152746D02*
X8053515Y-12162269D01*
X8053515Y-12162269D02*
X8072562Y-12171793D01*
X8072562Y-12171793D02*
X8110658Y-12171793D01*
X8110658Y-12171793D02*
X8129705Y-12162269D01*
X8129705Y-12162269D02*
X8139229Y-12152746D01*
X8139229Y-12152746D02*
X8148753Y-12133698D01*
X8272562Y-12047984D02*
X8291610Y-12047984D01*
X8291610Y-12047984D02*
X8310658Y-12057508D01*
X8310658Y-12057508D02*
X8320182Y-12067031D01*
X8320182Y-12067031D02*
X8329705Y-12086079D01*
X8329705Y-12086079D02*
X8339229Y-12124174D01*
X8339229Y-12124174D02*
X8339229Y-12171793D01*
X8339229Y-12171793D02*
X8329705Y-12209888D01*
X8329705Y-12209888D02*
X8320182Y-12228936D01*
X8320182Y-12228936D02*
X8310658Y-12238460D01*
X8310658Y-12238460D02*
X8291610Y-12247984D01*
X8291610Y-12247984D02*
X8272562Y-12247984D01*
X8272562Y-12247984D02*
X8253515Y-12238460D01*
X8253515Y-12238460D02*
X8243991Y-12228936D01*
X8243991Y-12228936D02*
X8234467Y-12209888D01*
X8234467Y-12209888D02*
X8224943Y-12171793D01*
X8224943Y-12171793D02*
X8224943Y-12124174D01*
X8224943Y-12124174D02*
X8234467Y-12086079D01*
X8234467Y-12086079D02*
X8243991Y-12067031D01*
X8243991Y-12067031D02*
X8253515Y-12057508D01*
X8253515Y-12057508D02*
X8272562Y-12047984D01*
X8463039Y-12047984D02*
X8482086Y-12047984D01*
X8482086Y-12047984D02*
X8501134Y-12057508D01*
X8501134Y-12057508D02*
X8510658Y-12067031D01*
X8510658Y-12067031D02*
X8520182Y-12086079D01*
X8520182Y-12086079D02*
X8529705Y-12124174D01*
X8529705Y-12124174D02*
X8529705Y-12171793D01*
X8529705Y-12171793D02*
X8520182Y-12209888D01*
X8520182Y-12209888D02*
X8510658Y-12228936D01*
X8510658Y-12228936D02*
X8501134Y-12238460D01*
X8501134Y-12238460D02*
X8482086Y-12247984D01*
X8482086Y-12247984D02*
X8463039Y-12247984D01*
X8463039Y-12247984D02*
X8443991Y-12238460D01*
X8443991Y-12238460D02*
X8434467Y-12228936D01*
X8434467Y-12228936D02*
X8424944Y-12209888D01*
X8424944Y-12209888D02*
X8415420Y-12171793D01*
X8415420Y-12171793D02*
X8415420Y-12124174D01*
X8415420Y-12124174D02*
X8424944Y-12086079D01*
X8424944Y-12086079D02*
X8434467Y-12067031D01*
X8434467Y-12067031D02*
X8443991Y-12057508D01*
X8443991Y-12057508D02*
X8463039Y-12047984D01*
X8615420Y-12247984D02*
X8615420Y-12114650D01*
X8615420Y-12133698D02*
X8624944Y-12124174D01*
X8624944Y-12124174D02*
X8643991Y-12114650D01*
X8643991Y-12114650D02*
X8672563Y-12114650D01*
X8672563Y-12114650D02*
X8691610Y-12124174D01*
X8691610Y-12124174D02*
X8701134Y-12143222D01*
X8701134Y-12143222D02*
X8701134Y-12247984D01*
X8701134Y-12143222D02*
X8710658Y-12124174D01*
X8710658Y-12124174D02*
X8729705Y-12114650D01*
X8729705Y-12114650D02*
X8758277Y-12114650D01*
X8758277Y-12114650D02*
X8777325Y-12124174D01*
X8777325Y-12124174D02*
X8786848Y-12143222D01*
X8786848Y-12143222D02*
X8786848Y-12247984D01*
X8882086Y-12247984D02*
X8882086Y-12114650D01*
X8882086Y-12133698D02*
X8891610Y-12124174D01*
X8891610Y-12124174D02*
X8910658Y-12114650D01*
X8910658Y-12114650D02*
X8939229Y-12114650D01*
X8939229Y-12114650D02*
X8958277Y-12124174D01*
X8958277Y-12124174D02*
X8967801Y-12143222D01*
X8967801Y-12143222D02*
X8967801Y-12247984D01*
X8967801Y-12143222D02*
X8977325Y-12124174D01*
X8977325Y-12124174D02*
X8996372Y-12114650D01*
X8996372Y-12114650D02*
X9024944Y-12114650D01*
X9024944Y-12114650D02*
X9043991Y-12124174D01*
X9043991Y-12124174D02*
X9053515Y-12143222D01*
X9053515Y-12143222D02*
X9053515Y-12247984D01*
X9443991Y-12038460D02*
X9272563Y-12295603D01*
X9701134Y-12047984D02*
X9720182Y-12047984D01*
X9720182Y-12047984D02*
X9739229Y-12057508D01*
X9739229Y-12057508D02*
X9748753Y-12067031D01*
X9748753Y-12067031D02*
X9758277Y-12086079D01*
X9758277Y-12086079D02*
X9767801Y-12124174D01*
X9767801Y-12124174D02*
X9767801Y-12171793D01*
X9767801Y-12171793D02*
X9758277Y-12209888D01*
X9758277Y-12209888D02*
X9748753Y-12228936D01*
X9748753Y-12228936D02*
X9739229Y-12238460D01*
X9739229Y-12238460D02*
X9720182Y-12247984D01*
X9720182Y-12247984D02*
X9701134Y-12247984D01*
X9701134Y-12247984D02*
X9682087Y-12238460D01*
X9682087Y-12238460D02*
X9672563Y-12228936D01*
X9672563Y-12228936D02*
X9663039Y-12209888D01*
X9663039Y-12209888D02*
X9653515Y-12171793D01*
X9653515Y-12171793D02*
X9653515Y-12124174D01*
X9653515Y-12124174D02*
X9663039Y-12086079D01*
X9663039Y-12086079D02*
X9672563Y-12067031D01*
X9672563Y-12067031D02*
X9682087Y-12057508D01*
X9682087Y-12057508D02*
X9701134Y-12047984D01*
X9853515Y-12228936D02*
X9863039Y-12238460D01*
X9863039Y-12238460D02*
X9853515Y-12247984D01*
X9853515Y-12247984D02*
X9843991Y-12238460D01*
X9843991Y-12238460D02*
X9853515Y-12228936D01*
X9853515Y-12228936D02*
X9853515Y-12247984D01*
X9986848Y-12047984D02*
X10005896Y-12047984D01*
X10005896Y-12047984D02*
X10024944Y-12057508D01*
X10024944Y-12057508D02*
X10034468Y-12067031D01*
X10034468Y-12067031D02*
X10043991Y-12086079D01*
X10043991Y-12086079D02*
X10053515Y-12124174D01*
X10053515Y-12124174D02*
X10053515Y-12171793D01*
X10053515Y-12171793D02*
X10043991Y-12209888D01*
X10043991Y-12209888D02*
X10034468Y-12228936D01*
X10034468Y-12228936D02*
X10024944Y-12238460D01*
X10024944Y-12238460D02*
X10005896Y-12247984D01*
X10005896Y-12247984D02*
X9986848Y-12247984D01*
X9986848Y-12247984D02*
X9967801Y-12238460D01*
X9967801Y-12238460D02*
X9958277Y-12228936D01*
X9958277Y-12228936D02*
X9948753Y-12209888D01*
X9948753Y-12209888D02*
X9939229Y-12171793D01*
X9939229Y-12171793D02*
X9939229Y-12124174D01*
X9939229Y-12124174D02*
X9948753Y-12086079D01*
X9948753Y-12086079D02*
X9958277Y-12067031D01*
X9958277Y-12067031D02*
X9967801Y-12057508D01*
X9967801Y-12057508D02*
X9986848Y-12047984D01*
X10120182Y-12047984D02*
X10243991Y-12047984D01*
X10243991Y-12047984D02*
X10177325Y-12124174D01*
X10177325Y-12124174D02*
X10205896Y-12124174D01*
X10205896Y-12124174D02*
X10224944Y-12133698D01*
X10224944Y-12133698D02*
X10234468Y-12143222D01*
X10234468Y-12143222D02*
X10243991Y-12162269D01*
X10243991Y-12162269D02*
X10243991Y-12209888D01*
X10243991Y-12209888D02*
X10234468Y-12228936D01*
X10234468Y-12228936D02*
X10224944Y-12238460D01*
X10224944Y-12238460D02*
X10205896Y-12247984D01*
X10205896Y-12247984D02*
X10148753Y-12247984D01*
X10148753Y-12247984D02*
X10129706Y-12238460D01*
X10129706Y-12238460D02*
X10120182Y-12228936D01*
X10424944Y-12047984D02*
X10329706Y-12047984D01*
X10329706Y-12047984D02*
X10320182Y-12143222D01*
X10320182Y-12143222D02*
X10329706Y-12133698D01*
X10329706Y-12133698D02*
X10348753Y-12124174D01*
X10348753Y-12124174D02*
X10396372Y-12124174D01*
X10396372Y-12124174D02*
X10415420Y-12133698D01*
X10415420Y-12133698D02*
X10424944Y-12143222D01*
X10424944Y-12143222D02*
X10434468Y-12162269D01*
X10434468Y-12162269D02*
X10434468Y-12209888D01*
X10434468Y-12209888D02*
X10424944Y-12228936D01*
X10424944Y-12228936D02*
X10415420Y-12238460D01*
X10415420Y-12238460D02*
X10396372Y-12247984D01*
X10396372Y-12247984D02*
X10348753Y-12247984D01*
X10348753Y-12247984D02*
X10329706Y-12238460D01*
X10329706Y-12238460D02*
X10320182Y-12228936D01*
X10605896Y-12114650D02*
X10605896Y-12247984D01*
X10558277Y-12038460D02*
X10510658Y-12181317D01*
X10510658Y-12181317D02*
X10634468Y-12181317D01*
X10701134Y-12047984D02*
X10701134Y-12086079D01*
X10777325Y-12047984D02*
X10777325Y-12086079D01*
X11072563Y-12324174D02*
X11063039Y-12314650D01*
X11063039Y-12314650D02*
X11043991Y-12286079D01*
X11043991Y-12286079D02*
X11034468Y-12267031D01*
X11034468Y-12267031D02*
X11024944Y-12238460D01*
X11024944Y-12238460D02*
X11015420Y-12190841D01*
X11015420Y-12190841D02*
X11015420Y-12152746D01*
X11015420Y-12152746D02*
X11024944Y-12105127D01*
X11024944Y-12105127D02*
X11034468Y-12076555D01*
X11034468Y-12076555D02*
X11043991Y-12057508D01*
X11043991Y-12057508D02*
X11063039Y-12028936D01*
X11063039Y-12028936D02*
X11072563Y-12019412D01*
X11139230Y-12067031D02*
X11148753Y-12057508D01*
X11148753Y-12057508D02*
X11167801Y-12047984D01*
X11167801Y-12047984D02*
X11215420Y-12047984D01*
X11215420Y-12047984D02*
X11234468Y-12057508D01*
X11234468Y-12057508D02*
X11243991Y-12067031D01*
X11243991Y-12067031D02*
X11253515Y-12086079D01*
X11253515Y-12086079D02*
X11253515Y-12105127D01*
X11253515Y-12105127D02*
X11243991Y-12133698D01*
X11243991Y-12133698D02*
X11129706Y-12247984D01*
X11129706Y-12247984D02*
X11253515Y-12247984D01*
X11491610Y-12247984D02*
X11491610Y-12047984D01*
X11577325Y-12247984D02*
X11577325Y-12143222D01*
X11577325Y-12143222D02*
X11567801Y-12124174D01*
X11567801Y-12124174D02*
X11548753Y-12114650D01*
X11548753Y-12114650D02*
X11520182Y-12114650D01*
X11520182Y-12114650D02*
X11501134Y-12124174D01*
X11501134Y-12124174D02*
X11491610Y-12133698D01*
X11701134Y-12247984D02*
X11682087Y-12238460D01*
X11682087Y-12238460D02*
X11672563Y-12228936D01*
X11672563Y-12228936D02*
X11663039Y-12209888D01*
X11663039Y-12209888D02*
X11663039Y-12152746D01*
X11663039Y-12152746D02*
X11672563Y-12133698D01*
X11672563Y-12133698D02*
X11682087Y-12124174D01*
X11682087Y-12124174D02*
X11701134Y-12114650D01*
X11701134Y-12114650D02*
X11729706Y-12114650D01*
X11729706Y-12114650D02*
X11748753Y-12124174D01*
X11748753Y-12124174D02*
X11758277Y-12133698D01*
X11758277Y-12133698D02*
X11767801Y-12152746D01*
X11767801Y-12152746D02*
X11767801Y-12209888D01*
X11767801Y-12209888D02*
X11758277Y-12228936D01*
X11758277Y-12228936D02*
X11748753Y-12238460D01*
X11748753Y-12238460D02*
X11729706Y-12247984D01*
X11729706Y-12247984D02*
X11701134Y-12247984D01*
X11882087Y-12247984D02*
X11863039Y-12238460D01*
X11863039Y-12238460D02*
X11853515Y-12219412D01*
X11853515Y-12219412D02*
X11853515Y-12047984D01*
X12034468Y-12238460D02*
X12015420Y-12247984D01*
X12015420Y-12247984D02*
X11977325Y-12247984D01*
X11977325Y-12247984D02*
X11958277Y-12238460D01*
X11958277Y-12238460D02*
X11948753Y-12219412D01*
X11948753Y-12219412D02*
X11948753Y-12143222D01*
X11948753Y-12143222D02*
X11958277Y-12124174D01*
X11958277Y-12124174D02*
X11977325Y-12114650D01*
X11977325Y-12114650D02*
X12015420Y-12114650D01*
X12015420Y-12114650D02*
X12034468Y-12124174D01*
X12034468Y-12124174D02*
X12043991Y-12143222D01*
X12043991Y-12143222D02*
X12043991Y-12162269D01*
X12043991Y-12162269D02*
X11948753Y-12181317D01*
X12120182Y-12238460D02*
X12139230Y-12247984D01*
X12139230Y-12247984D02*
X12177325Y-12247984D01*
X12177325Y-12247984D02*
X12196372Y-12238460D01*
X12196372Y-12238460D02*
X12205896Y-12219412D01*
X12205896Y-12219412D02*
X12205896Y-12209888D01*
X12205896Y-12209888D02*
X12196372Y-12190841D01*
X12196372Y-12190841D02*
X12177325Y-12181317D01*
X12177325Y-12181317D02*
X12148753Y-12181317D01*
X12148753Y-12181317D02*
X12129706Y-12171793D01*
X12129706Y-12171793D02*
X12120182Y-12152746D01*
X12120182Y-12152746D02*
X12120182Y-12143222D01*
X12120182Y-12143222D02*
X12129706Y-12124174D01*
X12129706Y-12124174D02*
X12148753Y-12114650D01*
X12148753Y-12114650D02*
X12177325Y-12114650D01*
X12177325Y-12114650D02*
X12196372Y-12124174D01*
X12272563Y-12324174D02*
X12282087Y-12314650D01*
X12282087Y-12314650D02*
X12301134Y-12286079D01*
X12301134Y-12286079D02*
X12310658Y-12267031D01*
X12310658Y-12267031D02*
X12320182Y-12238460D01*
X12320182Y-12238460D02*
X12329706Y-12190841D01*
X12329706Y-12190841D02*
X12329706Y-12152746D01*
X12329706Y-12152746D02*
X12320182Y-12105127D01*
X12320182Y-12105127D02*
X12310658Y-12076555D01*
X12310658Y-12076555D02*
X12301134Y-12057508D01*
X12301134Y-12057508D02*
X12282087Y-12028936D01*
X12282087Y-12028936D02*
X12272563Y-12019412D01*
X12634468Y-12324174D02*
X12624944Y-12314650D01*
X12624944Y-12314650D02*
X12605896Y-12286079D01*
X12605896Y-12286079D02*
X12596372Y-12267031D01*
X12596372Y-12267031D02*
X12586849Y-12238460D01*
X12586849Y-12238460D02*
X12577325Y-12190841D01*
X12577325Y-12190841D02*
X12577325Y-12152746D01*
X12577325Y-12152746D02*
X12586849Y-12105127D01*
X12586849Y-12105127D02*
X12596372Y-12076555D01*
X12596372Y-12076555D02*
X12605896Y-12057508D01*
X12605896Y-12057508D02*
X12624944Y-12028936D01*
X12624944Y-12028936D02*
X12634468Y-12019412D01*
X12710658Y-12114650D02*
X12710658Y-12247984D01*
X12710658Y-12133698D02*
X12720182Y-12124174D01*
X12720182Y-12124174D02*
X12739230Y-12114650D01*
X12739230Y-12114650D02*
X12767801Y-12114650D01*
X12767801Y-12114650D02*
X12786849Y-12124174D01*
X12786849Y-12124174D02*
X12796372Y-12143222D01*
X12796372Y-12143222D02*
X12796372Y-12247984D01*
X12920182Y-12247984D02*
X12901134Y-12238460D01*
X12901134Y-12238460D02*
X12891611Y-12228936D01*
X12891611Y-12228936D02*
X12882087Y-12209888D01*
X12882087Y-12209888D02*
X12882087Y-12152746D01*
X12882087Y-12152746D02*
X12891611Y-12133698D01*
X12891611Y-12133698D02*
X12901134Y-12124174D01*
X12901134Y-12124174D02*
X12920182Y-12114650D01*
X12920182Y-12114650D02*
X12948753Y-12114650D01*
X12948753Y-12114650D02*
X12967801Y-12124174D01*
X12967801Y-12124174D02*
X12977325Y-12133698D01*
X12977325Y-12133698D02*
X12986849Y-12152746D01*
X12986849Y-12152746D02*
X12986849Y-12209888D01*
X12986849Y-12209888D02*
X12977325Y-12228936D01*
X12977325Y-12228936D02*
X12967801Y-12238460D01*
X12967801Y-12238460D02*
X12948753Y-12247984D01*
X12948753Y-12247984D02*
X12920182Y-12247984D01*
X13043992Y-12114650D02*
X13120182Y-12114650D01*
X13072563Y-12047984D02*
X13072563Y-12219412D01*
X13072563Y-12219412D02*
X13082087Y-12238460D01*
X13082087Y-12238460D02*
X13101134Y-12247984D01*
X13101134Y-12247984D02*
X13120182Y-12247984D01*
X13339230Y-12114650D02*
X13339230Y-12314650D01*
X13339230Y-12124174D02*
X13358277Y-12114650D01*
X13358277Y-12114650D02*
X13396373Y-12114650D01*
X13396373Y-12114650D02*
X13415420Y-12124174D01*
X13415420Y-12124174D02*
X13424944Y-12133698D01*
X13424944Y-12133698D02*
X13434468Y-12152746D01*
X13434468Y-12152746D02*
X13434468Y-12209888D01*
X13434468Y-12209888D02*
X13424944Y-12228936D01*
X13424944Y-12228936D02*
X13415420Y-12238460D01*
X13415420Y-12238460D02*
X13396373Y-12247984D01*
X13396373Y-12247984D02*
X13358277Y-12247984D01*
X13358277Y-12247984D02*
X13339230Y-12238460D01*
X13548753Y-12247984D02*
X13529706Y-12238460D01*
X13529706Y-12238460D02*
X13520182Y-12219412D01*
X13520182Y-12219412D02*
X13520182Y-12047984D01*
X13710658Y-12247984D02*
X13710658Y-12143222D01*
X13710658Y-12143222D02*
X13701134Y-12124174D01*
X13701134Y-12124174D02*
X13682087Y-12114650D01*
X13682087Y-12114650D02*
X13643992Y-12114650D01*
X13643992Y-12114650D02*
X13624944Y-12124174D01*
X13710658Y-12238460D02*
X13691611Y-12247984D01*
X13691611Y-12247984D02*
X13643992Y-12247984D01*
X13643992Y-12247984D02*
X13624944Y-12238460D01*
X13624944Y-12238460D02*
X13615420Y-12219412D01*
X13615420Y-12219412D02*
X13615420Y-12200365D01*
X13615420Y-12200365D02*
X13624944Y-12181317D01*
X13624944Y-12181317D02*
X13643992Y-12171793D01*
X13643992Y-12171793D02*
X13691611Y-12171793D01*
X13691611Y-12171793D02*
X13710658Y-12162269D01*
X13777325Y-12114650D02*
X13853515Y-12114650D01*
X13805896Y-12047984D02*
X13805896Y-12219412D01*
X13805896Y-12219412D02*
X13815420Y-12238460D01*
X13815420Y-12238460D02*
X13834468Y-12247984D01*
X13834468Y-12247984D02*
X13853515Y-12247984D01*
X13996373Y-12238460D02*
X13977325Y-12247984D01*
X13977325Y-12247984D02*
X13939230Y-12247984D01*
X13939230Y-12247984D02*
X13920182Y-12238460D01*
X13920182Y-12238460D02*
X13910658Y-12219412D01*
X13910658Y-12219412D02*
X13910658Y-12143222D01*
X13910658Y-12143222D02*
X13920182Y-12124174D01*
X13920182Y-12124174D02*
X13939230Y-12114650D01*
X13939230Y-12114650D02*
X13977325Y-12114650D01*
X13977325Y-12114650D02*
X13996373Y-12124174D01*
X13996373Y-12124174D02*
X14005896Y-12143222D01*
X14005896Y-12143222D02*
X14005896Y-12162269D01*
X14005896Y-12162269D02*
X13910658Y-12181317D01*
X14177325Y-12247984D02*
X14177325Y-12047984D01*
X14177325Y-12238460D02*
X14158277Y-12247984D01*
X14158277Y-12247984D02*
X14120182Y-12247984D01*
X14120182Y-12247984D02*
X14101134Y-12238460D01*
X14101134Y-12238460D02*
X14091611Y-12228936D01*
X14091611Y-12228936D02*
X14082087Y-12209888D01*
X14082087Y-12209888D02*
X14082087Y-12152746D01*
X14082087Y-12152746D02*
X14091611Y-12133698D01*
X14091611Y-12133698D02*
X14101134Y-12124174D01*
X14101134Y-12124174D02*
X14120182Y-12114650D01*
X14120182Y-12114650D02*
X14158277Y-12114650D01*
X14158277Y-12114650D02*
X14177325Y-12124174D01*
X14253515Y-12324174D02*
X14263039Y-12314650D01*
X14263039Y-12314650D02*
X14282087Y-12286079D01*
X14282087Y-12286079D02*
X14291611Y-12267031D01*
X14291611Y-12267031D02*
X14301134Y-12238460D01*
X14301134Y-12238460D02*
X14310658Y-12190841D01*
X14310658Y-12190841D02*
X14310658Y-12152746D01*
X14310658Y-12152746D02*
X14301134Y-12105127D01*
X14301134Y-12105127D02*
X14291611Y-12076555D01*
X14291611Y-12076555D02*
X14282087Y-12057508D01*
X14282087Y-12057508D02*
X14263039Y-12028936D01*
X14263039Y-12028936D02*
X14253515Y-12019412D01*
X7397500Y-12320500D02*
X7397500Y-12520500D01*
X7297500Y-12420500D02*
X7497500Y-12420500D01*
X7739229Y-12311984D02*
X7863039Y-12311984D01*
X7863039Y-12311984D02*
X7796372Y-12388174D01*
X7796372Y-12388174D02*
X7824943Y-12388174D01*
X7824943Y-12388174D02*
X7843991Y-12397698D01*
X7843991Y-12397698D02*
X7853515Y-12407222D01*
X7853515Y-12407222D02*
X7863039Y-12426269D01*
X7863039Y-12426269D02*
X7863039Y-12473888D01*
X7863039Y-12473888D02*
X7853515Y-12492936D01*
X7853515Y-12492936D02*
X7843991Y-12502460D01*
X7843991Y-12502460D02*
X7824943Y-12511984D01*
X7824943Y-12511984D02*
X7767801Y-12511984D01*
X7767801Y-12511984D02*
X7748753Y-12502460D01*
X7748753Y-12502460D02*
X7739229Y-12492936D01*
X7948753Y-12492936D02*
X7958277Y-12502460D01*
X7958277Y-12502460D02*
X7948753Y-12511984D01*
X7948753Y-12511984D02*
X7939229Y-12502460D01*
X7939229Y-12502460D02*
X7948753Y-12492936D01*
X7948753Y-12492936D02*
X7948753Y-12511984D01*
X8082086Y-12311984D02*
X8101134Y-12311984D01*
X8101134Y-12311984D02*
X8120182Y-12321508D01*
X8120182Y-12321508D02*
X8129705Y-12331031D01*
X8129705Y-12331031D02*
X8139229Y-12350079D01*
X8139229Y-12350079D02*
X8148753Y-12388174D01*
X8148753Y-12388174D02*
X8148753Y-12435793D01*
X8148753Y-12435793D02*
X8139229Y-12473888D01*
X8139229Y-12473888D02*
X8129705Y-12492936D01*
X8129705Y-12492936D02*
X8120182Y-12502460D01*
X8120182Y-12502460D02*
X8101134Y-12511984D01*
X8101134Y-12511984D02*
X8082086Y-12511984D01*
X8082086Y-12511984D02*
X8063039Y-12502460D01*
X8063039Y-12502460D02*
X8053515Y-12492936D01*
X8053515Y-12492936D02*
X8043991Y-12473888D01*
X8043991Y-12473888D02*
X8034467Y-12435793D01*
X8034467Y-12435793D02*
X8034467Y-12388174D01*
X8034467Y-12388174D02*
X8043991Y-12350079D01*
X8043991Y-12350079D02*
X8053515Y-12331031D01*
X8053515Y-12331031D02*
X8063039Y-12321508D01*
X8063039Y-12321508D02*
X8082086Y-12311984D01*
X8272562Y-12311984D02*
X8291610Y-12311984D01*
X8291610Y-12311984D02*
X8310658Y-12321508D01*
X8310658Y-12321508D02*
X8320182Y-12331031D01*
X8320182Y-12331031D02*
X8329705Y-12350079D01*
X8329705Y-12350079D02*
X8339229Y-12388174D01*
X8339229Y-12388174D02*
X8339229Y-12435793D01*
X8339229Y-12435793D02*
X8329705Y-12473888D01*
X8329705Y-12473888D02*
X8320182Y-12492936D01*
X8320182Y-12492936D02*
X8310658Y-12502460D01*
X8310658Y-12502460D02*
X8291610Y-12511984D01*
X8291610Y-12511984D02*
X8272562Y-12511984D01*
X8272562Y-12511984D02*
X8253515Y-12502460D01*
X8253515Y-12502460D02*
X8243991Y-12492936D01*
X8243991Y-12492936D02*
X8234467Y-12473888D01*
X8234467Y-12473888D02*
X8224943Y-12435793D01*
X8224943Y-12435793D02*
X8224943Y-12388174D01*
X8224943Y-12388174D02*
X8234467Y-12350079D01*
X8234467Y-12350079D02*
X8243991Y-12331031D01*
X8243991Y-12331031D02*
X8253515Y-12321508D01*
X8253515Y-12321508D02*
X8272562Y-12311984D01*
X8463039Y-12311984D02*
X8482086Y-12311984D01*
X8482086Y-12311984D02*
X8501134Y-12321508D01*
X8501134Y-12321508D02*
X8510658Y-12331031D01*
X8510658Y-12331031D02*
X8520182Y-12350079D01*
X8520182Y-12350079D02*
X8529705Y-12388174D01*
X8529705Y-12388174D02*
X8529705Y-12435793D01*
X8529705Y-12435793D02*
X8520182Y-12473888D01*
X8520182Y-12473888D02*
X8510658Y-12492936D01*
X8510658Y-12492936D02*
X8501134Y-12502460D01*
X8501134Y-12502460D02*
X8482086Y-12511984D01*
X8482086Y-12511984D02*
X8463039Y-12511984D01*
X8463039Y-12511984D02*
X8443991Y-12502460D01*
X8443991Y-12502460D02*
X8434467Y-12492936D01*
X8434467Y-12492936D02*
X8424944Y-12473888D01*
X8424944Y-12473888D02*
X8415420Y-12435793D01*
X8415420Y-12435793D02*
X8415420Y-12388174D01*
X8415420Y-12388174D02*
X8424944Y-12350079D01*
X8424944Y-12350079D02*
X8434467Y-12331031D01*
X8434467Y-12331031D02*
X8443991Y-12321508D01*
X8443991Y-12321508D02*
X8463039Y-12311984D01*
X8615420Y-12511984D02*
X8615420Y-12378650D01*
X8615420Y-12397698D02*
X8624944Y-12388174D01*
X8624944Y-12388174D02*
X8643991Y-12378650D01*
X8643991Y-12378650D02*
X8672563Y-12378650D01*
X8672563Y-12378650D02*
X8691610Y-12388174D01*
X8691610Y-12388174D02*
X8701134Y-12407222D01*
X8701134Y-12407222D02*
X8701134Y-12511984D01*
X8701134Y-12407222D02*
X8710658Y-12388174D01*
X8710658Y-12388174D02*
X8729705Y-12378650D01*
X8729705Y-12378650D02*
X8758277Y-12378650D01*
X8758277Y-12378650D02*
X8777325Y-12388174D01*
X8777325Y-12388174D02*
X8786848Y-12407222D01*
X8786848Y-12407222D02*
X8786848Y-12511984D01*
X8882086Y-12511984D02*
X8882086Y-12378650D01*
X8882086Y-12397698D02*
X8891610Y-12388174D01*
X8891610Y-12388174D02*
X8910658Y-12378650D01*
X8910658Y-12378650D02*
X8939229Y-12378650D01*
X8939229Y-12378650D02*
X8958277Y-12388174D01*
X8958277Y-12388174D02*
X8967801Y-12407222D01*
X8967801Y-12407222D02*
X8967801Y-12511984D01*
X8967801Y-12407222D02*
X8977325Y-12388174D01*
X8977325Y-12388174D02*
X8996372Y-12378650D01*
X8996372Y-12378650D02*
X9024944Y-12378650D01*
X9024944Y-12378650D02*
X9043991Y-12388174D01*
X9043991Y-12388174D02*
X9053515Y-12407222D01*
X9053515Y-12407222D02*
X9053515Y-12511984D01*
X9443991Y-12302460D02*
X9272563Y-12559603D01*
X9701134Y-12311984D02*
X9720182Y-12311984D01*
X9720182Y-12311984D02*
X9739229Y-12321508D01*
X9739229Y-12321508D02*
X9748753Y-12331031D01*
X9748753Y-12331031D02*
X9758277Y-12350079D01*
X9758277Y-12350079D02*
X9767801Y-12388174D01*
X9767801Y-12388174D02*
X9767801Y-12435793D01*
X9767801Y-12435793D02*
X9758277Y-12473888D01*
X9758277Y-12473888D02*
X9748753Y-12492936D01*
X9748753Y-12492936D02*
X9739229Y-12502460D01*
X9739229Y-12502460D02*
X9720182Y-12511984D01*
X9720182Y-12511984D02*
X9701134Y-12511984D01*
X9701134Y-12511984D02*
X9682087Y-12502460D01*
X9682087Y-12502460D02*
X9672563Y-12492936D01*
X9672563Y-12492936D02*
X9663039Y-12473888D01*
X9663039Y-12473888D02*
X9653515Y-12435793D01*
X9653515Y-12435793D02*
X9653515Y-12388174D01*
X9653515Y-12388174D02*
X9663039Y-12350079D01*
X9663039Y-12350079D02*
X9672563Y-12331031D01*
X9672563Y-12331031D02*
X9682087Y-12321508D01*
X9682087Y-12321508D02*
X9701134Y-12311984D01*
X9853515Y-12492936D02*
X9863039Y-12502460D01*
X9863039Y-12502460D02*
X9853515Y-12511984D01*
X9853515Y-12511984D02*
X9843991Y-12502460D01*
X9843991Y-12502460D02*
X9853515Y-12492936D01*
X9853515Y-12492936D02*
X9853515Y-12511984D01*
X10053515Y-12511984D02*
X9939229Y-12511984D01*
X9996372Y-12511984D02*
X9996372Y-12311984D01*
X9996372Y-12311984D02*
X9977325Y-12340555D01*
X9977325Y-12340555D02*
X9958277Y-12359603D01*
X9958277Y-12359603D02*
X9939229Y-12369127D01*
X10243991Y-12511984D02*
X10129706Y-12511984D01*
X10186848Y-12511984D02*
X10186848Y-12311984D01*
X10186848Y-12311984D02*
X10167801Y-12340555D01*
X10167801Y-12340555D02*
X10148753Y-12359603D01*
X10148753Y-12359603D02*
X10129706Y-12369127D01*
X10358277Y-12397698D02*
X10339229Y-12388174D01*
X10339229Y-12388174D02*
X10329706Y-12378650D01*
X10329706Y-12378650D02*
X10320182Y-12359603D01*
X10320182Y-12359603D02*
X10320182Y-12350079D01*
X10320182Y-12350079D02*
X10329706Y-12331031D01*
X10329706Y-12331031D02*
X10339229Y-12321508D01*
X10339229Y-12321508D02*
X10358277Y-12311984D01*
X10358277Y-12311984D02*
X10396372Y-12311984D01*
X10396372Y-12311984D02*
X10415420Y-12321508D01*
X10415420Y-12321508D02*
X10424944Y-12331031D01*
X10424944Y-12331031D02*
X10434468Y-12350079D01*
X10434468Y-12350079D02*
X10434468Y-12359603D01*
X10434468Y-12359603D02*
X10424944Y-12378650D01*
X10424944Y-12378650D02*
X10415420Y-12388174D01*
X10415420Y-12388174D02*
X10396372Y-12397698D01*
X10396372Y-12397698D02*
X10358277Y-12397698D01*
X10358277Y-12397698D02*
X10339229Y-12407222D01*
X10339229Y-12407222D02*
X10329706Y-12416746D01*
X10329706Y-12416746D02*
X10320182Y-12435793D01*
X10320182Y-12435793D02*
X10320182Y-12473888D01*
X10320182Y-12473888D02*
X10329706Y-12492936D01*
X10329706Y-12492936D02*
X10339229Y-12502460D01*
X10339229Y-12502460D02*
X10358277Y-12511984D01*
X10358277Y-12511984D02*
X10396372Y-12511984D01*
X10396372Y-12511984D02*
X10415420Y-12502460D01*
X10415420Y-12502460D02*
X10424944Y-12492936D01*
X10424944Y-12492936D02*
X10434468Y-12473888D01*
X10434468Y-12473888D02*
X10434468Y-12435793D01*
X10434468Y-12435793D02*
X10424944Y-12416746D01*
X10424944Y-12416746D02*
X10415420Y-12407222D01*
X10415420Y-12407222D02*
X10396372Y-12397698D01*
X10624944Y-12511984D02*
X10510658Y-12511984D01*
X10567801Y-12511984D02*
X10567801Y-12311984D01*
X10567801Y-12311984D02*
X10548753Y-12340555D01*
X10548753Y-12340555D02*
X10529706Y-12359603D01*
X10529706Y-12359603D02*
X10510658Y-12369127D01*
X10701134Y-12311984D02*
X10701134Y-12350079D01*
X10777325Y-12311984D02*
X10777325Y-12350079D01*
X11072563Y-12588174D02*
X11063039Y-12578650D01*
X11063039Y-12578650D02*
X11043991Y-12550079D01*
X11043991Y-12550079D02*
X11034468Y-12531031D01*
X11034468Y-12531031D02*
X11024944Y-12502460D01*
X11024944Y-12502460D02*
X11015420Y-12454841D01*
X11015420Y-12454841D02*
X11015420Y-12416746D01*
X11015420Y-12416746D02*
X11024944Y-12369127D01*
X11024944Y-12369127D02*
X11034468Y-12340555D01*
X11034468Y-12340555D02*
X11043991Y-12321508D01*
X11043991Y-12321508D02*
X11063039Y-12292936D01*
X11063039Y-12292936D02*
X11072563Y-12283412D01*
X11234468Y-12378650D02*
X11234468Y-12511984D01*
X11186848Y-12302460D02*
X11139230Y-12445317D01*
X11139230Y-12445317D02*
X11263039Y-12445317D01*
X11491610Y-12511984D02*
X11491610Y-12311984D01*
X11577325Y-12511984D02*
X11577325Y-12407222D01*
X11577325Y-12407222D02*
X11567801Y-12388174D01*
X11567801Y-12388174D02*
X11548753Y-12378650D01*
X11548753Y-12378650D02*
X11520182Y-12378650D01*
X11520182Y-12378650D02*
X11501134Y-12388174D01*
X11501134Y-12388174D02*
X11491610Y-12397698D01*
X11701134Y-12511984D02*
X11682087Y-12502460D01*
X11682087Y-12502460D02*
X11672563Y-12492936D01*
X11672563Y-12492936D02*
X11663039Y-12473888D01*
X11663039Y-12473888D02*
X11663039Y-12416746D01*
X11663039Y-12416746D02*
X11672563Y-12397698D01*
X11672563Y-12397698D02*
X11682087Y-12388174D01*
X11682087Y-12388174D02*
X11701134Y-12378650D01*
X11701134Y-12378650D02*
X11729706Y-12378650D01*
X11729706Y-12378650D02*
X11748753Y-12388174D01*
X11748753Y-12388174D02*
X11758277Y-12397698D01*
X11758277Y-12397698D02*
X11767801Y-12416746D01*
X11767801Y-12416746D02*
X11767801Y-12473888D01*
X11767801Y-12473888D02*
X11758277Y-12492936D01*
X11758277Y-12492936D02*
X11748753Y-12502460D01*
X11748753Y-12502460D02*
X11729706Y-12511984D01*
X11729706Y-12511984D02*
X11701134Y-12511984D01*
X11882087Y-12511984D02*
X11863039Y-12502460D01*
X11863039Y-12502460D02*
X11853515Y-12483412D01*
X11853515Y-12483412D02*
X11853515Y-12311984D01*
X12034468Y-12502460D02*
X12015420Y-12511984D01*
X12015420Y-12511984D02*
X11977325Y-12511984D01*
X11977325Y-12511984D02*
X11958277Y-12502460D01*
X11958277Y-12502460D02*
X11948753Y-12483412D01*
X11948753Y-12483412D02*
X11948753Y-12407222D01*
X11948753Y-12407222D02*
X11958277Y-12388174D01*
X11958277Y-12388174D02*
X11977325Y-12378650D01*
X11977325Y-12378650D02*
X12015420Y-12378650D01*
X12015420Y-12378650D02*
X12034468Y-12388174D01*
X12034468Y-12388174D02*
X12043991Y-12407222D01*
X12043991Y-12407222D02*
X12043991Y-12426269D01*
X12043991Y-12426269D02*
X11948753Y-12445317D01*
X12120182Y-12502460D02*
X12139230Y-12511984D01*
X12139230Y-12511984D02*
X12177325Y-12511984D01*
X12177325Y-12511984D02*
X12196372Y-12502460D01*
X12196372Y-12502460D02*
X12205896Y-12483412D01*
X12205896Y-12483412D02*
X12205896Y-12473888D01*
X12205896Y-12473888D02*
X12196372Y-12454841D01*
X12196372Y-12454841D02*
X12177325Y-12445317D01*
X12177325Y-12445317D02*
X12148753Y-12445317D01*
X12148753Y-12445317D02*
X12129706Y-12435793D01*
X12129706Y-12435793D02*
X12120182Y-12416746D01*
X12120182Y-12416746D02*
X12120182Y-12407222D01*
X12120182Y-12407222D02*
X12129706Y-12388174D01*
X12129706Y-12388174D02*
X12148753Y-12378650D01*
X12148753Y-12378650D02*
X12177325Y-12378650D01*
X12177325Y-12378650D02*
X12196372Y-12388174D01*
X12272563Y-12588174D02*
X12282087Y-12578650D01*
X12282087Y-12578650D02*
X12301134Y-12550079D01*
X12301134Y-12550079D02*
X12310658Y-12531031D01*
X12310658Y-12531031D02*
X12320182Y-12502460D01*
X12320182Y-12502460D02*
X12329706Y-12454841D01*
X12329706Y-12454841D02*
X12329706Y-12416746D01*
X12329706Y-12416746D02*
X12320182Y-12369127D01*
X12320182Y-12369127D02*
X12310658Y-12340555D01*
X12310658Y-12340555D02*
X12301134Y-12321508D01*
X12301134Y-12321508D02*
X12282087Y-12292936D01*
X12282087Y-12292936D02*
X12272563Y-12283412D01*
X12634468Y-12588174D02*
X12624944Y-12578650D01*
X12624944Y-12578650D02*
X12605896Y-12550079D01*
X12605896Y-12550079D02*
X12596372Y-12531031D01*
X12596372Y-12531031D02*
X12586849Y-12502460D01*
X12586849Y-12502460D02*
X12577325Y-12454841D01*
X12577325Y-12454841D02*
X12577325Y-12416746D01*
X12577325Y-12416746D02*
X12586849Y-12369127D01*
X12586849Y-12369127D02*
X12596372Y-12340555D01*
X12596372Y-12340555D02*
X12605896Y-12321508D01*
X12605896Y-12321508D02*
X12624944Y-12292936D01*
X12624944Y-12292936D02*
X12634468Y-12283412D01*
X12710658Y-12378650D02*
X12710658Y-12511984D01*
X12710658Y-12397698D02*
X12720182Y-12388174D01*
X12720182Y-12388174D02*
X12739230Y-12378650D01*
X12739230Y-12378650D02*
X12767801Y-12378650D01*
X12767801Y-12378650D02*
X12786849Y-12388174D01*
X12786849Y-12388174D02*
X12796372Y-12407222D01*
X12796372Y-12407222D02*
X12796372Y-12511984D01*
X12920182Y-12511984D02*
X12901134Y-12502460D01*
X12901134Y-12502460D02*
X12891611Y-12492936D01*
X12891611Y-12492936D02*
X12882087Y-12473888D01*
X12882087Y-12473888D02*
X12882087Y-12416746D01*
X12882087Y-12416746D02*
X12891611Y-12397698D01*
X12891611Y-12397698D02*
X12901134Y-12388174D01*
X12901134Y-12388174D02*
X12920182Y-12378650D01*
X12920182Y-12378650D02*
X12948753Y-12378650D01*
X12948753Y-12378650D02*
X12967801Y-12388174D01*
X12967801Y-12388174D02*
X12977325Y-12397698D01*
X12977325Y-12397698D02*
X12986849Y-12416746D01*
X12986849Y-12416746D02*
X12986849Y-12473888D01*
X12986849Y-12473888D02*
X12977325Y-12492936D01*
X12977325Y-12492936D02*
X12967801Y-12502460D01*
X12967801Y-12502460D02*
X12948753Y-12511984D01*
X12948753Y-12511984D02*
X12920182Y-12511984D01*
X13043992Y-12378650D02*
X13120182Y-12378650D01*
X13072563Y-12311984D02*
X13072563Y-12483412D01*
X13072563Y-12483412D02*
X13082087Y-12502460D01*
X13082087Y-12502460D02*
X13101134Y-12511984D01*
X13101134Y-12511984D02*
X13120182Y-12511984D01*
X13339230Y-12378650D02*
X13339230Y-12578650D01*
X13339230Y-12388174D02*
X13358277Y-12378650D01*
X13358277Y-12378650D02*
X13396373Y-12378650D01*
X13396373Y-12378650D02*
X13415420Y-12388174D01*
X13415420Y-12388174D02*
X13424944Y-12397698D01*
X13424944Y-12397698D02*
X13434468Y-12416746D01*
X13434468Y-12416746D02*
X13434468Y-12473888D01*
X13434468Y-12473888D02*
X13424944Y-12492936D01*
X13424944Y-12492936D02*
X13415420Y-12502460D01*
X13415420Y-12502460D02*
X13396373Y-12511984D01*
X13396373Y-12511984D02*
X13358277Y-12511984D01*
X13358277Y-12511984D02*
X13339230Y-12502460D01*
X13548753Y-12511984D02*
X13529706Y-12502460D01*
X13529706Y-12502460D02*
X13520182Y-12483412D01*
X13520182Y-12483412D02*
X13520182Y-12311984D01*
X13710658Y-12511984D02*
X13710658Y-12407222D01*
X13710658Y-12407222D02*
X13701134Y-12388174D01*
X13701134Y-12388174D02*
X13682087Y-12378650D01*
X13682087Y-12378650D02*
X13643992Y-12378650D01*
X13643992Y-12378650D02*
X13624944Y-12388174D01*
X13710658Y-12502460D02*
X13691611Y-12511984D01*
X13691611Y-12511984D02*
X13643992Y-12511984D01*
X13643992Y-12511984D02*
X13624944Y-12502460D01*
X13624944Y-12502460D02*
X13615420Y-12483412D01*
X13615420Y-12483412D02*
X13615420Y-12464365D01*
X13615420Y-12464365D02*
X13624944Y-12445317D01*
X13624944Y-12445317D02*
X13643992Y-12435793D01*
X13643992Y-12435793D02*
X13691611Y-12435793D01*
X13691611Y-12435793D02*
X13710658Y-12426269D01*
X13777325Y-12378650D02*
X13853515Y-12378650D01*
X13805896Y-12311984D02*
X13805896Y-12483412D01*
X13805896Y-12483412D02*
X13815420Y-12502460D01*
X13815420Y-12502460D02*
X13834468Y-12511984D01*
X13834468Y-12511984D02*
X13853515Y-12511984D01*
X13996373Y-12502460D02*
X13977325Y-12511984D01*
X13977325Y-12511984D02*
X13939230Y-12511984D01*
X13939230Y-12511984D02*
X13920182Y-12502460D01*
X13920182Y-12502460D02*
X13910658Y-12483412D01*
X13910658Y-12483412D02*
X13910658Y-12407222D01*
X13910658Y-12407222D02*
X13920182Y-12388174D01*
X13920182Y-12388174D02*
X13939230Y-12378650D01*
X13939230Y-12378650D02*
X13977325Y-12378650D01*
X13977325Y-12378650D02*
X13996373Y-12388174D01*
X13996373Y-12388174D02*
X14005896Y-12407222D01*
X14005896Y-12407222D02*
X14005896Y-12426269D01*
X14005896Y-12426269D02*
X13910658Y-12445317D01*
X14177325Y-12511984D02*
X14177325Y-12311984D01*
X14177325Y-12502460D02*
X14158277Y-12511984D01*
X14158277Y-12511984D02*
X14120182Y-12511984D01*
X14120182Y-12511984D02*
X14101134Y-12502460D01*
X14101134Y-12502460D02*
X14091611Y-12492936D01*
X14091611Y-12492936D02*
X14082087Y-12473888D01*
X14082087Y-12473888D02*
X14082087Y-12416746D01*
X14082087Y-12416746D02*
X14091611Y-12397698D01*
X14091611Y-12397698D02*
X14101134Y-12388174D01*
X14101134Y-12388174D02*
X14120182Y-12378650D01*
X14120182Y-12378650D02*
X14158277Y-12378650D01*
X14158277Y-12378650D02*
X14177325Y-12388174D01*
X14253515Y-12588174D02*
X14263039Y-12578650D01*
X14263039Y-12578650D02*
X14282087Y-12550079D01*
X14282087Y-12550079D02*
X14291611Y-12531031D01*
X14291611Y-12531031D02*
X14301134Y-12502460D01*
X14301134Y-12502460D02*
X14310658Y-12454841D01*
X14310658Y-12454841D02*
X14310658Y-12416746D01*
X14310658Y-12416746D02*
X14301134Y-12369127D01*
X14301134Y-12369127D02*
X14291611Y-12340555D01*
X14291611Y-12340555D02*
X14282087Y-12321508D01*
X14282087Y-12321508D02*
X14263039Y-12292936D01*
X14263039Y-12292936D02*
X14253515Y-12283412D01*
M02*
