%TF.GenerationSoftware,KiCad,Pcbnew,9.0.0*%
%TF.CreationDate,2025-04-24T22:15:06+07:00*%
%TF.ProjectId,Controll_,436f6e74-726f-46c6-9cbb-2e6b69636164,rev?*%
%TF.SameCoordinates,Original*%
%TF.FileFunction,Copper,L2,Bot*%
%TF.FilePolarity,Positive*%
%FSLAX46Y46*%
G04 Gerber Fmt 4.6, Leading zero omitted, Abs format (unit mm)*
G04 Created by KiCad (PCBNEW 9.0.0) date 2025-04-24 22:15:06*
%MOMM*%
%LPD*%
G01*
G04 APERTURE LIST*
G04 Aperture macros list*
%AMRoundRect*
0 Rectangle with rounded corners*
0 $1 Rounding radius*
0 $2 $3 $4 $5 $6 $7 $8 $9 X,Y pos of 4 corners*
0 Add a 4 corners polygon primitive as box body*
4,1,4,$2,$3,$4,$5,$6,$7,$8,$9,$2,$3,0*
0 Add four circle primitives for the rounded corners*
1,1,$1+$1,$2,$3*
1,1,$1+$1,$4,$5*
1,1,$1+$1,$6,$7*
1,1,$1+$1,$8,$9*
0 Add four rect primitives between the rounded corners*
20,1,$1+$1,$2,$3,$4,$5,0*
20,1,$1+$1,$4,$5,$6,$7,0*
20,1,$1+$1,$6,$7,$8,$9,0*
20,1,$1+$1,$8,$9,$2,$3,0*%
G04 Aperture macros list end*
%TA.AperFunction,ComponentPad*%
%ADD10C,2.100000*%
%TD*%
%TA.AperFunction,ComponentPad*%
%ADD11C,1.750000*%
%TD*%
%TA.AperFunction,ComponentPad*%
%ADD12C,1.778000*%
%TD*%
%TA.AperFunction,ComponentPad*%
%ADD13C,2.286000*%
%TD*%
%TA.AperFunction,HeatsinkPad*%
%ADD14C,0.600000*%
%TD*%
%TA.AperFunction,ComponentPad*%
%ADD15R,1.700000X1.700000*%
%TD*%
%TA.AperFunction,ComponentPad*%
%ADD16O,1.700000X1.700000*%
%TD*%
%TA.AperFunction,SMDPad,CuDef*%
%ADD17RoundRect,0.250000X-0.475000X0.250000X-0.475000X-0.250000X0.475000X-0.250000X0.475000X0.250000X0*%
%TD*%
%TA.AperFunction,SMDPad,CuDef*%
%ADD18RoundRect,0.250000X0.250000X0.475000X-0.250000X0.475000X-0.250000X-0.475000X0.250000X-0.475000X0*%
%TD*%
%TA.AperFunction,SMDPad,CuDef*%
%ADD19RoundRect,0.250000X-0.450000X0.262500X-0.450000X-0.262500X0.450000X-0.262500X0.450000X0.262500X0*%
%TD*%
%TA.AperFunction,SMDPad,CuDef*%
%ADD20RoundRect,0.250000X-0.250000X-0.475000X0.250000X-0.475000X0.250000X0.475000X-0.250000X0.475000X0*%
%TD*%
%TA.AperFunction,SMDPad,CuDef*%
%ADD21RoundRect,0.243750X-0.243750X-0.456250X0.243750X-0.456250X0.243750X0.456250X-0.243750X0.456250X0*%
%TD*%
%TA.AperFunction,SMDPad,CuDef*%
%ADD22R,0.600000X1.240000*%
%TD*%
%TA.AperFunction,SMDPad,CuDef*%
%ADD23R,0.300000X1.240000*%
%TD*%
%TA.AperFunction,HeatsinkPad*%
%ADD24O,1.000000X1.800000*%
%TD*%
%TA.AperFunction,HeatsinkPad*%
%ADD25O,1.000000X2.100000*%
%TD*%
%TA.AperFunction,SMDPad,CuDef*%
%ADD26RoundRect,0.375000X0.375000X-0.625000X0.375000X0.625000X-0.375000X0.625000X-0.375000X-0.625000X0*%
%TD*%
%TA.AperFunction,SMDPad,CuDef*%
%ADD27RoundRect,0.500000X1.400000X-0.500000X1.400000X0.500000X-1.400000X0.500000X-1.400000X-0.500000X0*%
%TD*%
%TA.AperFunction,ViaPad*%
%ADD28C,0.600000*%
%TD*%
%TA.AperFunction,ViaPad*%
%ADD29C,0.750000*%
%TD*%
%TA.AperFunction,ViaPad*%
%ADD30C,0.250000*%
%TD*%
%TA.AperFunction,ViaPad*%
%ADD31C,0.500000*%
%TD*%
%TA.AperFunction,Conductor*%
%ADD32C,0.750000*%
%TD*%
%TA.AperFunction,Conductor*%
%ADD33C,1.000000*%
%TD*%
%TA.AperFunction,Conductor*%
%ADD34C,0.500000*%
%TD*%
G04 APERTURE END LIST*
D10*
%TO.P,SW6,*%
%TO.N,*%
X92176565Y-68393723D03*
X97775000Y-64175000D03*
D11*
%TO.P,SW6,1,1*%
%TO.N,SW5*%
X91676340Y-65652852D03*
%TO.P,SW6,2,2*%
%TO.N,GND*%
X95270201Y-62944684D03*
%TD*%
D12*
%TO.P,U1,B1A,SEL+*%
%TO.N,unconnected-(U1-SEL+-PadB1A)*%
X91955000Y-76382500D03*
%TO.P,U1,B1B*%
%TO.N,N/C*%
X98305000Y-76382500D03*
%TO.P,U1,B2A,SEL-*%
%TO.N,unconnected-(U1-SEL--PadB2A)*%
X91955000Y-81462500D03*
%TO.P,U1,B2B*%
%TO.N,N/C*%
X98305000Y-81462500D03*
%TO.P,U1,H1,H+*%
%TO.N,+3.3V*%
X92590000Y-99242500D03*
%TO.P,U1,H2,H*%
%TO.N,Hori 1*%
X95130000Y-99242500D03*
%TO.P,U1,H3,H-*%
%TO.N,GND*%
X97670000Y-99242500D03*
D13*
%TO.P,U1,S1,SHIELD*%
%TO.N,unconnected-(U1-SHIELD-PadS1)_1*%
X87510000Y-82415000D03*
%TO.P,U1,S2,SHIELD*%
%TO.N,unconnected-(U1-SHIELD-PadS1)*%
X87510000Y-95750000D03*
%TO.P,U1,S3,SHIELD*%
%TO.N,unconnected-(U1-SHIELD-PadS1)_2*%
X102750000Y-95750000D03*
%TO.P,U1,S4,SHIELD*%
%TO.N,unconnected-(U1-SHIELD-PadS1)_3*%
X102750000Y-82415000D03*
D12*
%TO.P,U1,V1,V+*%
%TO.N,+3.3V*%
X84970000Y-86542500D03*
%TO.P,U1,V2,V*%
%TO.N,Vert 1*%
X84970000Y-89082500D03*
%TO.P,U1,V3,V-*%
%TO.N,GND*%
X84970000Y-91622500D03*
%TD*%
D10*
%TO.P,SW7,*%
%TO.N,*%
X177350000Y-63975000D03*
X182948434Y-68193724D03*
D11*
%TO.P,SW7,1,1*%
%TO.N,SW6*%
X179846813Y-62738667D03*
%TO.P,SW7,2,2*%
%TO.N,GND*%
X183440673Y-65446834D03*
%TD*%
D14*
%TO.P,U5,39,GND*%
%TO.N,GND*%
X135700000Y-63987500D03*
X135700000Y-65512500D03*
X136462500Y-63225000D03*
X136462500Y-64750000D03*
X136462500Y-66275000D03*
X137225000Y-63987500D03*
X137225000Y-65512500D03*
X137987500Y-63225000D03*
X137987500Y-64750000D03*
X137987500Y-66275000D03*
X138750000Y-63987500D03*
X138750000Y-65512500D03*
%TD*%
D15*
%TO.P,J2,1,Pin_1*%
%TO.N,unconnected-(J2-Pin_1-Pad1)*%
X150475000Y-58375000D03*
D16*
%TO.P,J2,2,Pin_2*%
%TO.N,unconnected-(J2-Pin_2-Pad2)*%
X153015000Y-58375000D03*
%TO.P,J2,3,Pin_3*%
%TO.N,unconnected-(J2-Pin_3-Pad3)*%
X155555000Y-58375000D03*
%TO.P,J2,4,Pin_4*%
%TO.N,unconnected-(J2-Pin_4-Pad4)*%
X158095000Y-58375000D03*
%TO.P,J2,5,Pin_5*%
%TO.N,SDA*%
X160635000Y-58375000D03*
%TO.P,J2,6,Pin_6*%
%TO.N,SCL*%
X163175000Y-58375000D03*
%TO.P,J2,7,Pin_7*%
%TO.N,GND*%
X165715000Y-58375000D03*
%TO.P,J2,8,Pin_8*%
%TO.N,+3.3V*%
X168255000Y-58375000D03*
%TD*%
D12*
%TO.P,U2,B1A,SEL+*%
%TO.N,unconnected-(U2-SEL+-PadB1A)*%
X176575000Y-76300000D03*
%TO.P,U2,B1B*%
%TO.N,N/C*%
X182925000Y-76300000D03*
%TO.P,U2,B2A,SEL-*%
%TO.N,unconnected-(U2-SEL--PadB2A)*%
X176575000Y-81380000D03*
%TO.P,U2,B2B*%
%TO.N,N/C*%
X182925000Y-81380000D03*
%TO.P,U2,H1,H+*%
%TO.N,+3.3V*%
X177210000Y-99160000D03*
%TO.P,U2,H2,H*%
%TO.N,Hori 2*%
X179750000Y-99160000D03*
%TO.P,U2,H3,H-*%
%TO.N,GND*%
X182290000Y-99160000D03*
D13*
%TO.P,U2,S1,SHIELD*%
%TO.N,unconnected-(U2-SHIELD-PadS1)_2*%
X172130000Y-82332500D03*
%TO.P,U2,S2,SHIELD*%
%TO.N,unconnected-(U2-SHIELD-PadS1)_3*%
X172130000Y-95667500D03*
%TO.P,U2,S3,SHIELD*%
%TO.N,unconnected-(U2-SHIELD-PadS1)_1*%
X187370000Y-95667500D03*
%TO.P,U2,S4,SHIELD*%
%TO.N,unconnected-(U2-SHIELD-PadS1)*%
X187370000Y-82332500D03*
D12*
%TO.P,U2,V1,V+*%
%TO.N,+3.3V*%
X169590000Y-86460000D03*
%TO.P,U2,V2,V*%
%TO.N,Vert 2*%
X169590000Y-89000000D03*
%TO.P,U2,V3,V-*%
%TO.N,GND*%
X169590000Y-91540000D03*
%TD*%
D17*
%TO.P,C6,1*%
%TO.N,+3.3V*%
X152440000Y-102520000D03*
%TO.P,C6,2*%
%TO.N,GND*%
X152440000Y-104420000D03*
%TD*%
D15*
%TO.P,J1,1,Pin_1*%
%TO.N,+3.7V*%
X157400000Y-109950000D03*
D16*
%TO.P,J1,2,Pin_2*%
%TO.N,GND*%
X154860000Y-109950000D03*
%TD*%
D15*
%TO.P,J6,1,Pin_1*%
%TO.N,unconnected-(J6-Pin_1-Pad1)*%
X119150000Y-88775000D03*
D16*
%TO.P,J6,2,Pin_2*%
%TO.N,GND*%
X121690000Y-88775000D03*
%TD*%
D18*
%TO.P,C2,1*%
%TO.N,+3.7V*%
X150150000Y-102760000D03*
%TO.P,C2,2*%
%TO.N,GND*%
X148250000Y-102760000D03*
%TD*%
D19*
%TO.P,R4,1*%
%TO.N,Net-(D8-K)*%
X117050000Y-63187500D03*
%TO.P,R4,2*%
%TO.N,GND*%
X117050000Y-65012500D03*
%TD*%
D18*
%TO.P,C1,1*%
%TO.N,+3.7V*%
X150150000Y-104740000D03*
%TO.P,C1,2*%
%TO.N,GND*%
X148250000Y-104740000D03*
%TD*%
D19*
%TO.P,R1,1*%
%TO.N,Net-(D5-K)*%
X110250000Y-63190000D03*
%TO.P,R1,2*%
%TO.N,GND*%
X110250000Y-65015000D03*
%TD*%
D20*
%TO.P,C4,1*%
%TO.N,+3.3V*%
X152460000Y-89950000D03*
%TO.P,C4,2*%
%TO.N,GND*%
X154360000Y-89950000D03*
%TD*%
D21*
%TO.P,D4,1,K*%
%TO.N,Net-(D3-A)*%
X118537500Y-58452500D03*
%TO.P,D4,2,A*%
%TO.N,+3.3V*%
X120412500Y-58452500D03*
%TD*%
D19*
%TO.P,R3,1*%
%TO.N,Net-(D7-K)*%
X114775000Y-63190000D03*
%TO.P,R3,2*%
%TO.N,GND*%
X114775000Y-65015000D03*
%TD*%
D22*
%TO.P,P2,A1,GND*%
%TO.N,GND*%
X142475000Y-106335000D03*
%TO.P,P2,A4,VBUS*%
%TO.N,+5V*%
X141675000Y-106335000D03*
D23*
%TO.P,P2,A5,CC*%
%TO.N,Net-(P2-CC)*%
X140525000Y-106335000D03*
%TO.P,P2,A6,D+*%
%TO.N,Net-(P2-D+)*%
X139525000Y-106335000D03*
%TO.P,P2,A7,D-*%
%TO.N,Net-(P2-D-)*%
X139025000Y-106335000D03*
%TO.P,P2,A8*%
%TO.N,N/C*%
X138025000Y-106335000D03*
D22*
%TO.P,P2,A9,VBUS*%
%TO.N,+5V*%
X136875000Y-106335000D03*
%TO.P,P2,A12,GND*%
%TO.N,GND*%
X136075000Y-106335000D03*
%TO.P,P2,B1,GND*%
X136075000Y-106335000D03*
%TO.P,P2,B4,VBUS*%
%TO.N,+5V*%
X136875000Y-106335000D03*
D23*
%TO.P,P2,B5,VCONN*%
%TO.N,unconnected-(P2-VCONN-PadB5)*%
X137525000Y-106335000D03*
%TO.P,P2,B6*%
%TO.N,N/C*%
X138525000Y-106335000D03*
%TO.P,P2,B7*%
X140025000Y-106335000D03*
%TO.P,P2,B8*%
X141025000Y-106335000D03*
D22*
%TO.P,P2,B9,VBUS*%
%TO.N,+5V*%
X141675000Y-106335000D03*
%TO.P,P2,B12,GND*%
%TO.N,GND*%
X142475000Y-106335000D03*
D24*
%TO.P,P2,S1,SHIELD*%
%TO.N,unconnected-(P2-SHIELD-PadS1)_1*%
X143595000Y-111135000D03*
D25*
%TO.N,unconnected-(P2-SHIELD-PadS1)*%
X143595000Y-106935000D03*
D24*
%TO.N,unconnected-(P2-SHIELD-PadS1)_3*%
X134955000Y-111135000D03*
D25*
%TO.N,unconnected-(P2-SHIELD-PadS1)_2*%
X134955000Y-106935000D03*
%TD*%
D15*
%TO.P,J5,1,Pin_1*%
%TO.N,+3.7V*%
X107700000Y-88775000D03*
D16*
%TO.P,J5,2,Pin_2*%
%TO.N,unconnected-(J5-Pin_2-Pad2)*%
X110240000Y-88775000D03*
%TD*%
D19*
%TO.P,R2,1*%
%TO.N,Net-(D6-K)*%
X112475000Y-63190000D03*
%TO.P,R2,2*%
%TO.N,GND*%
X112475000Y-65015000D03*
%TD*%
D21*
%TO.P,D1,1,K*%
%TO.N,Net-(D1-K)*%
X108375000Y-58477500D03*
%TO.P,D1,2,A*%
%TO.N,Net-(D1-A)*%
X110250000Y-58477500D03*
%TD*%
%TO.P,D3,1,K*%
%TO.N,Net-(D2-A)*%
X115112500Y-58452500D03*
%TO.P,D3,2,A*%
%TO.N,Net-(D3-A)*%
X116987500Y-58452500D03*
%TD*%
D20*
%TO.P,C3,1*%
%TO.N,+3.3V*%
X152450000Y-91910000D03*
%TO.P,C3,2*%
%TO.N,GND*%
X154350000Y-91910000D03*
%TD*%
D26*
%TO.P,U3,1,GND*%
%TO.N,GND*%
X154750000Y-100475000D03*
%TO.P,U3,2,VO*%
%TO.N,+3.3V*%
X152450000Y-100475000D03*
D27*
X152450000Y-94175000D03*
D26*
%TO.P,U3,3,VI*%
%TO.N,+3.7V*%
X150150000Y-100475000D03*
%TD*%
D21*
%TO.P,D2,1,K*%
%TO.N,Net-(D1-A)*%
X111750000Y-58477500D03*
%TO.P,D2,2,A*%
%TO.N,Net-(D2-A)*%
X113625000Y-58477500D03*
%TD*%
D19*
%TO.P,R5,1*%
%TO.N,Net-(D9-K)*%
X119325000Y-63190000D03*
%TO.P,R5,2*%
%TO.N,GND*%
X119325000Y-65015000D03*
%TD*%
D28*
%TO.N,GND*%
X106400000Y-74575000D03*
X146655000Y-57410000D03*
X132195000Y-75170000D03*
X88100000Y-102450000D03*
X113975000Y-87000000D03*
X170675000Y-101650000D03*
X180600000Y-85925000D03*
X144325000Y-81150000D03*
X98225000Y-107250000D03*
X107875000Y-72375000D03*
X128825000Y-104000000D03*
X104700000Y-74550000D03*
X160375000Y-103875000D03*
X116000000Y-84675000D03*
X116850000Y-106425000D03*
X130700000Y-88300000D03*
X194750000Y-89950000D03*
X147100000Y-98625000D03*
X164375000Y-103075000D03*
X108225000Y-83725000D03*
X105450000Y-88725000D03*
X146100000Y-87600000D03*
X86200000Y-75575000D03*
X127925000Y-86900000D03*
X108175000Y-70450000D03*
X182725000Y-91275000D03*
X129155000Y-57410000D03*
X105900000Y-81600000D03*
X80275000Y-84775000D03*
X145875000Y-100175000D03*
X185400000Y-89825000D03*
X130700000Y-104450000D03*
X103275000Y-109050000D03*
X189750000Y-101525000D03*
X91100000Y-70875000D03*
X177025000Y-70000000D03*
X127975000Y-98250000D03*
X146025000Y-84575000D03*
X157225000Y-83625000D03*
X146325000Y-78925000D03*
X142200000Y-87375000D03*
X98800000Y-87050000D03*
X83400000Y-80250000D03*
X126100000Y-107450000D03*
X131950000Y-86150000D03*
X160375000Y-84575000D03*
X173350000Y-106775000D03*
X175600000Y-106100000D03*
X145375000Y-82550000D03*
X129675000Y-98900000D03*
X187850000Y-72550000D03*
X160375000Y-90150000D03*
X146325000Y-97075000D03*
X112775000Y-72875000D03*
X181375000Y-106000000D03*
X88600000Y-90125000D03*
X153900000Y-84800000D03*
X100650000Y-91350000D03*
X102725000Y-100775000D03*
X86525000Y-71775000D03*
X115300000Y-70650000D03*
X129575000Y-89025000D03*
D29*
%TO.N,+3.3V*%
X133935000Y-90037500D03*
X119275000Y-60352500D03*
X137745000Y-94987500D03*
X129155000Y-58680000D03*
%TO.N,Hori 2*%
X158050000Y-69250000D03*
D28*
X129155000Y-65030000D03*
D29*
%TO.N,Net-(D1-K)*%
X110275000Y-60352500D03*
%TO.N,Net-(D1-A)*%
X112525000Y-60352500D03*
%TO.N,Net-(D2-A)*%
X114775000Y-60352500D03*
%TO.N,Net-(D3-A)*%
X117025000Y-60352500D03*
%TO.N,Net-(D5-K)*%
X110250000Y-63190000D03*
D30*
%TO.N,Net-(P2-D-)*%
X139025000Y-106335000D03*
D29*
%TO.N,SW5*%
X122775000Y-58550000D03*
X123450000Y-73725000D03*
D30*
%TO.N,Net-(P2-D+)*%
X139525000Y-106335000D03*
D31*
%TO.N,SW6*%
X145227000Y-66000000D03*
D30*
%TO.N,Net-(P2-CC)*%
X140525000Y-106335000D03*
D28*
%TO.N,IO0*%
X135750000Y-80500000D03*
X146500000Y-75250000D03*
D29*
%TO.N,SW2*%
X139900000Y-72450000D03*
X151600000Y-74350000D03*
%TO.N,SW4*%
X151050000Y-75200000D03*
X139450000Y-73550000D03*
%TO.N,+3.7V*%
X150150000Y-100475000D03*
X150150000Y-104720000D03*
%TO.N,Net-(D6-K)*%
X112475000Y-63190000D03*
D28*
%TO.N,Vert 2*%
X129155000Y-63760000D03*
D29*
%TO.N,SDA*%
X146572500Y-63677500D03*
D31*
X153500000Y-61825000D03*
D29*
%TO.N,Net-(D7-K)*%
X114775000Y-63190000D03*
%TO.N,Net-(D8-K)*%
X117050000Y-63215000D03*
%TO.N,Net-(D9-K)*%
X119325000Y-63190000D03*
%TD*%
D32*
%TO.N,+3.3V*%
X120412500Y-59215000D02*
X119275000Y-60352500D01*
D33*
X133935000Y-90037500D02*
X133935000Y-91177500D01*
X127320000Y-58680000D02*
X126575000Y-59425000D01*
X125725000Y-93575000D02*
X125725000Y-60275000D01*
X137745000Y-94987500D02*
X138557500Y-94175000D01*
X92625000Y-104500000D02*
X122300000Y-104500000D01*
X123899994Y-56749994D02*
X122115006Y-56749994D01*
X92590000Y-99242500D02*
X92590000Y-104465000D01*
X129155000Y-58680000D02*
X127320000Y-58680000D01*
X125725000Y-101075000D02*
X125725000Y-93575000D01*
X125725000Y-60275000D02*
X126575000Y-59425000D01*
X126575000Y-59425000D02*
X123899994Y-56749994D01*
X152460000Y-89225000D02*
X155225000Y-86460000D01*
X133935000Y-90037500D02*
X130397500Y-93575000D01*
X122115006Y-56749994D02*
X120412500Y-58452500D01*
X130397500Y-93575000D02*
X125725000Y-93575000D01*
X133935000Y-91177500D02*
X137745000Y-94987500D01*
X152460000Y-91900000D02*
X152450000Y-91910000D01*
X92590000Y-104465000D02*
X92625000Y-104500000D01*
D32*
X120412500Y-58452500D02*
X120412500Y-59215000D01*
D33*
X152460000Y-89950000D02*
X152460000Y-91900000D01*
X138557500Y-94175000D02*
X152450000Y-94175000D01*
X152450000Y-94175000D02*
X152450000Y-91910000D01*
X152450000Y-100475000D02*
X152450000Y-94175000D01*
X152460000Y-89950000D02*
X152460000Y-89225000D01*
X155225000Y-86460000D02*
X169590000Y-86460000D01*
X122300000Y-104500000D02*
X125725000Y-101075000D01*
D32*
%TO.N,Hori 2*%
X129155000Y-65030000D02*
X130185082Y-65030000D01*
X134405083Y-69250000D02*
X158050000Y-69250000D01*
X133077542Y-67922459D02*
X134405083Y-69250000D01*
X130185082Y-65030000D02*
X133077542Y-67922459D01*
%TO.N,Net-(D1-K)*%
X108375000Y-58477500D02*
X108375000Y-59852500D01*
X108375000Y-59852500D02*
X108875000Y-60352500D01*
X108875000Y-60352500D02*
X110275000Y-60352500D01*
%TO.N,Net-(D1-A)*%
X112525000Y-60352500D02*
X112525000Y-59252500D01*
X110250000Y-58477500D02*
X111750000Y-58477500D01*
X112525000Y-59252500D02*
X111750000Y-58477500D01*
%TO.N,Net-(D2-A)*%
X115112500Y-60015000D02*
X114775000Y-60352500D01*
X115112500Y-58452500D02*
X113650000Y-58452500D01*
X115112500Y-58452500D02*
X115112500Y-60015000D01*
X113650000Y-58452500D02*
X113625000Y-58477500D01*
%TO.N,Net-(D3-A)*%
X118537500Y-58452500D02*
X116987500Y-58452500D01*
X116987500Y-58452500D02*
X116987500Y-60315000D01*
X116987500Y-60315000D02*
X117025000Y-60352500D01*
D34*
%TO.N,SW5*%
X123450000Y-73725000D02*
X122775000Y-73050000D01*
X122775000Y-73050000D02*
X122775000Y-58550000D01*
%TO.N,SW6*%
X145850000Y-60775000D02*
X145227000Y-61398000D01*
X145227000Y-61398000D02*
X145227000Y-66000000D01*
X179846813Y-62738667D02*
X177883146Y-60775000D01*
X177883146Y-60775000D02*
X145850000Y-60775000D01*
%TO.N,IO0*%
X142750000Y-79000000D02*
X146500000Y-75250000D01*
X135750000Y-80500000D02*
X137250000Y-79000000D01*
X137250000Y-79000000D02*
X142500000Y-79000000D01*
X142500000Y-79000000D02*
X142750000Y-79000000D01*
D32*
%TO.N,SW2*%
X139900000Y-72450000D02*
X149700000Y-72450000D01*
X151600000Y-74350000D02*
X151625000Y-74375000D01*
X149700000Y-72450000D02*
X151600000Y-74350000D01*
%TO.N,SW4*%
X139450000Y-73550000D02*
X149400000Y-73550000D01*
X149400000Y-73550000D02*
X151050000Y-75200000D01*
D33*
%TO.N,+3.7V*%
X150150000Y-102760000D02*
X150150000Y-100475000D01*
X151031000Y-105621000D02*
X153071000Y-105621000D01*
X150150000Y-104720000D02*
X150150000Y-102760000D01*
X150150000Y-104740000D02*
X150150000Y-104720000D01*
X153071000Y-105621000D02*
X157400000Y-109950000D01*
X150150000Y-104740000D02*
X151031000Y-105621000D01*
D32*
%TO.N,Vert 2*%
X134074932Y-67574932D02*
X161124932Y-67574932D01*
X130260000Y-63760000D02*
X134074932Y-67574932D01*
X173849000Y-84741000D02*
X169590000Y-89000000D01*
X173849000Y-80299000D02*
X173849000Y-84741000D01*
X129155000Y-63760000D02*
X130260000Y-63760000D01*
X161124932Y-67574932D02*
X173849000Y-80299000D01*
D34*
%TO.N,SDA*%
X146572500Y-63677500D02*
X148425000Y-61825000D01*
X153500000Y-61825000D02*
X153525000Y-61825000D01*
X148425000Y-61825000D02*
X153500000Y-61825000D01*
%TD*%
%TA.AperFunction,Conductor*%
%TO.N,GND*%
G36*
X174293883Y-56247194D02*
G01*
X174301508Y-56252505D01*
X199450147Y-75212261D01*
X199491828Y-75268337D01*
X199499500Y-75311275D01*
X199499500Y-99611892D01*
X199479815Y-99678931D01*
X199430404Y-99723075D01*
X175812630Y-111385876D01*
X175812629Y-111385875D01*
X175804578Y-111389850D01*
X175776374Y-111399017D01*
X175745766Y-111418894D01*
X175739239Y-111422118D01*
X175739233Y-111422122D01*
X175713026Y-111435064D01*
X175706550Y-111440749D01*
X175687222Y-111454670D01*
X175436186Y-111601082D01*
X175425630Y-111606578D01*
X175131482Y-111742190D01*
X175120450Y-111746647D01*
X174814674Y-111853436D01*
X174803265Y-111856816D01*
X174488656Y-111933805D01*
X174476976Y-111936076D01*
X174156422Y-111982558D01*
X174144577Y-111983698D01*
X173818611Y-111999357D01*
X173812661Y-111999500D01*
X144671110Y-111999500D01*
X144604071Y-111979815D01*
X144558316Y-111927011D01*
X144548372Y-111857853D01*
X144556548Y-111828050D01*
X144557049Y-111826839D01*
X144557051Y-111826835D01*
X144573888Y-111742190D01*
X144595500Y-111633543D01*
X144595500Y-110636456D01*
X144557052Y-110443170D01*
X144557051Y-110443169D01*
X144557051Y-110443165D01*
X144531255Y-110380888D01*
X144481635Y-110261092D01*
X144481628Y-110261079D01*
X144372139Y-110097218D01*
X144372136Y-110097214D01*
X144232785Y-109957863D01*
X144232781Y-109957860D01*
X144068920Y-109848371D01*
X144068907Y-109848364D01*
X143886839Y-109772950D01*
X143886829Y-109772947D01*
X143693543Y-109734500D01*
X143693541Y-109734500D01*
X143496459Y-109734500D01*
X143496457Y-109734500D01*
X143303170Y-109772947D01*
X143303160Y-109772950D01*
X143121092Y-109848364D01*
X143121079Y-109848371D01*
X142957218Y-109957860D01*
X142957214Y-109957863D01*
X142817863Y-110097214D01*
X142817860Y-110097218D01*
X142708371Y-110261079D01*
X142708364Y-110261092D01*
X142632950Y-110443160D01*
X142632947Y-110443170D01*
X142594500Y-110636456D01*
X142594500Y-110636459D01*
X142594500Y-111633541D01*
X142594500Y-111633543D01*
X142594499Y-111633543D01*
X142632947Y-111826829D01*
X142632950Y-111826839D01*
X142633452Y-111828050D01*
X142633525Y-111828734D01*
X142634717Y-111832662D01*
X142633972Y-111832888D01*
X142640919Y-111897520D01*
X142609643Y-111959998D01*
X142549553Y-111995649D01*
X142518890Y-111999500D01*
X136031110Y-111999500D01*
X135964071Y-111979815D01*
X135918316Y-111927011D01*
X135908372Y-111857853D01*
X135916548Y-111828050D01*
X135917049Y-111826839D01*
X135917051Y-111826835D01*
X135933888Y-111742190D01*
X135955500Y-111633543D01*
X135955500Y-110636456D01*
X135917052Y-110443170D01*
X135917051Y-110443169D01*
X135917051Y-110443165D01*
X135891255Y-110380888D01*
X135841635Y-110261092D01*
X135841628Y-110261079D01*
X135732139Y-110097218D01*
X135732136Y-110097214D01*
X135592785Y-109957863D01*
X135592781Y-109957860D01*
X135428920Y-109848371D01*
X135428907Y-109848364D01*
X135246839Y-109772950D01*
X135246829Y-109772947D01*
X135053543Y-109734500D01*
X135053541Y-109734500D01*
X134856459Y-109734500D01*
X134856457Y-109734500D01*
X134663170Y-109772947D01*
X134663160Y-109772950D01*
X134481092Y-109848364D01*
X134481079Y-109848371D01*
X134317218Y-109957860D01*
X134317214Y-109957863D01*
X134177863Y-110097214D01*
X134177860Y-110097218D01*
X134068371Y-110261079D01*
X134068364Y-110261092D01*
X133992950Y-110443160D01*
X133992947Y-110443170D01*
X133954500Y-110636456D01*
X133954500Y-110636459D01*
X133954500Y-111633541D01*
X133954500Y-111633543D01*
X133954499Y-111633543D01*
X133992947Y-111826829D01*
X133992950Y-111826839D01*
X133993452Y-111828050D01*
X133993525Y-111828734D01*
X133994717Y-111832662D01*
X133993972Y-111832888D01*
X134000919Y-111897520D01*
X133969643Y-111959998D01*
X133909553Y-111995649D01*
X133878890Y-111999500D01*
X101266141Y-111999500D01*
X101258536Y-111999499D01*
X101258533Y-111999499D01*
X101228144Y-111999499D01*
X101195622Y-111999499D01*
X101195621Y-111999498D01*
X101189639Y-111999354D01*
X100861140Y-111983481D01*
X100849223Y-111982327D01*
X100526734Y-111935277D01*
X100514985Y-111932979D01*
X100198538Y-111855049D01*
X100187064Y-111851628D01*
X99879614Y-111743543D01*
X99868524Y-111739032D01*
X99572921Y-111601798D01*
X99562318Y-111596238D01*
X99309137Y-111447475D01*
X99306549Y-111445911D01*
X99297854Y-111440512D01*
X99282702Y-111427216D01*
X99252143Y-111412132D01*
X99247022Y-111408953D01*
X99246719Y-111408614D01*
X99244527Y-111407362D01*
X99221050Y-111391997D01*
X99221049Y-111391996D01*
X99221048Y-111391996D01*
X99221045Y-111391995D01*
X99200273Y-111385163D01*
X99184133Y-111378564D01*
X91495307Y-107583543D01*
X133954499Y-107583543D01*
X133992947Y-107776829D01*
X133992950Y-107776839D01*
X134068364Y-107958907D01*
X134068371Y-107958920D01*
X134177860Y-108122781D01*
X134177863Y-108122785D01*
X134317214Y-108262136D01*
X134317218Y-108262139D01*
X134481079Y-108371628D01*
X134481092Y-108371635D01*
X134663160Y-108447049D01*
X134663165Y-108447051D01*
X134663169Y-108447051D01*
X134663170Y-108447052D01*
X134856456Y-108485500D01*
X134856459Y-108485500D01*
X135053543Y-108485500D01*
X135183582Y-108459632D01*
X135246835Y-108447051D01*
X135428914Y-108371632D01*
X135592782Y-108262139D01*
X135732139Y-108122782D01*
X135841632Y-107958914D01*
X135841635Y-107958906D01*
X135844446Y-107953648D01*
X135893405Y-107903800D01*
X135961542Y-107888335D01*
X136027223Y-107912163D01*
X136029300Y-107913722D01*
X136031632Y-107915512D01*
X136031635Y-107915515D01*
X136162865Y-107991281D01*
X136309234Y-108030500D01*
X136309236Y-108030500D01*
X136460764Y-108030500D01*
X136460766Y-108030500D01*
X136607135Y-107991281D01*
X136738365Y-107915515D01*
X136845515Y-107808365D01*
X136921281Y-107677135D01*
X136956041Y-107547404D01*
X136969771Y-107524879D01*
X136980138Y-107500621D01*
X136987669Y-107495515D01*
X136992406Y-107487745D01*
X137016136Y-107476217D01*
X137037972Y-107461415D01*
X137050707Y-107459424D01*
X137055253Y-107457216D01*
X137072773Y-107455536D01*
X137074280Y-107455499D01*
X137222872Y-107455499D01*
X137266846Y-107450771D01*
X137271958Y-107450646D01*
X137274481Y-107451320D01*
X137288252Y-107451320D01*
X137327127Y-107455500D01*
X137722872Y-107455499D01*
X137722873Y-107455498D01*
X137722885Y-107455498D01*
X137761744Y-107451320D01*
X137788252Y-107451320D01*
X137827127Y-107455500D01*
X138222872Y-107455499D01*
X138222873Y-107455498D01*
X138222885Y-107455498D01*
X138261744Y-107451320D01*
X138288252Y-107451320D01*
X138327127Y-107455500D01*
X138722872Y-107455499D01*
X138722873Y-107455498D01*
X138722885Y-107455498D01*
X138761744Y-107451320D01*
X138788252Y-107451320D01*
X138827127Y-107455500D01*
X139222872Y-107455499D01*
X139222873Y-107455498D01*
X139222885Y-107455498D01*
X139261744Y-107451320D01*
X139288252Y-107451320D01*
X139327127Y-107455500D01*
X139722872Y-107455499D01*
X139722873Y-107455498D01*
X139722885Y-107455498D01*
X139761744Y-107451320D01*
X139788252Y-107451320D01*
X139827127Y-107455500D01*
X140222872Y-107455499D01*
X140222873Y-107455498D01*
X140222885Y-107455498D01*
X140261744Y-107451320D01*
X140288252Y-107451320D01*
X140327127Y-107455500D01*
X140722872Y-107455499D01*
X140722873Y-107455498D01*
X140722885Y-107455498D01*
X140761744Y-107451320D01*
X140788252Y-107451320D01*
X140827127Y-107455500D01*
X141222872Y-107455499D01*
X141222873Y-107455498D01*
X141222885Y-107455498D01*
X141261744Y-107451320D01*
X141278044Y-107450646D01*
X141283149Y-107450771D01*
X141327127Y-107455500D01*
X141475737Y-107455499D01*
X141477227Y-107455536D01*
X141509109Y-107465754D01*
X141541223Y-107475183D01*
X141542258Y-107476377D01*
X141543763Y-107476860D01*
X141565060Y-107502692D01*
X141586978Y-107527987D01*
X141587800Y-107530275D01*
X141588209Y-107530771D01*
X141588322Y-107531727D01*
X141593957Y-107547401D01*
X141614282Y-107623256D01*
X141628719Y-107677136D01*
X141666602Y-107742750D01*
X141704485Y-107808365D01*
X141811635Y-107915515D01*
X141942865Y-107991281D01*
X142089234Y-108030500D01*
X142089236Y-108030500D01*
X142240764Y-108030500D01*
X142240766Y-108030500D01*
X142387135Y-107991281D01*
X142518365Y-107915515D01*
X142518372Y-107915507D01*
X142520694Y-107913726D01*
X142523021Y-107912825D01*
X142525403Y-107911451D01*
X142525617Y-107911822D01*
X142585861Y-107888525D01*
X142654307Y-107902556D01*
X142704302Y-107951365D01*
X142705551Y-107953644D01*
X142708369Y-107958916D01*
X142817860Y-108122781D01*
X142817863Y-108122785D01*
X142957214Y-108262136D01*
X142957218Y-108262139D01*
X143121079Y-108371628D01*
X143121092Y-108371635D01*
X143303160Y-108447049D01*
X143303165Y-108447051D01*
X143303169Y-108447051D01*
X143303170Y-108447052D01*
X143496456Y-108485500D01*
X143496459Y-108485500D01*
X143693543Y-108485500D01*
X143823582Y-108459632D01*
X143886835Y-108447051D01*
X144068914Y-108371632D01*
X144232782Y-108262139D01*
X144372139Y-108122782D01*
X144481632Y-107958914D01*
X144557051Y-107776835D01*
X144595500Y-107583541D01*
X144595500Y-106286459D01*
X144595500Y-106286456D01*
X144557052Y-106093170D01*
X144557051Y-106093169D01*
X144557051Y-106093165D01*
X144519214Y-106001818D01*
X144481635Y-105911092D01*
X144481628Y-105911079D01*
X144372139Y-105747218D01*
X144372136Y-105747214D01*
X144232785Y-105607863D01*
X144232781Y-105607860D01*
X144068920Y-105498371D01*
X144068907Y-105498364D01*
X143886839Y-105422950D01*
X143886829Y-105422947D01*
X143693543Y-105384500D01*
X143693541Y-105384500D01*
X143496459Y-105384500D01*
X143496457Y-105384500D01*
X143303170Y-105422947D01*
X143303160Y-105422950D01*
X143121092Y-105498364D01*
X143121079Y-105498371D01*
X142957218Y-105607860D01*
X142957214Y-105607863D01*
X142817863Y-105747214D01*
X142817860Y-105747218D01*
X142704983Y-105916151D01*
X142703775Y-105915343D01*
X142659891Y-105960016D01*
X142591752Y-105975474D01*
X142526074Y-105951640D01*
X142483707Y-105896080D01*
X142475499Y-105851716D01*
X142475499Y-105667129D01*
X142475498Y-105667123D01*
X142475497Y-105667116D01*
X142469091Y-105607517D01*
X142441796Y-105534336D01*
X142418797Y-105472671D01*
X142418793Y-105472664D01*
X142332547Y-105357455D01*
X142332544Y-105357452D01*
X142217335Y-105271206D01*
X142217328Y-105271202D01*
X142082486Y-105220910D01*
X142082485Y-105220909D01*
X142082483Y-105220909D01*
X142022873Y-105214500D01*
X142022863Y-105214500D01*
X141327130Y-105214500D01*
X141327119Y-105214501D01*
X141288253Y-105218679D01*
X141261748Y-105218679D01*
X141222874Y-105214500D01*
X140827130Y-105214500D01*
X140827119Y-105214501D01*
X140788253Y-105218679D01*
X140761748Y-105218679D01*
X140722874Y-105214500D01*
X140327130Y-105214500D01*
X140327119Y-105214501D01*
X140288253Y-105218679D01*
X140261748Y-105218679D01*
X140222874Y-105214500D01*
X139827130Y-105214500D01*
X139827119Y-105214501D01*
X139788253Y-105218679D01*
X139761748Y-105218679D01*
X139722874Y-105214500D01*
X139327130Y-105214500D01*
X139327119Y-105214501D01*
X139288253Y-105218679D01*
X139261748Y-105218679D01*
X139222874Y-105214500D01*
X138827130Y-105214500D01*
X138827119Y-105214501D01*
X138788253Y-105218679D01*
X138761748Y-105218679D01*
X138722874Y-105214500D01*
X138327130Y-105214500D01*
X138327119Y-105214501D01*
X138288253Y-105218679D01*
X138261748Y-105218679D01*
X138222874Y-105214500D01*
X137827130Y-105214500D01*
X137827119Y-105214501D01*
X137788253Y-105218679D01*
X137761748Y-105218679D01*
X137722874Y-105214500D01*
X137327130Y-105214500D01*
X137327119Y-105214501D01*
X137288253Y-105218679D01*
X137261748Y-105218679D01*
X137222874Y-105214500D01*
X136527129Y-105214500D01*
X136527123Y-105214501D01*
X136467516Y-105220908D01*
X136332671Y-105271202D01*
X136332664Y-105271206D01*
X136217455Y-105357452D01*
X136217452Y-105357455D01*
X136131206Y-105472664D01*
X136131202Y-105472671D01*
X136080908Y-105607517D01*
X136074501Y-105667116D01*
X136074501Y-105667123D01*
X136074500Y-105667135D01*
X136074500Y-105851714D01*
X136054815Y-105918753D01*
X136002011Y-105964508D01*
X135932853Y-105974452D01*
X135869297Y-105945427D01*
X135845604Y-105915758D01*
X135845017Y-105916151D01*
X135732139Y-105747218D01*
X135732136Y-105747214D01*
X135592785Y-105607863D01*
X135592781Y-105607860D01*
X135428920Y-105498371D01*
X135428907Y-105498364D01*
X135246839Y-105422950D01*
X135246829Y-105422947D01*
X135053543Y-105384500D01*
X135053541Y-105384500D01*
X134856459Y-105384500D01*
X134856457Y-105384500D01*
X134663170Y-105422947D01*
X134663160Y-105422950D01*
X134481092Y-105498364D01*
X134481079Y-105498371D01*
X134317218Y-105607860D01*
X134317214Y-105607863D01*
X134177863Y-105747214D01*
X134177860Y-105747218D01*
X134068371Y-105911079D01*
X134068364Y-105911092D01*
X133992950Y-106093160D01*
X133992947Y-106093170D01*
X133954500Y-106286456D01*
X133954500Y-106286459D01*
X133954500Y-107583541D01*
X133954500Y-107583543D01*
X133954499Y-107583543D01*
X91495307Y-107583543D01*
X89080314Y-106391560D01*
X75569618Y-99723003D01*
X75518214Y-99675680D01*
X75500500Y-99611810D01*
X75500500Y-98560258D01*
X76974500Y-98560258D01*
X76974500Y-98789741D01*
X76998825Y-98974500D01*
X77004452Y-99017238D01*
X77035507Y-99133138D01*
X77063842Y-99238887D01*
X77151650Y-99450876D01*
X77151657Y-99450890D01*
X77266392Y-99649617D01*
X77406081Y-99831661D01*
X77406089Y-99831670D01*
X77568330Y-99993911D01*
X77568338Y-99993918D01*
X77750382Y-100133607D01*
X77750385Y-100133608D01*
X77750388Y-100133611D01*
X77949112Y-100248344D01*
X77949117Y-100248346D01*
X77949123Y-100248349D01*
X77987775Y-100264359D01*
X78161113Y-100336158D01*
X78382762Y-100395548D01*
X78610266Y-100425500D01*
X78610273Y-100425500D01*
X78839727Y-100425500D01*
X78839734Y-100425500D01*
X79067238Y-100395548D01*
X79288887Y-100336158D01*
X79500888Y-100248344D01*
X79699612Y-100133611D01*
X79881661Y-99993919D01*
X79881665Y-99993914D01*
X79881670Y-99993911D01*
X80043911Y-99831670D01*
X80043914Y-99831665D01*
X80043919Y-99831661D01*
X80183611Y-99649612D01*
X80298344Y-99450888D01*
X80386158Y-99238887D01*
X80445548Y-99017238D01*
X80475500Y-98789734D01*
X80475500Y-98560266D01*
X80445548Y-98332762D01*
X80386158Y-98111113D01*
X80328367Y-97971593D01*
X80298349Y-97899123D01*
X80298346Y-97899117D01*
X80298344Y-97899112D01*
X80183611Y-97700388D01*
X80183608Y-97700385D01*
X80183607Y-97700382D01*
X80043918Y-97518338D01*
X80043911Y-97518330D01*
X79881670Y-97356089D01*
X79881661Y-97356081D01*
X79699617Y-97216392D01*
X79500890Y-97101657D01*
X79500876Y-97101650D01*
X79288887Y-97013842D01*
X79250622Y-97003589D01*
X79067238Y-96954452D01*
X79029215Y-96949446D01*
X78839741Y-96924500D01*
X78839734Y-96924500D01*
X78610266Y-96924500D01*
X78610258Y-96924500D01*
X78393715Y-96953009D01*
X78382762Y-96954452D01*
X78289076Y-96979554D01*
X78161112Y-97013842D01*
X77949123Y-97101650D01*
X77949109Y-97101657D01*
X77750382Y-97216392D01*
X77568338Y-97356081D01*
X77406081Y-97518338D01*
X77266392Y-97700382D01*
X77151657Y-97899109D01*
X77151650Y-97899123D01*
X77063842Y-98111112D01*
X77004453Y-98332759D01*
X77004451Y-98332770D01*
X76974500Y-98560258D01*
X75500500Y-98560258D01*
X75500500Y-95620648D01*
X85866500Y-95620648D01*
X85866500Y-95879351D01*
X85893901Y-96052354D01*
X85906968Y-96134854D01*
X85986909Y-96380885D01*
X86104353Y-96611382D01*
X86256408Y-96820668D01*
X86439332Y-97003592D01*
X86648618Y-97155647D01*
X86879115Y-97273091D01*
X87125146Y-97353032D01*
X87220961Y-97368207D01*
X87380649Y-97393500D01*
X87380654Y-97393500D01*
X87639351Y-97393500D01*
X87781294Y-97371017D01*
X87894854Y-97353032D01*
X88140885Y-97273091D01*
X88371382Y-97155647D01*
X88580668Y-97003592D01*
X88763592Y-96820668D01*
X88915647Y-96611382D01*
X89033091Y-96380885D01*
X89113032Y-96134854D01*
X89136291Y-95987999D01*
X89153500Y-95879351D01*
X89153500Y-95620648D01*
X101106500Y-95620648D01*
X101106500Y-95879351D01*
X101133901Y-96052354D01*
X101146968Y-96134854D01*
X101226909Y-96380885D01*
X101344353Y-96611382D01*
X101496408Y-96820668D01*
X101679332Y-97003592D01*
X101888618Y-97155647D01*
X102119115Y-97273091D01*
X102365146Y-97353032D01*
X102460961Y-97368207D01*
X102620649Y-97393500D01*
X102620654Y-97393500D01*
X102879351Y-97393500D01*
X103021294Y-97371017D01*
X103134854Y-97353032D01*
X103380885Y-97273091D01*
X103611382Y-97155647D01*
X103820668Y-97003592D01*
X104003592Y-96820668D01*
X104155647Y-96611382D01*
X104273091Y-96380885D01*
X104353032Y-96134854D01*
X104376291Y-95987999D01*
X104393500Y-95879351D01*
X104393500Y-95620648D01*
X104353032Y-95365149D01*
X104353032Y-95365146D01*
X104273091Y-95119115D01*
X104155647Y-94888618D01*
X104003592Y-94679332D01*
X103820668Y-94496408D01*
X103611382Y-94344353D01*
X103380885Y-94226909D01*
X103134854Y-94146968D01*
X103134852Y-94146967D01*
X103134850Y-94146967D01*
X102879351Y-94106500D01*
X102879346Y-94106500D01*
X102620654Y-94106500D01*
X102620649Y-94106500D01*
X102365149Y-94146967D01*
X102119112Y-94226910D01*
X101888617Y-94344353D01*
X101679329Y-94496410D01*
X101496410Y-94679329D01*
X101344353Y-94888617D01*
X101226910Y-95119112D01*
X101146967Y-95365149D01*
X101106500Y-95620648D01*
X89153500Y-95620648D01*
X89113032Y-95365149D01*
X89113032Y-95365146D01*
X89033091Y-95119115D01*
X88915647Y-94888618D01*
X88763592Y-94679332D01*
X88580668Y-94496408D01*
X88371382Y-94344353D01*
X88140885Y-94226909D01*
X87894854Y-94146968D01*
X87894852Y-94146967D01*
X87894850Y-94146967D01*
X87639351Y-94106500D01*
X87639346Y-94106500D01*
X87380654Y-94106500D01*
X87380649Y-94106500D01*
X87125149Y-94146967D01*
X86879112Y-94226910D01*
X86648617Y-94344353D01*
X86439329Y-94496410D01*
X86256410Y-94679329D01*
X86104353Y-94888617D01*
X85986910Y-95119112D01*
X85906967Y-95365149D01*
X85866500Y-95620648D01*
X75500500Y-95620648D01*
X75500500Y-86433138D01*
X83580500Y-86433138D01*
X83580500Y-86651861D01*
X83614714Y-86867876D01*
X83682297Y-87075880D01*
X83682298Y-87075883D01*
X83781595Y-87270760D01*
X83910142Y-87447693D01*
X84064806Y-87602357D01*
X84215969Y-87712182D01*
X84258635Y-87767511D01*
X84264614Y-87837125D01*
X84232009Y-87898920D01*
X84215969Y-87912818D01*
X84064806Y-88022642D01*
X83910142Y-88177306D01*
X83781595Y-88354239D01*
X83682298Y-88549116D01*
X83682297Y-88549119D01*
X83614714Y-88757123D01*
X83580500Y-88973138D01*
X83580500Y-89191861D01*
X83614714Y-89407876D01*
X83682297Y-89615880D01*
X83682298Y-89615883D01*
X83741710Y-89732483D01*
X83778715Y-89805109D01*
X83781595Y-89810760D01*
X83910142Y-89987693D01*
X84064806Y-90142357D01*
X84230374Y-90262647D01*
X84241743Y-90270907D01*
X84369132Y-90335815D01*
X84436616Y-90370201D01*
X84436619Y-90370202D01*
X84496014Y-90389500D01*
X84644625Y-90437786D01*
X84744672Y-90453632D01*
X84860639Y-90472000D01*
X84860644Y-90472000D01*
X85079361Y-90472000D01*
X85184082Y-90455412D01*
X85295375Y-90437786D01*
X85503383Y-90370201D01*
X85698257Y-90270907D01*
X85811809Y-90188407D01*
X85875193Y-90142357D01*
X85875195Y-90142354D01*
X85875199Y-90142352D01*
X86029852Y-89987699D01*
X86029854Y-89987695D01*
X86029857Y-89987693D01*
X86128835Y-89851459D01*
X86158407Y-89810757D01*
X86257701Y-89615883D01*
X86325286Y-89407875D01*
X86343415Y-89293412D01*
X86359500Y-89191861D01*
X86359500Y-88973138D01*
X86337298Y-88832966D01*
X86325286Y-88757125D01*
X86257701Y-88549117D01*
X86257701Y-88549116D01*
X86211660Y-88458757D01*
X86158407Y-88354243D01*
X86098465Y-88271739D01*
X86029857Y-88177306D01*
X85875199Y-88022648D01*
X85808412Y-87974125D01*
X85724028Y-87912816D01*
X85696514Y-87877135D01*
X106349500Y-87877135D01*
X106349500Y-89672870D01*
X106349501Y-89672876D01*
X106355908Y-89732483D01*
X106406202Y-89867328D01*
X106406206Y-89867335D01*
X106492452Y-89982544D01*
X106492455Y-89982547D01*
X106607664Y-90068793D01*
X106607671Y-90068797D01*
X106742517Y-90119091D01*
X106742516Y-90119091D01*
X106749444Y-90119835D01*
X106802127Y-90125500D01*
X108597872Y-90125499D01*
X108657483Y-90119091D01*
X108792331Y-90068796D01*
X108907546Y-89982546D01*
X108993796Y-89867331D01*
X109042810Y-89735916D01*
X109084681Y-89679984D01*
X109150145Y-89655566D01*
X109218418Y-89670417D01*
X109246673Y-89691569D01*
X109360213Y-89805109D01*
X109532179Y-89930048D01*
X109532181Y-89930049D01*
X109532184Y-89930051D01*
X109721588Y-90026557D01*
X109923757Y-90092246D01*
X110133713Y-90125500D01*
X110133714Y-90125500D01*
X110346286Y-90125500D01*
X110346287Y-90125500D01*
X110556243Y-90092246D01*
X110758412Y-90026557D01*
X110947816Y-89930051D01*
X111034138Y-89867335D01*
X111119786Y-89805109D01*
X111119788Y-89805106D01*
X111119792Y-89805104D01*
X111270104Y-89654792D01*
X111270106Y-89654788D01*
X111270109Y-89654786D01*
X111395048Y-89482820D01*
X111395047Y-89482820D01*
X111395051Y-89482816D01*
X111491557Y-89293412D01*
X111557246Y-89091243D01*
X111590500Y-88881287D01*
X111590500Y-88668713D01*
X111557246Y-88458757D01*
X111491557Y-88256588D01*
X111395051Y-88067184D01*
X111362690Y-88022642D01*
X111307511Y-87946694D01*
X111307508Y-87946691D01*
X111302754Y-87940148D01*
X111270104Y-87895208D01*
X111252031Y-87877135D01*
X117799500Y-87877135D01*
X117799500Y-89672870D01*
X117799501Y-89672876D01*
X117805908Y-89732483D01*
X117856202Y-89867328D01*
X117856206Y-89867335D01*
X117942452Y-89982544D01*
X117942455Y-89982547D01*
X118057664Y-90068793D01*
X118057671Y-90068797D01*
X118192517Y-90119091D01*
X118192516Y-90119091D01*
X118199444Y-90119835D01*
X118252127Y-90125500D01*
X120047872Y-90125499D01*
X120107483Y-90119091D01*
X120242331Y-90068796D01*
X120357546Y-89982546D01*
X120443796Y-89867331D01*
X120494091Y-89732483D01*
X120500500Y-89672873D01*
X120500499Y-87877128D01*
X120494091Y-87817517D01*
X120491881Y-87811593D01*
X120443797Y-87682671D01*
X120443793Y-87682664D01*
X120357547Y-87567455D01*
X120357544Y-87567452D01*
X120242335Y-87481206D01*
X120242328Y-87481202D01*
X120107482Y-87430908D01*
X120107483Y-87430908D01*
X120047883Y-87424501D01*
X120047881Y-87424500D01*
X120047873Y-87424500D01*
X120047864Y-87424500D01*
X118252129Y-87424500D01*
X118252123Y-87424501D01*
X118192516Y-87430908D01*
X118057671Y-87481202D01*
X118057664Y-87481206D01*
X117942455Y-87567452D01*
X117942452Y-87567455D01*
X117856206Y-87682664D01*
X117856202Y-87682671D01*
X117805908Y-87817517D01*
X117801611Y-87857489D01*
X117799501Y-87877123D01*
X117799500Y-87877135D01*
X111252031Y-87877135D01*
X111119792Y-87744896D01*
X111119786Y-87744890D01*
X110947820Y-87619951D01*
X110758414Y-87523444D01*
X110758413Y-87523443D01*
X110758412Y-87523443D01*
X110556243Y-87457754D01*
X110556241Y-87457753D01*
X110556240Y-87457753D01*
X110394957Y-87432208D01*
X110346287Y-87424500D01*
X110133713Y-87424500D01*
X110085042Y-87432208D01*
X109923760Y-87457753D01*
X109721585Y-87523444D01*
X109532179Y-87619951D01*
X109360215Y-87744889D01*
X109246673Y-87858431D01*
X109185350Y-87891915D01*
X109115658Y-87886931D01*
X109059725Y-87845059D01*
X109042810Y-87814082D01*
X108993797Y-87682671D01*
X108993793Y-87682664D01*
X108907547Y-87567455D01*
X108907544Y-87567452D01*
X108792335Y-87481206D01*
X108792328Y-87481202D01*
X108657482Y-87430908D01*
X108657483Y-87430908D01*
X108597883Y-87424501D01*
X108597881Y-87424500D01*
X108597873Y-87424500D01*
X108597864Y-87424500D01*
X106802129Y-87424500D01*
X106802123Y-87424501D01*
X106742516Y-87430908D01*
X106607671Y-87481202D01*
X106607664Y-87481206D01*
X106492455Y-87567452D01*
X106492452Y-87567455D01*
X106406206Y-87682664D01*
X106406202Y-87682671D01*
X106355908Y-87817517D01*
X106351611Y-87857489D01*
X106349501Y-87877123D01*
X106349500Y-87877135D01*
X85696514Y-87877135D01*
X85681364Y-87857489D01*
X85675385Y-87787876D01*
X85707990Y-87726081D01*
X85724023Y-87712186D01*
X85875199Y-87602352D01*
X86029852Y-87447699D01*
X86029854Y-87447695D01*
X86029857Y-87447693D01*
X86086229Y-87370101D01*
X86158407Y-87270757D01*
X86257701Y-87075883D01*
X86325286Y-86867875D01*
X86342912Y-86756582D01*
X86359500Y-86651861D01*
X86359500Y-86433138D01*
X86327458Y-86230840D01*
X86325286Y-86217125D01*
X86257701Y-86009117D01*
X86257701Y-86009116D01*
X86215664Y-85926616D01*
X86158407Y-85814243D01*
X86062955Y-85682863D01*
X86029857Y-85637306D01*
X85875193Y-85482642D01*
X85698260Y-85354095D01*
X85698259Y-85354094D01*
X85698257Y-85354093D01*
X85635825Y-85322282D01*
X85503383Y-85254798D01*
X85503380Y-85254797D01*
X85295376Y-85187214D01*
X85079361Y-85153000D01*
X85079356Y-85153000D01*
X84860644Y-85153000D01*
X84860639Y-85153000D01*
X84644623Y-85187214D01*
X84436619Y-85254797D01*
X84436616Y-85254798D01*
X84241739Y-85354095D01*
X84064806Y-85482642D01*
X83910142Y-85637306D01*
X83781595Y-85814239D01*
X83682298Y-86009116D01*
X83682297Y-86009119D01*
X83614714Y-86217123D01*
X83580500Y-86433138D01*
X75500500Y-86433138D01*
X75500500Y-82285648D01*
X85866500Y-82285648D01*
X85866500Y-82544351D01*
X85899104Y-82750202D01*
X85906968Y-82799854D01*
X85986909Y-83045885D01*
X86104353Y-83276382D01*
X86256408Y-83485668D01*
X86439332Y-83668592D01*
X86648618Y-83820647D01*
X86879115Y-83938091D01*
X87125146Y-84018032D01*
X87220961Y-84033207D01*
X87380649Y-84058500D01*
X87380654Y-84058500D01*
X87639351Y-84058500D01*
X87781294Y-84036017D01*
X87894854Y-84018032D01*
X88140885Y-83938091D01*
X88371382Y-83820647D01*
X88580668Y-83668592D01*
X88763592Y-83485668D01*
X88915647Y-83276382D01*
X89033091Y-83045885D01*
X89113032Y-82799854D01*
X89136623Y-82650904D01*
X89153500Y-82544351D01*
X89153500Y-82285648D01*
X89113032Y-82030149D01*
X89113032Y-82030146D01*
X89033091Y-81784115D01*
X88915647Y-81553618D01*
X88769990Y-81353138D01*
X90565500Y-81353138D01*
X90565500Y-81571861D01*
X90599714Y-81787876D01*
X90667297Y-81995880D01*
X90667298Y-81995883D01*
X90724556Y-82108256D01*
X90766592Y-82190756D01*
X90766595Y-82190760D01*
X90895142Y-82367693D01*
X91049806Y-82522357D01*
X91215374Y-82642647D01*
X91226743Y-82650907D01*
X91354132Y-82715815D01*
X91421616Y-82750201D01*
X91421619Y-82750202D01*
X91481014Y-82769500D01*
X91629625Y-82817786D01*
X91729672Y-82833632D01*
X91845639Y-82852000D01*
X91845644Y-82852000D01*
X92064361Y-82852000D01*
X92169082Y-82835412D01*
X92280375Y-82817786D01*
X92488383Y-82750201D01*
X92683257Y-82650907D01*
X92796809Y-82568407D01*
X92860193Y-82522357D01*
X92860195Y-82522354D01*
X92860199Y-82522352D01*
X93014852Y-82367699D01*
X93014854Y-82367695D01*
X93014857Y-82367693D01*
X93074796Y-82285192D01*
X93143407Y-82190757D01*
X93242701Y-81995883D01*
X93310286Y-81787875D01*
X93327912Y-81676582D01*
X93344500Y-81571861D01*
X93344500Y-81353138D01*
X96915500Y-81353138D01*
X96915500Y-81571861D01*
X96949714Y-81787876D01*
X97017297Y-81995880D01*
X97017298Y-81995883D01*
X97074556Y-82108256D01*
X97116592Y-82190756D01*
X97116595Y-82190760D01*
X97245142Y-82367693D01*
X97399806Y-82522357D01*
X97565374Y-82642647D01*
X97576743Y-82650907D01*
X97704132Y-82715815D01*
X97771616Y-82750201D01*
X97771619Y-82750202D01*
X97831014Y-82769500D01*
X97979625Y-82817786D01*
X98079672Y-82833632D01*
X98195639Y-82852000D01*
X98195644Y-82852000D01*
X98414361Y-82852000D01*
X98519082Y-82835412D01*
X98630375Y-82817786D01*
X98838383Y-82750201D01*
X99033257Y-82650907D01*
X99146809Y-82568407D01*
X99210193Y-82522357D01*
X99210195Y-82522354D01*
X99210199Y-82522352D01*
X99364852Y-82367699D01*
X99424465Y-82285648D01*
X101106500Y-82285648D01*
X101106500Y-82544351D01*
X101139104Y-82750202D01*
X101146968Y-82799854D01*
X101226909Y-83045885D01*
X101344353Y-83276382D01*
X101496408Y-83485668D01*
X101679332Y-83668592D01*
X101888618Y-83820647D01*
X102119115Y-83938091D01*
X102365146Y-84018032D01*
X102460961Y-84033207D01*
X102620649Y-84058500D01*
X102620654Y-84058500D01*
X102879351Y-84058500D01*
X103021294Y-84036017D01*
X103134854Y-84018032D01*
X103380885Y-83938091D01*
X103611382Y-83820647D01*
X103820668Y-83668592D01*
X104003592Y-83485668D01*
X104155647Y-83276382D01*
X104273091Y-83045885D01*
X104353032Y-82799854D01*
X104376623Y-82650904D01*
X104393500Y-82544351D01*
X104393500Y-82285648D01*
X104353032Y-82030149D01*
X104353032Y-82030146D01*
X104273091Y-81784115D01*
X104155647Y-81553618D01*
X104003592Y-81344332D01*
X103820668Y-81161408D01*
X103611382Y-81009353D01*
X103380885Y-80891909D01*
X103134854Y-80811968D01*
X103134852Y-80811967D01*
X103134850Y-80811967D01*
X102879351Y-80771500D01*
X102879346Y-80771500D01*
X102620654Y-80771500D01*
X102620649Y-80771500D01*
X102365149Y-80811967D01*
X102119112Y-80891910D01*
X101888617Y-81009353D01*
X101679329Y-81161410D01*
X101496410Y-81344329D01*
X101344353Y-81553617D01*
X101226910Y-81784112D01*
X101146967Y-82030149D01*
X101106500Y-82285648D01*
X99424465Y-82285648D01*
X99493407Y-82190757D01*
X99592701Y-81995883D01*
X99660286Y-81787875D01*
X99677912Y-81676582D01*
X99694500Y-81571861D01*
X99694500Y-81353138D01*
X99671732Y-81209394D01*
X99660286Y-81137125D01*
X99592701Y-80929117D01*
X99592701Y-80929116D01*
X99546340Y-80838129D01*
X99493407Y-80734243D01*
X99477978Y-80713006D01*
X99364857Y-80557306D01*
X99210193Y-80402642D01*
X99033260Y-80274095D01*
X99033259Y-80274094D01*
X99033257Y-80274093D01*
X98970825Y-80242282D01*
X98838383Y-80174798D01*
X98838380Y-80174797D01*
X98630376Y-80107214D01*
X98414361Y-80073000D01*
X98414356Y-80073000D01*
X98195644Y-80073000D01*
X98195639Y-80073000D01*
X97979623Y-80107214D01*
X97771619Y-80174797D01*
X97771616Y-80174798D01*
X97576739Y-80274095D01*
X97399806Y-80402642D01*
X97245142Y-80557306D01*
X97116595Y-80734239D01*
X97017298Y-80929116D01*
X97017297Y-80929119D01*
X96949714Y-81137123D01*
X96915500Y-81353138D01*
X93344500Y-81353138D01*
X93321732Y-81209394D01*
X93310286Y-81137125D01*
X93242701Y-80929117D01*
X93242701Y-80929116D01*
X93196340Y-80838129D01*
X93143407Y-80734243D01*
X93127978Y-80713006D01*
X93014857Y-80557306D01*
X92860193Y-80402642D01*
X92683260Y-80274095D01*
X92683259Y-80274094D01*
X92683257Y-80274093D01*
X92620825Y-80242282D01*
X92488383Y-80174798D01*
X92488380Y-80174797D01*
X92280376Y-80107214D01*
X92064361Y-80073000D01*
X92064356Y-80073000D01*
X91845644Y-80073000D01*
X91845639Y-80073000D01*
X91629623Y-80107214D01*
X91421619Y-80174797D01*
X91421616Y-80174798D01*
X91226739Y-80274095D01*
X91049806Y-80402642D01*
X90895142Y-80557306D01*
X90766595Y-80734239D01*
X90667298Y-80929116D01*
X90667297Y-80929119D01*
X90599714Y-81137123D01*
X90565500Y-81353138D01*
X88769990Y-81353138D01*
X88763592Y-81344332D01*
X88580668Y-81161408D01*
X88371382Y-81009353D01*
X88140885Y-80891909D01*
X87894854Y-80811968D01*
X87894852Y-80811967D01*
X87894850Y-80811967D01*
X87639351Y-80771500D01*
X87639346Y-80771500D01*
X87380654Y-80771500D01*
X87380649Y-80771500D01*
X87125149Y-80811967D01*
X86879112Y-80891910D01*
X86648617Y-81009353D01*
X86439329Y-81161410D01*
X86256410Y-81344329D01*
X86104353Y-81553617D01*
X85986910Y-81784112D01*
X85906967Y-82030149D01*
X85866500Y-82285648D01*
X75500500Y-82285648D01*
X75500500Y-76085258D01*
X77074500Y-76085258D01*
X77074500Y-76314741D01*
X77086957Y-76409356D01*
X77104452Y-76542238D01*
X77126729Y-76625376D01*
X77163842Y-76763887D01*
X77251650Y-76975876D01*
X77251657Y-76975890D01*
X77366392Y-77174617D01*
X77506081Y-77356661D01*
X77506089Y-77356670D01*
X77668330Y-77518911D01*
X77668338Y-77518918D01*
X77850382Y-77658607D01*
X77850385Y-77658608D01*
X77850388Y-77658611D01*
X78049112Y-77773344D01*
X78049117Y-77773346D01*
X78049123Y-77773349D01*
X78140480Y-77811190D01*
X78261113Y-77861158D01*
X78482762Y-77920548D01*
X78710266Y-77950500D01*
X78710273Y-77950500D01*
X78939727Y-77950500D01*
X78939734Y-77950500D01*
X79167238Y-77920548D01*
X79388887Y-77861158D01*
X79600888Y-77773344D01*
X79799612Y-77658611D01*
X79981661Y-77518919D01*
X79981665Y-77518914D01*
X79981670Y-77518911D01*
X80143911Y-77356670D01*
X80143914Y-77356665D01*
X80143919Y-77356661D01*
X80283611Y-77174612D01*
X80398344Y-76975888D01*
X80486158Y-76763887D01*
X80545548Y-76542238D01*
X80575500Y-76314734D01*
X80575500Y-76273138D01*
X90565500Y-76273138D01*
X90565500Y-76491861D01*
X90599714Y-76707876D01*
X90667297Y-76915880D01*
X90667298Y-76915883D01*
X90766595Y-77110760D01*
X90895142Y-77287693D01*
X91049806Y-77442357D01*
X91215374Y-77562647D01*
X91226743Y-77570907D01*
X91349798Y-77633607D01*
X91421616Y-77670201D01*
X91421619Y-77670202D01*
X91481014Y-77689500D01*
X91629625Y-77737786D01*
X91729672Y-77753632D01*
X91845639Y-77772000D01*
X91845644Y-77772000D01*
X92064361Y-77772000D01*
X92169082Y-77755412D01*
X92280375Y-77737786D01*
X92488383Y-77670201D01*
X92683257Y-77570907D01*
X92796809Y-77488407D01*
X92860193Y-77442357D01*
X92860195Y-77442354D01*
X92860199Y-77442352D01*
X93014852Y-77287699D01*
X93014854Y-77287695D01*
X93014857Y-77287693D01*
X93097014Y-77174612D01*
X93143407Y-77110757D01*
X93242701Y-76915883D01*
X93310286Y-76707875D01*
X93336520Y-76542240D01*
X93344500Y-76491861D01*
X93344500Y-76273138D01*
X96915500Y-76273138D01*
X96915500Y-76491861D01*
X96949714Y-76707876D01*
X97017297Y-76915880D01*
X97017298Y-76915883D01*
X97116595Y-77110760D01*
X97245142Y-77287693D01*
X97399806Y-77442357D01*
X97565374Y-77562647D01*
X97576743Y-77570907D01*
X97699798Y-77633607D01*
X97771616Y-77670201D01*
X97771619Y-77670202D01*
X97831014Y-77689500D01*
X97979625Y-77737786D01*
X98079672Y-77753632D01*
X98195639Y-77772000D01*
X98195644Y-77772000D01*
X98414361Y-77772000D01*
X98519082Y-77755412D01*
X98630375Y-77737786D01*
X98838383Y-77670201D01*
X99033257Y-77570907D01*
X99146809Y-77488407D01*
X99210193Y-77442357D01*
X99210195Y-77442354D01*
X99210199Y-77442352D01*
X99364852Y-77287699D01*
X99364854Y-77287695D01*
X99364857Y-77287693D01*
X99447014Y-77174612D01*
X99493407Y-77110757D01*
X99592701Y-76915883D01*
X99660286Y-76707875D01*
X99686520Y-76542240D01*
X99694500Y-76491861D01*
X99694500Y-76273138D01*
X99664743Y-76085266D01*
X99660286Y-76057125D01*
X99602749Y-75880042D01*
X99592702Y-75849119D01*
X99592701Y-75849116D01*
X99547442Y-75760292D01*
X99493407Y-75654243D01*
X99480234Y-75636112D01*
X99364857Y-75477306D01*
X99210193Y-75322642D01*
X99033260Y-75194095D01*
X99033259Y-75194094D01*
X99033257Y-75194093D01*
X98948404Y-75150858D01*
X98838383Y-75094798D01*
X98838380Y-75094797D01*
X98630376Y-75027214D01*
X98414361Y-74993000D01*
X98414356Y-74993000D01*
X98195644Y-74993000D01*
X98195639Y-74993000D01*
X97979623Y-75027214D01*
X97771619Y-75094797D01*
X97771616Y-75094798D01*
X97576739Y-75194095D01*
X97399806Y-75322642D01*
X97245142Y-75477306D01*
X97116595Y-75654239D01*
X97017298Y-75849116D01*
X97017297Y-75849119D01*
X96949714Y-76057123D01*
X96915500Y-76273138D01*
X93344500Y-76273138D01*
X93314743Y-76085266D01*
X93310286Y-76057125D01*
X93252749Y-75880042D01*
X93242702Y-75849119D01*
X93242701Y-75849116D01*
X93197442Y-75760292D01*
X93143407Y-75654243D01*
X93130234Y-75636112D01*
X93014857Y-75477306D01*
X92860193Y-75322642D01*
X92683260Y-75194095D01*
X92683259Y-75194094D01*
X92683257Y-75194093D01*
X92598404Y-75150858D01*
X92488383Y-75094798D01*
X92488380Y-75094797D01*
X92280376Y-75027214D01*
X92064361Y-74993000D01*
X92064356Y-74993000D01*
X91845644Y-74993000D01*
X91845639Y-74993000D01*
X91629623Y-75027214D01*
X91421619Y-75094797D01*
X91421616Y-75094798D01*
X91226739Y-75194095D01*
X91049806Y-75322642D01*
X90895142Y-75477306D01*
X90766595Y-75654239D01*
X90667298Y-75849116D01*
X90667297Y-75849119D01*
X90599714Y-76057123D01*
X90565500Y-76273138D01*
X80575500Y-76273138D01*
X80575500Y-76085266D01*
X80545548Y-75857762D01*
X80486158Y-75636113D01*
X80398344Y-75424112D01*
X80283611Y-75225388D01*
X80283608Y-75225385D01*
X80283607Y-75225382D01*
X80143918Y-75043338D01*
X80143911Y-75043330D01*
X79981670Y-74881089D01*
X79981661Y-74881081D01*
X79799617Y-74741392D01*
X79796712Y-74739715D01*
X79607312Y-74630365D01*
X79600890Y-74626657D01*
X79600876Y-74626650D01*
X79388887Y-74538842D01*
X79167238Y-74479452D01*
X79129215Y-74474446D01*
X78939741Y-74449500D01*
X78939734Y-74449500D01*
X78710266Y-74449500D01*
X78710258Y-74449500D01*
X78493715Y-74478009D01*
X78482762Y-74479452D01*
X78413580Y-74497989D01*
X78261112Y-74538842D01*
X78049123Y-74626650D01*
X78049109Y-74626657D01*
X77850382Y-74741392D01*
X77668338Y-74881081D01*
X77506081Y-75043338D01*
X77366392Y-75225382D01*
X77251657Y-75424109D01*
X77251650Y-75424123D01*
X77163842Y-75636112D01*
X77163842Y-75636113D01*
X77106769Y-75849117D01*
X77104453Y-75857759D01*
X77104451Y-75857770D01*
X77074500Y-76085258D01*
X75500500Y-76085258D01*
X75500500Y-75313187D01*
X75520185Y-75246148D01*
X75550337Y-75213810D01*
X88507349Y-65544598D01*
X90300840Y-65544598D01*
X90300840Y-65761105D01*
X90334710Y-65974950D01*
X90401612Y-66180858D01*
X90401613Y-66180861D01*
X90490591Y-66355488D01*
X90499907Y-66373771D01*
X90627168Y-66548930D01*
X90780262Y-66702024D01*
X90955421Y-66829285D01*
X91032465Y-66868541D01*
X91148330Y-66927578D01*
X91148336Y-66927580D01*
X91199033Y-66944052D01*
X91256709Y-66983488D01*
X91283908Y-67047847D01*
X91271994Y-67116693D01*
X91233602Y-67162300D01*
X91166490Y-67211060D01*
X91166483Y-67211066D01*
X90993908Y-67383641D01*
X90993904Y-67383646D01*
X90850461Y-67581080D01*
X90739662Y-67798535D01*
X90664243Y-68030650D01*
X90657742Y-68071697D01*
X90626065Y-68271696D01*
X90626065Y-68515750D01*
X90664244Y-68756799D01*
X90739661Y-68988908D01*
X90849157Y-69203807D01*
X90850461Y-69206365D01*
X90993904Y-69403799D01*
X90993908Y-69403804D01*
X91166483Y-69576379D01*
X91166488Y-69576383D01*
X91288044Y-69664698D01*
X91363926Y-69719829D01*
X91581380Y-69830627D01*
X91813489Y-69906044D01*
X92054538Y-69944223D01*
X92054539Y-69944223D01*
X92298591Y-69944223D01*
X92298592Y-69944223D01*
X92539641Y-69906044D01*
X92771750Y-69830627D01*
X92989204Y-69719829D01*
X93186648Y-69576378D01*
X93359220Y-69403806D01*
X93502671Y-69206362D01*
X93613469Y-68988908D01*
X93688886Y-68756799D01*
X93727065Y-68515750D01*
X93727065Y-68271696D01*
X93688886Y-68030647D01*
X93613469Y-67798538D01*
X93502671Y-67581084D01*
X93484344Y-67555859D01*
X93359225Y-67383646D01*
X93359221Y-67383641D01*
X93186646Y-67211066D01*
X93186641Y-67211062D01*
X92989207Y-67067619D01*
X92989206Y-67067618D01*
X92989204Y-67067617D01*
X92882002Y-67012995D01*
X92771754Y-66956820D01*
X92621436Y-66907979D01*
X92563761Y-66868541D01*
X92536563Y-66804182D01*
X92548478Y-66735336D01*
X92572074Y-66702366D01*
X92572410Y-66702029D01*
X92572418Y-66702024D01*
X92725512Y-66548930D01*
X92852773Y-66373771D01*
X92951066Y-66180861D01*
X93017970Y-65974949D01*
X93051840Y-65761106D01*
X93051840Y-65544598D01*
X93017970Y-65330755D01*
X92961729Y-65157660D01*
X92951067Y-65124845D01*
X92951066Y-65124842D01*
X92879851Y-64985076D01*
X92852773Y-64931933D01*
X92725512Y-64756774D01*
X92572418Y-64603680D01*
X92397259Y-64476419D01*
X92388392Y-64471901D01*
X92204349Y-64378125D01*
X92204346Y-64378124D01*
X91998438Y-64311222D01*
X91891515Y-64294287D01*
X91784594Y-64277352D01*
X91568086Y-64277352D01*
X91496805Y-64288642D01*
X91354241Y-64311222D01*
X91148333Y-64378124D01*
X91148330Y-64378125D01*
X90955420Y-64476419D01*
X90870563Y-64538072D01*
X90780262Y-64603680D01*
X90780260Y-64603682D01*
X90780259Y-64603682D01*
X90627170Y-64756771D01*
X90627170Y-64756772D01*
X90627168Y-64756774D01*
X90614198Y-64774626D01*
X90499907Y-64931932D01*
X90401613Y-65124842D01*
X90401612Y-65124845D01*
X90334710Y-65330753D01*
X90300840Y-65544598D01*
X88507349Y-65544598D01*
X90506168Y-64052973D01*
X96224500Y-64052973D01*
X96224500Y-64297027D01*
X96231001Y-64338072D01*
X96259713Y-64519353D01*
X96262679Y-64538076D01*
X96338096Y-64770185D01*
X96447588Y-64985076D01*
X96448896Y-64987642D01*
X96592339Y-65185076D01*
X96592343Y-65185081D01*
X96764918Y-65357656D01*
X96764923Y-65357660D01*
X96937136Y-65482779D01*
X96962361Y-65501106D01*
X97179815Y-65611904D01*
X97411924Y-65687321D01*
X97652973Y-65725500D01*
X97652974Y-65725500D01*
X97897026Y-65725500D01*
X97897027Y-65725500D01*
X98138076Y-65687321D01*
X98370185Y-65611904D01*
X98587639Y-65501106D01*
X98785083Y-65357655D01*
X98957655Y-65185083D01*
X99101106Y-64987639D01*
X99211904Y-64770185D01*
X99287321Y-64538076D01*
X99325500Y-64297027D01*
X99325500Y-64052973D01*
X99287321Y-63811924D01*
X99211904Y-63579815D01*
X99101106Y-63362361D01*
X99031585Y-63266673D01*
X98957660Y-63164923D01*
X98957656Y-63164918D01*
X98785081Y-62992343D01*
X98785076Y-62992339D01*
X98760732Y-62974652D01*
X98626989Y-62877483D01*
X109049500Y-62877483D01*
X109049500Y-63502501D01*
X109049501Y-63502519D01*
X109060000Y-63605296D01*
X109060001Y-63605299D01*
X109115185Y-63771831D01*
X109115187Y-63771836D01*
X109139915Y-63811927D01*
X109207288Y-63921156D01*
X109331344Y-64045212D01*
X109480666Y-64137314D01*
X109647203Y-64192499D01*
X109749991Y-64203000D01*
X110750008Y-64202999D01*
X110750016Y-64202998D01*
X110750019Y-64202998D01*
X110806302Y-64197248D01*
X110852797Y-64192499D01*
X111019334Y-64137314D01*
X111168656Y-64045212D01*
X111274819Y-63939049D01*
X111336142Y-63905564D01*
X111405834Y-63910548D01*
X111450181Y-63939049D01*
X111556344Y-64045212D01*
X111705666Y-64137314D01*
X111872203Y-64192499D01*
X111974991Y-64203000D01*
X112975008Y-64202999D01*
X112975016Y-64202998D01*
X112975019Y-64202998D01*
X113031302Y-64197248D01*
X113077797Y-64192499D01*
X113244334Y-64137314D01*
X113393656Y-64045212D01*
X113517712Y-63921156D01*
X113519461Y-63918319D01*
X113521169Y-63916783D01*
X113522193Y-63915489D01*
X113522414Y-63915663D01*
X113571406Y-63871596D01*
X113640368Y-63860372D01*
X113704451Y-63888213D01*
X113730537Y-63918317D01*
X113732288Y-63921156D01*
X113856344Y-64045212D01*
X114005666Y-64137314D01*
X114172203Y-64192499D01*
X114274991Y-64203000D01*
X115275008Y-64202999D01*
X115275016Y-64202998D01*
X115275019Y-64202998D01*
X115331302Y-64197248D01*
X115377797Y-64192499D01*
X115544334Y-64137314D01*
X115693656Y-64045212D01*
X115817712Y-63921156D01*
X115817712Y-63921155D01*
X115822819Y-63916049D01*
X115824179Y-63917409D01*
X115873226Y-63882669D01*
X115943024Y-63879519D01*
X116001976Y-63913753D01*
X116002181Y-63913549D01*
X116002951Y-63914319D01*
X116003445Y-63914606D01*
X116004790Y-63916158D01*
X116007288Y-63918656D01*
X116131344Y-64042712D01*
X116280666Y-64134814D01*
X116447203Y-64189999D01*
X116549991Y-64200500D01*
X117550008Y-64200499D01*
X117550016Y-64200498D01*
X117550019Y-64200498D01*
X117628333Y-64192498D01*
X117652797Y-64189999D01*
X117819334Y-64134814D01*
X117968656Y-64042712D01*
X118092712Y-63918656D01*
X118092712Y-63918655D01*
X118097819Y-63913549D01*
X118099829Y-63915559D01*
X118146203Y-63882684D01*
X118216000Y-63879508D01*
X118276435Y-63914571D01*
X118281207Y-63920075D01*
X118282288Y-63921156D01*
X118406344Y-64045212D01*
X118555666Y-64137314D01*
X118722203Y-64192499D01*
X118824991Y-64203000D01*
X119825008Y-64202999D01*
X119825016Y-64202998D01*
X119825019Y-64202998D01*
X119881302Y-64197248D01*
X119927797Y-64192499D01*
X120094334Y-64137314D01*
X120243656Y-64045212D01*
X120367712Y-63921156D01*
X120459814Y-63771834D01*
X120514999Y-63605297D01*
X120525500Y-63502509D01*
X120525499Y-62877492D01*
X120523308Y-62856047D01*
X120514999Y-62774703D01*
X120514998Y-62774700D01*
X120506449Y-62748901D01*
X120459814Y-62608166D01*
X120367712Y-62458844D01*
X120243656Y-62334788D01*
X120094334Y-62242686D01*
X119927797Y-62187501D01*
X119927795Y-62187500D01*
X119825010Y-62177000D01*
X118824998Y-62177000D01*
X118824980Y-62177001D01*
X118722203Y-62187500D01*
X118722200Y-62187501D01*
X118555668Y-62242685D01*
X118555663Y-62242687D01*
X118406342Y-62334789D01*
X118277181Y-62463951D01*
X118275183Y-62461953D01*
X118228695Y-62494849D01*
X118158895Y-62497966D01*
X118098490Y-62462851D01*
X118093774Y-62457406D01*
X117968657Y-62332289D01*
X117968656Y-62332288D01*
X117823389Y-62242687D01*
X117819336Y-62240187D01*
X117819331Y-62240185D01*
X117817862Y-62239698D01*
X117652797Y-62185001D01*
X117652795Y-62185000D01*
X117550010Y-62174500D01*
X116549998Y-62174500D01*
X116549980Y-62174501D01*
X116447203Y-62185000D01*
X116447200Y-62185001D01*
X116280668Y-62240185D01*
X116280663Y-62240187D01*
X116131342Y-62332289D01*
X116002181Y-62461451D01*
X116000824Y-62460094D01*
X115951739Y-62494842D01*
X115881940Y-62497971D01*
X115823030Y-62463739D01*
X115822819Y-62463951D01*
X115822020Y-62463152D01*
X115821529Y-62462867D01*
X115820194Y-62461326D01*
X115693657Y-62334789D01*
X115693656Y-62334788D01*
X115544334Y-62242686D01*
X115377797Y-62187501D01*
X115377795Y-62187500D01*
X115275010Y-62177000D01*
X114274998Y-62177000D01*
X114274980Y-62177001D01*
X114172203Y-62187500D01*
X114172200Y-62187501D01*
X114005668Y-62242685D01*
X114005663Y-62242687D01*
X113856342Y-62334789D01*
X113732285Y-62458846D01*
X113730537Y-62461682D01*
X113728829Y-62463217D01*
X113727807Y-62464511D01*
X113727585Y-62464336D01*
X113678589Y-62508405D01*
X113609626Y-62519626D01*
X113545544Y-62491782D01*
X113519463Y-62461682D01*
X113517714Y-62458846D01*
X113393657Y-62334789D01*
X113393656Y-62334788D01*
X113244334Y-62242686D01*
X113077797Y-62187501D01*
X113077795Y-62187500D01*
X112975010Y-62177000D01*
X111974998Y-62177000D01*
X111974980Y-62177001D01*
X111872203Y-62187500D01*
X111872200Y-62187501D01*
X111705668Y-62242685D01*
X111705663Y-62242687D01*
X111556342Y-62334789D01*
X111450181Y-62440951D01*
X111388858Y-62474436D01*
X111319166Y-62469452D01*
X111274819Y-62440951D01*
X111168657Y-62334789D01*
X111168656Y-62334788D01*
X111019334Y-62242686D01*
X110852797Y-62187501D01*
X110852795Y-62187500D01*
X110750010Y-62177000D01*
X109749998Y-62177000D01*
X109749980Y-62177001D01*
X109647203Y-62187500D01*
X109647200Y-62187501D01*
X109480668Y-62242685D01*
X109480663Y-62242687D01*
X109331342Y-62334789D01*
X109207289Y-62458842D01*
X109115187Y-62608163D01*
X109115185Y-62608168D01*
X109112914Y-62615021D01*
X109060001Y-62774703D01*
X109060001Y-62774704D01*
X109060000Y-62774704D01*
X109049500Y-62877483D01*
X98626989Y-62877483D01*
X98587642Y-62848896D01*
X98587641Y-62848895D01*
X98587639Y-62848894D01*
X98370185Y-62738096D01*
X98138076Y-62662679D01*
X98138074Y-62662678D01*
X98138072Y-62662678D01*
X97969769Y-62636021D01*
X97897027Y-62624500D01*
X97652973Y-62624500D01*
X97597093Y-62633350D01*
X97411927Y-62662678D01*
X97179812Y-62738097D01*
X96962357Y-62848896D01*
X96764923Y-62992339D01*
X96764918Y-62992343D01*
X96592343Y-63164918D01*
X96592339Y-63164923D01*
X96448896Y-63362357D01*
X96338097Y-63579812D01*
X96262678Y-63811927D01*
X96226126Y-64042710D01*
X96224500Y-64052973D01*
X90506168Y-64052973D01*
X100928792Y-56275056D01*
X100994292Y-56250738D01*
X101002910Y-56250435D01*
X120906470Y-56244209D01*
X120973514Y-56263873D01*
X121019285Y-56316662D01*
X121029250Y-56385818D01*
X121000245Y-56449382D01*
X120994188Y-56455890D01*
X120234399Y-57215681D01*
X120173076Y-57249166D01*
X120146718Y-57252000D01*
X120119144Y-57252000D01*
X120017223Y-57262413D01*
X119852077Y-57317137D01*
X119852066Y-57317142D01*
X119704000Y-57408471D01*
X119703996Y-57408474D01*
X119580974Y-57531496D01*
X119580971Y-57531500D01*
X119580538Y-57532203D01*
X119580114Y-57532583D01*
X119576493Y-57537164D01*
X119575710Y-57536545D01*
X119528590Y-57578928D01*
X119459628Y-57590149D01*
X119395546Y-57562306D01*
X119373657Y-57537044D01*
X119373507Y-57537164D01*
X119370859Y-57533815D01*
X119369462Y-57532203D01*
X119369028Y-57531500D01*
X119369025Y-57531496D01*
X119246003Y-57408474D01*
X119245999Y-57408471D01*
X119097933Y-57317142D01*
X119097927Y-57317139D01*
X119097925Y-57317138D01*
X119097922Y-57317137D01*
X118932776Y-57262413D01*
X118830855Y-57252000D01*
X118830848Y-57252000D01*
X118244152Y-57252000D01*
X118244144Y-57252000D01*
X118142223Y-57262413D01*
X117977077Y-57317137D01*
X117977066Y-57317142D01*
X117827597Y-57409337D01*
X117760205Y-57427778D01*
X117697403Y-57409337D01*
X117547933Y-57317142D01*
X117547927Y-57317139D01*
X117547925Y-57317138D01*
X117547922Y-57317137D01*
X117382776Y-57262413D01*
X117280855Y-57252000D01*
X117280848Y-57252000D01*
X116694152Y-57252000D01*
X116694144Y-57252000D01*
X116592223Y-57262413D01*
X116427077Y-57317137D01*
X116427066Y-57317142D01*
X116279000Y-57408471D01*
X116278996Y-57408474D01*
X116155974Y-57531496D01*
X116155971Y-57531500D01*
X116155538Y-57532203D01*
X116155114Y-57532583D01*
X116151493Y-57537164D01*
X116150710Y-57536545D01*
X116103590Y-57578928D01*
X116034628Y-57590149D01*
X115970546Y-57562306D01*
X115948657Y-57537044D01*
X115948507Y-57537164D01*
X115945859Y-57533815D01*
X115944462Y-57532203D01*
X115944028Y-57531500D01*
X115944025Y-57531496D01*
X115821003Y-57408474D01*
X115820999Y-57408471D01*
X115672933Y-57317142D01*
X115672927Y-57317139D01*
X115672925Y-57317138D01*
X115672922Y-57317137D01*
X115507776Y-57262413D01*
X115405855Y-57252000D01*
X115405848Y-57252000D01*
X114819152Y-57252000D01*
X114819144Y-57252000D01*
X114717223Y-57262413D01*
X114552077Y-57317137D01*
X114552072Y-57317139D01*
X114413581Y-57402562D01*
X114346188Y-57421002D01*
X114283387Y-57402562D01*
X114185427Y-57342139D01*
X114185422Y-57342137D01*
X114020276Y-57287413D01*
X113918355Y-57277000D01*
X113918348Y-57277000D01*
X113331652Y-57277000D01*
X113331644Y-57277000D01*
X113229723Y-57287413D01*
X113064577Y-57342137D01*
X113064566Y-57342142D01*
X112916500Y-57433471D01*
X112916496Y-57433474D01*
X112793474Y-57556496D01*
X112793471Y-57556500D01*
X112793038Y-57557203D01*
X112792614Y-57557583D01*
X112788993Y-57562164D01*
X112788210Y-57561545D01*
X112741090Y-57603928D01*
X112672128Y-57615149D01*
X112608046Y-57587306D01*
X112586157Y-57562044D01*
X112586007Y-57562164D01*
X112583359Y-57558815D01*
X112581962Y-57557203D01*
X112581528Y-57556500D01*
X112581525Y-57556496D01*
X112458503Y-57433474D01*
X112458499Y-57433471D01*
X112310433Y-57342142D01*
X112310427Y-57342139D01*
X112310425Y-57342138D01*
X112234977Y-57317137D01*
X112145276Y-57287413D01*
X112043355Y-57277000D01*
X112043348Y-57277000D01*
X111456652Y-57277000D01*
X111456644Y-57277000D01*
X111354723Y-57287413D01*
X111189577Y-57342137D01*
X111189572Y-57342139D01*
X111065097Y-57418917D01*
X110997704Y-57437357D01*
X110934903Y-57418917D01*
X110810427Y-57342139D01*
X110810422Y-57342137D01*
X110645276Y-57287413D01*
X110543355Y-57277000D01*
X110543348Y-57277000D01*
X109956652Y-57277000D01*
X109956644Y-57277000D01*
X109854723Y-57287413D01*
X109689577Y-57342137D01*
X109689566Y-57342142D01*
X109541500Y-57433471D01*
X109541496Y-57433474D01*
X109418474Y-57556496D01*
X109418471Y-57556500D01*
X109418038Y-57557203D01*
X109417614Y-57557583D01*
X109413993Y-57562164D01*
X109413210Y-57561545D01*
X109366090Y-57603928D01*
X109297128Y-57615149D01*
X109233046Y-57587306D01*
X109211157Y-57562044D01*
X109211007Y-57562164D01*
X109208359Y-57558815D01*
X109206962Y-57557203D01*
X109206528Y-57556500D01*
X109206525Y-57556496D01*
X109083503Y-57433474D01*
X109083499Y-57433471D01*
X108935433Y-57342142D01*
X108935427Y-57342139D01*
X108935425Y-57342138D01*
X108859977Y-57317137D01*
X108770276Y-57287413D01*
X108668355Y-57277000D01*
X108668348Y-57277000D01*
X108081652Y-57277000D01*
X108081644Y-57277000D01*
X107979723Y-57287413D01*
X107814577Y-57342137D01*
X107814566Y-57342142D01*
X107666500Y-57433471D01*
X107666496Y-57433474D01*
X107543474Y-57556496D01*
X107543471Y-57556500D01*
X107452142Y-57704566D01*
X107452137Y-57704577D01*
X107397413Y-57869723D01*
X107387000Y-57971644D01*
X107387000Y-58983355D01*
X107397413Y-59085276D01*
X107452137Y-59250422D01*
X107452141Y-59250431D01*
X107464469Y-59270417D01*
X107481037Y-59297278D01*
X107499500Y-59362375D01*
X107499500Y-59938733D01*
X107533143Y-60107866D01*
X107533146Y-60107878D01*
X107599138Y-60267198D01*
X107599145Y-60267211D01*
X107694954Y-60410598D01*
X107694957Y-60410602D01*
X108194955Y-60910599D01*
X108277624Y-60993268D01*
X108316902Y-61032546D01*
X108460288Y-61128354D01*
X108460301Y-61128361D01*
X108619621Y-61194353D01*
X108619626Y-61194355D01*
X108788766Y-61227999D01*
X108788769Y-61228000D01*
X108788771Y-61228000D01*
X110361231Y-61228000D01*
X110361232Y-61227999D01*
X110530374Y-61194355D01*
X110689705Y-61128358D01*
X110833099Y-61032545D01*
X110955045Y-60910599D01*
X111050858Y-60767205D01*
X111116855Y-60607874D01*
X111150500Y-60438729D01*
X111150500Y-60266271D01*
X111150500Y-60266268D01*
X111150499Y-60266266D01*
X111132635Y-60176459D01*
X111116855Y-60097126D01*
X111098718Y-60053340D01*
X111050861Y-59937801D01*
X111050854Y-59937788D01*
X110955045Y-59794401D01*
X110955042Y-59794397D01*
X110898482Y-59737837D01*
X110887337Y-59717427D01*
X110872435Y-59699572D01*
X110870906Y-59687335D01*
X110864997Y-59676514D01*
X110866655Y-59653316D01*
X110863773Y-59630241D01*
X110869101Y-59619122D01*
X110869981Y-59606822D01*
X110883918Y-59588204D01*
X110893968Y-59567234D01*
X110909024Y-59554667D01*
X110911853Y-59550889D01*
X110921065Y-59544618D01*
X110934902Y-59536082D01*
X111002294Y-59517642D01*
X111065097Y-59536083D01*
X111189566Y-59612857D01*
X111189569Y-59612858D01*
X111189575Y-59612862D01*
X111354725Y-59667587D01*
X111456652Y-59678000D01*
X111525500Y-59678000D01*
X111592539Y-59697685D01*
X111638294Y-59750489D01*
X111649500Y-59802000D01*
X111649500Y-60438733D01*
X111683143Y-60607866D01*
X111683146Y-60607878D01*
X111749138Y-60767198D01*
X111749145Y-60767211D01*
X111844954Y-60910598D01*
X111844957Y-60910602D01*
X111966897Y-61032542D01*
X111966901Y-61032545D01*
X112110288Y-61128354D01*
X112110301Y-61128361D01*
X112269621Y-61194353D01*
X112269626Y-61194355D01*
X112438766Y-61227999D01*
X112438769Y-61228000D01*
X112438771Y-61228000D01*
X112611231Y-61228000D01*
X112611232Y-61227999D01*
X112780374Y-61194355D01*
X112939705Y-61128358D01*
X113083099Y-61032545D01*
X113205045Y-60910599D01*
X113300858Y-60767205D01*
X113366855Y-60607874D01*
X113400500Y-60438729D01*
X113400500Y-59802000D01*
X113420185Y-59734961D01*
X113472989Y-59689206D01*
X113524500Y-59678000D01*
X113918343Y-59678000D01*
X113918348Y-59678000D01*
X113929317Y-59676879D01*
X113998008Y-59689647D01*
X114048894Y-59737526D01*
X114065817Y-59805315D01*
X114045023Y-59869128D01*
X113999145Y-59937788D01*
X113999138Y-59937801D01*
X113933146Y-60097121D01*
X113933143Y-60097133D01*
X113899500Y-60266266D01*
X113899500Y-60438733D01*
X113933143Y-60607866D01*
X113933146Y-60607878D01*
X113999138Y-60767198D01*
X113999145Y-60767211D01*
X114094954Y-60910598D01*
X114094957Y-60910602D01*
X114216897Y-61032542D01*
X114216901Y-61032545D01*
X114360288Y-61128354D01*
X114360301Y-61128361D01*
X114519621Y-61194353D01*
X114519626Y-61194355D01*
X114688766Y-61227999D01*
X114688769Y-61228000D01*
X114688771Y-61228000D01*
X114861231Y-61228000D01*
X114861232Y-61227999D01*
X115030374Y-61194355D01*
X115189705Y-61128358D01*
X115333099Y-61032545D01*
X115792545Y-60573099D01*
X115888358Y-60429705D01*
X115888360Y-60429698D01*
X115891228Y-60424335D01*
X115893252Y-60425416D01*
X115930667Y-60378974D01*
X115996958Y-60356900D01*
X116064660Y-60374169D01*
X116112278Y-60425299D01*
X116123019Y-60456629D01*
X116145643Y-60570366D01*
X116145646Y-60570378D01*
X116211638Y-60729698D01*
X116211645Y-60729711D01*
X116307454Y-60873098D01*
X116307457Y-60873102D01*
X116466897Y-61032542D01*
X116466901Y-61032545D01*
X116610288Y-61128354D01*
X116610301Y-61128361D01*
X116769621Y-61194353D01*
X116769626Y-61194355D01*
X116938766Y-61227999D01*
X116938769Y-61228000D01*
X116938771Y-61228000D01*
X117111231Y-61228000D01*
X117111232Y-61227999D01*
X117280374Y-61194355D01*
X117439705Y-61128358D01*
X117583099Y-61032545D01*
X117705045Y-60910599D01*
X117800858Y-60767205D01*
X117866855Y-60607874D01*
X117900500Y-60438729D01*
X117900500Y-60266271D01*
X117900500Y-60266268D01*
X117900499Y-60266266D01*
X117865667Y-60091151D01*
X117866694Y-60090946D01*
X117863000Y-60066023D01*
X117863000Y-59721781D01*
X117882685Y-59654742D01*
X117935489Y-59608987D01*
X118004647Y-59599043D01*
X118026000Y-59604074D01*
X118142225Y-59642587D01*
X118244152Y-59653000D01*
X118457448Y-59653000D01*
X118524487Y-59672685D01*
X118570242Y-59725489D01*
X118580186Y-59794647D01*
X118560550Y-59845891D01*
X118499145Y-59937788D01*
X118499138Y-59937801D01*
X118433146Y-60097121D01*
X118433143Y-60097133D01*
X118399500Y-60266266D01*
X118399500Y-60438733D01*
X118433143Y-60607866D01*
X118433146Y-60607878D01*
X118499138Y-60767198D01*
X118499145Y-60767211D01*
X118594954Y-60910598D01*
X118594957Y-60910602D01*
X118716897Y-61032542D01*
X118716901Y-61032545D01*
X118860288Y-61128354D01*
X118860301Y-61128361D01*
X119019621Y-61194353D01*
X119019626Y-61194355D01*
X119188766Y-61227999D01*
X119188769Y-61228000D01*
X119188771Y-61228000D01*
X119361231Y-61228000D01*
X119361232Y-61227999D01*
X119530374Y-61194355D01*
X119689705Y-61128358D01*
X119833099Y-61032545D01*
X121092545Y-59773099D01*
X121188358Y-59629705D01*
X121254355Y-59470374D01*
X121283355Y-59324574D01*
X121299433Y-59283671D01*
X121335362Y-59225425D01*
X121390087Y-59060275D01*
X121400500Y-58958348D01*
X121400500Y-58930781D01*
X121420185Y-58863742D01*
X121436815Y-58843104D01*
X121693018Y-58586900D01*
X121754341Y-58553416D01*
X121824033Y-58558400D01*
X121879966Y-58600272D01*
X121902316Y-58650390D01*
X121933143Y-58805368D01*
X121933146Y-58805378D01*
X121999139Y-58964700D01*
X121999140Y-58964702D01*
X121999141Y-58964704D01*
X121999142Y-58964705D01*
X122003599Y-58971376D01*
X122024480Y-59038050D01*
X122024500Y-59040270D01*
X122024500Y-73123918D01*
X122024500Y-73123920D01*
X122024499Y-73123920D01*
X122053340Y-73268907D01*
X122053343Y-73268917D01*
X122109914Y-73405492D01*
X122142812Y-73454727D01*
X122142813Y-73454730D01*
X122192046Y-73528414D01*
X122192052Y-73528421D01*
X122572642Y-73909009D01*
X122606127Y-73970332D01*
X122606578Y-73972498D01*
X122608143Y-73980368D01*
X122608146Y-73980378D01*
X122674138Y-74139698D01*
X122674145Y-74139711D01*
X122769954Y-74283098D01*
X122769957Y-74283102D01*
X122891897Y-74405042D01*
X122891901Y-74405045D01*
X123035288Y-74500854D01*
X123035301Y-74500861D01*
X123131255Y-74540606D01*
X123194626Y-74566855D01*
X123358744Y-74599500D01*
X123363766Y-74600499D01*
X123363769Y-74600500D01*
X123363771Y-74600500D01*
X123536231Y-74600500D01*
X123536232Y-74600499D01*
X123705374Y-74566855D01*
X123864705Y-74500858D01*
X124008099Y-74405045D01*
X124130045Y-74283099D01*
X124225858Y-74139705D01*
X124291855Y-73980374D01*
X124325500Y-73811229D01*
X124325500Y-73638771D01*
X124325500Y-73638768D01*
X124325499Y-73638766D01*
X124303549Y-73528416D01*
X124291855Y-73469626D01*
X124285685Y-73454730D01*
X124225861Y-73310301D01*
X124225854Y-73310288D01*
X124130045Y-73166901D01*
X124130042Y-73166897D01*
X124008102Y-73044957D01*
X124008098Y-73044954D01*
X123864711Y-72949145D01*
X123864698Y-72949138D01*
X123705378Y-72883146D01*
X123705369Y-72883143D01*
X123697498Y-72881578D01*
X123680742Y-72872812D01*
X123662263Y-72868793D01*
X123637222Y-72850047D01*
X123635587Y-72849192D01*
X123634009Y-72847642D01*
X123561818Y-72775450D01*
X123528334Y-72714126D01*
X123525500Y-72687769D01*
X123525500Y-59040270D01*
X123545185Y-58973231D01*
X123546361Y-58971434D01*
X123550858Y-58964705D01*
X123616855Y-58805374D01*
X123650500Y-58636229D01*
X123650500Y-58463771D01*
X123650500Y-58463768D01*
X123650499Y-58463766D01*
X123635460Y-58388160D01*
X123616855Y-58294626D01*
X123563485Y-58165781D01*
X123556017Y-58096312D01*
X123587292Y-58033833D01*
X123647381Y-57998181D01*
X123717206Y-58000675D01*
X123765727Y-58030647D01*
X124426318Y-58691239D01*
X125072397Y-59337318D01*
X125105882Y-59398641D01*
X125100898Y-59468333D01*
X125072398Y-59512680D01*
X124947860Y-59637218D01*
X124838371Y-59801079D01*
X124838364Y-59801092D01*
X124762950Y-59983160D01*
X124762947Y-59983170D01*
X124724500Y-60176456D01*
X124724500Y-100609217D01*
X124704815Y-100676256D01*
X124688181Y-100696898D01*
X121921899Y-103463181D01*
X121860576Y-103496666D01*
X121834218Y-103499500D01*
X93714500Y-103499500D01*
X93647461Y-103479815D01*
X93601706Y-103427011D01*
X93590500Y-103375500D01*
X93590500Y-100258413D01*
X93596966Y-100236390D01*
X93598913Y-100213517D01*
X93607588Y-100200215D01*
X93610185Y-100191374D01*
X93616244Y-100182771D01*
X93621141Y-100176409D01*
X93649852Y-100147699D01*
X93760695Y-99995134D01*
X93761744Y-99993773D01*
X93788647Y-99974193D01*
X93815011Y-99953864D01*
X93816791Y-99953711D01*
X93818237Y-99952659D01*
X93851480Y-99950731D01*
X93884624Y-99947885D01*
X93886203Y-99948718D01*
X93887990Y-99948615D01*
X93916998Y-99964966D01*
X93946420Y-99980490D01*
X93948216Y-99982563D01*
X93948856Y-99982924D01*
X93949367Y-99983891D01*
X93960313Y-99996523D01*
X94049238Y-100118918D01*
X94070148Y-100147699D01*
X94224806Y-100302357D01*
X94353072Y-100395546D01*
X94401743Y-100430907D01*
X94529132Y-100495815D01*
X94596616Y-100530201D01*
X94596619Y-100530202D01*
X94700621Y-100563993D01*
X94804625Y-100597786D01*
X94904672Y-100613632D01*
X95020639Y-100632000D01*
X95020644Y-100632000D01*
X95239361Y-100632000D01*
X95344082Y-100615412D01*
X95455375Y-100597786D01*
X95663383Y-100530201D01*
X95858257Y-100430907D01*
X95971809Y-100348407D01*
X96035193Y-100302357D01*
X96035195Y-100302354D01*
X96035199Y-100302352D01*
X96189852Y-100147699D01*
X96189854Y-100147695D01*
X96189857Y-100147693D01*
X96285348Y-100016259D01*
X96318407Y-99970757D01*
X96417701Y-99775883D01*
X96485286Y-99567875D01*
X96505194Y-99442182D01*
X96519500Y-99351861D01*
X96519500Y-99133138D01*
X96499595Y-99007471D01*
X96485286Y-98917125D01*
X96443895Y-98789734D01*
X96417702Y-98709119D01*
X96417701Y-98709116D01*
X96375664Y-98626616D01*
X96318407Y-98514243D01*
X96299681Y-98488469D01*
X96189857Y-98337306D01*
X96035193Y-98182642D01*
X95858260Y-98054095D01*
X95858259Y-98054094D01*
X95858257Y-98054093D01*
X95795825Y-98022282D01*
X95663383Y-97954798D01*
X95663380Y-97954797D01*
X95455376Y-97887214D01*
X95239361Y-97853000D01*
X95239356Y-97853000D01*
X95020644Y-97853000D01*
X95020639Y-97853000D01*
X94804623Y-97887214D01*
X94596619Y-97954797D01*
X94596616Y-97954798D01*
X94401739Y-98054095D01*
X94224806Y-98182642D01*
X94070142Y-98337306D01*
X93960318Y-98488469D01*
X93904989Y-98531135D01*
X93835375Y-98537114D01*
X93773580Y-98504509D01*
X93759682Y-98488469D01*
X93649857Y-98337306D01*
X93495193Y-98182642D01*
X93318260Y-98054095D01*
X93318259Y-98054094D01*
X93318257Y-98054093D01*
X93255825Y-98022282D01*
X93123383Y-97954798D01*
X93123380Y-97954797D01*
X92915376Y-97887214D01*
X92699361Y-97853000D01*
X92699356Y-97853000D01*
X92480644Y-97853000D01*
X92480639Y-97853000D01*
X92264623Y-97887214D01*
X92056619Y-97954797D01*
X92056616Y-97954798D01*
X91861739Y-98054095D01*
X91684806Y-98182642D01*
X91530142Y-98337306D01*
X91401595Y-98514239D01*
X91302298Y-98709116D01*
X91302297Y-98709119D01*
X91234714Y-98917123D01*
X91200500Y-99133138D01*
X91200500Y-99351861D01*
X91234714Y-99567876D01*
X91302297Y-99775880D01*
X91302298Y-99775883D01*
X91330724Y-99831670D01*
X91399581Y-99966809D01*
X91401595Y-99970760D01*
X91530142Y-100147693D01*
X91553181Y-100170732D01*
X91586666Y-100232055D01*
X91589500Y-100258413D01*
X91589500Y-104563544D01*
X91627947Y-104756833D01*
X91627949Y-104756836D01*
X91650038Y-104810165D01*
X91668892Y-104855683D01*
X91703366Y-104938911D01*
X91703371Y-104938920D01*
X91812860Y-105102781D01*
X91812863Y-105102785D01*
X91837646Y-105127567D01*
X91847860Y-105137781D01*
X91847861Y-105137782D01*
X91987218Y-105277139D01*
X92151086Y-105386632D01*
X92238764Y-105422949D01*
X92333164Y-105462051D01*
X92515721Y-105498364D01*
X92526454Y-105500499D01*
X92526457Y-105500500D01*
X92526459Y-105500500D01*
X122398542Y-105500500D01*
X122413212Y-105497581D01*
X122495188Y-105481275D01*
X122591836Y-105462051D01*
X122686236Y-105422949D01*
X122773914Y-105386632D01*
X122937782Y-105277139D01*
X123077139Y-105137782D01*
X123077139Y-105137780D01*
X123087347Y-105127573D01*
X123087348Y-105127570D01*
X126502139Y-101712782D01*
X126546069Y-101647036D01*
X126611631Y-101548916D01*
X126611636Y-101548906D01*
X126687049Y-101366839D01*
X126687051Y-101366835D01*
X126724986Y-101176125D01*
X126725500Y-101173543D01*
X126725500Y-94699500D01*
X126745185Y-94632461D01*
X126797989Y-94586706D01*
X126849500Y-94575500D01*
X130496042Y-94575500D01*
X130527600Y-94569222D01*
X130592688Y-94556275D01*
X130689336Y-94537051D01*
X130756854Y-94509084D01*
X130871414Y-94461632D01*
X131035282Y-94352139D01*
X131174639Y-94212782D01*
X131174639Y-94212780D01*
X131184847Y-94202573D01*
X131184848Y-94202570D01*
X133277320Y-92110099D01*
X133338641Y-92076616D01*
X133408333Y-92081600D01*
X133452680Y-92110101D01*
X137107215Y-95764637D01*
X137107219Y-95764640D01*
X137271079Y-95874128D01*
X137271088Y-95874133D01*
X137312334Y-95891217D01*
X137453165Y-95949552D01*
X137646455Y-95987999D01*
X137646459Y-95988000D01*
X137646460Y-95988000D01*
X137843542Y-95988000D01*
X137843543Y-95987999D01*
X138036836Y-95949552D01*
X138218915Y-95874132D01*
X138382782Y-95764640D01*
X138522140Y-95625282D01*
X138522141Y-95625278D01*
X138529198Y-95618222D01*
X138529203Y-95618215D01*
X138935603Y-95211816D01*
X138996925Y-95178334D01*
X139023283Y-95175500D01*
X150108648Y-95175500D01*
X150175687Y-95195185D01*
X150205252Y-95224409D01*
X150206328Y-95223533D01*
X150338890Y-95386109D01*
X150432803Y-95462684D01*
X150496593Y-95514698D01*
X150676951Y-95608909D01*
X150872582Y-95664886D01*
X150991963Y-95675500D01*
X151325500Y-95675499D01*
X151392539Y-95695183D01*
X151438294Y-95747987D01*
X151449500Y-95799499D01*
X151449500Y-99187073D01*
X151442678Y-99210304D01*
X151440120Y-99234384D01*
X151431161Y-99249524D01*
X151429815Y-99254112D01*
X151422148Y-99264760D01*
X151396647Y-99296485D01*
X151339304Y-99336404D01*
X151269482Y-99338984D01*
X151209349Y-99303406D01*
X151203352Y-99296485D01*
X151147722Y-99227278D01*
X151147721Y-99227277D01*
X150999295Y-99107969D01*
X150999292Y-99107967D01*
X150828697Y-99023360D01*
X150643892Y-98977400D01*
X150622506Y-98975950D01*
X150601123Y-98974500D01*
X150601120Y-98974500D01*
X149698877Y-98974500D01*
X149698874Y-98974501D01*
X149656113Y-98977399D01*
X149656112Y-98977399D01*
X149471303Y-99023360D01*
X149300707Y-99107967D01*
X149300704Y-99107969D01*
X149152278Y-99227277D01*
X149152277Y-99227278D01*
X149032969Y-99375704D01*
X149032967Y-99375707D01*
X148948360Y-99546302D01*
X148902400Y-99731107D01*
X148899500Y-99773879D01*
X148899500Y-101176122D01*
X148899501Y-101176125D01*
X148902399Y-101218886D01*
X148902399Y-101218887D01*
X148948360Y-101403696D01*
X149032967Y-101574292D01*
X149032969Y-101574295D01*
X149122147Y-101685237D01*
X149148806Y-101749821D01*
X149149500Y-101762924D01*
X149149500Y-105265001D01*
X149149501Y-105265019D01*
X149160000Y-105367796D01*
X149160001Y-105367799D01*
X149215185Y-105534331D01*
X149215186Y-105534334D01*
X149307288Y-105683656D01*
X149431344Y-105807712D01*
X149580666Y-105899814D01*
X149747203Y-105954999D01*
X149849991Y-105965500D01*
X149909216Y-105965499D01*
X149976255Y-105985182D01*
X149996898Y-106001818D01*
X150250735Y-106255655D01*
X150250764Y-106255686D01*
X150393214Y-106398136D01*
X150393218Y-106398139D01*
X150557079Y-106507628D01*
X150557086Y-106507632D01*
X150664949Y-106552310D01*
X150739164Y-106583051D01*
X150835812Y-106602275D01*
X150906892Y-106616414D01*
X150932458Y-106621500D01*
X150932459Y-106621500D01*
X150932460Y-106621500D01*
X151129540Y-106621500D01*
X152605218Y-106621500D01*
X152672257Y-106641185D01*
X152692899Y-106657819D01*
X156013181Y-109978102D01*
X156046666Y-110039425D01*
X156049500Y-110065783D01*
X156049500Y-110847870D01*
X156049501Y-110847876D01*
X156055908Y-110907483D01*
X156106202Y-111042328D01*
X156106206Y-111042335D01*
X156192452Y-111157544D01*
X156192455Y-111157547D01*
X156307664Y-111243793D01*
X156307671Y-111243797D01*
X156442517Y-111294091D01*
X156442516Y-111294091D01*
X156449444Y-111294835D01*
X156502127Y-111300500D01*
X158297872Y-111300499D01*
X158357483Y-111294091D01*
X158492331Y-111243796D01*
X158607546Y-111157546D01*
X158693796Y-111042331D01*
X158711824Y-110993995D01*
X163424499Y-110993995D01*
X163451418Y-111129322D01*
X163451421Y-111129332D01*
X163504221Y-111256804D01*
X163504228Y-111256817D01*
X163580885Y-111371541D01*
X163580888Y-111371545D01*
X163678454Y-111469111D01*
X163678458Y-111469114D01*
X163793182Y-111545771D01*
X163793195Y-111545778D01*
X163915018Y-111596238D01*
X163920672Y-111598580D01*
X163920676Y-111598580D01*
X163920677Y-111598581D01*
X164056004Y-111625500D01*
X164056007Y-111625500D01*
X164193995Y-111625500D01*
X164289120Y-111606578D01*
X164329328Y-111598580D01*
X164456811Y-111545775D01*
X164571542Y-111469114D01*
X164669114Y-111371542D01*
X164745775Y-111256811D01*
X164798580Y-111129328D01*
X164825500Y-110993995D01*
X166424499Y-110993995D01*
X166451418Y-111129322D01*
X166451421Y-111129332D01*
X166504221Y-111256804D01*
X166504228Y-111256817D01*
X166580885Y-111371541D01*
X166580888Y-111371545D01*
X166678454Y-111469111D01*
X166678458Y-111469114D01*
X166793182Y-111545771D01*
X166793195Y-111545778D01*
X166915018Y-111596238D01*
X166920672Y-111598580D01*
X166920676Y-111598580D01*
X166920677Y-111598581D01*
X167056004Y-111625500D01*
X167056007Y-111625500D01*
X167193995Y-111625500D01*
X167289120Y-111606578D01*
X167329328Y-111598580D01*
X167456811Y-111545775D01*
X167571542Y-111469114D01*
X167669114Y-111371542D01*
X167745775Y-111256811D01*
X167798580Y-111129328D01*
X167825500Y-110993993D01*
X167825500Y-110856007D01*
X167825500Y-110856004D01*
X167798581Y-110720677D01*
X167798580Y-110720676D01*
X167798580Y-110720672D01*
X167763697Y-110636456D01*
X167745778Y-110593195D01*
X167745771Y-110593182D01*
X167669114Y-110478458D01*
X167669111Y-110478454D01*
X167571545Y-110380888D01*
X167571541Y-110380885D01*
X167456817Y-110304228D01*
X167456804Y-110304221D01*
X167329332Y-110251421D01*
X167329322Y-110251418D01*
X167193995Y-110224500D01*
X167193993Y-110224500D01*
X167056007Y-110224500D01*
X167056005Y-110224500D01*
X166920677Y-110251418D01*
X166920667Y-110251421D01*
X166793195Y-110304221D01*
X166793182Y-110304228D01*
X166678458Y-110380885D01*
X166678454Y-110380888D01*
X166580888Y-110478454D01*
X166580885Y-110478458D01*
X166504228Y-110593182D01*
X166504221Y-110593195D01*
X166451421Y-110720667D01*
X166451418Y-110720677D01*
X166424500Y-110856004D01*
X166424500Y-110856007D01*
X166424500Y-110993993D01*
X166424500Y-110993995D01*
X166424499Y-110993995D01*
X164825500Y-110993995D01*
X164825500Y-110993993D01*
X164825500Y-110856007D01*
X164825500Y-110856004D01*
X164798581Y-110720677D01*
X164798580Y-110720676D01*
X164798580Y-110720672D01*
X164763697Y-110636456D01*
X164745778Y-110593195D01*
X164745771Y-110593182D01*
X164669114Y-110478458D01*
X164669111Y-110478454D01*
X164571545Y-110380888D01*
X164571541Y-110380885D01*
X164456817Y-110304228D01*
X164456804Y-110304221D01*
X164329332Y-110251421D01*
X164329322Y-110251418D01*
X164193995Y-110224500D01*
X164193993Y-110224500D01*
X164056007Y-110224500D01*
X164056005Y-110224500D01*
X163920677Y-110251418D01*
X163920667Y-110251421D01*
X163793195Y-110304221D01*
X163793182Y-110304228D01*
X163678458Y-110380885D01*
X163678454Y-110380888D01*
X163580888Y-110478454D01*
X163580885Y-110478458D01*
X163504228Y-110593182D01*
X163504221Y-110593195D01*
X163451421Y-110720667D01*
X163451418Y-110720677D01*
X163424500Y-110856004D01*
X163424500Y-110856007D01*
X163424500Y-110993993D01*
X163424500Y-110993995D01*
X163424499Y-110993995D01*
X158711824Y-110993995D01*
X158744091Y-110907483D01*
X158750500Y-110847873D01*
X158750499Y-109052128D01*
X158744091Y-108992517D01*
X158693796Y-108857669D01*
X158693795Y-108857668D01*
X158693793Y-108857664D01*
X158607547Y-108742455D01*
X158607544Y-108742452D01*
X158492335Y-108656206D01*
X158492328Y-108656202D01*
X158357482Y-108605908D01*
X158357483Y-108605908D01*
X158297883Y-108599501D01*
X158297881Y-108599500D01*
X158297873Y-108599500D01*
X158297865Y-108599500D01*
X157515783Y-108599500D01*
X157448744Y-108579815D01*
X157428102Y-108563181D01*
X153855209Y-104990289D01*
X153855206Y-104990285D01*
X153855206Y-104990286D01*
X153848139Y-104983219D01*
X153848139Y-104983218D01*
X153708782Y-104843861D01*
X153708781Y-104843860D01*
X153708780Y-104843859D01*
X153544920Y-104734371D01*
X153544911Y-104734366D01*
X153450936Y-104695441D01*
X153416165Y-104681038D01*
X153362836Y-104658949D01*
X153236258Y-104633771D01*
X153194060Y-104625377D01*
X153169542Y-104620500D01*
X153169541Y-104620500D01*
X151496782Y-104620500D01*
X151429743Y-104600815D01*
X151409101Y-104584181D01*
X151186819Y-104361899D01*
X151153334Y-104300576D01*
X151150500Y-104274218D01*
X151150500Y-103314906D01*
X151170185Y-103247867D01*
X151222989Y-103202112D01*
X151292147Y-103192168D01*
X151355703Y-103221193D01*
X151371770Y-103238000D01*
X151372285Y-103238652D01*
X151372288Y-103238656D01*
X151496344Y-103362712D01*
X151645666Y-103454814D01*
X151812203Y-103509999D01*
X151914991Y-103520500D01*
X152965008Y-103520499D01*
X152965016Y-103520498D01*
X152965019Y-103520498D01*
X153021302Y-103514748D01*
X153067797Y-103509999D01*
X153234334Y-103454814D01*
X153383656Y-103362712D01*
X153507712Y-103238656D01*
X153599814Y-103089334D01*
X153654999Y-102922797D01*
X153665500Y-102820009D01*
X153665499Y-102219992D01*
X153654999Y-102117203D01*
X153599814Y-101950666D01*
X153507712Y-101801344D01*
X153507710Y-101801342D01*
X153503920Y-101795197D01*
X153505060Y-101794493D01*
X153481801Y-101736842D01*
X153494839Y-101668200D01*
X153508560Y-101647036D01*
X153567030Y-101574296D01*
X153651641Y-101403693D01*
X153697600Y-101218889D01*
X153700500Y-101176123D01*
X153700499Y-99773878D01*
X153697600Y-99731111D01*
X153651641Y-99546307D01*
X153567030Y-99375704D01*
X153481546Y-99269356D01*
X153477852Y-99264760D01*
X153468613Y-99242376D01*
X153455523Y-99222008D01*
X153453019Y-99204598D01*
X153451194Y-99200175D01*
X153450500Y-99187073D01*
X153450500Y-99050638D01*
X175820500Y-99050638D01*
X175820500Y-99269361D01*
X175854714Y-99485376D01*
X175922297Y-99693380D01*
X175922298Y-99693383D01*
X176021595Y-99888260D01*
X176150142Y-100065193D01*
X176304806Y-100219857D01*
X176441204Y-100318954D01*
X176481743Y-100348407D01*
X176574258Y-100395546D01*
X176676616Y-100447701D01*
X176676619Y-100447702D01*
X176747257Y-100470653D01*
X176884625Y-100515286D01*
X176978795Y-100530201D01*
X177100639Y-100549500D01*
X177100644Y-100549500D01*
X177319361Y-100549500D01*
X177424082Y-100532912D01*
X177535375Y-100515286D01*
X177743383Y-100447701D01*
X177938257Y-100348407D01*
X178053940Y-100264359D01*
X178115193Y-100219857D01*
X178115195Y-100219854D01*
X178115199Y-100219852D01*
X178269852Y-100065199D01*
X178379683Y-99914028D01*
X178435011Y-99871364D01*
X178504624Y-99865385D01*
X178566420Y-99897990D01*
X178580313Y-99914023D01*
X178690144Y-100065193D01*
X178690148Y-100065199D01*
X178844806Y-100219857D01*
X178981204Y-100318954D01*
X179021743Y-100348407D01*
X179114258Y-100395546D01*
X179216616Y-100447701D01*
X179216619Y-100447702D01*
X179287257Y-100470653D01*
X179424625Y-100515286D01*
X179518795Y-100530201D01*
X179640639Y-100549500D01*
X179640644Y-100549500D01*
X179859361Y-100549500D01*
X179964082Y-100532912D01*
X180075375Y-100515286D01*
X180283383Y-100447701D01*
X180478257Y-100348407D01*
X180593940Y-100264359D01*
X180655193Y-100219857D01*
X180655195Y-100219854D01*
X180655199Y-100219852D01*
X180809852Y-100065199D01*
X180809854Y-100065195D01*
X180809857Y-100065193D01*
X180890852Y-99953711D01*
X180938407Y-99888257D01*
X181037701Y-99693383D01*
X181105286Y-99485375D01*
X181128881Y-99336404D01*
X181139500Y-99269361D01*
X181139500Y-99050638D01*
X181105285Y-98834621D01*
X181067889Y-98719524D01*
X181056755Y-98685258D01*
X194524500Y-98685258D01*
X194524500Y-98914741D01*
X194532750Y-98977399D01*
X194554452Y-99142238D01*
X194588513Y-99269356D01*
X194613842Y-99363887D01*
X194701650Y-99575876D01*
X194701657Y-99575890D01*
X194722443Y-99611892D01*
X194791271Y-99731107D01*
X194816392Y-99774617D01*
X194956081Y-99956661D01*
X194956089Y-99956670D01*
X195118330Y-100118911D01*
X195118338Y-100118918D01*
X195300382Y-100258607D01*
X195300385Y-100258608D01*
X195300388Y-100258611D01*
X195499112Y-100373344D01*
X195499117Y-100373346D01*
X195499123Y-100373349D01*
X195552712Y-100395546D01*
X195711113Y-100461158D01*
X195932762Y-100520548D01*
X196160266Y-100550500D01*
X196160273Y-100550500D01*
X196389727Y-100550500D01*
X196389734Y-100550500D01*
X196617238Y-100520548D01*
X196838887Y-100461158D01*
X197050888Y-100373344D01*
X197249612Y-100258611D01*
X197431661Y-100118919D01*
X197431665Y-100118914D01*
X197431670Y-100118911D01*
X197593911Y-99956670D01*
X197593914Y-99956665D01*
X197593919Y-99956661D01*
X197733611Y-99774612D01*
X197848344Y-99575888D01*
X197936158Y-99363887D01*
X197995548Y-99142238D01*
X198025500Y-98914734D01*
X198025500Y-98685266D01*
X197995548Y-98457762D01*
X197936158Y-98236113D01*
X197879837Y-98100142D01*
X197848349Y-98024123D01*
X197848346Y-98024117D01*
X197848344Y-98024112D01*
X197733611Y-97825388D01*
X197733608Y-97825385D01*
X197733607Y-97825382D01*
X197593918Y-97643338D01*
X197593911Y-97643330D01*
X197431670Y-97481089D01*
X197431661Y-97481081D01*
X197249617Y-97341392D01*
X197196976Y-97311000D01*
X197050888Y-97226656D01*
X197050876Y-97226650D01*
X196838887Y-97138842D01*
X196617238Y-97079452D01*
X196569340Y-97073146D01*
X196389741Y-97049500D01*
X196389734Y-97049500D01*
X196160266Y-97049500D01*
X196160258Y-97049500D01*
X195943715Y-97078009D01*
X195932762Y-97079452D01*
X195849917Y-97101650D01*
X195711112Y-97138842D01*
X195499123Y-97226650D01*
X195499109Y-97226657D01*
X195300382Y-97341392D01*
X195118338Y-97481081D01*
X194956081Y-97643338D01*
X194816392Y-97825382D01*
X194701657Y-98024109D01*
X194701650Y-98024123D01*
X194613842Y-98236112D01*
X194608833Y-98254806D01*
X194555296Y-98454614D01*
X194554453Y-98457759D01*
X194554451Y-98457770D01*
X194524500Y-98685258D01*
X181056755Y-98685258D01*
X181037702Y-98626619D01*
X181037701Y-98626616D01*
X181003315Y-98559132D01*
X180938407Y-98431743D01*
X180919681Y-98405969D01*
X180809857Y-98254806D01*
X180655193Y-98100142D01*
X180478260Y-97971595D01*
X180478259Y-97971594D01*
X180478257Y-97971593D01*
X180415825Y-97939782D01*
X180283383Y-97872298D01*
X180283380Y-97872297D01*
X180075376Y-97804714D01*
X179859361Y-97770500D01*
X179859356Y-97770500D01*
X179640644Y-97770500D01*
X179640639Y-97770500D01*
X179424623Y-97804714D01*
X179216619Y-97872297D01*
X179216616Y-97872298D01*
X179021739Y-97971595D01*
X178844806Y-98100142D01*
X178690142Y-98254806D01*
X178580318Y-98405969D01*
X178524989Y-98448635D01*
X178455375Y-98454614D01*
X178393580Y-98422009D01*
X178379682Y-98405969D01*
X178269857Y-98254806D01*
X178115193Y-98100142D01*
X177938260Y-97971595D01*
X177938259Y-97971594D01*
X177938257Y-97971593D01*
X177875825Y-97939782D01*
X177743383Y-97872298D01*
X177743380Y-97872297D01*
X177535376Y-97804714D01*
X177319361Y-97770500D01*
X177319356Y-97770500D01*
X177100644Y-97770500D01*
X177100639Y-97770500D01*
X176884623Y-97804714D01*
X176676619Y-97872297D01*
X176676616Y-97872298D01*
X176481739Y-97971595D01*
X176304806Y-98100142D01*
X176150142Y-98254806D01*
X176021595Y-98431739D01*
X175922298Y-98626616D01*
X175922297Y-98626619D01*
X175854714Y-98834623D01*
X175820500Y-99050638D01*
X153450500Y-99050638D01*
X153450500Y-95799499D01*
X153470185Y-95732460D01*
X153522989Y-95686705D01*
X153574500Y-95675499D01*
X153908028Y-95675499D01*
X153908036Y-95675499D01*
X154027418Y-95664886D01*
X154223049Y-95608909D01*
X154358514Y-95538148D01*
X170486500Y-95538148D01*
X170486500Y-95796851D01*
X170510686Y-95949553D01*
X170526968Y-96052354D01*
X170606909Y-96298385D01*
X170724353Y-96528882D01*
X170876408Y-96738168D01*
X171059332Y-96921092D01*
X171268618Y-97073147D01*
X171499115Y-97190591D01*
X171745146Y-97270532D01*
X171840961Y-97285707D01*
X172000649Y-97311000D01*
X172000654Y-97311000D01*
X172259351Y-97311000D01*
X172401294Y-97288517D01*
X172514854Y-97270532D01*
X172760885Y-97190591D01*
X172991382Y-97073147D01*
X173200668Y-96921092D01*
X173383592Y-96738168D01*
X173535647Y-96528882D01*
X173653091Y-96298385D01*
X173733032Y-96052354D01*
X173760433Y-95879351D01*
X173773500Y-95796851D01*
X173773500Y-95538148D01*
X185726500Y-95538148D01*
X185726500Y-95796851D01*
X185750686Y-95949553D01*
X185766968Y-96052354D01*
X185846909Y-96298385D01*
X185964353Y-96528882D01*
X186116408Y-96738168D01*
X186299332Y-96921092D01*
X186508618Y-97073147D01*
X186739115Y-97190591D01*
X186985146Y-97270532D01*
X187080961Y-97285707D01*
X187240649Y-97311000D01*
X187240654Y-97311000D01*
X187499351Y-97311000D01*
X187641294Y-97288517D01*
X187754854Y-97270532D01*
X188000885Y-97190591D01*
X188231382Y-97073147D01*
X188440668Y-96921092D01*
X188623592Y-96738168D01*
X188775647Y-96528882D01*
X188893091Y-96298385D01*
X188973032Y-96052354D01*
X189000433Y-95879351D01*
X189013500Y-95796851D01*
X189013500Y-95538148D01*
X188973032Y-95282649D01*
X188973032Y-95282646D01*
X188893091Y-95036615D01*
X188775647Y-94806118D01*
X188623592Y-94596832D01*
X188440668Y-94413908D01*
X188231382Y-94261853D01*
X188000885Y-94144409D01*
X187754854Y-94064468D01*
X187754852Y-94064467D01*
X187754850Y-94064467D01*
X187499351Y-94024000D01*
X187499346Y-94024000D01*
X187240654Y-94024000D01*
X187240649Y-94024000D01*
X186985149Y-94064467D01*
X186739112Y-94144410D01*
X186508617Y-94261853D01*
X186299329Y-94413910D01*
X186116410Y-94596829D01*
X185964353Y-94806117D01*
X185846910Y-95036612D01*
X185766967Y-95282649D01*
X185726500Y-95538148D01*
X173773500Y-95538148D01*
X173733032Y-95282649D01*
X173733032Y-95282646D01*
X173653091Y-95036615D01*
X173535647Y-94806118D01*
X173383592Y-94596832D01*
X173200668Y-94413908D01*
X172991382Y-94261853D01*
X172760885Y-94144409D01*
X172514854Y-94064468D01*
X172514852Y-94064467D01*
X172514850Y-94064467D01*
X172259351Y-94024000D01*
X172259346Y-94024000D01*
X172000654Y-94024000D01*
X172000649Y-94024000D01*
X171745149Y-94064467D01*
X171499112Y-94144410D01*
X171268617Y-94261853D01*
X171059329Y-94413910D01*
X170876410Y-94596829D01*
X170724353Y-94806117D01*
X170606910Y-95036612D01*
X170526967Y-95282649D01*
X170486500Y-95538148D01*
X154358514Y-95538148D01*
X154403407Y-95514698D01*
X154561109Y-95386109D01*
X154689698Y-95228407D01*
X154783909Y-95048049D01*
X154839886Y-94852418D01*
X154850500Y-94733037D01*
X154850499Y-93616964D01*
X154839886Y-93497582D01*
X154783909Y-93301951D01*
X154689698Y-93121593D01*
X154637684Y-93057803D01*
X154561109Y-92963890D01*
X154403409Y-92835304D01*
X154403410Y-92835304D01*
X154403407Y-92835302D01*
X154223049Y-92741091D01*
X154223048Y-92741090D01*
X154223045Y-92741089D01*
X154105829Y-92707550D01*
X154027418Y-92685114D01*
X154027415Y-92685113D01*
X154027413Y-92685113D01*
X153954631Y-92678642D01*
X153908037Y-92674500D01*
X153908033Y-92674500D01*
X153574500Y-92674500D01*
X153507461Y-92654815D01*
X153461706Y-92602011D01*
X153450500Y-92550500D01*
X153450500Y-92061024D01*
X153452883Y-92036831D01*
X153460500Y-91998541D01*
X153460500Y-89690782D01*
X153480185Y-89623743D01*
X153496819Y-89603101D01*
X155603102Y-87496819D01*
X155664425Y-87463334D01*
X155690783Y-87460500D01*
X168574087Y-87460500D01*
X168596109Y-87466966D01*
X168618984Y-87468913D01*
X168632285Y-87477589D01*
X168641126Y-87480185D01*
X168649730Y-87486244D01*
X168656086Y-87491137D01*
X168684801Y-87519852D01*
X168837365Y-87630695D01*
X168838727Y-87631744D01*
X168858320Y-87658667D01*
X168878635Y-87685011D01*
X168878787Y-87686791D01*
X168879840Y-87688237D01*
X168881767Y-87721481D01*
X168884614Y-87754625D01*
X168883780Y-87756204D01*
X168883884Y-87757990D01*
X168867536Y-87786991D01*
X168852009Y-87816420D01*
X168849935Y-87818216D01*
X168849575Y-87818856D01*
X168848606Y-87819367D01*
X168835969Y-87830318D01*
X168684806Y-87940142D01*
X168530142Y-88094806D01*
X168401595Y-88271739D01*
X168302298Y-88466616D01*
X168302297Y-88466619D01*
X168234714Y-88674623D01*
X168200500Y-88890638D01*
X168200500Y-89109361D01*
X168234714Y-89325376D01*
X168302297Y-89533380D01*
X168302298Y-89533383D01*
X168344335Y-89615883D01*
X168382899Y-89691569D01*
X168401595Y-89728260D01*
X168530142Y-89905193D01*
X168684806Y-90059857D01*
X168798353Y-90142352D01*
X168861743Y-90188407D01*
X168989132Y-90253315D01*
X169056616Y-90287701D01*
X169056619Y-90287702D01*
X169160621Y-90321493D01*
X169264625Y-90355286D01*
X169358795Y-90370201D01*
X169480639Y-90389500D01*
X169480644Y-90389500D01*
X169699361Y-90389500D01*
X169804082Y-90372912D01*
X169915375Y-90355286D01*
X170123383Y-90287701D01*
X170318257Y-90188407D01*
X170417601Y-90116229D01*
X170495193Y-90059857D01*
X170495195Y-90059854D01*
X170495199Y-90059852D01*
X170649852Y-89905199D01*
X170649854Y-89905195D01*
X170649857Y-89905193D01*
X170722575Y-89805104D01*
X170778407Y-89728257D01*
X170877701Y-89533383D01*
X170945286Y-89325375D01*
X170972925Y-89150871D01*
X170979500Y-89109361D01*
X170979500Y-88900005D01*
X170999185Y-88832966D01*
X171015819Y-88812324D01*
X172752261Y-87075883D01*
X174529045Y-85299099D01*
X174613770Y-85172299D01*
X174624858Y-85155705D01*
X174690855Y-84996374D01*
X174724500Y-84827229D01*
X174724500Y-81270638D01*
X175185500Y-81270638D01*
X175185500Y-81489361D01*
X175219714Y-81705376D01*
X175287297Y-81913380D01*
X175287298Y-81913383D01*
X175329335Y-81995883D01*
X175386592Y-82108256D01*
X175386595Y-82108260D01*
X175515142Y-82285193D01*
X175669806Y-82439857D01*
X175835374Y-82560147D01*
X175846743Y-82568407D01*
X175974132Y-82633315D01*
X176041616Y-82667701D01*
X176041619Y-82667702D01*
X176145621Y-82701493D01*
X176249625Y-82735286D01*
X176343795Y-82750201D01*
X176465639Y-82769500D01*
X176465644Y-82769500D01*
X176684361Y-82769500D01*
X176789082Y-82752912D01*
X176900375Y-82735286D01*
X177108383Y-82667701D01*
X177303257Y-82568407D01*
X177449927Y-82461846D01*
X177480193Y-82439857D01*
X177480195Y-82439854D01*
X177480199Y-82439852D01*
X177634852Y-82285199D01*
X177634854Y-82285195D01*
X177634857Y-82285193D01*
X177703468Y-82190756D01*
X177763407Y-82108257D01*
X177862701Y-81913383D01*
X177930286Y-81705375D01*
X177954323Y-81553614D01*
X177964500Y-81489361D01*
X177964500Y-81270638D01*
X181535500Y-81270638D01*
X181535500Y-81489361D01*
X181569714Y-81705376D01*
X181637297Y-81913380D01*
X181637298Y-81913383D01*
X181679335Y-81995883D01*
X181736592Y-82108256D01*
X181736595Y-82108260D01*
X181865142Y-82285193D01*
X182019806Y-82439857D01*
X182185374Y-82560147D01*
X182196743Y-82568407D01*
X182324132Y-82633315D01*
X182391616Y-82667701D01*
X182391619Y-82667702D01*
X182495621Y-82701493D01*
X182599625Y-82735286D01*
X182693795Y-82750201D01*
X182815639Y-82769500D01*
X182815644Y-82769500D01*
X183034361Y-82769500D01*
X183139082Y-82752912D01*
X183250375Y-82735286D01*
X183458383Y-82667701D01*
X183653257Y-82568407D01*
X183799927Y-82461846D01*
X183830193Y-82439857D01*
X183830195Y-82439854D01*
X183830199Y-82439852D01*
X183984852Y-82285199D01*
X184044465Y-82203148D01*
X185726500Y-82203148D01*
X185726500Y-82461851D01*
X185759104Y-82667702D01*
X185766968Y-82717354D01*
X185846909Y-82963385D01*
X185964353Y-83193882D01*
X186116408Y-83403168D01*
X186299332Y-83586092D01*
X186508618Y-83738147D01*
X186739115Y-83855591D01*
X186985146Y-83935532D01*
X187080961Y-83950707D01*
X187240649Y-83976000D01*
X187240654Y-83976000D01*
X187499351Y-83976000D01*
X187641294Y-83953517D01*
X187754854Y-83935532D01*
X188000885Y-83855591D01*
X188231382Y-83738147D01*
X188440668Y-83586092D01*
X188623592Y-83403168D01*
X188775647Y-83193882D01*
X188893091Y-82963385D01*
X188973032Y-82717354D01*
X189000433Y-82544351D01*
X189013500Y-82461851D01*
X189013500Y-82203148D01*
X188973032Y-81947649D01*
X188973032Y-81947646D01*
X188893091Y-81701615D01*
X188775647Y-81471118D01*
X188623592Y-81261832D01*
X188440668Y-81078908D01*
X188231382Y-80926853D01*
X188000885Y-80809409D01*
X187754854Y-80729468D01*
X187754852Y-80729467D01*
X187754850Y-80729467D01*
X187499351Y-80689000D01*
X187499346Y-80689000D01*
X187240654Y-80689000D01*
X187240649Y-80689000D01*
X186985149Y-80729467D01*
X186739112Y-80809410D01*
X186508617Y-80926853D01*
X186299329Y-81078910D01*
X186116410Y-81261829D01*
X185964353Y-81471117D01*
X185846910Y-81701612D01*
X185766967Y-81947649D01*
X185726500Y-82203148D01*
X184044465Y-82203148D01*
X184113407Y-82108257D01*
X184212701Y-81913383D01*
X184280286Y-81705375D01*
X184304323Y-81553614D01*
X184314500Y-81489361D01*
X184314500Y-81270638D01*
X184284132Y-81078908D01*
X184280286Y-81054625D01*
X184235810Y-80917741D01*
X184212702Y-80846619D01*
X184212701Y-80846616D01*
X184153010Y-80729468D01*
X184113407Y-80651743D01*
X184060442Y-80578842D01*
X183984857Y-80474806D01*
X183830193Y-80320142D01*
X183653260Y-80191595D01*
X183653259Y-80191594D01*
X183653257Y-80191593D01*
X183590825Y-80159782D01*
X183458383Y-80092298D01*
X183458380Y-80092297D01*
X183250376Y-80024714D01*
X183034361Y-79990500D01*
X183034356Y-79990500D01*
X182815644Y-79990500D01*
X182815639Y-79990500D01*
X182599623Y-80024714D01*
X182391619Y-80092297D01*
X182391616Y-80092298D01*
X182196739Y-80191595D01*
X182019806Y-80320142D01*
X181865142Y-80474806D01*
X181736595Y-80651739D01*
X181637298Y-80846616D01*
X181637297Y-80846619D01*
X181569714Y-81054623D01*
X181535500Y-81270638D01*
X177964500Y-81270638D01*
X177934132Y-81078908D01*
X177930286Y-81054625D01*
X177885810Y-80917741D01*
X177862702Y-80846619D01*
X177862701Y-80846616D01*
X177803010Y-80729468D01*
X177763407Y-80651743D01*
X177710442Y-80578842D01*
X177634857Y-80474806D01*
X177480193Y-80320142D01*
X177303260Y-80191595D01*
X177303259Y-80191594D01*
X177303257Y-80191593D01*
X177240825Y-80159782D01*
X177108383Y-80092298D01*
X177108380Y-80092297D01*
X176900376Y-80024714D01*
X176684361Y-79990500D01*
X176684356Y-79990500D01*
X176465644Y-79990500D01*
X176465639Y-79990500D01*
X176249623Y-80024714D01*
X176041619Y-80092297D01*
X176041616Y-80092298D01*
X175846739Y-80191595D01*
X175669806Y-80320142D01*
X175515142Y-80474806D01*
X175386595Y-80651739D01*
X175287298Y-80846616D01*
X175287297Y-80846619D01*
X175219714Y-81054623D01*
X175185500Y-81270638D01*
X174724500Y-81270638D01*
X174724500Y-80212771D01*
X174724500Y-80212768D01*
X174720344Y-80191879D01*
X174720344Y-80191874D01*
X174690857Y-80043634D01*
X174690856Y-80043627D01*
X174627182Y-79889907D01*
X174625539Y-79885315D01*
X174624858Y-79884295D01*
X174562257Y-79790606D01*
X174529046Y-79740902D01*
X174509800Y-79721656D01*
X174407099Y-79618955D01*
X170978782Y-76190638D01*
X175185500Y-76190638D01*
X175185500Y-76409361D01*
X175219714Y-76625376D01*
X175287297Y-76833380D01*
X175287298Y-76833383D01*
X175329335Y-76915883D01*
X175359910Y-76975890D01*
X175386595Y-77028260D01*
X175515142Y-77205193D01*
X175669806Y-77359857D01*
X175783353Y-77442352D01*
X175846743Y-77488407D01*
X175974132Y-77553315D01*
X176041616Y-77587701D01*
X176041619Y-77587702D01*
X176145621Y-77621493D01*
X176249625Y-77655286D01*
X176343795Y-77670201D01*
X176465639Y-77689500D01*
X176465644Y-77689500D01*
X176684361Y-77689500D01*
X176789082Y-77672912D01*
X176900375Y-77655286D01*
X177108383Y-77587701D01*
X177303257Y-77488407D01*
X177402601Y-77416229D01*
X177480193Y-77359857D01*
X177480195Y-77359854D01*
X177480199Y-77359852D01*
X177634852Y-77205199D01*
X177634854Y-77205195D01*
X177634857Y-77205193D01*
X177703468Y-77110757D01*
X177763407Y-77028257D01*
X177862701Y-76833383D01*
X177930286Y-76625375D01*
X177951433Y-76491856D01*
X177964500Y-76409361D01*
X177964500Y-76190638D01*
X181535500Y-76190638D01*
X181535500Y-76409361D01*
X181569714Y-76625376D01*
X181637297Y-76833380D01*
X181637298Y-76833383D01*
X181679335Y-76915883D01*
X181709910Y-76975890D01*
X181736595Y-77028260D01*
X181865142Y-77205193D01*
X182019806Y-77359857D01*
X182133353Y-77442352D01*
X182196743Y-77488407D01*
X182324132Y-77553315D01*
X182391616Y-77587701D01*
X182391619Y-77587702D01*
X182495621Y-77621493D01*
X182599625Y-77655286D01*
X182693795Y-77670201D01*
X182815639Y-77689500D01*
X182815644Y-77689500D01*
X183034361Y-77689500D01*
X183139082Y-77672912D01*
X183250375Y-77655286D01*
X183458383Y-77587701D01*
X183653257Y-77488407D01*
X183752601Y-77416229D01*
X183830193Y-77359857D01*
X183830195Y-77359854D01*
X183830199Y-77359852D01*
X183984852Y-77205199D01*
X183984854Y-77205195D01*
X183984857Y-77205193D01*
X184053468Y-77110757D01*
X184113407Y-77028257D01*
X184212701Y-76833383D01*
X184280286Y-76625375D01*
X184301433Y-76491856D01*
X184314500Y-76409361D01*
X184314500Y-76190638D01*
X184296280Y-76075605D01*
X184293849Y-76060258D01*
X194599500Y-76060258D01*
X194599500Y-76289741D01*
X194615249Y-76409361D01*
X194629452Y-76517238D01*
X194680533Y-76707876D01*
X194688842Y-76738887D01*
X194776650Y-76950876D01*
X194776657Y-76950890D01*
X194891392Y-77149617D01*
X195031081Y-77331661D01*
X195031089Y-77331670D01*
X195193330Y-77493911D01*
X195193338Y-77493918D01*
X195193339Y-77493919D01*
X195243962Y-77532764D01*
X195375382Y-77633607D01*
X195375385Y-77633608D01*
X195375388Y-77633611D01*
X195574112Y-77748344D01*
X195574117Y-77748346D01*
X195574123Y-77748349D01*
X195631222Y-77772000D01*
X195786113Y-77836158D01*
X196007762Y-77895548D01*
X196235266Y-77925500D01*
X196235273Y-77925500D01*
X196464727Y-77925500D01*
X196464734Y-77925500D01*
X196692238Y-77895548D01*
X196913887Y-77836158D01*
X197125888Y-77748344D01*
X197324612Y-77633611D01*
X197506661Y-77493919D01*
X197506665Y-77493914D01*
X197506670Y-77493911D01*
X197668911Y-77331670D01*
X197668914Y-77331665D01*
X197668919Y-77331661D01*
X197808611Y-77149612D01*
X197923344Y-76950888D01*
X198011158Y-76738887D01*
X198070548Y-76517238D01*
X198100500Y-76289734D01*
X198100500Y-76060266D01*
X198100086Y-76057125D01*
X198098076Y-76041853D01*
X198070548Y-75832762D01*
X198011158Y-75611113D01*
X197933704Y-75424123D01*
X197923349Y-75399123D01*
X197923346Y-75399117D01*
X197923344Y-75399112D01*
X197808611Y-75200388D01*
X197808608Y-75200385D01*
X197808607Y-75200382D01*
X197688102Y-75043339D01*
X197668919Y-75018339D01*
X197668918Y-75018338D01*
X197668911Y-75018330D01*
X197506670Y-74856089D01*
X197506661Y-74856081D01*
X197324617Y-74716392D01*
X197125890Y-74601657D01*
X197125876Y-74601650D01*
X196913887Y-74513842D01*
X196885239Y-74506166D01*
X196692238Y-74454452D01*
X196654215Y-74449446D01*
X196464741Y-74424500D01*
X196464734Y-74424500D01*
X196235266Y-74424500D01*
X196235258Y-74424500D01*
X196018715Y-74453009D01*
X196007762Y-74454452D01*
X195982455Y-74461233D01*
X195786112Y-74513842D01*
X195574123Y-74601650D01*
X195574109Y-74601657D01*
X195375382Y-74716392D01*
X195193338Y-74856081D01*
X195031081Y-75018338D01*
X194891392Y-75200382D01*
X194776657Y-75399109D01*
X194776650Y-75399123D01*
X194688842Y-75611112D01*
X194629453Y-75832759D01*
X194629451Y-75832770D01*
X194599500Y-76060258D01*
X184293849Y-76060258D01*
X184290741Y-76040641D01*
X184280286Y-75974625D01*
X184212701Y-75766617D01*
X184212701Y-75766616D01*
X184146205Y-75636113D01*
X184113407Y-75571743D01*
X184105147Y-75560374D01*
X183984857Y-75394806D01*
X183830193Y-75240142D01*
X183653260Y-75111595D01*
X183653259Y-75111594D01*
X183653257Y-75111593D01*
X183590825Y-75079782D01*
X183458383Y-75012298D01*
X183458380Y-75012297D01*
X183250376Y-74944714D01*
X183034361Y-74910500D01*
X183034356Y-74910500D01*
X182815644Y-74910500D01*
X182815639Y-74910500D01*
X182599623Y-74944714D01*
X182391619Y-75012297D01*
X182391616Y-75012298D01*
X182196739Y-75111595D01*
X182019806Y-75240142D01*
X181865142Y-75394806D01*
X181736595Y-75571739D01*
X181637298Y-75766616D01*
X181637297Y-75766619D01*
X181569714Y-75974623D01*
X181535500Y-76190638D01*
X177964500Y-76190638D01*
X177940934Y-76041853D01*
X177930286Y-75974625D01*
X177862701Y-75766617D01*
X177862701Y-75766616D01*
X177796205Y-75636113D01*
X177763407Y-75571743D01*
X177755147Y-75560374D01*
X177634857Y-75394806D01*
X177480193Y-75240142D01*
X177303260Y-75111595D01*
X177303259Y-75111594D01*
X177303257Y-75111593D01*
X177240825Y-75079782D01*
X177108383Y-75012298D01*
X177108380Y-75012297D01*
X176900376Y-74944714D01*
X176684361Y-74910500D01*
X176684356Y-74910500D01*
X176465644Y-74910500D01*
X176465639Y-74910500D01*
X176249623Y-74944714D01*
X176041619Y-75012297D01*
X176041616Y-75012298D01*
X175846739Y-75111595D01*
X175669806Y-75240142D01*
X175515142Y-75394806D01*
X175386595Y-75571739D01*
X175287298Y-75766616D01*
X175287297Y-75766619D01*
X175219714Y-75974623D01*
X175185500Y-76190638D01*
X170978782Y-76190638D01*
X167151910Y-72363766D01*
X162942651Y-68154506D01*
X162859842Y-68071697D01*
X181397934Y-68071697D01*
X181397934Y-68315750D01*
X181422383Y-68470117D01*
X181436113Y-68556800D01*
X181511530Y-68788909D01*
X181616351Y-68994633D01*
X181622330Y-69006366D01*
X181765773Y-69203800D01*
X181765777Y-69203805D01*
X181938352Y-69376380D01*
X181938357Y-69376384D01*
X182110570Y-69501503D01*
X182135795Y-69519830D01*
X182353249Y-69630628D01*
X182585358Y-69706045D01*
X182826407Y-69744224D01*
X182826408Y-69744224D01*
X183070460Y-69744224D01*
X183070461Y-69744224D01*
X183311510Y-69706045D01*
X183543619Y-69630628D01*
X183761073Y-69519830D01*
X183958517Y-69376379D01*
X184131089Y-69203807D01*
X184274540Y-69006363D01*
X184385338Y-68788909D01*
X184460755Y-68556800D01*
X184498934Y-68315751D01*
X184498934Y-68071697D01*
X184460755Y-67830648D01*
X184385338Y-67598539D01*
X184274540Y-67381085D01*
X184151016Y-67211068D01*
X184131094Y-67183647D01*
X184131090Y-67183642D01*
X183958515Y-67011067D01*
X183958510Y-67011063D01*
X183761076Y-66867620D01*
X183761075Y-66867619D01*
X183761073Y-66867618D01*
X183543619Y-66756820D01*
X183311510Y-66681403D01*
X183311508Y-66681402D01*
X183311506Y-66681402D01*
X183143203Y-66654745D01*
X183070461Y-66643224D01*
X182826407Y-66643224D01*
X182770527Y-66652074D01*
X182585361Y-66681402D01*
X182353246Y-66756821D01*
X182135791Y-66867620D01*
X181938357Y-67011063D01*
X181938352Y-67011067D01*
X181765777Y-67183642D01*
X181765773Y-67183647D01*
X181622330Y-67381081D01*
X181511531Y-67598536D01*
X181436112Y-67830651D01*
X181397934Y-68071697D01*
X162859842Y-68071697D01*
X161683034Y-66894889D01*
X161683030Y-66894886D01*
X161539643Y-66799077D01*
X161539630Y-66799070D01*
X161380310Y-66733078D01*
X161380298Y-66733075D01*
X161211164Y-66699432D01*
X161211161Y-66699432D01*
X145888298Y-66699432D01*
X145821259Y-66679747D01*
X145775504Y-66626943D01*
X145765560Y-66557785D01*
X145794585Y-66494229D01*
X145800617Y-66487751D01*
X145809948Y-66478419D01*
X145809951Y-66478416D01*
X145892084Y-66355495D01*
X145948658Y-66218913D01*
X145977500Y-66073918D01*
X145977500Y-64563870D01*
X145997185Y-64496831D01*
X146049989Y-64451076D01*
X146119147Y-64441132D01*
X146151826Y-64451847D01*
X146152166Y-64451027D01*
X146262748Y-64496831D01*
X146317126Y-64519355D01*
X146486266Y-64552999D01*
X146486269Y-64553000D01*
X146486271Y-64553000D01*
X146658731Y-64553000D01*
X146658732Y-64552999D01*
X146827874Y-64519355D01*
X146987205Y-64453358D01*
X147130599Y-64357545D01*
X147252545Y-64235599D01*
X147348358Y-64092205D01*
X147414355Y-63932874D01*
X147415920Y-63925001D01*
X147448301Y-63863092D01*
X147449799Y-63861567D01*
X148699548Y-62611819D01*
X148760871Y-62578334D01*
X148787229Y-62575500D01*
X153598920Y-62575500D01*
X153696462Y-62556096D01*
X153743913Y-62546658D01*
X153880495Y-62490084D01*
X154003416Y-62407951D01*
X154107951Y-62303416D01*
X154190084Y-62180495D01*
X154246658Y-62043913D01*
X154275500Y-61898918D01*
X154275500Y-61751082D01*
X154275500Y-61751079D01*
X154260106Y-61673692D01*
X154266333Y-61604101D01*
X154309195Y-61548923D01*
X154375085Y-61525678D01*
X154381723Y-61525500D01*
X177520916Y-61525500D01*
X177587955Y-61545185D01*
X177608597Y-61561819D01*
X178454786Y-62408008D01*
X178457087Y-62412223D01*
X178461120Y-62414836D01*
X178473673Y-62442597D01*
X178488271Y-62469331D01*
X178488474Y-62475328D01*
X178489908Y-62478500D01*
X178489628Y-62509447D01*
X178489776Y-62513794D01*
X178489676Y-62514470D01*
X178471313Y-62630413D01*
X178471313Y-62638894D01*
X178469984Y-62647899D01*
X178459009Y-62671696D01*
X178451628Y-62696833D01*
X178444612Y-62702911D01*
X178440723Y-62711346D01*
X178418620Y-62725433D01*
X178398824Y-62742588D01*
X178389635Y-62743909D01*
X178381804Y-62748901D01*
X178355599Y-62748803D01*
X178329666Y-62752532D01*
X178320152Y-62748670D01*
X178311935Y-62748640D01*
X178298282Y-62739794D01*
X178274428Y-62730112D01*
X178162643Y-62648896D01*
X177945187Y-62538097D01*
X177945186Y-62538096D01*
X177945185Y-62538096D01*
X177713076Y-62462679D01*
X177713074Y-62462678D01*
X177713072Y-62462678D01*
X177544769Y-62436021D01*
X177472027Y-62424500D01*
X177227973Y-62424500D01*
X177172093Y-62433350D01*
X176986927Y-62462678D01*
X176754812Y-62538097D01*
X176537357Y-62648896D01*
X176339923Y-62792339D01*
X176339918Y-62792343D01*
X176167343Y-62964918D01*
X176167339Y-62964923D01*
X176023896Y-63162357D01*
X175913097Y-63379812D01*
X175913096Y-63379814D01*
X175913096Y-63379815D01*
X175839833Y-63605297D01*
X175837680Y-63611922D01*
X175837678Y-63611927D01*
X175799500Y-63852973D01*
X175799500Y-64097026D01*
X175833425Y-64311222D01*
X175837679Y-64338076D01*
X175913096Y-64570185D01*
X176017267Y-64774633D01*
X176023896Y-64787642D01*
X176167339Y-64985076D01*
X176167343Y-64985081D01*
X176339918Y-65157656D01*
X176339923Y-65157660D01*
X176512136Y-65282779D01*
X176537361Y-65301106D01*
X176754815Y-65411904D01*
X176986924Y-65487321D01*
X177227973Y-65525500D01*
X177227974Y-65525500D01*
X177472026Y-65525500D01*
X177472027Y-65525500D01*
X177713076Y-65487321D01*
X177945185Y-65411904D01*
X178162639Y-65301106D01*
X178360083Y-65157655D01*
X178532655Y-64985083D01*
X178676106Y-64787639D01*
X178786904Y-64570185D01*
X178862321Y-64338076D01*
X178900500Y-64097027D01*
X178900500Y-63994705D01*
X178920185Y-63927666D01*
X178972989Y-63881911D01*
X179042147Y-63871967D01*
X179097385Y-63894387D01*
X179110099Y-63903624D01*
X179125892Y-63915099D01*
X179318803Y-64013393D01*
X179318806Y-64013394D01*
X179409040Y-64042712D01*
X179524716Y-64080297D01*
X179738559Y-64114167D01*
X179738560Y-64114167D01*
X179955066Y-64114167D01*
X179955067Y-64114167D01*
X180168910Y-64080297D01*
X180374822Y-64013393D01*
X180567732Y-63915100D01*
X180742891Y-63787839D01*
X180895985Y-63634745D01*
X181023246Y-63459586D01*
X181121539Y-63266676D01*
X181188443Y-63060764D01*
X181222313Y-62846921D01*
X181222313Y-62630413D01*
X181188443Y-62416570D01*
X181154991Y-62313614D01*
X181121540Y-62210660D01*
X181121539Y-62210657D01*
X181071455Y-62112364D01*
X181023246Y-62017748D01*
X180895985Y-61842589D01*
X180742891Y-61689495D01*
X180567732Y-61562234D01*
X180501200Y-61528334D01*
X180374822Y-61463940D01*
X180374819Y-61463939D01*
X180168911Y-61397037D01*
X180013847Y-61372477D01*
X179955067Y-61363167D01*
X179738559Y-61363167D01*
X179738554Y-61363167D01*
X179623233Y-61381432D01*
X179553939Y-61372477D01*
X179516154Y-61346640D01*
X178361567Y-60192052D01*
X178361566Y-60192051D01*
X178274067Y-60133587D01*
X178274066Y-60133586D01*
X178238646Y-60109919D01*
X178238634Y-60109912D01*
X178102063Y-60053343D01*
X178102053Y-60053340D01*
X177957066Y-60024500D01*
X177957064Y-60024500D01*
X145776082Y-60024500D01*
X145776080Y-60024500D01*
X145631092Y-60053340D01*
X145631082Y-60053343D01*
X145494511Y-60109912D01*
X145494499Y-60109919D01*
X145459080Y-60133586D01*
X145459079Y-60133587D01*
X145371579Y-60192051D01*
X144644050Y-60919580D01*
X144644044Y-60919588D01*
X144594812Y-60993268D01*
X144594813Y-60993269D01*
X144561921Y-61042496D01*
X144561914Y-61042508D01*
X144505342Y-61179086D01*
X144505340Y-61179092D01*
X144476500Y-61324079D01*
X144476500Y-61324082D01*
X144476500Y-66073918D01*
X144476500Y-66073920D01*
X144476499Y-66073920D01*
X144505340Y-66218907D01*
X144505343Y-66218917D01*
X144561912Y-66355488D01*
X144561919Y-66355501D01*
X144644048Y-66478415D01*
X144644051Y-66478419D01*
X144653383Y-66487751D01*
X144686868Y-66549074D01*
X144681884Y-66618766D01*
X144640012Y-66674699D01*
X144574548Y-66699116D01*
X144565702Y-66699432D01*
X134488938Y-66699432D01*
X134421899Y-66679747D01*
X134401257Y-66663113D01*
X130818102Y-63079957D01*
X130818098Y-63079954D01*
X130674711Y-62984145D01*
X130674698Y-62984138D01*
X130515378Y-62918146D01*
X130515366Y-62918143D01*
X130346232Y-62884500D01*
X130346229Y-62884500D01*
X129068771Y-62884500D01*
X129068768Y-62884500D01*
X128899633Y-62918143D01*
X128899621Y-62918146D01*
X128740301Y-62984138D01*
X128740288Y-62984145D01*
X128596901Y-63079954D01*
X128596897Y-63079957D01*
X128474957Y-63201897D01*
X128474954Y-63201901D01*
X128379145Y-63345288D01*
X128379138Y-63345301D01*
X128313146Y-63504621D01*
X128313143Y-63504633D01*
X128279500Y-63673766D01*
X128279500Y-63846233D01*
X128313143Y-64015366D01*
X128313146Y-64015378D01*
X128379138Y-64174698D01*
X128379145Y-64174711D01*
X128478339Y-64323164D01*
X128476837Y-64324166D01*
X128500822Y-64380668D01*
X128489018Y-64449533D01*
X128478030Y-64466629D01*
X128478339Y-64466836D01*
X128379145Y-64615288D01*
X128379138Y-64615301D01*
X128313146Y-64774621D01*
X128313143Y-64774633D01*
X128279500Y-64943766D01*
X128279500Y-65116233D01*
X128313143Y-65285366D01*
X128313146Y-65285378D01*
X128379138Y-65444698D01*
X128379145Y-65444711D01*
X128474954Y-65588098D01*
X128474957Y-65588102D01*
X128596897Y-65710042D01*
X128596901Y-65710045D01*
X128740288Y-65805854D01*
X128740301Y-65805861D01*
X128899621Y-65871853D01*
X128899626Y-65871855D01*
X129068766Y-65905499D01*
X129068769Y-65905500D01*
X129068771Y-65905500D01*
X129771076Y-65905500D01*
X129838115Y-65925185D01*
X129858757Y-65941819D01*
X132397496Y-68480557D01*
X132397497Y-68480558D01*
X133846980Y-69930042D01*
X133846984Y-69930045D01*
X133990371Y-70025854D01*
X133990384Y-70025861D01*
X134149704Y-70091853D01*
X134149709Y-70091855D01*
X134318849Y-70125499D01*
X134318852Y-70125500D01*
X134318854Y-70125500D01*
X158136231Y-70125500D01*
X158136232Y-70125499D01*
X158305374Y-70091855D01*
X158464705Y-70025858D01*
X158608099Y-69930045D01*
X158730045Y-69808099D01*
X158825858Y-69664705D01*
X158891855Y-69505374D01*
X158925500Y-69336229D01*
X158925500Y-69163771D01*
X158925500Y-69163768D01*
X158925499Y-69163766D01*
X158894190Y-69006366D01*
X158891855Y-68994626D01*
X158889487Y-68988908D01*
X158825861Y-68835301D01*
X158825854Y-68835288D01*
X158730045Y-68691901D01*
X158730042Y-68691897D01*
X158700258Y-68662113D01*
X158666773Y-68600790D01*
X158671757Y-68531098D01*
X158713629Y-68475165D01*
X158779093Y-68450748D01*
X158787939Y-68450432D01*
X160710926Y-68450432D01*
X160777965Y-68470117D01*
X160798607Y-68486751D01*
X172937181Y-80625325D01*
X172951884Y-80652252D01*
X172968477Y-80678071D01*
X172969368Y-80684271D01*
X172970666Y-80686648D01*
X172973500Y-80713006D01*
X172973500Y-80715391D01*
X172953815Y-80782430D01*
X172901011Y-80828185D01*
X172831853Y-80838129D01*
X172793207Y-80825877D01*
X172760888Y-80809410D01*
X172644214Y-80771500D01*
X172514854Y-80729468D01*
X172514852Y-80729467D01*
X172514850Y-80729467D01*
X172259351Y-80689000D01*
X172259346Y-80689000D01*
X172000654Y-80689000D01*
X172000649Y-80689000D01*
X171745149Y-80729467D01*
X171499112Y-80809410D01*
X171268617Y-80926853D01*
X171059329Y-81078910D01*
X170876410Y-81261829D01*
X170724353Y-81471117D01*
X170606910Y-81701612D01*
X170526967Y-81947649D01*
X170486500Y-82203148D01*
X170486500Y-82461851D01*
X170519104Y-82667702D01*
X170526968Y-82717354D01*
X170606909Y-82963385D01*
X170724353Y-83193882D01*
X170876408Y-83403168D01*
X171059332Y-83586092D01*
X171268618Y-83738147D01*
X171499115Y-83855591D01*
X171745146Y-83935532D01*
X171840961Y-83950707D01*
X172000649Y-83976000D01*
X172000654Y-83976000D01*
X172259351Y-83976000D01*
X172401294Y-83953517D01*
X172514854Y-83935532D01*
X172760885Y-83855591D01*
X172766946Y-83852503D01*
X172793204Y-83839124D01*
X172861874Y-83826227D01*
X172926614Y-83852503D01*
X172966872Y-83909609D01*
X172973500Y-83949608D01*
X172973500Y-84326994D01*
X172953815Y-84394033D01*
X172937181Y-84414675D01*
X171154500Y-86197355D01*
X171093177Y-86230840D01*
X171023485Y-86225856D01*
X170967552Y-86183984D01*
X170946243Y-86138613D01*
X170945287Y-86134631D01*
X170945286Y-86134625D01*
X170877701Y-85926617D01*
X170877701Y-85926616D01*
X170820441Y-85814239D01*
X170778407Y-85731743D01*
X170742894Y-85682863D01*
X170649857Y-85554806D01*
X170495193Y-85400142D01*
X170318260Y-85271595D01*
X170318259Y-85271594D01*
X170318257Y-85271593D01*
X170255825Y-85239782D01*
X170123383Y-85172298D01*
X170123380Y-85172297D01*
X169915376Y-85104714D01*
X169699361Y-85070500D01*
X169699356Y-85070500D01*
X169480644Y-85070500D01*
X169480639Y-85070500D01*
X169264623Y-85104714D01*
X169056619Y-85172297D01*
X169056616Y-85172298D01*
X168861739Y-85271595D01*
X168684806Y-85400142D01*
X168684802Y-85400146D01*
X168661768Y-85423181D01*
X168600445Y-85456666D01*
X168574087Y-85459500D01*
X155126456Y-85459500D01*
X154933171Y-85497947D01*
X154933163Y-85497949D01*
X154887514Y-85516858D01*
X154887513Y-85516858D01*
X154751092Y-85573364D01*
X154751079Y-85573371D01*
X154587218Y-85682860D01*
X154587214Y-85682863D01*
X152512089Y-87757990D01*
X151822220Y-88447859D01*
X151822218Y-88447861D01*
X151752538Y-88517540D01*
X151682859Y-88587219D01*
X151573371Y-88751080D01*
X151573366Y-88751089D01*
X151524836Y-88868252D01*
X151524833Y-88868259D01*
X151522646Y-88873541D01*
X151497949Y-88933164D01*
X151487052Y-88987949D01*
X151485794Y-88994272D01*
X151485790Y-88994286D01*
X151459500Y-89126456D01*
X151459500Y-91280788D01*
X151458858Y-91293391D01*
X151449500Y-91384983D01*
X151449500Y-92550500D01*
X151429815Y-92617539D01*
X151377011Y-92663294D01*
X151325500Y-92674500D01*
X150991971Y-92674500D01*
X150991965Y-92674500D01*
X150991964Y-92674501D01*
X150980316Y-92675536D01*
X150872584Y-92685113D01*
X150676954Y-92741089D01*
X150586772Y-92788196D01*
X150496593Y-92835302D01*
X150496591Y-92835303D01*
X150496590Y-92835304D01*
X150338890Y-92963890D01*
X150220782Y-93108739D01*
X150210305Y-93121590D01*
X150206328Y-93126467D01*
X150204660Y-93125107D01*
X150158850Y-93163883D01*
X150108648Y-93174500D01*
X138662175Y-93174500D01*
X138662155Y-93174499D01*
X138656041Y-93174499D01*
X138458960Y-93174499D01*
X138458957Y-93174499D01*
X138265672Y-93212946D01*
X138265664Y-93212948D01*
X138083588Y-93288366D01*
X138083579Y-93288371D01*
X137919722Y-93397857D01*
X137832680Y-93484899D01*
X137771356Y-93518383D01*
X137701665Y-93513399D01*
X137657318Y-93484898D01*
X134971819Y-90799398D01*
X134938334Y-90738075D01*
X134935500Y-90711717D01*
X134935500Y-89938956D01*
X134897052Y-89745670D01*
X134897051Y-89745669D01*
X134897051Y-89745665D01*
X134891591Y-89732483D01*
X134821635Y-89563592D01*
X134821628Y-89563579D01*
X134712139Y-89399718D01*
X134712136Y-89399714D01*
X134572785Y-89260363D01*
X134572781Y-89260360D01*
X134408920Y-89150871D01*
X134408907Y-89150864D01*
X134226839Y-89075450D01*
X134226829Y-89075447D01*
X134033543Y-89037000D01*
X134033541Y-89037000D01*
X134033540Y-89037000D01*
X133836459Y-89037000D01*
X133836456Y-89037000D01*
X133643171Y-89075447D01*
X133643163Y-89075449D01*
X133600614Y-89093074D01*
X133600613Y-89093074D01*
X133461092Y-89150864D01*
X133461079Y-89150871D01*
X133314351Y-89248913D01*
X133297218Y-89260360D01*
X133297212Y-89260365D01*
X130019399Y-92538181D01*
X129958076Y-92571666D01*
X129931718Y-92574500D01*
X126849500Y-92574500D01*
X126782461Y-92554815D01*
X126736706Y-92502011D01*
X126725500Y-92450500D01*
X126725500Y-80421153D01*
X134949500Y-80421153D01*
X134949500Y-80578846D01*
X134980261Y-80733489D01*
X134980264Y-80733501D01*
X135040602Y-80879172D01*
X135040609Y-80879185D01*
X135128210Y-81010288D01*
X135128213Y-81010292D01*
X135239707Y-81121786D01*
X135239711Y-81121789D01*
X135370814Y-81209390D01*
X135370827Y-81209397D01*
X135497411Y-81261829D01*
X135516503Y-81269737D01*
X135671153Y-81300499D01*
X135671156Y-81300500D01*
X135671158Y-81300500D01*
X135828844Y-81300500D01*
X135828845Y-81300499D01*
X135983497Y-81269737D01*
X136129179Y-81209394D01*
X136260289Y-81121789D01*
X136371789Y-81010289D01*
X136459394Y-80879179D01*
X136469191Y-80855524D01*
X136496069Y-80815297D01*
X137524548Y-79786819D01*
X137585871Y-79753334D01*
X137612229Y-79750500D01*
X142823920Y-79750500D01*
X142921462Y-79731096D01*
X142968913Y-79721658D01*
X143105495Y-79665084D01*
X143174532Y-79618955D01*
X143228416Y-79582952D01*
X146815297Y-75996069D01*
X146855524Y-75969191D01*
X146879179Y-75959394D01*
X147010289Y-75871789D01*
X147121789Y-75760289D01*
X147209394Y-75629179D01*
X147269737Y-75483497D01*
X147300500Y-75328842D01*
X147300500Y-75171158D01*
X147300500Y-75171155D01*
X147300499Y-75171153D01*
X147277404Y-75055048D01*
X147269737Y-75016503D01*
X147260002Y-74993000D01*
X147209397Y-74870827D01*
X147209390Y-74870814D01*
X147121789Y-74739711D01*
X147121786Y-74739707D01*
X147019260Y-74637181D01*
X146985775Y-74575858D01*
X146990759Y-74506166D01*
X147032631Y-74450233D01*
X147098095Y-74425816D01*
X147106941Y-74425500D01*
X148985994Y-74425500D01*
X149053033Y-74445185D01*
X149073675Y-74461819D01*
X150491897Y-75880042D01*
X150491901Y-75880045D01*
X150635288Y-75975854D01*
X150635301Y-75975861D01*
X150794621Y-76041853D01*
X150794626Y-76041855D01*
X150963766Y-76075499D01*
X150963769Y-76075500D01*
X150963771Y-76075500D01*
X151136231Y-76075500D01*
X151136232Y-76075499D01*
X151305374Y-76041855D01*
X151464705Y-75975858D01*
X151608099Y-75880045D01*
X151730045Y-75758099D01*
X151825858Y-75614705D01*
X151891855Y-75455374D01*
X151925500Y-75286229D01*
X151925500Y-75281016D01*
X151945185Y-75213977D01*
X151997989Y-75168222D01*
X152002005Y-75166473D01*
X152039704Y-75150858D01*
X152183099Y-75055045D01*
X152305045Y-74933099D01*
X152356507Y-74856081D01*
X152400857Y-74789706D01*
X152400859Y-74789702D01*
X152441044Y-74692686D01*
X152466855Y-74630373D01*
X152500500Y-74461229D01*
X152500500Y-74288771D01*
X152500500Y-74288768D01*
X152500499Y-74288766D01*
X152470849Y-74139705D01*
X152466855Y-74119626D01*
X152405913Y-73972498D01*
X152400861Y-73960301D01*
X152400854Y-73960288D01*
X152305046Y-73816902D01*
X152293510Y-73805366D01*
X152158099Y-73669955D01*
X151227276Y-72739132D01*
X150258102Y-71769957D01*
X150258098Y-71769954D01*
X150114711Y-71674145D01*
X150114698Y-71674138D01*
X149955378Y-71608146D01*
X149955366Y-71608143D01*
X149786232Y-71574500D01*
X149786229Y-71574500D01*
X139813771Y-71574500D01*
X139813768Y-71574500D01*
X139644633Y-71608143D01*
X139644621Y-71608146D01*
X139485301Y-71674138D01*
X139485288Y-71674145D01*
X139341901Y-71769954D01*
X139341897Y-71769957D01*
X139219957Y-71891897D01*
X139219954Y-71891901D01*
X139124145Y-72035288D01*
X139124138Y-72035301D01*
X139058146Y-72194621D01*
X139058143Y-72194633D01*
X139024500Y-72363766D01*
X139024500Y-72536233D01*
X139051373Y-72671336D01*
X139045146Y-72740928D01*
X139002282Y-72796105D01*
X138998647Y-72798629D01*
X138891901Y-72869954D01*
X138891897Y-72869957D01*
X138769957Y-72991897D01*
X138769954Y-72991901D01*
X138674145Y-73135288D01*
X138674138Y-73135301D01*
X138608146Y-73294621D01*
X138608143Y-73294633D01*
X138574500Y-73463766D01*
X138574500Y-73636233D01*
X138608143Y-73805366D01*
X138608146Y-73805378D01*
X138674138Y-73964698D01*
X138674145Y-73964711D01*
X138769954Y-74108098D01*
X138769957Y-74108102D01*
X138891897Y-74230042D01*
X138891901Y-74230045D01*
X139035288Y-74325854D01*
X139035301Y-74325861D01*
X139194621Y-74391853D01*
X139194626Y-74391855D01*
X139358744Y-74424500D01*
X139363766Y-74425499D01*
X139363769Y-74425500D01*
X139363771Y-74425500D01*
X145893059Y-74425500D01*
X145960098Y-74445185D01*
X146005853Y-74497989D01*
X146015797Y-74567147D01*
X145986772Y-74630703D01*
X145980740Y-74637181D01*
X145878213Y-74739707D01*
X145878207Y-74739715D01*
X145790607Y-74870818D01*
X145790606Y-74870819D01*
X145780805Y-74894480D01*
X145753927Y-74934703D01*
X142475451Y-78213181D01*
X142414128Y-78246666D01*
X142387770Y-78249500D01*
X137176080Y-78249500D01*
X137031092Y-78278340D01*
X137031082Y-78278343D01*
X136894511Y-78334912D01*
X136894498Y-78334919D01*
X136771584Y-78417048D01*
X136771580Y-78417051D01*
X135434703Y-79753927D01*
X135394480Y-79780805D01*
X135370819Y-79790606D01*
X135370818Y-79790607D01*
X135239715Y-79878207D01*
X135239707Y-79878213D01*
X135128213Y-79989707D01*
X135128210Y-79989711D01*
X135040609Y-80120814D01*
X135040602Y-80120827D01*
X134980264Y-80266498D01*
X134980261Y-80266510D01*
X134949500Y-80421153D01*
X126725500Y-80421153D01*
X126725500Y-60740782D01*
X126745185Y-60673743D01*
X126761819Y-60653101D01*
X127035946Y-60378974D01*
X127352140Y-60062781D01*
X127352141Y-60062779D01*
X127359201Y-60055719D01*
X127359206Y-60055712D01*
X127698101Y-59716819D01*
X127759424Y-59683334D01*
X127785782Y-59680500D01*
X129253543Y-59680500D01*
X129395029Y-59652356D01*
X129446835Y-59642051D01*
X129587655Y-59583721D01*
X129628907Y-59566635D01*
X129628907Y-59566634D01*
X129628914Y-59566632D01*
X129792782Y-59457139D01*
X129932139Y-59317782D01*
X130041632Y-59153914D01*
X130117051Y-58971835D01*
X130132650Y-58893414D01*
X130155500Y-58778543D01*
X130155500Y-58581456D01*
X130117052Y-58388170D01*
X130117051Y-58388169D01*
X130117051Y-58388165D01*
X130067573Y-58268713D01*
X130041635Y-58206092D01*
X130041628Y-58206079D01*
X129932139Y-58042218D01*
X129932136Y-58042214D01*
X129792785Y-57902863D01*
X129792781Y-57902860D01*
X129628920Y-57793371D01*
X129628907Y-57793364D01*
X129446839Y-57717950D01*
X129446829Y-57717947D01*
X129253543Y-57679500D01*
X129253541Y-57679500D01*
X127221459Y-57679500D01*
X127221455Y-57679500D01*
X127129120Y-57697867D01*
X127124812Y-57698724D01*
X127028164Y-57717949D01*
X126981645Y-57737218D01*
X126974451Y-57740197D01*
X126974443Y-57740200D01*
X126846092Y-57793364D01*
X126846079Y-57793371D01*
X126682221Y-57902858D01*
X126682215Y-57902862D01*
X126662678Y-57922400D01*
X126601355Y-57955884D01*
X126531663Y-57950898D01*
X126487318Y-57922398D01*
X126042055Y-57477135D01*
X149124500Y-57477135D01*
X149124500Y-59272870D01*
X149124501Y-59272876D01*
X149130908Y-59332483D01*
X149181202Y-59467328D01*
X149181206Y-59467335D01*
X149267452Y-59582544D01*
X149267455Y-59582547D01*
X149382664Y-59668793D01*
X149382671Y-59668797D01*
X149517517Y-59719091D01*
X149517516Y-59719091D01*
X149524444Y-59719835D01*
X149577127Y-59725500D01*
X151372872Y-59725499D01*
X151432483Y-59719091D01*
X151567331Y-59668796D01*
X151682546Y-59582546D01*
X151768796Y-59467331D01*
X151817810Y-59335916D01*
X151859681Y-59279984D01*
X151925145Y-59255566D01*
X151993418Y-59270417D01*
X152021673Y-59291569D01*
X152135213Y-59405109D01*
X152307179Y-59530048D01*
X152307181Y-59530049D01*
X152307184Y-59530051D01*
X152496588Y-59626557D01*
X152698757Y-59692246D01*
X152908713Y-59725500D01*
X152908714Y-59725500D01*
X153121286Y-59725500D01*
X153121287Y-59725500D01*
X153331243Y-59692246D01*
X153533412Y-59626557D01*
X153722816Y-59530051D01*
X153804955Y-59470374D01*
X153894786Y-59405109D01*
X153894788Y-59405106D01*
X153894792Y-59405104D01*
X154045104Y-59254792D01*
X154045106Y-59254788D01*
X154045109Y-59254786D01*
X154170048Y-59082820D01*
X154170047Y-59082820D01*
X154170051Y-59082816D01*
X154174514Y-59074054D01*
X154222488Y-59023259D01*
X154290308Y-59006463D01*
X154356444Y-59028999D01*
X154395486Y-59074056D01*
X154399951Y-59082820D01*
X154524890Y-59254786D01*
X154675213Y-59405109D01*
X154847179Y-59530048D01*
X154847181Y-59530049D01*
X154847184Y-59530051D01*
X155036588Y-59626557D01*
X155238757Y-59692246D01*
X155448713Y-59725500D01*
X155448714Y-59725500D01*
X155661286Y-59725500D01*
X155661287Y-59725500D01*
X155871243Y-59692246D01*
X156073412Y-59626557D01*
X156262816Y-59530051D01*
X156344955Y-59470374D01*
X156434786Y-59405109D01*
X156434788Y-59405106D01*
X156434792Y-59405104D01*
X156585104Y-59254792D01*
X156585106Y-59254788D01*
X156585109Y-59254786D01*
X156710048Y-59082820D01*
X156710047Y-59082820D01*
X156710051Y-59082816D01*
X156714514Y-59074054D01*
X156762488Y-59023259D01*
X156830308Y-59006463D01*
X156896444Y-59028999D01*
X156935486Y-59074056D01*
X156939951Y-59082820D01*
X157064890Y-59254786D01*
X157215213Y-59405109D01*
X157387179Y-59530048D01*
X157387181Y-59530049D01*
X157387184Y-59530051D01*
X157576588Y-59626557D01*
X157778757Y-59692246D01*
X157988713Y-59725500D01*
X157988714Y-59725500D01*
X158201286Y-59725500D01*
X158201287Y-59725500D01*
X158411243Y-59692246D01*
X158613412Y-59626557D01*
X158802816Y-59530051D01*
X158884955Y-59470374D01*
X158974786Y-59405109D01*
X158974788Y-59405106D01*
X158974792Y-59405104D01*
X159125104Y-59254792D01*
X159125106Y-59254788D01*
X159125109Y-59254786D01*
X159250048Y-59082820D01*
X159250047Y-59082820D01*
X159250051Y-59082816D01*
X159254514Y-59074054D01*
X159302488Y-59023259D01*
X159370308Y-59006463D01*
X159436444Y-59028999D01*
X159475486Y-59074056D01*
X159479951Y-59082820D01*
X159604890Y-59254786D01*
X159755213Y-59405109D01*
X159927179Y-59530048D01*
X159927181Y-59530049D01*
X159927184Y-59530051D01*
X160116588Y-59626557D01*
X160318757Y-59692246D01*
X160528713Y-59725500D01*
X160528714Y-59725500D01*
X160741286Y-59725500D01*
X160741287Y-59725500D01*
X160951243Y-59692246D01*
X161153412Y-59626557D01*
X161342816Y-59530051D01*
X161424955Y-59470374D01*
X161514786Y-59405109D01*
X161514788Y-59405106D01*
X161514792Y-59405104D01*
X161665104Y-59254792D01*
X161665106Y-59254788D01*
X161665109Y-59254786D01*
X161790048Y-59082820D01*
X161790047Y-59082820D01*
X161790051Y-59082816D01*
X161794514Y-59074054D01*
X161842488Y-59023259D01*
X161910308Y-59006463D01*
X161976444Y-59028999D01*
X162015486Y-59074056D01*
X162019951Y-59082820D01*
X162144890Y-59254786D01*
X162295213Y-59405109D01*
X162467179Y-59530048D01*
X162467181Y-59530049D01*
X162467184Y-59530051D01*
X162656588Y-59626557D01*
X162858757Y-59692246D01*
X163068713Y-59725500D01*
X163068714Y-59725500D01*
X163281286Y-59725500D01*
X163281287Y-59725500D01*
X163491243Y-59692246D01*
X163693412Y-59626557D01*
X163882816Y-59530051D01*
X163964955Y-59470374D01*
X164054786Y-59405109D01*
X164054788Y-59405106D01*
X164054792Y-59405104D01*
X164205104Y-59254792D01*
X164205106Y-59254788D01*
X164205109Y-59254786D01*
X164330048Y-59082820D01*
X164330047Y-59082820D01*
X164330051Y-59082816D01*
X164426557Y-58893412D01*
X164492246Y-58691243D01*
X164525500Y-58481287D01*
X164525500Y-58268713D01*
X166904500Y-58268713D01*
X166904500Y-58481286D01*
X166937753Y-58691239D01*
X167003444Y-58893414D01*
X167099951Y-59082820D01*
X167224890Y-59254786D01*
X167375213Y-59405109D01*
X167547179Y-59530048D01*
X167547181Y-59530049D01*
X167547184Y-59530051D01*
X167736588Y-59626557D01*
X167938757Y-59692246D01*
X168148713Y-59725500D01*
X168148714Y-59725500D01*
X168361286Y-59725500D01*
X168361287Y-59725500D01*
X168571243Y-59692246D01*
X168773412Y-59626557D01*
X168962816Y-59530051D01*
X169044955Y-59470374D01*
X169134786Y-59405109D01*
X169134788Y-59405106D01*
X169134792Y-59405104D01*
X169285104Y-59254792D01*
X169285106Y-59254788D01*
X169285109Y-59254786D01*
X169410048Y-59082820D01*
X169410047Y-59082820D01*
X169410051Y-59082816D01*
X169506557Y-58893412D01*
X169572246Y-58691243D01*
X169605500Y-58481287D01*
X169605500Y-58268713D01*
X169572246Y-58058757D01*
X169506557Y-57856588D01*
X169410051Y-57667184D01*
X169410049Y-57667181D01*
X169410048Y-57667179D01*
X169285109Y-57495213D01*
X169134786Y-57344890D01*
X168962820Y-57219951D01*
X168773414Y-57123444D01*
X168773413Y-57123443D01*
X168773412Y-57123443D01*
X168571243Y-57057754D01*
X168571241Y-57057753D01*
X168571240Y-57057753D01*
X168409957Y-57032208D01*
X168361287Y-57024500D01*
X168148713Y-57024500D01*
X168100042Y-57032208D01*
X167938760Y-57057753D01*
X167736585Y-57123444D01*
X167547179Y-57219951D01*
X167375213Y-57344890D01*
X167224890Y-57495213D01*
X167099951Y-57667179D01*
X167003444Y-57856585D01*
X166937753Y-58058760D01*
X166904500Y-58268713D01*
X164525500Y-58268713D01*
X164492246Y-58058757D01*
X164426557Y-57856588D01*
X164330051Y-57667184D01*
X164330049Y-57667181D01*
X164330048Y-57667179D01*
X164205109Y-57495213D01*
X164054786Y-57344890D01*
X163882820Y-57219951D01*
X163693414Y-57123444D01*
X163693413Y-57123443D01*
X163693412Y-57123443D01*
X163491243Y-57057754D01*
X163491241Y-57057753D01*
X163491240Y-57057753D01*
X163329957Y-57032208D01*
X163281287Y-57024500D01*
X163068713Y-57024500D01*
X163020042Y-57032208D01*
X162858760Y-57057753D01*
X162656585Y-57123444D01*
X162467179Y-57219951D01*
X162295213Y-57344890D01*
X162144890Y-57495213D01*
X162019949Y-57667182D01*
X162015484Y-57675946D01*
X161967509Y-57726742D01*
X161899688Y-57743536D01*
X161833553Y-57720998D01*
X161794516Y-57675946D01*
X161790050Y-57667182D01*
X161665109Y-57495213D01*
X161514786Y-57344890D01*
X161342820Y-57219951D01*
X161153414Y-57123444D01*
X161153413Y-57123443D01*
X161153412Y-57123443D01*
X160951243Y-57057754D01*
X160951241Y-57057753D01*
X160951240Y-57057753D01*
X160789957Y-57032208D01*
X160741287Y-57024500D01*
X160528713Y-57024500D01*
X160480042Y-57032208D01*
X160318760Y-57057753D01*
X160116585Y-57123444D01*
X159927179Y-57219951D01*
X159755213Y-57344890D01*
X159604890Y-57495213D01*
X159479949Y-57667182D01*
X159475484Y-57675946D01*
X159427509Y-57726742D01*
X159359688Y-57743536D01*
X159293553Y-57720998D01*
X159254516Y-57675946D01*
X159250050Y-57667182D01*
X159125109Y-57495213D01*
X158974786Y-57344890D01*
X158802820Y-57219951D01*
X158613414Y-57123444D01*
X158613413Y-57123443D01*
X158613412Y-57123443D01*
X158411243Y-57057754D01*
X158411241Y-57057753D01*
X158411240Y-57057753D01*
X158249957Y-57032208D01*
X158201287Y-57024500D01*
X157988713Y-57024500D01*
X157940042Y-57032208D01*
X157778760Y-57057753D01*
X157576585Y-57123444D01*
X157387179Y-57219951D01*
X157215213Y-57344890D01*
X157064890Y-57495213D01*
X156939949Y-57667182D01*
X156935484Y-57675946D01*
X156887509Y-57726742D01*
X156819688Y-57743536D01*
X156753553Y-57720998D01*
X156714516Y-57675946D01*
X156710050Y-57667182D01*
X156585109Y-57495213D01*
X156434786Y-57344890D01*
X156262820Y-57219951D01*
X156073414Y-57123444D01*
X156073413Y-57123443D01*
X156073412Y-57123443D01*
X155871243Y-57057754D01*
X155871241Y-57057753D01*
X155871240Y-57057753D01*
X155709957Y-57032208D01*
X155661287Y-57024500D01*
X155448713Y-57024500D01*
X155400042Y-57032208D01*
X155238760Y-57057753D01*
X155036585Y-57123444D01*
X154847179Y-57219951D01*
X154675213Y-57344890D01*
X154524890Y-57495213D01*
X154399949Y-57667182D01*
X154395484Y-57675946D01*
X154347509Y-57726742D01*
X154279688Y-57743536D01*
X154213553Y-57720998D01*
X154174516Y-57675946D01*
X154170050Y-57667182D01*
X154045109Y-57495213D01*
X153894786Y-57344890D01*
X153722820Y-57219951D01*
X153533414Y-57123444D01*
X153533413Y-57123443D01*
X153533412Y-57123443D01*
X153331243Y-57057754D01*
X153331241Y-57057753D01*
X153331240Y-57057753D01*
X153169957Y-57032208D01*
X153121287Y-57024500D01*
X152908713Y-57024500D01*
X152860042Y-57032208D01*
X152698760Y-57057753D01*
X152496585Y-57123444D01*
X152307179Y-57219951D01*
X152135215Y-57344889D01*
X152021673Y-57458431D01*
X151960350Y-57491915D01*
X151890658Y-57486931D01*
X151834725Y-57445059D01*
X151817810Y-57414082D01*
X151768797Y-57282671D01*
X151768793Y-57282664D01*
X151682547Y-57167455D01*
X151682544Y-57167452D01*
X151567335Y-57081206D01*
X151567328Y-57081202D01*
X151432482Y-57030908D01*
X151432483Y-57030908D01*
X151372883Y-57024501D01*
X151372881Y-57024500D01*
X151372873Y-57024500D01*
X151372864Y-57024500D01*
X149577129Y-57024500D01*
X149577123Y-57024501D01*
X149517516Y-57030908D01*
X149382671Y-57081202D01*
X149382664Y-57081206D01*
X149267455Y-57167452D01*
X149267452Y-57167455D01*
X149181206Y-57282664D01*
X149181202Y-57282671D01*
X149130908Y-57417517D01*
X149124501Y-57477116D01*
X149124500Y-57477135D01*
X126042055Y-57477135D01*
X125019496Y-56454576D01*
X124986011Y-56393253D01*
X124990995Y-56323561D01*
X125032867Y-56267628D01*
X125098331Y-56243211D01*
X125107126Y-56242895D01*
X174226840Y-56227530D01*
X174293883Y-56247194D01*
G37*
%TD.AperFunction*%
%TD*%
M02*
