%TF.GenerationSoftware,KiCad,Pcbnew,9.0.0*%
%TF.CreationDate,2025-04-24T22:15:06+07:00*%
%TF.ProjectId,Controll_,436f6e74-726f-46c6-9cbb-2e6b69636164,rev?*%
%TF.SameCoordinates,Original*%
%TF.FileFunction,Paste,Bot*%
%TF.FilePolarity,Positive*%
%FSLAX46Y46*%
G04 Gerber Fmt 4.6, Leading zero omitted, Abs format (unit mm)*
G04 Created by KiCad (PCBNEW 9.0.0) date 2025-04-24 22:15:06*
%MOMM*%
%LPD*%
G01*
G04 APERTURE LIST*
G04 Aperture macros list*
%AMRoundRect*
0 Rectangle with rounded corners*
0 $1 Rounding radius*
0 $2 $3 $4 $5 $6 $7 $8 $9 X,Y pos of 4 corners*
0 Add a 4 corners polygon primitive as box body*
4,1,4,$2,$3,$4,$5,$6,$7,$8,$9,$2,$3,0*
0 Add four circle primitives for the rounded corners*
1,1,$1+$1,$2,$3*
1,1,$1+$1,$4,$5*
1,1,$1+$1,$6,$7*
1,1,$1+$1,$8,$9*
0 Add four rect primitives between the rounded corners*
20,1,$1+$1,$2,$3,$4,$5,0*
20,1,$1+$1,$4,$5,$6,$7,0*
20,1,$1+$1,$6,$7,$8,$9,0*
20,1,$1+$1,$8,$9,$2,$3,0*%
G04 Aperture macros list end*
%ADD10RoundRect,0.250000X-0.475000X0.250000X-0.475000X-0.250000X0.475000X-0.250000X0.475000X0.250000X0*%
%ADD11RoundRect,0.250000X0.250000X0.475000X-0.250000X0.475000X-0.250000X-0.475000X0.250000X-0.475000X0*%
%ADD12RoundRect,0.250000X-0.450000X0.262500X-0.450000X-0.262500X0.450000X-0.262500X0.450000X0.262500X0*%
%ADD13RoundRect,0.250000X-0.250000X-0.475000X0.250000X-0.475000X0.250000X0.475000X-0.250000X0.475000X0*%
%ADD14RoundRect,0.243750X-0.243750X-0.456250X0.243750X-0.456250X0.243750X0.456250X-0.243750X0.456250X0*%
%ADD15R,0.600000X1.240000*%
%ADD16R,0.300000X1.240000*%
%ADD17RoundRect,0.375000X0.375000X-0.625000X0.375000X0.625000X-0.375000X0.625000X-0.375000X-0.625000X0*%
%ADD18RoundRect,0.500000X1.400000X-0.500000X1.400000X0.500000X-1.400000X0.500000X-1.400000X-0.500000X0*%
G04 APERTURE END LIST*
D10*
%TO.C,C6*%
X152440000Y-102520000D03*
X152440000Y-104420000D03*
%TD*%
D11*
%TO.C,C2*%
X150150000Y-102760000D03*
X148250000Y-102760000D03*
%TD*%
D12*
%TO.C,R4*%
X117050000Y-63187500D03*
X117050000Y-65012500D03*
%TD*%
D11*
%TO.C,C1*%
X150150000Y-104740000D03*
X148250000Y-104740000D03*
%TD*%
D12*
%TO.C,R1*%
X110250000Y-63190000D03*
X110250000Y-65015000D03*
%TD*%
D13*
%TO.C,C4*%
X152460000Y-89950000D03*
X154360000Y-89950000D03*
%TD*%
D14*
%TO.C,D4*%
X118537500Y-58452500D03*
X120412500Y-58452500D03*
%TD*%
D12*
%TO.C,R3*%
X114775000Y-63190000D03*
X114775000Y-65015000D03*
%TD*%
D15*
%TO.C,P2*%
X142475000Y-106335000D03*
X141675000Y-106335000D03*
D16*
X140525000Y-106335000D03*
X139525000Y-106335000D03*
X139025000Y-106335000D03*
X138025000Y-106335000D03*
D15*
X136875000Y-106335000D03*
X136075000Y-106335000D03*
X136075000Y-106335000D03*
X136875000Y-106335000D03*
D16*
X137525000Y-106335000D03*
X138525000Y-106335000D03*
X140025000Y-106335000D03*
X141025000Y-106335000D03*
D15*
X141675000Y-106335000D03*
X142475000Y-106335000D03*
%TD*%
D12*
%TO.C,R2*%
X112475000Y-63190000D03*
X112475000Y-65015000D03*
%TD*%
D14*
%TO.C,D1*%
X108375000Y-58477500D03*
X110250000Y-58477500D03*
%TD*%
%TO.C,D3*%
X115112500Y-58452500D03*
X116987500Y-58452500D03*
%TD*%
D13*
%TO.C,C3*%
X152450000Y-91910000D03*
X154350000Y-91910000D03*
%TD*%
D17*
%TO.C,U3*%
X154750000Y-100475000D03*
X152450000Y-100475000D03*
D18*
X152450000Y-94175000D03*
D17*
X150150000Y-100475000D03*
%TD*%
D14*
%TO.C,D2*%
X111750000Y-58477500D03*
X113625000Y-58477500D03*
%TD*%
D12*
%TO.C,R5*%
X119325000Y-63190000D03*
X119325000Y-65015000D03*
%TD*%
M02*
