%TF.GenerationSoftware,KiCad,Pcbnew,9.0.0*%
%TF.CreationDate,2025-04-24T22:15:06+07:00*%
%TF.ProjectId,Controll_,436f6e74-726f-46c6-9cbb-2e6b69636164,rev?*%
%TF.SameCoordinates,Original*%
%TF.FileFunction,Legend,Bot*%
%TF.FilePolarity,Positive*%
%FSLAX46Y46*%
G04 Gerber Fmt 4.6, Leading zero omitted, Abs format (unit mm)*
G04 Created by KiCad (PCBNEW 9.0.0) date 2025-04-24 22:15:06*
%MOMM*%
%LPD*%
G01*
G04 APERTURE LIST*
%ADD10C,0.100000*%
%ADD11C,0.150000*%
%ADD12C,0.120000*%
G04 APERTURE END LIST*
D10*
X106025000Y-84325000D02*
X123225000Y-84325000D01*
X123225000Y-112325000D01*
X106025000Y-112325000D01*
X106025000Y-84325000D01*
X117713972Y-101747419D02*
X117142544Y-101747419D01*
X117428258Y-102747419D02*
X117428258Y-101747419D01*
X116809210Y-102747419D02*
X116809210Y-101747419D01*
X116809210Y-101747419D02*
X116428258Y-101747419D01*
X116428258Y-101747419D02*
X116333020Y-101795038D01*
X116333020Y-101795038D02*
X116285401Y-101842657D01*
X116285401Y-101842657D02*
X116237782Y-101937895D01*
X116237782Y-101937895D02*
X116237782Y-102080752D01*
X116237782Y-102080752D02*
X116285401Y-102175990D01*
X116285401Y-102175990D02*
X116333020Y-102223609D01*
X116333020Y-102223609D02*
X116428258Y-102271228D01*
X116428258Y-102271228D02*
X116809210Y-102271228D01*
X115380639Y-102080752D02*
X115380639Y-102747419D01*
X115618734Y-101699800D02*
X115856829Y-102414085D01*
X115856829Y-102414085D02*
X115237782Y-102414085D01*
X114666353Y-101747419D02*
X114571115Y-101747419D01*
X114571115Y-101747419D02*
X114475877Y-101795038D01*
X114475877Y-101795038D02*
X114428258Y-101842657D01*
X114428258Y-101842657D02*
X114380639Y-101937895D01*
X114380639Y-101937895D02*
X114333020Y-102128371D01*
X114333020Y-102128371D02*
X114333020Y-102366466D01*
X114333020Y-102366466D02*
X114380639Y-102556942D01*
X114380639Y-102556942D02*
X114428258Y-102652180D01*
X114428258Y-102652180D02*
X114475877Y-102699800D01*
X114475877Y-102699800D02*
X114571115Y-102747419D01*
X114571115Y-102747419D02*
X114666353Y-102747419D01*
X114666353Y-102747419D02*
X114761591Y-102699800D01*
X114761591Y-102699800D02*
X114809210Y-102652180D01*
X114809210Y-102652180D02*
X114856829Y-102556942D01*
X114856829Y-102556942D02*
X114904448Y-102366466D01*
X114904448Y-102366466D02*
X114904448Y-102128371D01*
X114904448Y-102128371D02*
X114856829Y-101937895D01*
X114856829Y-101937895D02*
X114809210Y-101842657D01*
X114809210Y-101842657D02*
X114761591Y-101795038D01*
X114761591Y-101795038D02*
X114666353Y-101747419D01*
X113428258Y-101747419D02*
X113904448Y-101747419D01*
X113904448Y-101747419D02*
X113952067Y-102223609D01*
X113952067Y-102223609D02*
X113904448Y-102175990D01*
X113904448Y-102175990D02*
X113809210Y-102128371D01*
X113809210Y-102128371D02*
X113571115Y-102128371D01*
X113571115Y-102128371D02*
X113475877Y-102175990D01*
X113475877Y-102175990D02*
X113428258Y-102223609D01*
X113428258Y-102223609D02*
X113380639Y-102318847D01*
X113380639Y-102318847D02*
X113380639Y-102556942D01*
X113380639Y-102556942D02*
X113428258Y-102652180D01*
X113428258Y-102652180D02*
X113475877Y-102699800D01*
X113475877Y-102699800D02*
X113571115Y-102747419D01*
X113571115Y-102747419D02*
X113809210Y-102747419D01*
X113809210Y-102747419D02*
X113904448Y-102699800D01*
X113904448Y-102699800D02*
X113952067Y-102652180D01*
X112523496Y-101747419D02*
X112713972Y-101747419D01*
X112713972Y-101747419D02*
X112809210Y-101795038D01*
X112809210Y-101795038D02*
X112856829Y-101842657D01*
X112856829Y-101842657D02*
X112952067Y-101985514D01*
X112952067Y-101985514D02*
X112999686Y-102175990D01*
X112999686Y-102175990D02*
X112999686Y-102556942D01*
X112999686Y-102556942D02*
X112952067Y-102652180D01*
X112952067Y-102652180D02*
X112904448Y-102699800D01*
X112904448Y-102699800D02*
X112809210Y-102747419D01*
X112809210Y-102747419D02*
X112618734Y-102747419D01*
X112618734Y-102747419D02*
X112523496Y-102699800D01*
X112523496Y-102699800D02*
X112475877Y-102652180D01*
X112475877Y-102652180D02*
X112428258Y-102556942D01*
X112428258Y-102556942D02*
X112428258Y-102318847D01*
X112428258Y-102318847D02*
X112475877Y-102223609D01*
X112475877Y-102223609D02*
X112523496Y-102175990D01*
X112523496Y-102175990D02*
X112618734Y-102128371D01*
X112618734Y-102128371D02*
X112809210Y-102128371D01*
X112809210Y-102128371D02*
X112904448Y-102175990D01*
X112904448Y-102175990D02*
X112952067Y-102223609D01*
X112952067Y-102223609D02*
X112999686Y-102318847D01*
D11*
X151119580Y-103303333D02*
X151167200Y-103255714D01*
X151167200Y-103255714D02*
X151214819Y-103112857D01*
X151214819Y-103112857D02*
X151214819Y-103017619D01*
X151214819Y-103017619D02*
X151167200Y-102874762D01*
X151167200Y-102874762D02*
X151071961Y-102779524D01*
X151071961Y-102779524D02*
X150976723Y-102731905D01*
X150976723Y-102731905D02*
X150786247Y-102684286D01*
X150786247Y-102684286D02*
X150643390Y-102684286D01*
X150643390Y-102684286D02*
X150452914Y-102731905D01*
X150452914Y-102731905D02*
X150357676Y-102779524D01*
X150357676Y-102779524D02*
X150262438Y-102874762D01*
X150262438Y-102874762D02*
X150214819Y-103017619D01*
X150214819Y-103017619D02*
X150214819Y-103112857D01*
X150214819Y-103112857D02*
X150262438Y-103255714D01*
X150262438Y-103255714D02*
X150310057Y-103303333D01*
X150214819Y-104160476D02*
X150214819Y-103970000D01*
X150214819Y-103970000D02*
X150262438Y-103874762D01*
X150262438Y-103874762D02*
X150310057Y-103827143D01*
X150310057Y-103827143D02*
X150452914Y-103731905D01*
X150452914Y-103731905D02*
X150643390Y-103684286D01*
X150643390Y-103684286D02*
X151024342Y-103684286D01*
X151024342Y-103684286D02*
X151119580Y-103731905D01*
X151119580Y-103731905D02*
X151167200Y-103779524D01*
X151167200Y-103779524D02*
X151214819Y-103874762D01*
X151214819Y-103874762D02*
X151214819Y-104065238D01*
X151214819Y-104065238D02*
X151167200Y-104160476D01*
X151167200Y-104160476D02*
X151119580Y-104208095D01*
X151119580Y-104208095D02*
X151024342Y-104255714D01*
X151024342Y-104255714D02*
X150786247Y-104255714D01*
X150786247Y-104255714D02*
X150691009Y-104208095D01*
X150691009Y-104208095D02*
X150643390Y-104160476D01*
X150643390Y-104160476D02*
X150595771Y-104065238D01*
X150595771Y-104065238D02*
X150595771Y-103874762D01*
X150595771Y-103874762D02*
X150643390Y-103779524D01*
X150643390Y-103779524D02*
X150691009Y-103731905D01*
X150691009Y-103731905D02*
X150786247Y-103684286D01*
X159184819Y-109616666D02*
X159899104Y-109616666D01*
X159899104Y-109616666D02*
X160041961Y-109569047D01*
X160041961Y-109569047D02*
X160137200Y-109473809D01*
X160137200Y-109473809D02*
X160184819Y-109330952D01*
X160184819Y-109330952D02*
X160184819Y-109235714D01*
X160184819Y-110616666D02*
X160184819Y-110045238D01*
X160184819Y-110330952D02*
X159184819Y-110330952D01*
X159184819Y-110330952D02*
X159327676Y-110235714D01*
X159327676Y-110235714D02*
X159422914Y-110140476D01*
X159422914Y-110140476D02*
X159470533Y-110045238D01*
X120753333Y-90559819D02*
X120753333Y-91274104D01*
X120753333Y-91274104D02*
X120800952Y-91416961D01*
X120800952Y-91416961D02*
X120896190Y-91512200D01*
X120896190Y-91512200D02*
X121039047Y-91559819D01*
X121039047Y-91559819D02*
X121134285Y-91559819D01*
X119848571Y-90559819D02*
X120039047Y-90559819D01*
X120039047Y-90559819D02*
X120134285Y-90607438D01*
X120134285Y-90607438D02*
X120181904Y-90655057D01*
X120181904Y-90655057D02*
X120277142Y-90797914D01*
X120277142Y-90797914D02*
X120324761Y-90988390D01*
X120324761Y-90988390D02*
X120324761Y-91369342D01*
X120324761Y-91369342D02*
X120277142Y-91464580D01*
X120277142Y-91464580D02*
X120229523Y-91512200D01*
X120229523Y-91512200D02*
X120134285Y-91559819D01*
X120134285Y-91559819D02*
X119943809Y-91559819D01*
X119943809Y-91559819D02*
X119848571Y-91512200D01*
X119848571Y-91512200D02*
X119800952Y-91464580D01*
X119800952Y-91464580D02*
X119753333Y-91369342D01*
X119753333Y-91369342D02*
X119753333Y-91131247D01*
X119753333Y-91131247D02*
X119800952Y-91036009D01*
X119800952Y-91036009D02*
X119848571Y-90988390D01*
X119848571Y-90988390D02*
X119943809Y-90940771D01*
X119943809Y-90940771D02*
X120134285Y-90940771D01*
X120134285Y-90940771D02*
X120229523Y-90988390D01*
X120229523Y-90988390D02*
X120277142Y-91036009D01*
X120277142Y-91036009D02*
X120324761Y-91131247D01*
X149366666Y-101439580D02*
X149414285Y-101487200D01*
X149414285Y-101487200D02*
X149557142Y-101534819D01*
X149557142Y-101534819D02*
X149652380Y-101534819D01*
X149652380Y-101534819D02*
X149795237Y-101487200D01*
X149795237Y-101487200D02*
X149890475Y-101391961D01*
X149890475Y-101391961D02*
X149938094Y-101296723D01*
X149938094Y-101296723D02*
X149985713Y-101106247D01*
X149985713Y-101106247D02*
X149985713Y-100963390D01*
X149985713Y-100963390D02*
X149938094Y-100772914D01*
X149938094Y-100772914D02*
X149890475Y-100677676D01*
X149890475Y-100677676D02*
X149795237Y-100582438D01*
X149795237Y-100582438D02*
X149652380Y-100534819D01*
X149652380Y-100534819D02*
X149557142Y-100534819D01*
X149557142Y-100534819D02*
X149414285Y-100582438D01*
X149414285Y-100582438D02*
X149366666Y-100630057D01*
X148985713Y-100630057D02*
X148938094Y-100582438D01*
X148938094Y-100582438D02*
X148842856Y-100534819D01*
X148842856Y-100534819D02*
X148604761Y-100534819D01*
X148604761Y-100534819D02*
X148509523Y-100582438D01*
X148509523Y-100582438D02*
X148461904Y-100630057D01*
X148461904Y-100630057D02*
X148414285Y-100725295D01*
X148414285Y-100725295D02*
X148414285Y-100820533D01*
X148414285Y-100820533D02*
X148461904Y-100963390D01*
X148461904Y-100963390D02*
X149033332Y-101534819D01*
X149033332Y-101534819D02*
X148414285Y-101534819D01*
X115854819Y-63933333D02*
X115378628Y-63600000D01*
X115854819Y-63361905D02*
X114854819Y-63361905D01*
X114854819Y-63361905D02*
X114854819Y-63742857D01*
X114854819Y-63742857D02*
X114902438Y-63838095D01*
X114902438Y-63838095D02*
X114950057Y-63885714D01*
X114950057Y-63885714D02*
X115045295Y-63933333D01*
X115045295Y-63933333D02*
X115188152Y-63933333D01*
X115188152Y-63933333D02*
X115283390Y-63885714D01*
X115283390Y-63885714D02*
X115331009Y-63838095D01*
X115331009Y-63838095D02*
X115378628Y-63742857D01*
X115378628Y-63742857D02*
X115378628Y-63361905D01*
X115188152Y-64790476D02*
X115854819Y-64790476D01*
X114807200Y-64552381D02*
X115521485Y-64314286D01*
X115521485Y-64314286D02*
X115521485Y-64933333D01*
X149366666Y-103419580D02*
X149414285Y-103467200D01*
X149414285Y-103467200D02*
X149557142Y-103514819D01*
X149557142Y-103514819D02*
X149652380Y-103514819D01*
X149652380Y-103514819D02*
X149795237Y-103467200D01*
X149795237Y-103467200D02*
X149890475Y-103371961D01*
X149890475Y-103371961D02*
X149938094Y-103276723D01*
X149938094Y-103276723D02*
X149985713Y-103086247D01*
X149985713Y-103086247D02*
X149985713Y-102943390D01*
X149985713Y-102943390D02*
X149938094Y-102752914D01*
X149938094Y-102752914D02*
X149890475Y-102657676D01*
X149890475Y-102657676D02*
X149795237Y-102562438D01*
X149795237Y-102562438D02*
X149652380Y-102514819D01*
X149652380Y-102514819D02*
X149557142Y-102514819D01*
X149557142Y-102514819D02*
X149414285Y-102562438D01*
X149414285Y-102562438D02*
X149366666Y-102610057D01*
X148414285Y-103514819D02*
X148985713Y-103514819D01*
X148699999Y-103514819D02*
X148699999Y-102514819D01*
X148699999Y-102514819D02*
X148795237Y-102657676D01*
X148795237Y-102657676D02*
X148890475Y-102752914D01*
X148890475Y-102752914D02*
X148985713Y-102800533D01*
X109054819Y-63935833D02*
X108578628Y-63602500D01*
X109054819Y-63364405D02*
X108054819Y-63364405D01*
X108054819Y-63364405D02*
X108054819Y-63745357D01*
X108054819Y-63745357D02*
X108102438Y-63840595D01*
X108102438Y-63840595D02*
X108150057Y-63888214D01*
X108150057Y-63888214D02*
X108245295Y-63935833D01*
X108245295Y-63935833D02*
X108388152Y-63935833D01*
X108388152Y-63935833D02*
X108483390Y-63888214D01*
X108483390Y-63888214D02*
X108531009Y-63840595D01*
X108531009Y-63840595D02*
X108578628Y-63745357D01*
X108578628Y-63745357D02*
X108578628Y-63364405D01*
X109054819Y-64888214D02*
X109054819Y-64316786D01*
X109054819Y-64602500D02*
X108054819Y-64602500D01*
X108054819Y-64602500D02*
X108197676Y-64507262D01*
X108197676Y-64507262D02*
X108292914Y-64412024D01*
X108292914Y-64412024D02*
X108340533Y-64316786D01*
X153576666Y-91989580D02*
X153624285Y-92037200D01*
X153624285Y-92037200D02*
X153767142Y-92084819D01*
X153767142Y-92084819D02*
X153862380Y-92084819D01*
X153862380Y-92084819D02*
X154005237Y-92037200D01*
X154005237Y-92037200D02*
X154100475Y-91941961D01*
X154100475Y-91941961D02*
X154148094Y-91846723D01*
X154148094Y-91846723D02*
X154195713Y-91656247D01*
X154195713Y-91656247D02*
X154195713Y-91513390D01*
X154195713Y-91513390D02*
X154148094Y-91322914D01*
X154148094Y-91322914D02*
X154100475Y-91227676D01*
X154100475Y-91227676D02*
X154005237Y-91132438D01*
X154005237Y-91132438D02*
X153862380Y-91084819D01*
X153862380Y-91084819D02*
X153767142Y-91084819D01*
X153767142Y-91084819D02*
X153624285Y-91132438D01*
X153624285Y-91132438D02*
X153576666Y-91180057D01*
X152719523Y-91418152D02*
X152719523Y-92084819D01*
X152957618Y-91037200D02*
X153195713Y-91751485D01*
X153195713Y-91751485D02*
X152576666Y-91751485D01*
X120213094Y-60557319D02*
X120213094Y-59557319D01*
X120213094Y-59557319D02*
X119974999Y-59557319D01*
X119974999Y-59557319D02*
X119832142Y-59604938D01*
X119832142Y-59604938D02*
X119736904Y-59700176D01*
X119736904Y-59700176D02*
X119689285Y-59795414D01*
X119689285Y-59795414D02*
X119641666Y-59985890D01*
X119641666Y-59985890D02*
X119641666Y-60128747D01*
X119641666Y-60128747D02*
X119689285Y-60319223D01*
X119689285Y-60319223D02*
X119736904Y-60414461D01*
X119736904Y-60414461D02*
X119832142Y-60509700D01*
X119832142Y-60509700D02*
X119974999Y-60557319D01*
X119974999Y-60557319D02*
X120213094Y-60557319D01*
X118784523Y-59890652D02*
X118784523Y-60557319D01*
X119022618Y-59509700D02*
X119260713Y-60223985D01*
X119260713Y-60223985D02*
X118641666Y-60223985D01*
X113579819Y-63935833D02*
X113103628Y-63602500D01*
X113579819Y-63364405D02*
X112579819Y-63364405D01*
X112579819Y-63364405D02*
X112579819Y-63745357D01*
X112579819Y-63745357D02*
X112627438Y-63840595D01*
X112627438Y-63840595D02*
X112675057Y-63888214D01*
X112675057Y-63888214D02*
X112770295Y-63935833D01*
X112770295Y-63935833D02*
X112913152Y-63935833D01*
X112913152Y-63935833D02*
X113008390Y-63888214D01*
X113008390Y-63888214D02*
X113056009Y-63840595D01*
X113056009Y-63840595D02*
X113103628Y-63745357D01*
X113103628Y-63745357D02*
X113103628Y-63364405D01*
X112579819Y-64269167D02*
X112579819Y-64888214D01*
X112579819Y-64888214D02*
X112960771Y-64554881D01*
X112960771Y-64554881D02*
X112960771Y-64697738D01*
X112960771Y-64697738D02*
X113008390Y-64792976D01*
X113008390Y-64792976D02*
X113056009Y-64840595D01*
X113056009Y-64840595D02*
X113151247Y-64888214D01*
X113151247Y-64888214D02*
X113389342Y-64888214D01*
X113389342Y-64888214D02*
X113484580Y-64840595D01*
X113484580Y-64840595D02*
X113532200Y-64792976D01*
X113532200Y-64792976D02*
X113579819Y-64697738D01*
X113579819Y-64697738D02*
X113579819Y-64412024D01*
X113579819Y-64412024D02*
X113532200Y-64316786D01*
X113532200Y-64316786D02*
X113484580Y-64269167D01*
X140013094Y-105014819D02*
X140013094Y-104014819D01*
X140013094Y-104014819D02*
X139632142Y-104014819D01*
X139632142Y-104014819D02*
X139536904Y-104062438D01*
X139536904Y-104062438D02*
X139489285Y-104110057D01*
X139489285Y-104110057D02*
X139441666Y-104205295D01*
X139441666Y-104205295D02*
X139441666Y-104348152D01*
X139441666Y-104348152D02*
X139489285Y-104443390D01*
X139489285Y-104443390D02*
X139536904Y-104491009D01*
X139536904Y-104491009D02*
X139632142Y-104538628D01*
X139632142Y-104538628D02*
X140013094Y-104538628D01*
X139060713Y-104110057D02*
X139013094Y-104062438D01*
X139013094Y-104062438D02*
X138917856Y-104014819D01*
X138917856Y-104014819D02*
X138679761Y-104014819D01*
X138679761Y-104014819D02*
X138584523Y-104062438D01*
X138584523Y-104062438D02*
X138536904Y-104110057D01*
X138536904Y-104110057D02*
X138489285Y-104205295D01*
X138489285Y-104205295D02*
X138489285Y-104300533D01*
X138489285Y-104300533D02*
X138536904Y-104443390D01*
X138536904Y-104443390D02*
X139108332Y-105014819D01*
X139108332Y-105014819D02*
X138489285Y-105014819D01*
X109303333Y-90559819D02*
X109303333Y-91274104D01*
X109303333Y-91274104D02*
X109350952Y-91416961D01*
X109350952Y-91416961D02*
X109446190Y-91512200D01*
X109446190Y-91512200D02*
X109589047Y-91559819D01*
X109589047Y-91559819D02*
X109684285Y-91559819D01*
X108350952Y-90559819D02*
X108827142Y-90559819D01*
X108827142Y-90559819D02*
X108874761Y-91036009D01*
X108874761Y-91036009D02*
X108827142Y-90988390D01*
X108827142Y-90988390D02*
X108731904Y-90940771D01*
X108731904Y-90940771D02*
X108493809Y-90940771D01*
X108493809Y-90940771D02*
X108398571Y-90988390D01*
X108398571Y-90988390D02*
X108350952Y-91036009D01*
X108350952Y-91036009D02*
X108303333Y-91131247D01*
X108303333Y-91131247D02*
X108303333Y-91369342D01*
X108303333Y-91369342D02*
X108350952Y-91464580D01*
X108350952Y-91464580D02*
X108398571Y-91512200D01*
X108398571Y-91512200D02*
X108493809Y-91559819D01*
X108493809Y-91559819D02*
X108731904Y-91559819D01*
X108731904Y-91559819D02*
X108827142Y-91512200D01*
X108827142Y-91512200D02*
X108874761Y-91464580D01*
X111279819Y-63935833D02*
X110803628Y-63602500D01*
X111279819Y-63364405D02*
X110279819Y-63364405D01*
X110279819Y-63364405D02*
X110279819Y-63745357D01*
X110279819Y-63745357D02*
X110327438Y-63840595D01*
X110327438Y-63840595D02*
X110375057Y-63888214D01*
X110375057Y-63888214D02*
X110470295Y-63935833D01*
X110470295Y-63935833D02*
X110613152Y-63935833D01*
X110613152Y-63935833D02*
X110708390Y-63888214D01*
X110708390Y-63888214D02*
X110756009Y-63840595D01*
X110756009Y-63840595D02*
X110803628Y-63745357D01*
X110803628Y-63745357D02*
X110803628Y-63364405D01*
X110375057Y-64316786D02*
X110327438Y-64364405D01*
X110327438Y-64364405D02*
X110279819Y-64459643D01*
X110279819Y-64459643D02*
X110279819Y-64697738D01*
X110279819Y-64697738D02*
X110327438Y-64792976D01*
X110327438Y-64792976D02*
X110375057Y-64840595D01*
X110375057Y-64840595D02*
X110470295Y-64888214D01*
X110470295Y-64888214D02*
X110565533Y-64888214D01*
X110565533Y-64888214D02*
X110708390Y-64840595D01*
X110708390Y-64840595D02*
X111279819Y-64269167D01*
X111279819Y-64269167D02*
X111279819Y-64888214D01*
X110050594Y-60582319D02*
X110050594Y-59582319D01*
X110050594Y-59582319D02*
X109812499Y-59582319D01*
X109812499Y-59582319D02*
X109669642Y-59629938D01*
X109669642Y-59629938D02*
X109574404Y-59725176D01*
X109574404Y-59725176D02*
X109526785Y-59820414D01*
X109526785Y-59820414D02*
X109479166Y-60010890D01*
X109479166Y-60010890D02*
X109479166Y-60153747D01*
X109479166Y-60153747D02*
X109526785Y-60344223D01*
X109526785Y-60344223D02*
X109574404Y-60439461D01*
X109574404Y-60439461D02*
X109669642Y-60534700D01*
X109669642Y-60534700D02*
X109812499Y-60582319D01*
X109812499Y-60582319D02*
X110050594Y-60582319D01*
X108526785Y-60582319D02*
X109098213Y-60582319D01*
X108812499Y-60582319D02*
X108812499Y-59582319D01*
X108812499Y-59582319D02*
X108907737Y-59725176D01*
X108907737Y-59725176D02*
X109002975Y-59820414D01*
X109002975Y-59820414D02*
X109098213Y-59868033D01*
X116788094Y-60557319D02*
X116788094Y-59557319D01*
X116788094Y-59557319D02*
X116549999Y-59557319D01*
X116549999Y-59557319D02*
X116407142Y-59604938D01*
X116407142Y-59604938D02*
X116311904Y-59700176D01*
X116311904Y-59700176D02*
X116264285Y-59795414D01*
X116264285Y-59795414D02*
X116216666Y-59985890D01*
X116216666Y-59985890D02*
X116216666Y-60128747D01*
X116216666Y-60128747D02*
X116264285Y-60319223D01*
X116264285Y-60319223D02*
X116311904Y-60414461D01*
X116311904Y-60414461D02*
X116407142Y-60509700D01*
X116407142Y-60509700D02*
X116549999Y-60557319D01*
X116549999Y-60557319D02*
X116788094Y-60557319D01*
X115883332Y-59557319D02*
X115264285Y-59557319D01*
X115264285Y-59557319D02*
X115597618Y-59938271D01*
X115597618Y-59938271D02*
X115454761Y-59938271D01*
X115454761Y-59938271D02*
X115359523Y-59985890D01*
X115359523Y-59985890D02*
X115311904Y-60033509D01*
X115311904Y-60033509D02*
X115264285Y-60128747D01*
X115264285Y-60128747D02*
X115264285Y-60366842D01*
X115264285Y-60366842D02*
X115311904Y-60462080D01*
X115311904Y-60462080D02*
X115359523Y-60509700D01*
X115359523Y-60509700D02*
X115454761Y-60557319D01*
X115454761Y-60557319D02*
X115740475Y-60557319D01*
X115740475Y-60557319D02*
X115835713Y-60509700D01*
X115835713Y-60509700D02*
X115883332Y-60462080D01*
X153566666Y-93949580D02*
X153614285Y-93997200D01*
X153614285Y-93997200D02*
X153757142Y-94044819D01*
X153757142Y-94044819D02*
X153852380Y-94044819D01*
X153852380Y-94044819D02*
X153995237Y-93997200D01*
X153995237Y-93997200D02*
X154090475Y-93901961D01*
X154090475Y-93901961D02*
X154138094Y-93806723D01*
X154138094Y-93806723D02*
X154185713Y-93616247D01*
X154185713Y-93616247D02*
X154185713Y-93473390D01*
X154185713Y-93473390D02*
X154138094Y-93282914D01*
X154138094Y-93282914D02*
X154090475Y-93187676D01*
X154090475Y-93187676D02*
X153995237Y-93092438D01*
X153995237Y-93092438D02*
X153852380Y-93044819D01*
X153852380Y-93044819D02*
X153757142Y-93044819D01*
X153757142Y-93044819D02*
X153614285Y-93092438D01*
X153614285Y-93092438D02*
X153566666Y-93140057D01*
X153233332Y-93044819D02*
X152614285Y-93044819D01*
X152614285Y-93044819D02*
X152947618Y-93425771D01*
X152947618Y-93425771D02*
X152804761Y-93425771D01*
X152804761Y-93425771D02*
X152709523Y-93473390D01*
X152709523Y-93473390D02*
X152661904Y-93521009D01*
X152661904Y-93521009D02*
X152614285Y-93616247D01*
X152614285Y-93616247D02*
X152614285Y-93854342D01*
X152614285Y-93854342D02*
X152661904Y-93949580D01*
X152661904Y-93949580D02*
X152709523Y-93997200D01*
X152709523Y-93997200D02*
X152804761Y-94044819D01*
X152804761Y-94044819D02*
X153090475Y-94044819D01*
X153090475Y-94044819D02*
X153185713Y-93997200D01*
X153185713Y-93997200D02*
X153233332Y-93949580D01*
X156404819Y-96563095D02*
X157214342Y-96563095D01*
X157214342Y-96563095D02*
X157309580Y-96610714D01*
X157309580Y-96610714D02*
X157357200Y-96658333D01*
X157357200Y-96658333D02*
X157404819Y-96753571D01*
X157404819Y-96753571D02*
X157404819Y-96944047D01*
X157404819Y-96944047D02*
X157357200Y-97039285D01*
X157357200Y-97039285D02*
X157309580Y-97086904D01*
X157309580Y-97086904D02*
X157214342Y-97134523D01*
X157214342Y-97134523D02*
X156404819Y-97134523D01*
X156404819Y-97515476D02*
X156404819Y-98134523D01*
X156404819Y-98134523D02*
X156785771Y-97801190D01*
X156785771Y-97801190D02*
X156785771Y-97944047D01*
X156785771Y-97944047D02*
X156833390Y-98039285D01*
X156833390Y-98039285D02*
X156881009Y-98086904D01*
X156881009Y-98086904D02*
X156976247Y-98134523D01*
X156976247Y-98134523D02*
X157214342Y-98134523D01*
X157214342Y-98134523D02*
X157309580Y-98086904D01*
X157309580Y-98086904D02*
X157357200Y-98039285D01*
X157357200Y-98039285D02*
X157404819Y-97944047D01*
X157404819Y-97944047D02*
X157404819Y-97658333D01*
X157404819Y-97658333D02*
X157357200Y-97563095D01*
X157357200Y-97563095D02*
X157309580Y-97515476D01*
X113425594Y-60582319D02*
X113425594Y-59582319D01*
X113425594Y-59582319D02*
X113187499Y-59582319D01*
X113187499Y-59582319D02*
X113044642Y-59629938D01*
X113044642Y-59629938D02*
X112949404Y-59725176D01*
X112949404Y-59725176D02*
X112901785Y-59820414D01*
X112901785Y-59820414D02*
X112854166Y-60010890D01*
X112854166Y-60010890D02*
X112854166Y-60153747D01*
X112854166Y-60153747D02*
X112901785Y-60344223D01*
X112901785Y-60344223D02*
X112949404Y-60439461D01*
X112949404Y-60439461D02*
X113044642Y-60534700D01*
X113044642Y-60534700D02*
X113187499Y-60582319D01*
X113187499Y-60582319D02*
X113425594Y-60582319D01*
X112473213Y-59677557D02*
X112425594Y-59629938D01*
X112425594Y-59629938D02*
X112330356Y-59582319D01*
X112330356Y-59582319D02*
X112092261Y-59582319D01*
X112092261Y-59582319D02*
X111997023Y-59629938D01*
X111997023Y-59629938D02*
X111949404Y-59677557D01*
X111949404Y-59677557D02*
X111901785Y-59772795D01*
X111901785Y-59772795D02*
X111901785Y-59868033D01*
X111901785Y-59868033D02*
X111949404Y-60010890D01*
X111949404Y-60010890D02*
X112520832Y-60582319D01*
X112520832Y-60582319D02*
X111901785Y-60582319D01*
X118129819Y-63935833D02*
X117653628Y-63602500D01*
X118129819Y-63364405D02*
X117129819Y-63364405D01*
X117129819Y-63364405D02*
X117129819Y-63745357D01*
X117129819Y-63745357D02*
X117177438Y-63840595D01*
X117177438Y-63840595D02*
X117225057Y-63888214D01*
X117225057Y-63888214D02*
X117320295Y-63935833D01*
X117320295Y-63935833D02*
X117463152Y-63935833D01*
X117463152Y-63935833D02*
X117558390Y-63888214D01*
X117558390Y-63888214D02*
X117606009Y-63840595D01*
X117606009Y-63840595D02*
X117653628Y-63745357D01*
X117653628Y-63745357D02*
X117653628Y-63364405D01*
X117129819Y-64840595D02*
X117129819Y-64364405D01*
X117129819Y-64364405D02*
X117606009Y-64316786D01*
X117606009Y-64316786D02*
X117558390Y-64364405D01*
X117558390Y-64364405D02*
X117510771Y-64459643D01*
X117510771Y-64459643D02*
X117510771Y-64697738D01*
X117510771Y-64697738D02*
X117558390Y-64792976D01*
X117558390Y-64792976D02*
X117606009Y-64840595D01*
X117606009Y-64840595D02*
X117701247Y-64888214D01*
X117701247Y-64888214D02*
X117939342Y-64888214D01*
X117939342Y-64888214D02*
X118034580Y-64840595D01*
X118034580Y-64840595D02*
X118082200Y-64792976D01*
X118082200Y-64792976D02*
X118129819Y-64697738D01*
X118129819Y-64697738D02*
X118129819Y-64459643D01*
X118129819Y-64459643D02*
X118082200Y-64364405D01*
X118082200Y-64364405D02*
X118034580Y-64316786D01*
D12*
%TO.C,C6*%
X151705000Y-103208748D02*
X151705000Y-103731252D01*
X153175000Y-103208748D02*
X153175000Y-103731252D01*
%TO.C,J1*%
X153530000Y-111280000D02*
X153530000Y-108620000D01*
X156130000Y-108620000D02*
X153530000Y-108620000D01*
X156130000Y-111280000D02*
X153530000Y-111280000D01*
X156130000Y-111280000D02*
X156130000Y-108620000D01*
X157400000Y-111280000D02*
X158730000Y-111280000D01*
X158730000Y-111280000D02*
X158730000Y-109950000D01*
%TO.C,J6*%
X117820000Y-87445000D02*
X123020000Y-87445000D01*
X117820000Y-87505000D02*
X117820000Y-87445000D01*
X117820000Y-87505000D02*
X120420000Y-87505000D01*
X117820000Y-88775000D02*
X117820000Y-90105000D01*
X117820000Y-90105000D02*
X119150000Y-90105000D01*
X120420000Y-87505000D02*
X120420000Y-90105000D01*
X120420000Y-90105000D02*
X123020000Y-90105000D01*
X123020000Y-90105000D02*
X123020000Y-87445000D01*
%TO.C,C2*%
X149461252Y-102025000D02*
X148938748Y-102025000D01*
X149461252Y-103495000D02*
X148938748Y-103495000D01*
%TO.C,R4*%
X116315000Y-63872936D02*
X116315000Y-64327064D01*
X117785000Y-63872936D02*
X117785000Y-64327064D01*
%TO.C,C1*%
X149461252Y-104005000D02*
X148938748Y-104005000D01*
X149461252Y-105475000D02*
X148938748Y-105475000D01*
%TO.C,R1*%
X109515000Y-63875436D02*
X109515000Y-64329564D01*
X110985000Y-63875436D02*
X110985000Y-64329564D01*
%TO.C,C4*%
X153148748Y-89215000D02*
X153671252Y-89215000D01*
X153148748Y-90685000D02*
X153671252Y-90685000D01*
%TO.C,D4*%
X117790000Y-57492500D02*
X120475000Y-57492500D01*
X117790000Y-59412500D02*
X117790000Y-57492500D01*
X120475000Y-59412500D02*
X117790000Y-59412500D01*
%TO.C,R3*%
X114040000Y-63875436D02*
X114040000Y-64329564D01*
X115510000Y-63875436D02*
X115510000Y-64329564D01*
%TO.C,P2*%
X134695000Y-110130000D02*
X134695000Y-108210000D01*
X134695000Y-112140000D02*
X134695000Y-113845000D01*
X134695000Y-113845000D02*
X143855000Y-113845000D01*
X143855000Y-108210000D02*
X143855000Y-110130000D01*
X143855000Y-113845000D02*
X143855000Y-112140000D01*
%TO.C,J5*%
X106370000Y-87445000D02*
X111570000Y-87445000D01*
X106370000Y-87505000D02*
X106370000Y-87445000D01*
X106370000Y-87505000D02*
X108970000Y-87505000D01*
X106370000Y-88775000D02*
X106370000Y-90105000D01*
X106370000Y-90105000D02*
X107700000Y-90105000D01*
X108970000Y-87505000D02*
X108970000Y-90105000D01*
X108970000Y-90105000D02*
X111570000Y-90105000D01*
X111570000Y-90105000D02*
X111570000Y-87445000D01*
%TO.C,R2*%
X111740000Y-63875436D02*
X111740000Y-64329564D01*
X113210000Y-63875436D02*
X113210000Y-64329564D01*
%TO.C,D1*%
X107627500Y-57517500D02*
X110312500Y-57517500D01*
X107627500Y-59437500D02*
X107627500Y-57517500D01*
X110312500Y-59437500D02*
X107627500Y-59437500D01*
%TO.C,D3*%
X114365000Y-57492500D02*
X117050000Y-57492500D01*
X114365000Y-59412500D02*
X114365000Y-57492500D01*
X117050000Y-59412500D02*
X114365000Y-59412500D01*
%TO.C,C3*%
X153138748Y-91175000D02*
X153661252Y-91175000D01*
X153138748Y-92645000D02*
X153661252Y-92645000D01*
%TO.C,U3*%
X149040000Y-95415000D02*
X150300000Y-95415000D01*
X149040000Y-99175000D02*
X149040000Y-95415000D01*
X155860000Y-95415000D02*
X154600000Y-95415000D01*
X155860000Y-99175000D02*
X155860000Y-95415000D01*
X156090000Y-100695000D02*
X155760000Y-100455000D01*
X156090000Y-100215000D01*
X156090000Y-100695000D01*
G36*
X156090000Y-100695000D02*
G01*
X155760000Y-100455000D01*
X156090000Y-100215000D01*
X156090000Y-100695000D01*
G37*
%TO.C,D2*%
X111002500Y-57517500D02*
X113687500Y-57517500D01*
X111002500Y-59437500D02*
X111002500Y-57517500D01*
X113687500Y-59437500D02*
X111002500Y-59437500D01*
%TO.C,R5*%
X118590000Y-63875436D02*
X118590000Y-64329564D01*
X120060000Y-63875436D02*
X120060000Y-64329564D01*
%TD*%
M02*
