%TF.GenerationSoftware,KiCad,Pcbnew,9.0.0*%
%TF.CreationDate,2025-04-24T22:15:06+07:00*%
%TF.ProjectId,Controll_,436f6e74-726f-46c6-9cbb-2e6b69636164,rev?*%
%TF.SameCoordinates,Original*%
%TF.FileFunction,Legend,Top*%
%TF.FilePolarity,Positive*%
%FSLAX46Y46*%
G04 Gerber Fmt 4.6, Leading zero omitted, Abs format (unit mm)*
G04 Created by KiCad (PCBNEW 9.0.0) date 2025-04-24 22:15:06*
%MOMM*%
%LPD*%
G01*
G04 APERTURE LIST*
%ADD10C,0.100000*%
%ADD11C,0.250000*%
%ADD12C,0.150000*%
%ADD13C,0.300000*%
%ADD14C,0.120000*%
%ADD15C,0.127000*%
%ADD16C,0.200000*%
%ADD17C,0.000000*%
G04 APERTURE END LIST*
D10*
X162685000Y-106195000D02*
X167665000Y-106195000D01*
X167665000Y-107555000D01*
X162685000Y-107555000D01*
X162685000Y-106195000D01*
X132600000Y-97800000D02*
X143725000Y-97800000D01*
X143725000Y-103200000D01*
X132600000Y-103200000D01*
X132600000Y-97800000D01*
X148150312Y-111727180D02*
X148102693Y-111774800D01*
X148102693Y-111774800D02*
X147959836Y-111822419D01*
X147959836Y-111822419D02*
X147864598Y-111822419D01*
X147864598Y-111822419D02*
X147721741Y-111774800D01*
X147721741Y-111774800D02*
X147626503Y-111679561D01*
X147626503Y-111679561D02*
X147578884Y-111584323D01*
X147578884Y-111584323D02*
X147531265Y-111393847D01*
X147531265Y-111393847D02*
X147531265Y-111250990D01*
X147531265Y-111250990D02*
X147578884Y-111060514D01*
X147578884Y-111060514D02*
X147626503Y-110965276D01*
X147626503Y-110965276D02*
X147721741Y-110870038D01*
X147721741Y-110870038D02*
X147864598Y-110822419D01*
X147864598Y-110822419D02*
X147959836Y-110822419D01*
X147959836Y-110822419D02*
X148102693Y-110870038D01*
X148102693Y-110870038D02*
X148150312Y-110917657D01*
X148721741Y-111822419D02*
X148626503Y-111774800D01*
X148626503Y-111774800D02*
X148578884Y-111727180D01*
X148578884Y-111727180D02*
X148531265Y-111631942D01*
X148531265Y-111631942D02*
X148531265Y-111346228D01*
X148531265Y-111346228D02*
X148578884Y-111250990D01*
X148578884Y-111250990D02*
X148626503Y-111203371D01*
X148626503Y-111203371D02*
X148721741Y-111155752D01*
X148721741Y-111155752D02*
X148864598Y-111155752D01*
X148864598Y-111155752D02*
X148959836Y-111203371D01*
X148959836Y-111203371D02*
X149007455Y-111250990D01*
X149007455Y-111250990D02*
X149055074Y-111346228D01*
X149055074Y-111346228D02*
X149055074Y-111631942D01*
X149055074Y-111631942D02*
X149007455Y-111727180D01*
X149007455Y-111727180D02*
X148959836Y-111774800D01*
X148959836Y-111774800D02*
X148864598Y-111822419D01*
X148864598Y-111822419D02*
X148721741Y-111822419D01*
X149912217Y-111822419D02*
X149912217Y-110822419D01*
X149912217Y-111774800D02*
X149816979Y-111822419D01*
X149816979Y-111822419D02*
X149626503Y-111822419D01*
X149626503Y-111822419D02*
X149531265Y-111774800D01*
X149531265Y-111774800D02*
X149483646Y-111727180D01*
X149483646Y-111727180D02*
X149436027Y-111631942D01*
X149436027Y-111631942D02*
X149436027Y-111346228D01*
X149436027Y-111346228D02*
X149483646Y-111250990D01*
X149483646Y-111250990D02*
X149531265Y-111203371D01*
X149531265Y-111203371D02*
X149626503Y-111155752D01*
X149626503Y-111155752D02*
X149816979Y-111155752D01*
X149816979Y-111155752D02*
X149912217Y-111203371D01*
X150769360Y-111774800D02*
X150674122Y-111822419D01*
X150674122Y-111822419D02*
X150483646Y-111822419D01*
X150483646Y-111822419D02*
X150388408Y-111774800D01*
X150388408Y-111774800D02*
X150340789Y-111679561D01*
X150340789Y-111679561D02*
X150340789Y-111298609D01*
X150340789Y-111298609D02*
X150388408Y-111203371D01*
X150388408Y-111203371D02*
X150483646Y-111155752D01*
X150483646Y-111155752D02*
X150674122Y-111155752D01*
X150674122Y-111155752D02*
X150769360Y-111203371D01*
X150769360Y-111203371D02*
X150816979Y-111298609D01*
X150816979Y-111298609D02*
X150816979Y-111393847D01*
X150816979Y-111393847D02*
X150340789Y-111489085D01*
D11*
X133990663Y-100242238D02*
X133990663Y-98242238D01*
X133990663Y-98242238D02*
X134466853Y-98242238D01*
X134466853Y-98242238D02*
X134752568Y-98337476D01*
X134752568Y-98337476D02*
X134943044Y-98527952D01*
X134943044Y-98527952D02*
X135038282Y-98718428D01*
X135038282Y-98718428D02*
X135133520Y-99099380D01*
X135133520Y-99099380D02*
X135133520Y-99385095D01*
X135133520Y-99385095D02*
X135038282Y-99766047D01*
X135038282Y-99766047D02*
X134943044Y-99956523D01*
X134943044Y-99956523D02*
X134752568Y-100147000D01*
X134752568Y-100147000D02*
X134466853Y-100242238D01*
X134466853Y-100242238D02*
X133990663Y-100242238D01*
X135895425Y-99670809D02*
X136847806Y-99670809D01*
X135704949Y-100242238D02*
X136371615Y-98242238D01*
X136371615Y-98242238D02*
X137038282Y-100242238D01*
X137704949Y-100242238D02*
X137704949Y-98242238D01*
X137704949Y-98242238D02*
X138847806Y-100242238D01*
X138847806Y-100242238D02*
X138847806Y-98242238D01*
X140847806Y-98337476D02*
X140657330Y-98242238D01*
X140657330Y-98242238D02*
X140371616Y-98242238D01*
X140371616Y-98242238D02*
X140085901Y-98337476D01*
X140085901Y-98337476D02*
X139895425Y-98527952D01*
X139895425Y-98527952D02*
X139800187Y-98718428D01*
X139800187Y-98718428D02*
X139704949Y-99099380D01*
X139704949Y-99099380D02*
X139704949Y-99385095D01*
X139704949Y-99385095D02*
X139800187Y-99766047D01*
X139800187Y-99766047D02*
X139895425Y-99956523D01*
X139895425Y-99956523D02*
X140085901Y-100147000D01*
X140085901Y-100147000D02*
X140371616Y-100242238D01*
X140371616Y-100242238D02*
X140562092Y-100242238D01*
X140562092Y-100242238D02*
X140847806Y-100147000D01*
X140847806Y-100147000D02*
X140943044Y-100051761D01*
X140943044Y-100051761D02*
X140943044Y-99385095D01*
X140943044Y-99385095D02*
X140562092Y-99385095D01*
X142181139Y-99289857D02*
X142181139Y-100242238D01*
X141514473Y-98242238D02*
X142181139Y-99289857D01*
X142181139Y-99289857D02*
X142847806Y-98242238D01*
G36*
X135592810Y-101065208D02*
G01*
X135744459Y-101216858D01*
X135827568Y-101549293D01*
X135827568Y-102185182D01*
X135744459Y-102517616D01*
X135592808Y-102669268D01*
X135446870Y-102742238D01*
X135124933Y-102742238D01*
X134978993Y-102669268D01*
X134827343Y-102517617D01*
X134744235Y-102185182D01*
X134744235Y-101549293D01*
X134827343Y-101216857D01*
X134978994Y-101065207D01*
X135124933Y-100992238D01*
X135446870Y-100992238D01*
X135592810Y-101065208D01*
G37*
G36*
X142932665Y-101071729D02*
G01*
X143087932Y-101226997D01*
X143167961Y-101387055D01*
X143256140Y-101739769D01*
X143256140Y-101994706D01*
X143167961Y-102347420D01*
X143087932Y-102507477D01*
X142932663Y-102662747D01*
X142694190Y-102742238D01*
X142363283Y-102742238D01*
X142363283Y-100992238D01*
X142694190Y-100992238D01*
X142932665Y-101071729D01*
G37*
G36*
X141207712Y-102170809D02*
G01*
X140602187Y-102170809D01*
X140904949Y-101262521D01*
X141207712Y-102170809D01*
G37*
G36*
X139402334Y-101065208D02*
G01*
X139468884Y-101131758D01*
X139541854Y-101277698D01*
X139541854Y-101504396D01*
X139468884Y-101650334D01*
X139402332Y-101716887D01*
X139256394Y-101789857D01*
X138648997Y-101789857D01*
X138648997Y-100992238D01*
X139256394Y-100992238D01*
X139402334Y-101065208D01*
G37*
G36*
X143728362Y-103214460D02*
G01*
X132655367Y-103214460D01*
X132655367Y-102842852D01*
X132877589Y-102842852D01*
X132877589Y-102891624D01*
X132896253Y-102936684D01*
X132930741Y-102971172D01*
X132975801Y-102989836D01*
X133000187Y-102992238D01*
X133190663Y-102992238D01*
X133203006Y-102991022D01*
X133206297Y-102991256D01*
X133210626Y-102990271D01*
X133215049Y-102989836D01*
X133218100Y-102988572D01*
X133230191Y-102985823D01*
X133515905Y-102890585D01*
X133538280Y-102880595D01*
X133541672Y-102877652D01*
X133545824Y-102875933D01*
X133564766Y-102860388D01*
X133755241Y-102669911D01*
X133770786Y-102650969D01*
X133772504Y-102646821D01*
X133775448Y-102643427D01*
X133785438Y-102621052D01*
X133880677Y-102335338D01*
X133883426Y-102323244D01*
X133884690Y-102320195D01*
X133885125Y-102315773D01*
X133886110Y-102311444D01*
X133885876Y-102308152D01*
X133887092Y-102295809D01*
X133887092Y-101533904D01*
X134494235Y-101533904D01*
X134494235Y-102200571D01*
X134494654Y-102204825D01*
X134494383Y-102206647D01*
X134495732Y-102215775D01*
X134496637Y-102224957D01*
X134497341Y-102226658D01*
X134497967Y-102230888D01*
X134593205Y-102611840D01*
X134601450Y-102634915D01*
X134606982Y-102642381D01*
X134610539Y-102650969D01*
X134626084Y-102669911D01*
X134816560Y-102860388D01*
X134826148Y-102868257D01*
X134828310Y-102870749D01*
X134832067Y-102873114D01*
X134835502Y-102875933D01*
X134838552Y-102877196D01*
X134849047Y-102883803D01*
X135039524Y-102979042D01*
X135062409Y-102987799D01*
X135066890Y-102988117D01*
X135071039Y-102989836D01*
X135095425Y-102992238D01*
X135476378Y-102992238D01*
X135500764Y-102989836D01*
X135504912Y-102988117D01*
X135509394Y-102987799D01*
X135532280Y-102979041D01*
X135722756Y-102883803D01*
X135733250Y-102877196D01*
X135736301Y-102875933D01*
X135739735Y-102873114D01*
X135743493Y-102870749D01*
X135745654Y-102868257D01*
X135755243Y-102860388D01*
X135945718Y-102669911D01*
X135961263Y-102650969D01*
X135964819Y-102642383D01*
X135970353Y-102634915D01*
X135978598Y-102611840D01*
X136073836Y-102230888D01*
X136074461Y-102226658D01*
X136075166Y-102224957D01*
X136076070Y-102215777D01*
X136077420Y-102206648D01*
X136077148Y-102204825D01*
X136077568Y-102200571D01*
X136077568Y-101533904D01*
X136077148Y-101529649D01*
X136077420Y-101527827D01*
X136076070Y-101518697D01*
X136075166Y-101509518D01*
X136074461Y-101507816D01*
X136073836Y-101503587D01*
X135978598Y-101122635D01*
X135970353Y-101099560D01*
X135964821Y-101092093D01*
X135961264Y-101083506D01*
X135945719Y-101064564D01*
X135755242Y-100874088D01*
X135745656Y-100866221D01*
X135744119Y-100864449D01*
X136399028Y-100864449D01*
X136407474Y-100912484D01*
X136418539Y-100934347D01*
X137065663Y-101951257D01*
X137065663Y-102867238D01*
X137068065Y-102891624D01*
X137086729Y-102936684D01*
X137121217Y-102971172D01*
X137166277Y-102989836D01*
X137215049Y-102989836D01*
X137260109Y-102971172D01*
X137294597Y-102936684D01*
X137313261Y-102891624D01*
X137315663Y-102867238D01*
X137315663Y-101951257D01*
X137962788Y-100934347D01*
X137973853Y-100912484D01*
X137981809Y-100867238D01*
X138398997Y-100867238D01*
X138398997Y-102867238D01*
X138401399Y-102891624D01*
X138420063Y-102936684D01*
X138454551Y-102971172D01*
X138499611Y-102989836D01*
X138548383Y-102989836D01*
X138593443Y-102971172D01*
X138627931Y-102936684D01*
X138646595Y-102891624D01*
X138648997Y-102867238D01*
X138648997Y-102851604D01*
X140114265Y-102851604D01*
X140117722Y-102900253D01*
X140139534Y-102943878D01*
X140176380Y-102975833D01*
X140222649Y-102991256D01*
X140271298Y-102987799D01*
X140314923Y-102965987D01*
X140346878Y-102929141D01*
X140356868Y-102906766D01*
X140518854Y-102420809D01*
X141291045Y-102420809D01*
X141453031Y-102906766D01*
X141463021Y-102929141D01*
X141494976Y-102965987D01*
X141538601Y-102987799D01*
X141587250Y-102991256D01*
X141633519Y-102975833D01*
X141670365Y-102943877D01*
X141692177Y-102900253D01*
X141695634Y-102851603D01*
X141690201Y-102827709D01*
X141036710Y-100867238D01*
X142113283Y-100867238D01*
X142113283Y-102867238D01*
X142115685Y-102891624D01*
X142134349Y-102936684D01*
X142168837Y-102971172D01*
X142213897Y-102989836D01*
X142238283Y-102992238D01*
X142714473Y-102992238D01*
X142726816Y-102991022D01*
X142730107Y-102991256D01*
X142734436Y-102990271D01*
X142738859Y-102989836D01*
X142741910Y-102988572D01*
X142754001Y-102985823D01*
X143039716Y-102890585D01*
X143062091Y-102880595D01*
X143065483Y-102877652D01*
X143069635Y-102875933D01*
X143088577Y-102860388D01*
X143279052Y-102669911D01*
X143286918Y-102660325D01*
X143289413Y-102658162D01*
X143291780Y-102654400D01*
X143294597Y-102650969D01*
X143295859Y-102647921D01*
X143302467Y-102637425D01*
X143397706Y-102446948D01*
X143398389Y-102445161D01*
X143398925Y-102444439D01*
X143402576Y-102434220D01*
X143406463Y-102424063D01*
X143406526Y-102423163D01*
X143407170Y-102421364D01*
X143502408Y-102040412D01*
X143503033Y-102036182D01*
X143503738Y-102034481D01*
X143504642Y-102025301D01*
X143505992Y-102016172D01*
X143505720Y-102014349D01*
X143506140Y-102010095D01*
X143506140Y-101724380D01*
X143505720Y-101720125D01*
X143505992Y-101718303D01*
X143504642Y-101709173D01*
X143503738Y-101699994D01*
X143503033Y-101698292D01*
X143502408Y-101694063D01*
X143407170Y-101313111D01*
X143406526Y-101311311D01*
X143406463Y-101310412D01*
X143402576Y-101300254D01*
X143398925Y-101290036D01*
X143398389Y-101289313D01*
X143397706Y-101287527D01*
X143302467Y-101097050D01*
X143295862Y-101086557D01*
X143294598Y-101083506D01*
X143291777Y-101080069D01*
X143289413Y-101076313D01*
X143286921Y-101074152D01*
X143279053Y-101064564D01*
X143088576Y-100874088D01*
X143069634Y-100858543D01*
X143065484Y-100856824D01*
X143062091Y-100853881D01*
X143039716Y-100843891D01*
X142754001Y-100748653D01*
X142741910Y-100745903D01*
X142738859Y-100744640D01*
X142734436Y-100744204D01*
X142730107Y-100743220D01*
X142726816Y-100743453D01*
X142714473Y-100742238D01*
X142238283Y-100742238D01*
X142213897Y-100744640D01*
X142168837Y-100763304D01*
X142134349Y-100797792D01*
X142115685Y-100842852D01*
X142113283Y-100867238D01*
X141036710Y-100867238D01*
X141023534Y-100827710D01*
X141013544Y-100805335D01*
X141007693Y-100798589D01*
X141003698Y-100790598D01*
X140991857Y-100780329D01*
X140981589Y-100768489D01*
X140973598Y-100764493D01*
X140966852Y-100758643D01*
X140951984Y-100753687D01*
X140937964Y-100746677D01*
X140929054Y-100746043D01*
X140920583Y-100743220D01*
X140904949Y-100744330D01*
X140889315Y-100743220D01*
X140880843Y-100746043D01*
X140871934Y-100746677D01*
X140857913Y-100753687D01*
X140843046Y-100758643D01*
X140836299Y-100764493D01*
X140828309Y-100768489D01*
X140818039Y-100780330D01*
X140806200Y-100790598D01*
X140802205Y-100798586D01*
X140796354Y-100805334D01*
X140786364Y-100827709D01*
X140119698Y-102827710D01*
X140114265Y-102851604D01*
X138648997Y-102851604D01*
X138648997Y-102039857D01*
X139285902Y-102039857D01*
X139310288Y-102037455D01*
X139314436Y-102035736D01*
X139318918Y-102035418D01*
X139341804Y-102026660D01*
X139532280Y-101931422D01*
X139542774Y-101924815D01*
X139545825Y-101923552D01*
X139549259Y-101920733D01*
X139553017Y-101918368D01*
X139555178Y-101915876D01*
X139564767Y-101908007D01*
X139660005Y-101812768D01*
X139667873Y-101803179D01*
X139670365Y-101801019D01*
X139672729Y-101797262D01*
X139675550Y-101793826D01*
X139676814Y-101790774D01*
X139683419Y-101780282D01*
X139778658Y-101589805D01*
X139787415Y-101566920D01*
X139787733Y-101562438D01*
X139789452Y-101558290D01*
X139791854Y-101533904D01*
X139791854Y-101248190D01*
X139789452Y-101223804D01*
X139787733Y-101219655D01*
X139787415Y-101215174D01*
X139778658Y-101192289D01*
X139683419Y-101001812D01*
X139676811Y-100991315D01*
X139675549Y-100988268D01*
X139672732Y-100984836D01*
X139670365Y-100981075D01*
X139667870Y-100978911D01*
X139660004Y-100969326D01*
X139564766Y-100874088D01*
X139555180Y-100866221D01*
X139553017Y-100863727D01*
X139549255Y-100861359D01*
X139545824Y-100858543D01*
X139542776Y-100857280D01*
X139532280Y-100850673D01*
X139341804Y-100755435D01*
X139318918Y-100746677D01*
X139314436Y-100746358D01*
X139310288Y-100744640D01*
X139285902Y-100742238D01*
X138523997Y-100742238D01*
X138499611Y-100744640D01*
X138454551Y-100763304D01*
X138420063Y-100797792D01*
X138401399Y-100842852D01*
X138398997Y-100867238D01*
X137981809Y-100867238D01*
X137982299Y-100864449D01*
X137971719Y-100816837D01*
X137943723Y-100776899D01*
X137902576Y-100750715D01*
X137854541Y-100742269D01*
X137806929Y-100752849D01*
X137766991Y-100780845D01*
X137751872Y-100800129D01*
X137190662Y-101682028D01*
X136629455Y-100800129D01*
X136614336Y-100780845D01*
X136574398Y-100752849D01*
X136526786Y-100742269D01*
X136478751Y-100750715D01*
X136437604Y-100776899D01*
X136409608Y-100816837D01*
X136399028Y-100864449D01*
X135744119Y-100864449D01*
X135743493Y-100863727D01*
X135739731Y-100861359D01*
X135736300Y-100858543D01*
X135733252Y-100857280D01*
X135722756Y-100850673D01*
X135532280Y-100755435D01*
X135509394Y-100746677D01*
X135504912Y-100746358D01*
X135500764Y-100744640D01*
X135476378Y-100742238D01*
X135095425Y-100742238D01*
X135071039Y-100744640D01*
X135066890Y-100746358D01*
X135062409Y-100746677D01*
X135039524Y-100755434D01*
X134849047Y-100850673D01*
X134838554Y-100857277D01*
X134835503Y-100858542D01*
X134832066Y-100861362D01*
X134828310Y-100863727D01*
X134826149Y-100866218D01*
X134816561Y-100874087D01*
X134626085Y-101064564D01*
X134610540Y-101083506D01*
X134606983Y-101092091D01*
X134601450Y-101099560D01*
X134593205Y-101122635D01*
X134497967Y-101503587D01*
X134497341Y-101507816D01*
X134496637Y-101509518D01*
X134495732Y-101518699D01*
X134494383Y-101527828D01*
X134494654Y-101529649D01*
X134494235Y-101533904D01*
X133887092Y-101533904D01*
X133887092Y-100867238D01*
X133884690Y-100842852D01*
X133866026Y-100797792D01*
X133831538Y-100763304D01*
X133786478Y-100744640D01*
X133737706Y-100744640D01*
X133692646Y-100763304D01*
X133658158Y-100797792D01*
X133639494Y-100842852D01*
X133637092Y-100867238D01*
X133637092Y-102275524D01*
X133557599Y-102513999D01*
X133408852Y-102662747D01*
X133170380Y-102742238D01*
X133000187Y-102742238D01*
X132975801Y-102744640D01*
X132930741Y-102763304D01*
X132896253Y-102797792D01*
X132877589Y-102842852D01*
X132655367Y-102842852D01*
X132655367Y-100520016D01*
X143728362Y-100520016D01*
X143728362Y-103214460D01*
G37*
D10*
G36*
X121653065Y-61814929D02*
G01*
X121686600Y-61848465D01*
X121725312Y-61925888D01*
X121725312Y-62045138D01*
X121686600Y-62122561D01*
X121650454Y-62158708D01*
X121573033Y-62197419D01*
X121253884Y-62197419D01*
X121253884Y-61773609D01*
X121529104Y-61773609D01*
X121653065Y-61814929D01*
G37*
G36*
X121602837Y-61336130D02*
G01*
X121638981Y-61372275D01*
X121677693Y-61449698D01*
X121677693Y-61521329D01*
X121638981Y-61598752D01*
X121602837Y-61634897D01*
X121525414Y-61673609D01*
X121253884Y-61673609D01*
X121253884Y-61297419D01*
X121525414Y-61297419D01*
X121602837Y-61336130D01*
G37*
G36*
X122582455Y-62168898D02*
G01*
X122525414Y-62197419D01*
X122310926Y-62197419D01*
X122241151Y-62162532D01*
X122206265Y-62092759D01*
X122206265Y-62021126D01*
X122241151Y-61951352D01*
X122310926Y-61916466D01*
X122537217Y-61916466D01*
X122539673Y-61915977D01*
X122540762Y-61916340D01*
X122548489Y-61914223D01*
X122556351Y-61912660D01*
X122557162Y-61911848D01*
X122559578Y-61911187D01*
X122582455Y-61899748D01*
X122582455Y-62168898D01*
G37*
G36*
X124595188Y-61665638D02*
G01*
X124630075Y-61735412D01*
X124630075Y-61777856D01*
X124253885Y-61853094D01*
X124253885Y-61735412D01*
X124288771Y-61665638D01*
X124358546Y-61630752D01*
X124525415Y-61630752D01*
X124595188Y-61665638D01*
G37*
G36*
X126269696Y-62741737D02*
G01*
X121042773Y-62741737D01*
X121042773Y-61247419D01*
X121153884Y-61247419D01*
X121153884Y-62247419D01*
X121157690Y-62266553D01*
X121184750Y-62293613D01*
X121203884Y-62297419D01*
X121584836Y-62297419D01*
X121587292Y-62296930D01*
X121588381Y-62297293D01*
X121596108Y-62295176D01*
X121603970Y-62293613D01*
X121604781Y-62292801D01*
X121607197Y-62292140D01*
X121702434Y-62244522D01*
X121708761Y-62239611D01*
X121715430Y-62235155D01*
X121763049Y-62187535D01*
X121767502Y-62180869D01*
X121772414Y-62174541D01*
X121820033Y-62079303D01*
X121820694Y-62076887D01*
X121821506Y-62076076D01*
X121823069Y-62068214D01*
X121825186Y-62060487D01*
X121824823Y-62059398D01*
X121825312Y-62056942D01*
X121825312Y-62009323D01*
X122106265Y-62009323D01*
X122106265Y-62104561D01*
X122106753Y-62107017D01*
X122106391Y-62108105D01*
X122108506Y-62115829D01*
X122110071Y-62123695D01*
X122110882Y-62124506D01*
X122111544Y-62126921D01*
X122159162Y-62222160D01*
X122165265Y-62230024D01*
X122166111Y-62232560D01*
X122168934Y-62234751D01*
X122171124Y-62237572D01*
X122173657Y-62238416D01*
X122181523Y-62244521D01*
X122276761Y-62292140D01*
X122279176Y-62292801D01*
X122279988Y-62293613D01*
X122287849Y-62295176D01*
X122295577Y-62297293D01*
X122296665Y-62296930D01*
X122299122Y-62297419D01*
X122537217Y-62297419D01*
X122539673Y-62296930D01*
X122540762Y-62297293D01*
X122548489Y-62295176D01*
X122556351Y-62293613D01*
X122557162Y-62292801D01*
X122559578Y-62292140D01*
X122594424Y-62274716D01*
X122613321Y-62293613D01*
X122651589Y-62293613D01*
X122678649Y-62266553D01*
X122682455Y-62247419D01*
X122682455Y-61723609D01*
X122681966Y-61721152D01*
X122682329Y-61720064D01*
X122680212Y-61712336D01*
X122678649Y-61704475D01*
X122677837Y-61703663D01*
X122677176Y-61701248D01*
X122629557Y-61606010D01*
X122623452Y-61598144D01*
X122622608Y-61595611D01*
X122619787Y-61593421D01*
X122617596Y-61590598D01*
X122615060Y-61589752D01*
X122607196Y-61583649D01*
X122563134Y-61561618D01*
X122919595Y-61561618D01*
X122919595Y-61599886D01*
X122946655Y-61626946D01*
X122965789Y-61630752D01*
X123058646Y-61630752D01*
X123058646Y-62104561D01*
X123059134Y-62107017D01*
X123058772Y-62108105D01*
X123060887Y-62115829D01*
X123062452Y-62123695D01*
X123063263Y-62124506D01*
X123063925Y-62126921D01*
X123111543Y-62222160D01*
X123117646Y-62230024D01*
X123118492Y-62232560D01*
X123121315Y-62234751D01*
X123123505Y-62237572D01*
X123126038Y-62238416D01*
X123133904Y-62244521D01*
X123229142Y-62292140D01*
X123231557Y-62292801D01*
X123232369Y-62293613D01*
X123240230Y-62295176D01*
X123247958Y-62297293D01*
X123249046Y-62296930D01*
X123251503Y-62297419D01*
X123346741Y-62297419D01*
X123365875Y-62293613D01*
X123392935Y-62266553D01*
X123392935Y-62228285D01*
X123365875Y-62201225D01*
X123346741Y-62197419D01*
X123263307Y-62197419D01*
X123193532Y-62162532D01*
X123158646Y-62092759D01*
X123158646Y-61630752D01*
X123346741Y-61630752D01*
X123365875Y-61626946D01*
X123392935Y-61599886D01*
X123392935Y-61561618D01*
X123491024Y-61561618D01*
X123491024Y-61599886D01*
X123518084Y-61626946D01*
X123537218Y-61630752D01*
X123630075Y-61630752D01*
X123630075Y-62104561D01*
X123630563Y-62107017D01*
X123630201Y-62108105D01*
X123632316Y-62115829D01*
X123633881Y-62123695D01*
X123634692Y-62124506D01*
X123635354Y-62126921D01*
X123682972Y-62222160D01*
X123689075Y-62230024D01*
X123689921Y-62232560D01*
X123692744Y-62234751D01*
X123694934Y-62237572D01*
X123697467Y-62238416D01*
X123705333Y-62244521D01*
X123800571Y-62292140D01*
X123802986Y-62292801D01*
X123803798Y-62293613D01*
X123811659Y-62295176D01*
X123819387Y-62297293D01*
X123820475Y-62296930D01*
X123822932Y-62297419D01*
X123918170Y-62297419D01*
X123937304Y-62293613D01*
X123964364Y-62266553D01*
X123964364Y-62228285D01*
X123937304Y-62201225D01*
X123918170Y-62197419D01*
X123834736Y-62197419D01*
X123764961Y-62162532D01*
X123730075Y-62092759D01*
X123730075Y-61723609D01*
X124153885Y-61723609D01*
X124153885Y-62104561D01*
X124154373Y-62107017D01*
X124154011Y-62108105D01*
X124156126Y-62115829D01*
X124157691Y-62123695D01*
X124158502Y-62124506D01*
X124159164Y-62126921D01*
X124206782Y-62222160D01*
X124212885Y-62230024D01*
X124213731Y-62232560D01*
X124216554Y-62234751D01*
X124218744Y-62237572D01*
X124221277Y-62238416D01*
X124229143Y-62244521D01*
X124324381Y-62292140D01*
X124326796Y-62292801D01*
X124327608Y-62293613D01*
X124335469Y-62295176D01*
X124343197Y-62297293D01*
X124344285Y-62296930D01*
X124346742Y-62297419D01*
X124537218Y-62297419D01*
X124539674Y-62296930D01*
X124540763Y-62297293D01*
X124548490Y-62295176D01*
X124556352Y-62293613D01*
X124557163Y-62292801D01*
X124559579Y-62292140D01*
X124654816Y-62244522D01*
X124670228Y-62232560D01*
X124682330Y-62196256D01*
X124665216Y-62162028D01*
X124628911Y-62149926D01*
X124610095Y-62155079D01*
X124525415Y-62197419D01*
X124358546Y-62197419D01*
X124288771Y-62162532D01*
X124253885Y-62092759D01*
X124253885Y-61955075D01*
X124689880Y-61867876D01*
X124696705Y-61865041D01*
X124699209Y-61865041D01*
X124700988Y-61863261D01*
X124707896Y-61860392D01*
X124715972Y-61848278D01*
X124726269Y-61837981D01*
X124727728Y-61830643D01*
X124729124Y-61828550D01*
X124728633Y-61826095D01*
X124730075Y-61818847D01*
X124730075Y-61723609D01*
X124729586Y-61721152D01*
X124729949Y-61720064D01*
X124727832Y-61712336D01*
X124726269Y-61704475D01*
X124725457Y-61703663D01*
X124724796Y-61701248D01*
X124677177Y-61606010D01*
X124671072Y-61598144D01*
X124670228Y-61595611D01*
X124667407Y-61593421D01*
X124665216Y-61590598D01*
X124662680Y-61589752D01*
X124654816Y-61583649D01*
X124649022Y-61580752D01*
X125058647Y-61580752D01*
X125058647Y-62247419D01*
X125062453Y-62266553D01*
X125089513Y-62293613D01*
X125127781Y-62293613D01*
X125154841Y-62266553D01*
X125158647Y-62247419D01*
X125158647Y-61783031D01*
X125197358Y-61705607D01*
X125233503Y-61669463D01*
X125310927Y-61630752D01*
X125394361Y-61630752D01*
X125413495Y-61626946D01*
X125440555Y-61599886D01*
X125440555Y-61578269D01*
X125582519Y-61578269D01*
X125585370Y-61597569D01*
X125817101Y-62246417D01*
X125732701Y-62457415D01*
X125698077Y-62492040D01*
X125610096Y-62536031D01*
X125594684Y-62547992D01*
X125582583Y-62584297D01*
X125599697Y-62618525D01*
X125636002Y-62630626D01*
X125654818Y-62625473D01*
X125750055Y-62577855D01*
X125756388Y-62572939D01*
X125763050Y-62568488D01*
X125810669Y-62520870D01*
X125810904Y-62520518D01*
X125811098Y-62520435D01*
X125816246Y-62512522D01*
X125821508Y-62504649D01*
X125821508Y-62504437D01*
X125821738Y-62504084D01*
X125916976Y-62265989D01*
X125917150Y-62265052D01*
X125917639Y-62264236D01*
X126155734Y-61597569D01*
X126158585Y-61578270D01*
X126142203Y-61543685D01*
X126106164Y-61530814D01*
X126071580Y-61547196D01*
X126061560Y-61563935D01*
X125870552Y-62098758D01*
X125679544Y-61563935D01*
X125669524Y-61547196D01*
X125634940Y-61530814D01*
X125598901Y-61543685D01*
X125582519Y-61578269D01*
X125440555Y-61578269D01*
X125440555Y-61561618D01*
X125413495Y-61534558D01*
X125394361Y-61530752D01*
X125299123Y-61530752D01*
X125296666Y-61531240D01*
X125295578Y-61530878D01*
X125287850Y-61532994D01*
X125279989Y-61534558D01*
X125279177Y-61535369D01*
X125276762Y-61536031D01*
X125181524Y-61583650D01*
X125175195Y-61588561D01*
X125168529Y-61593016D01*
X125158647Y-61602898D01*
X125158647Y-61580752D01*
X125154841Y-61561618D01*
X125127781Y-61534558D01*
X125089513Y-61534558D01*
X125062453Y-61561618D01*
X125058647Y-61580752D01*
X124649022Y-61580752D01*
X124559579Y-61536031D01*
X124557163Y-61535369D01*
X124556352Y-61534558D01*
X124548490Y-61532994D01*
X124540763Y-61530878D01*
X124539674Y-61531240D01*
X124537218Y-61530752D01*
X124346742Y-61530752D01*
X124344285Y-61531240D01*
X124343197Y-61530878D01*
X124335469Y-61532994D01*
X124327608Y-61534558D01*
X124326796Y-61535369D01*
X124324381Y-61536031D01*
X124229143Y-61583650D01*
X124221277Y-61589754D01*
X124218744Y-61590599D01*
X124216554Y-61593419D01*
X124213731Y-61595611D01*
X124212885Y-61598146D01*
X124206782Y-61606011D01*
X124159164Y-61701248D01*
X124158502Y-61703663D01*
X124157691Y-61704475D01*
X124156127Y-61712336D01*
X124154011Y-61720064D01*
X124154373Y-61721152D01*
X124153885Y-61723609D01*
X123730075Y-61723609D01*
X123730075Y-61630752D01*
X123918170Y-61630752D01*
X123937304Y-61626946D01*
X123964364Y-61599886D01*
X123964364Y-61561618D01*
X123937304Y-61534558D01*
X123918170Y-61530752D01*
X123730075Y-61530752D01*
X123730075Y-61247419D01*
X123726269Y-61228285D01*
X123699209Y-61201225D01*
X123660941Y-61201225D01*
X123633881Y-61228285D01*
X123630075Y-61247419D01*
X123630075Y-61530752D01*
X123537218Y-61530752D01*
X123518084Y-61534558D01*
X123491024Y-61561618D01*
X123392935Y-61561618D01*
X123365875Y-61534558D01*
X123346741Y-61530752D01*
X123158646Y-61530752D01*
X123158646Y-61247419D01*
X123154840Y-61228285D01*
X123127780Y-61201225D01*
X123089512Y-61201225D01*
X123062452Y-61228285D01*
X123058646Y-61247419D01*
X123058646Y-61530752D01*
X122965789Y-61530752D01*
X122946655Y-61534558D01*
X122919595Y-61561618D01*
X122563134Y-61561618D01*
X122511959Y-61536031D01*
X122509543Y-61535369D01*
X122508732Y-61534558D01*
X122500870Y-61532994D01*
X122493143Y-61530878D01*
X122492054Y-61531240D01*
X122489598Y-61530752D01*
X122299122Y-61530752D01*
X122296665Y-61531240D01*
X122295577Y-61530878D01*
X122287849Y-61532994D01*
X122279988Y-61534558D01*
X122279176Y-61535369D01*
X122276761Y-61536031D01*
X122181523Y-61583650D01*
X122166111Y-61595611D01*
X122154010Y-61631916D01*
X122171124Y-61666144D01*
X122207429Y-61678245D01*
X122226245Y-61673092D01*
X122310926Y-61630752D01*
X122477795Y-61630752D01*
X122547568Y-61665638D01*
X122582455Y-61735412D01*
X122582455Y-61787945D01*
X122525414Y-61816466D01*
X122299122Y-61816466D01*
X122296665Y-61816954D01*
X122295577Y-61816592D01*
X122287849Y-61818708D01*
X122279988Y-61820272D01*
X122279176Y-61821083D01*
X122276761Y-61821745D01*
X122181523Y-61869364D01*
X122173657Y-61875468D01*
X122171124Y-61876313D01*
X122168934Y-61879133D01*
X122166111Y-61881325D01*
X122165265Y-61883860D01*
X122159162Y-61891725D01*
X122111544Y-61986962D01*
X122110882Y-61989377D01*
X122110071Y-61990189D01*
X122108507Y-61998050D01*
X122106391Y-62005778D01*
X122106753Y-62006866D01*
X122106265Y-62009323D01*
X121825312Y-62009323D01*
X121825312Y-61914085D01*
X121824823Y-61911628D01*
X121825186Y-61910540D01*
X121823069Y-61902812D01*
X121821506Y-61894951D01*
X121820694Y-61894139D01*
X121820033Y-61891724D01*
X121772414Y-61796486D01*
X121767502Y-61790157D01*
X121763048Y-61783491D01*
X121715429Y-61735873D01*
X121713346Y-61734481D01*
X121712833Y-61733455D01*
X121705872Y-61729487D01*
X121699208Y-61725034D01*
X121698060Y-61725034D01*
X121695885Y-61723794D01*
X121664724Y-61713407D01*
X121667810Y-61711345D01*
X121715429Y-61663727D01*
X121719883Y-61657060D01*
X121724795Y-61650732D01*
X121772414Y-61555494D01*
X121773075Y-61553078D01*
X121773887Y-61552267D01*
X121775450Y-61544405D01*
X121777567Y-61536678D01*
X121777204Y-61535589D01*
X121777693Y-61533133D01*
X121777693Y-61437895D01*
X121777204Y-61435438D01*
X121777567Y-61434350D01*
X121775450Y-61426622D01*
X121773887Y-61418761D01*
X121773075Y-61417949D01*
X121772414Y-61415534D01*
X121724795Y-61320296D01*
X121719883Y-61313967D01*
X121715429Y-61307301D01*
X121667810Y-61259683D01*
X121661148Y-61255231D01*
X121654815Y-61250316D01*
X121559578Y-61202698D01*
X121557162Y-61202036D01*
X121556351Y-61201225D01*
X121548489Y-61199661D01*
X121540762Y-61197545D01*
X121539673Y-61197907D01*
X121537217Y-61197419D01*
X121203884Y-61197419D01*
X121184750Y-61201225D01*
X121157690Y-61228285D01*
X121153884Y-61247419D01*
X121042773Y-61247419D01*
X121042773Y-61086308D01*
X126269696Y-61086308D01*
X126269696Y-62741737D01*
G37*
X171603884Y-58472419D02*
X171603884Y-57472419D01*
X171603884Y-57472419D02*
X171937217Y-58186704D01*
X171937217Y-58186704D02*
X172270550Y-57472419D01*
X172270550Y-57472419D02*
X172270550Y-58472419D01*
X172746741Y-58472419D02*
X172746741Y-57472419D01*
X172746741Y-57472419D02*
X173127693Y-57472419D01*
X173127693Y-57472419D02*
X173222931Y-57520038D01*
X173222931Y-57520038D02*
X173270550Y-57567657D01*
X173270550Y-57567657D02*
X173318169Y-57662895D01*
X173318169Y-57662895D02*
X173318169Y-57805752D01*
X173318169Y-57805752D02*
X173270550Y-57900990D01*
X173270550Y-57900990D02*
X173222931Y-57948609D01*
X173222931Y-57948609D02*
X173127693Y-57996228D01*
X173127693Y-57996228D02*
X172746741Y-57996228D01*
X173746741Y-57472419D02*
X173746741Y-58281942D01*
X173746741Y-58281942D02*
X173794360Y-58377180D01*
X173794360Y-58377180D02*
X173841979Y-58424800D01*
X173841979Y-58424800D02*
X173937217Y-58472419D01*
X173937217Y-58472419D02*
X174127693Y-58472419D01*
X174127693Y-58472419D02*
X174222931Y-58424800D01*
X174222931Y-58424800D02*
X174270550Y-58377180D01*
X174270550Y-58377180D02*
X174318169Y-58281942D01*
X174318169Y-58281942D02*
X174318169Y-57472419D01*
X165304360Y-106407419D02*
X165494836Y-106407419D01*
X165494836Y-106407419D02*
X165590074Y-106455038D01*
X165590074Y-106455038D02*
X165685312Y-106550276D01*
X165685312Y-106550276D02*
X165732931Y-106740752D01*
X165732931Y-106740752D02*
X165732931Y-107074085D01*
X165732931Y-107074085D02*
X165685312Y-107264561D01*
X165685312Y-107264561D02*
X165590074Y-107359800D01*
X165590074Y-107359800D02*
X165494836Y-107407419D01*
X165494836Y-107407419D02*
X165304360Y-107407419D01*
X165304360Y-107407419D02*
X165209122Y-107359800D01*
X165209122Y-107359800D02*
X165113884Y-107264561D01*
X165113884Y-107264561D02*
X165066265Y-107074085D01*
X165066265Y-107074085D02*
X165066265Y-106740752D01*
X165066265Y-106740752D02*
X165113884Y-106550276D01*
X165113884Y-106550276D02*
X165209122Y-106455038D01*
X165209122Y-106455038D02*
X165304360Y-106407419D01*
X166494836Y-106883609D02*
X166161503Y-106883609D01*
X166161503Y-107407419D02*
X166161503Y-106407419D01*
X166161503Y-106407419D02*
X166637693Y-106407419D01*
X167351979Y-106883609D02*
X167018646Y-106883609D01*
X167018646Y-107407419D02*
X167018646Y-106407419D01*
X167018646Y-106407419D02*
X167494836Y-106407419D01*
G36*
X163335457Y-106446131D02*
G01*
X163415163Y-106525837D01*
X163457931Y-106696907D01*
X163457931Y-107017930D01*
X163415163Y-107188999D01*
X163335455Y-107268708D01*
X163258033Y-107307419D01*
X163091164Y-107307419D01*
X163013741Y-107268707D01*
X162934032Y-107188998D01*
X162891265Y-107017930D01*
X162891265Y-106696907D01*
X162934032Y-106525837D01*
X163013738Y-106446131D01*
X163091164Y-106407419D01*
X163258033Y-106407419D01*
X163335457Y-106446131D01*
G37*
G36*
X164669042Y-107518530D02*
G01*
X162680154Y-107518530D01*
X162680154Y-106690752D01*
X162791265Y-106690752D01*
X162791265Y-107024085D01*
X162792460Y-107030094D01*
X162792758Y-107036212D01*
X162840377Y-107226688D01*
X162842690Y-107231584D01*
X162842690Y-107233695D01*
X162846094Y-107238790D01*
X162848710Y-107244327D01*
X162850518Y-107245412D01*
X162853528Y-107249916D01*
X162948767Y-107345155D01*
X162955426Y-107349605D01*
X162961761Y-107354521D01*
X163056999Y-107402140D01*
X163059414Y-107402801D01*
X163060226Y-107403613D01*
X163068087Y-107405176D01*
X163075815Y-107407293D01*
X163076903Y-107406930D01*
X163079360Y-107407419D01*
X163269836Y-107407419D01*
X163272292Y-107406930D01*
X163273381Y-107407293D01*
X163281108Y-107405176D01*
X163288970Y-107403613D01*
X163289781Y-107402801D01*
X163292197Y-107402140D01*
X163387434Y-107354522D01*
X163393761Y-107349611D01*
X163400430Y-107345155D01*
X163495668Y-107249916D01*
X163498677Y-107245412D01*
X163500486Y-107244327D01*
X163503101Y-107238790D01*
X163506506Y-107233695D01*
X163506506Y-107231584D01*
X163508819Y-107226688D01*
X163556438Y-107036212D01*
X163556735Y-107030094D01*
X163557931Y-107024085D01*
X163557931Y-106690752D01*
X163556735Y-106684742D01*
X163556438Y-106678625D01*
X163508819Y-106488149D01*
X163506506Y-106483252D01*
X163506506Y-106481142D01*
X163503102Y-106476048D01*
X163500486Y-106470510D01*
X163498675Y-106469423D01*
X163495667Y-106464921D01*
X163400429Y-106369683D01*
X163393767Y-106365231D01*
X163387434Y-106360316D01*
X163381640Y-106357419D01*
X163886503Y-106357419D01*
X163886503Y-107357419D01*
X163890309Y-107376553D01*
X163917369Y-107403613D01*
X163955637Y-107403613D01*
X163982697Y-107376553D01*
X163986503Y-107357419D01*
X163986503Y-106545697D01*
X164464519Y-107382226D01*
X164477317Y-107396951D01*
X164483941Y-107398757D01*
X164488797Y-107403613D01*
X164501745Y-107403613D01*
X164514237Y-107407020D01*
X164520199Y-107403613D01*
X164527065Y-107403613D01*
X164536218Y-107394459D01*
X164547463Y-107388034D01*
X164549270Y-107381407D01*
X164554125Y-107376553D01*
X164557931Y-107357419D01*
X164557931Y-106357419D01*
X164554125Y-106338285D01*
X164527065Y-106311225D01*
X164488797Y-106311225D01*
X164461737Y-106338285D01*
X164457931Y-106357419D01*
X164457931Y-107169140D01*
X163979915Y-106332612D01*
X163967118Y-106317887D01*
X163960491Y-106316079D01*
X163955637Y-106311225D01*
X163942690Y-106311225D01*
X163930197Y-106307818D01*
X163924235Y-106311225D01*
X163917369Y-106311225D01*
X163908215Y-106320378D01*
X163896971Y-106326804D01*
X163895163Y-106333430D01*
X163890309Y-106338285D01*
X163886503Y-106357419D01*
X163381640Y-106357419D01*
X163292197Y-106312698D01*
X163289781Y-106312036D01*
X163288970Y-106311225D01*
X163281108Y-106309661D01*
X163273381Y-106307545D01*
X163272292Y-106307907D01*
X163269836Y-106307419D01*
X163079360Y-106307419D01*
X163076903Y-106307907D01*
X163075815Y-106307545D01*
X163068087Y-106309661D01*
X163060226Y-106311225D01*
X163059414Y-106312036D01*
X163056999Y-106312698D01*
X162961761Y-106360317D01*
X162955426Y-106365232D01*
X162948767Y-106369683D01*
X162853529Y-106464921D01*
X162850520Y-106469423D01*
X162848710Y-106470510D01*
X162846093Y-106476048D01*
X162842690Y-106481142D01*
X162842690Y-106483252D01*
X162840377Y-106488149D01*
X162792758Y-106678625D01*
X162792460Y-106684742D01*
X162791265Y-106690752D01*
X162680154Y-106690752D01*
X162680154Y-106196308D01*
X164669042Y-106196308D01*
X164669042Y-107518530D01*
G37*
D12*
X113746667Y-92932200D02*
X113889524Y-92979819D01*
X113889524Y-92979819D02*
X114127619Y-92979819D01*
X114127619Y-92979819D02*
X114222857Y-92932200D01*
X114222857Y-92932200D02*
X114270476Y-92884580D01*
X114270476Y-92884580D02*
X114318095Y-92789342D01*
X114318095Y-92789342D02*
X114318095Y-92694104D01*
X114318095Y-92694104D02*
X114270476Y-92598866D01*
X114270476Y-92598866D02*
X114222857Y-92551247D01*
X114222857Y-92551247D02*
X114127619Y-92503628D01*
X114127619Y-92503628D02*
X113937143Y-92456009D01*
X113937143Y-92456009D02*
X113841905Y-92408390D01*
X113841905Y-92408390D02*
X113794286Y-92360771D01*
X113794286Y-92360771D02*
X113746667Y-92265533D01*
X113746667Y-92265533D02*
X113746667Y-92170295D01*
X113746667Y-92170295D02*
X113794286Y-92075057D01*
X113794286Y-92075057D02*
X113841905Y-92027438D01*
X113841905Y-92027438D02*
X113937143Y-91979819D01*
X113937143Y-91979819D02*
X114175238Y-91979819D01*
X114175238Y-91979819D02*
X114318095Y-92027438D01*
X114651429Y-91979819D02*
X114889524Y-92979819D01*
X114889524Y-92979819D02*
X115080000Y-92265533D01*
X115080000Y-92265533D02*
X115270476Y-92979819D01*
X115270476Y-92979819D02*
X115508572Y-91979819D01*
X115841905Y-92075057D02*
X115889524Y-92027438D01*
X115889524Y-92027438D02*
X115984762Y-91979819D01*
X115984762Y-91979819D02*
X116222857Y-91979819D01*
X116222857Y-91979819D02*
X116318095Y-92027438D01*
X116318095Y-92027438D02*
X116365714Y-92075057D01*
X116365714Y-92075057D02*
X116413333Y-92170295D01*
X116413333Y-92170295D02*
X116413333Y-92265533D01*
X116413333Y-92265533D02*
X116365714Y-92408390D01*
X116365714Y-92408390D02*
X115794286Y-92979819D01*
X115794286Y-92979819D02*
X116413333Y-92979819D01*
X93664531Y-66768099D02*
X93807279Y-66720155D01*
X93807279Y-66720155D02*
X93997431Y-66576866D01*
X93997431Y-66576866D02*
X94044833Y-66481520D01*
X94044833Y-66481520D02*
X94054206Y-66414832D01*
X94054206Y-66414832D02*
X94034920Y-66310114D01*
X94034920Y-66310114D02*
X93977605Y-66234053D01*
X93977605Y-66234053D02*
X93882259Y-66186650D01*
X93882259Y-66186650D02*
X93815570Y-66177278D01*
X93815570Y-66177278D02*
X93710852Y-66196563D01*
X93710852Y-66196563D02*
X93530073Y-66273165D01*
X93530073Y-66273165D02*
X93425355Y-66292450D01*
X93425355Y-66292450D02*
X93358667Y-66283078D01*
X93358667Y-66283078D02*
X93263321Y-66235675D01*
X93263321Y-66235675D02*
X93206005Y-66159614D01*
X93206005Y-66159614D02*
X93186719Y-66054896D01*
X93186719Y-66054896D02*
X93196092Y-65988208D01*
X93196092Y-65988208D02*
X93243495Y-65892862D01*
X93243495Y-65892862D02*
X93433646Y-65749573D01*
X93433646Y-65749573D02*
X93576394Y-65701629D01*
X93813949Y-65462994D02*
X94605915Y-66118340D01*
X94605915Y-66118340D02*
X94328168Y-65433255D01*
X94328168Y-65433255D02*
X94910157Y-65889077D01*
X94910157Y-65889077D02*
X94498493Y-64947153D01*
X95145008Y-64459969D02*
X94992887Y-64574600D01*
X94992887Y-64574600D02*
X94945484Y-64669946D01*
X94945484Y-64669946D02*
X94936111Y-64736635D01*
X94936111Y-64736635D02*
X94946025Y-64908041D01*
X94946025Y-64908041D02*
X95022626Y-65088820D01*
X95022626Y-65088820D02*
X95251889Y-65393062D01*
X95251889Y-65393062D02*
X95347235Y-65440465D01*
X95347235Y-65440465D02*
X95413923Y-65449837D01*
X95413923Y-65449837D02*
X95518641Y-65430552D01*
X95518641Y-65430552D02*
X95670762Y-65315920D01*
X95670762Y-65315920D02*
X95718165Y-65220574D01*
X95718165Y-65220574D02*
X95727537Y-65153886D01*
X95727537Y-65153886D02*
X95708252Y-65049168D01*
X95708252Y-65049168D02*
X95564962Y-64859016D01*
X95564962Y-64859016D02*
X95469616Y-64811614D01*
X95469616Y-64811614D02*
X95402928Y-64802241D01*
X95402928Y-64802241D02*
X95298210Y-64821527D01*
X95298210Y-64821527D02*
X95146089Y-64936158D01*
X95146089Y-64936158D02*
X95098686Y-65031504D01*
X95098686Y-65031504D02*
X95089314Y-65098192D01*
X95089314Y-65098192D02*
X95108599Y-65202911D01*
X158566667Y-74757200D02*
X158709524Y-74804819D01*
X158709524Y-74804819D02*
X158947619Y-74804819D01*
X158947619Y-74804819D02*
X159042857Y-74757200D01*
X159042857Y-74757200D02*
X159090476Y-74709580D01*
X159090476Y-74709580D02*
X159138095Y-74614342D01*
X159138095Y-74614342D02*
X159138095Y-74519104D01*
X159138095Y-74519104D02*
X159090476Y-74423866D01*
X159090476Y-74423866D02*
X159042857Y-74376247D01*
X159042857Y-74376247D02*
X158947619Y-74328628D01*
X158947619Y-74328628D02*
X158757143Y-74281009D01*
X158757143Y-74281009D02*
X158661905Y-74233390D01*
X158661905Y-74233390D02*
X158614286Y-74185771D01*
X158614286Y-74185771D02*
X158566667Y-74090533D01*
X158566667Y-74090533D02*
X158566667Y-73995295D01*
X158566667Y-73995295D02*
X158614286Y-73900057D01*
X158614286Y-73900057D02*
X158661905Y-73852438D01*
X158661905Y-73852438D02*
X158757143Y-73804819D01*
X158757143Y-73804819D02*
X158995238Y-73804819D01*
X158995238Y-73804819D02*
X159138095Y-73852438D01*
X159471429Y-73804819D02*
X159709524Y-74804819D01*
X159709524Y-74804819D02*
X159900000Y-74090533D01*
X159900000Y-74090533D02*
X160090476Y-74804819D01*
X160090476Y-74804819D02*
X160328572Y-73804819D01*
X160614286Y-73804819D02*
X161233333Y-73804819D01*
X161233333Y-73804819D02*
X160900000Y-74185771D01*
X160900000Y-74185771D02*
X161042857Y-74185771D01*
X161042857Y-74185771D02*
X161138095Y-74233390D01*
X161138095Y-74233390D02*
X161185714Y-74281009D01*
X161185714Y-74281009D02*
X161233333Y-74376247D01*
X161233333Y-74376247D02*
X161233333Y-74614342D01*
X161233333Y-74614342D02*
X161185714Y-74709580D01*
X161185714Y-74709580D02*
X161138095Y-74757200D01*
X161138095Y-74757200D02*
X161042857Y-74804819D01*
X161042857Y-74804819D02*
X160757143Y-74804819D01*
X160757143Y-74804819D02*
X160661905Y-74757200D01*
X160661905Y-74757200D02*
X160614286Y-74709580D01*
X111159819Y-62490594D02*
X110159819Y-62490594D01*
X110159819Y-62490594D02*
X110159819Y-62252499D01*
X110159819Y-62252499D02*
X110207438Y-62109642D01*
X110207438Y-62109642D02*
X110302676Y-62014404D01*
X110302676Y-62014404D02*
X110397914Y-61966785D01*
X110397914Y-61966785D02*
X110588390Y-61919166D01*
X110588390Y-61919166D02*
X110731247Y-61919166D01*
X110731247Y-61919166D02*
X110921723Y-61966785D01*
X110921723Y-61966785D02*
X111016961Y-62014404D01*
X111016961Y-62014404D02*
X111112200Y-62109642D01*
X111112200Y-62109642D02*
X111159819Y-62252499D01*
X111159819Y-62252499D02*
X111159819Y-62490594D01*
X110159819Y-61062023D02*
X110159819Y-61252499D01*
X110159819Y-61252499D02*
X110207438Y-61347737D01*
X110207438Y-61347737D02*
X110255057Y-61395356D01*
X110255057Y-61395356D02*
X110397914Y-61490594D01*
X110397914Y-61490594D02*
X110588390Y-61538213D01*
X110588390Y-61538213D02*
X110969342Y-61538213D01*
X110969342Y-61538213D02*
X111064580Y-61490594D01*
X111064580Y-61490594D02*
X111112200Y-61442975D01*
X111112200Y-61442975D02*
X111159819Y-61347737D01*
X111159819Y-61347737D02*
X111159819Y-61157261D01*
X111159819Y-61157261D02*
X111112200Y-61062023D01*
X111112200Y-61062023D02*
X111064580Y-61014404D01*
X111064580Y-61014404D02*
X110969342Y-60966785D01*
X110969342Y-60966785D02*
X110731247Y-60966785D01*
X110731247Y-60966785D02*
X110636009Y-61014404D01*
X110636009Y-61014404D02*
X110588390Y-61062023D01*
X110588390Y-61062023D02*
X110540771Y-61157261D01*
X110540771Y-61157261D02*
X110540771Y-61347737D01*
X110540771Y-61347737D02*
X110588390Y-61442975D01*
X110588390Y-61442975D02*
X110636009Y-61490594D01*
X110636009Y-61490594D02*
X110731247Y-61538213D01*
X133850057Y-82445238D02*
X133802438Y-82540476D01*
X133802438Y-82540476D02*
X133707200Y-82635714D01*
X133707200Y-82635714D02*
X133564342Y-82778571D01*
X133564342Y-82778571D02*
X133516723Y-82873809D01*
X133516723Y-82873809D02*
X133516723Y-82969047D01*
X133754819Y-82921428D02*
X133707200Y-83016666D01*
X133707200Y-83016666D02*
X133611961Y-83111904D01*
X133611961Y-83111904D02*
X133421485Y-83159523D01*
X133421485Y-83159523D02*
X133088152Y-83159523D01*
X133088152Y-83159523D02*
X132897676Y-83111904D01*
X132897676Y-83111904D02*
X132802438Y-83016666D01*
X132802438Y-83016666D02*
X132754819Y-82921428D01*
X132754819Y-82921428D02*
X132754819Y-82730952D01*
X132754819Y-82730952D02*
X132802438Y-82635714D01*
X132802438Y-82635714D02*
X132897676Y-82540476D01*
X132897676Y-82540476D02*
X133088152Y-82492857D01*
X133088152Y-82492857D02*
X133421485Y-82492857D01*
X133421485Y-82492857D02*
X133611961Y-82540476D01*
X133611961Y-82540476D02*
X133707200Y-82635714D01*
X133707200Y-82635714D02*
X133754819Y-82730952D01*
X133754819Y-82730952D02*
X133754819Y-82921428D01*
X133754819Y-81540476D02*
X133754819Y-82111904D01*
X133754819Y-81826190D02*
X132754819Y-81826190D01*
X132754819Y-81826190D02*
X132897676Y-81921428D01*
X132897676Y-81921428D02*
X132992914Y-82016666D01*
X132992914Y-82016666D02*
X133040533Y-82111904D01*
X91743095Y-73302319D02*
X91743095Y-74111842D01*
X91743095Y-74111842D02*
X91790714Y-74207080D01*
X91790714Y-74207080D02*
X91838333Y-74254700D01*
X91838333Y-74254700D02*
X91933571Y-74302319D01*
X91933571Y-74302319D02*
X92124047Y-74302319D01*
X92124047Y-74302319D02*
X92219285Y-74254700D01*
X92219285Y-74254700D02*
X92266904Y-74207080D01*
X92266904Y-74207080D02*
X92314523Y-74111842D01*
X92314523Y-74111842D02*
X92314523Y-73302319D01*
X93314523Y-74302319D02*
X92743095Y-74302319D01*
X93028809Y-74302319D02*
X93028809Y-73302319D01*
X93028809Y-73302319D02*
X92933571Y-73445176D01*
X92933571Y-73445176D02*
X92838333Y-73540414D01*
X92838333Y-73540414D02*
X92743095Y-73588033D01*
X179322785Y-64957244D02*
X179408218Y-65081248D01*
X179408218Y-65081248D02*
X179598370Y-65224537D01*
X179598370Y-65224537D02*
X179703088Y-65243823D01*
X179703088Y-65243823D02*
X179769776Y-65234450D01*
X179769776Y-65234450D02*
X179865122Y-65187048D01*
X179865122Y-65187048D02*
X179922438Y-65110987D01*
X179922438Y-65110987D02*
X179941723Y-65006269D01*
X179941723Y-65006269D02*
X179932351Y-64939581D01*
X179932351Y-64939581D02*
X179884948Y-64844235D01*
X179884948Y-64844235D02*
X179761485Y-64691573D01*
X179761485Y-64691573D02*
X179714082Y-64596227D01*
X179714082Y-64596227D02*
X179704710Y-64529539D01*
X179704710Y-64529539D02*
X179723996Y-64424820D01*
X179723996Y-64424820D02*
X179781311Y-64348760D01*
X179781311Y-64348760D02*
X179876657Y-64301357D01*
X179876657Y-64301357D02*
X179943345Y-64291985D01*
X179943345Y-64291985D02*
X180048064Y-64311270D01*
X180048064Y-64311270D02*
X180238215Y-64454560D01*
X180238215Y-64454560D02*
X180323648Y-64578563D01*
X180618518Y-64741138D02*
X180206854Y-65683063D01*
X180206854Y-65683063D02*
X180788843Y-65227241D01*
X180788843Y-65227241D02*
X180511096Y-65912326D01*
X180511096Y-65912326D02*
X181303062Y-65256980D01*
X181531244Y-65428927D02*
X182063668Y-65830137D01*
X182063668Y-65830137D02*
X181119580Y-66370852D01*
X113409819Y-62490594D02*
X112409819Y-62490594D01*
X112409819Y-62490594D02*
X112409819Y-62252499D01*
X112409819Y-62252499D02*
X112457438Y-62109642D01*
X112457438Y-62109642D02*
X112552676Y-62014404D01*
X112552676Y-62014404D02*
X112647914Y-61966785D01*
X112647914Y-61966785D02*
X112838390Y-61919166D01*
X112838390Y-61919166D02*
X112981247Y-61919166D01*
X112981247Y-61919166D02*
X113171723Y-61966785D01*
X113171723Y-61966785D02*
X113266961Y-62014404D01*
X113266961Y-62014404D02*
X113362200Y-62109642D01*
X113362200Y-62109642D02*
X113409819Y-62252499D01*
X113409819Y-62252499D02*
X113409819Y-62490594D01*
X112409819Y-61585832D02*
X112409819Y-60919166D01*
X112409819Y-60919166D02*
X113409819Y-61347737D01*
X195513095Y-95254819D02*
X195513095Y-94254819D01*
X195513095Y-94731009D02*
X196084523Y-94731009D01*
X196084523Y-95254819D02*
X196084523Y-94254819D01*
X197084523Y-95254819D02*
X196513095Y-95254819D01*
X196798809Y-95254819D02*
X196798809Y-94254819D01*
X196798809Y-94254819D02*
X196703571Y-94397676D01*
X196703571Y-94397676D02*
X196608333Y-94492914D01*
X196608333Y-94492914D02*
X196513095Y-94540533D01*
X139670833Y-87354819D02*
X139337500Y-86878628D01*
X139099405Y-87354819D02*
X139099405Y-86354819D01*
X139099405Y-86354819D02*
X139480357Y-86354819D01*
X139480357Y-86354819D02*
X139575595Y-86402438D01*
X139575595Y-86402438D02*
X139623214Y-86450057D01*
X139623214Y-86450057D02*
X139670833Y-86545295D01*
X139670833Y-86545295D02*
X139670833Y-86688152D01*
X139670833Y-86688152D02*
X139623214Y-86783390D01*
X139623214Y-86783390D02*
X139575595Y-86831009D01*
X139575595Y-86831009D02*
X139480357Y-86878628D01*
X139480357Y-86878628D02*
X139099405Y-86878628D01*
X140004167Y-86354819D02*
X140670833Y-86354819D01*
X140670833Y-86354819D02*
X140242262Y-87354819D01*
X130920833Y-83404819D02*
X130587500Y-82928628D01*
X130349405Y-83404819D02*
X130349405Y-82404819D01*
X130349405Y-82404819D02*
X130730357Y-82404819D01*
X130730357Y-82404819D02*
X130825595Y-82452438D01*
X130825595Y-82452438D02*
X130873214Y-82500057D01*
X130873214Y-82500057D02*
X130920833Y-82595295D01*
X130920833Y-82595295D02*
X130920833Y-82738152D01*
X130920833Y-82738152D02*
X130873214Y-82833390D01*
X130873214Y-82833390D02*
X130825595Y-82881009D01*
X130825595Y-82881009D02*
X130730357Y-82928628D01*
X130730357Y-82928628D02*
X130349405Y-82928628D01*
X131397024Y-83404819D02*
X131587500Y-83404819D01*
X131587500Y-83404819D02*
X131682738Y-83357200D01*
X131682738Y-83357200D02*
X131730357Y-83309580D01*
X131730357Y-83309580D02*
X131825595Y-83166723D01*
X131825595Y-83166723D02*
X131873214Y-82976247D01*
X131873214Y-82976247D02*
X131873214Y-82595295D01*
X131873214Y-82595295D02*
X131825595Y-82500057D01*
X131825595Y-82500057D02*
X131777976Y-82452438D01*
X131777976Y-82452438D02*
X131682738Y-82404819D01*
X131682738Y-82404819D02*
X131492262Y-82404819D01*
X131492262Y-82404819D02*
X131397024Y-82452438D01*
X131397024Y-82452438D02*
X131349405Y-82500057D01*
X131349405Y-82500057D02*
X131301786Y-82595295D01*
X131301786Y-82595295D02*
X131301786Y-82833390D01*
X131301786Y-82833390D02*
X131349405Y-82928628D01*
X131349405Y-82928628D02*
X131397024Y-82976247D01*
X131397024Y-82976247D02*
X131492262Y-83023866D01*
X131492262Y-83023866D02*
X131682738Y-83023866D01*
X131682738Y-83023866D02*
X131777976Y-82976247D01*
X131777976Y-82976247D02*
X131825595Y-82928628D01*
X131825595Y-82928628D02*
X131873214Y-82833390D01*
X117909819Y-62490594D02*
X116909819Y-62490594D01*
X116909819Y-62490594D02*
X116909819Y-62252499D01*
X116909819Y-62252499D02*
X116957438Y-62109642D01*
X116957438Y-62109642D02*
X117052676Y-62014404D01*
X117052676Y-62014404D02*
X117147914Y-61966785D01*
X117147914Y-61966785D02*
X117338390Y-61919166D01*
X117338390Y-61919166D02*
X117481247Y-61919166D01*
X117481247Y-61919166D02*
X117671723Y-61966785D01*
X117671723Y-61966785D02*
X117766961Y-62014404D01*
X117766961Y-62014404D02*
X117862200Y-62109642D01*
X117862200Y-62109642D02*
X117909819Y-62252499D01*
X117909819Y-62252499D02*
X117909819Y-62490594D01*
X117909819Y-61442975D02*
X117909819Y-61252499D01*
X117909819Y-61252499D02*
X117862200Y-61157261D01*
X117862200Y-61157261D02*
X117814580Y-61109642D01*
X117814580Y-61109642D02*
X117671723Y-61014404D01*
X117671723Y-61014404D02*
X117481247Y-60966785D01*
X117481247Y-60966785D02*
X117100295Y-60966785D01*
X117100295Y-60966785D02*
X117005057Y-61014404D01*
X117005057Y-61014404D02*
X116957438Y-61062023D01*
X116957438Y-61062023D02*
X116909819Y-61157261D01*
X116909819Y-61157261D02*
X116909819Y-61347737D01*
X116909819Y-61347737D02*
X116957438Y-61442975D01*
X116957438Y-61442975D02*
X117005057Y-61490594D01*
X117005057Y-61490594D02*
X117100295Y-61538213D01*
X117100295Y-61538213D02*
X117338390Y-61538213D01*
X117338390Y-61538213D02*
X117433628Y-61490594D01*
X117433628Y-61490594D02*
X117481247Y-61442975D01*
X117481247Y-61442975D02*
X117528866Y-61347737D01*
X117528866Y-61347737D02*
X117528866Y-61157261D01*
X117528866Y-61157261D02*
X117481247Y-61062023D01*
X117481247Y-61062023D02*
X117433628Y-61014404D01*
X117433628Y-61014404D02*
X117338390Y-60966785D01*
X115659819Y-62490594D02*
X114659819Y-62490594D01*
X114659819Y-62490594D02*
X114659819Y-62252499D01*
X114659819Y-62252499D02*
X114707438Y-62109642D01*
X114707438Y-62109642D02*
X114802676Y-62014404D01*
X114802676Y-62014404D02*
X114897914Y-61966785D01*
X114897914Y-61966785D02*
X115088390Y-61919166D01*
X115088390Y-61919166D02*
X115231247Y-61919166D01*
X115231247Y-61919166D02*
X115421723Y-61966785D01*
X115421723Y-61966785D02*
X115516961Y-62014404D01*
X115516961Y-62014404D02*
X115612200Y-62109642D01*
X115612200Y-62109642D02*
X115659819Y-62252499D01*
X115659819Y-62252499D02*
X115659819Y-62490594D01*
X115088390Y-61347737D02*
X115040771Y-61442975D01*
X115040771Y-61442975D02*
X114993152Y-61490594D01*
X114993152Y-61490594D02*
X114897914Y-61538213D01*
X114897914Y-61538213D02*
X114850295Y-61538213D01*
X114850295Y-61538213D02*
X114755057Y-61490594D01*
X114755057Y-61490594D02*
X114707438Y-61442975D01*
X114707438Y-61442975D02*
X114659819Y-61347737D01*
X114659819Y-61347737D02*
X114659819Y-61157261D01*
X114659819Y-61157261D02*
X114707438Y-61062023D01*
X114707438Y-61062023D02*
X114755057Y-61014404D01*
X114755057Y-61014404D02*
X114850295Y-60966785D01*
X114850295Y-60966785D02*
X114897914Y-60966785D01*
X114897914Y-60966785D02*
X114993152Y-61014404D01*
X114993152Y-61014404D02*
X115040771Y-61062023D01*
X115040771Y-61062023D02*
X115088390Y-61157261D01*
X115088390Y-61157261D02*
X115088390Y-61347737D01*
X115088390Y-61347737D02*
X115136009Y-61442975D01*
X115136009Y-61442975D02*
X115183628Y-61490594D01*
X115183628Y-61490594D02*
X115278866Y-61538213D01*
X115278866Y-61538213D02*
X115469342Y-61538213D01*
X115469342Y-61538213D02*
X115564580Y-61490594D01*
X115564580Y-61490594D02*
X115612200Y-61442975D01*
X115612200Y-61442975D02*
X115659819Y-61347737D01*
X115659819Y-61347737D02*
X115659819Y-61157261D01*
X115659819Y-61157261D02*
X115612200Y-61062023D01*
X115612200Y-61062023D02*
X115564580Y-61014404D01*
X115564580Y-61014404D02*
X115469342Y-60966785D01*
X115469342Y-60966785D02*
X115278866Y-60966785D01*
X115278866Y-60966785D02*
X115183628Y-61014404D01*
X115183628Y-61014404D02*
X115136009Y-61062023D01*
X115136009Y-61062023D02*
X115088390Y-61157261D01*
X158611667Y-101032200D02*
X158754524Y-101079819D01*
X158754524Y-101079819D02*
X158992619Y-101079819D01*
X158992619Y-101079819D02*
X159087857Y-101032200D01*
X159087857Y-101032200D02*
X159135476Y-100984580D01*
X159135476Y-100984580D02*
X159183095Y-100889342D01*
X159183095Y-100889342D02*
X159183095Y-100794104D01*
X159183095Y-100794104D02*
X159135476Y-100698866D01*
X159135476Y-100698866D02*
X159087857Y-100651247D01*
X159087857Y-100651247D02*
X158992619Y-100603628D01*
X158992619Y-100603628D02*
X158802143Y-100556009D01*
X158802143Y-100556009D02*
X158706905Y-100508390D01*
X158706905Y-100508390D02*
X158659286Y-100460771D01*
X158659286Y-100460771D02*
X158611667Y-100365533D01*
X158611667Y-100365533D02*
X158611667Y-100270295D01*
X158611667Y-100270295D02*
X158659286Y-100175057D01*
X158659286Y-100175057D02*
X158706905Y-100127438D01*
X158706905Y-100127438D02*
X158802143Y-100079819D01*
X158802143Y-100079819D02*
X159040238Y-100079819D01*
X159040238Y-100079819D02*
X159183095Y-100127438D01*
X159516429Y-100079819D02*
X159754524Y-101079819D01*
X159754524Y-101079819D02*
X159945000Y-100365533D01*
X159945000Y-100365533D02*
X160135476Y-101079819D01*
X160135476Y-101079819D02*
X160373572Y-100079819D01*
X161230714Y-100079819D02*
X160754524Y-100079819D01*
X160754524Y-100079819D02*
X160706905Y-100556009D01*
X160706905Y-100556009D02*
X160754524Y-100508390D01*
X160754524Y-100508390D02*
X160849762Y-100460771D01*
X160849762Y-100460771D02*
X161087857Y-100460771D01*
X161087857Y-100460771D02*
X161183095Y-100508390D01*
X161183095Y-100508390D02*
X161230714Y-100556009D01*
X161230714Y-100556009D02*
X161278333Y-100651247D01*
X161278333Y-100651247D02*
X161278333Y-100889342D01*
X161278333Y-100889342D02*
X161230714Y-100984580D01*
X161230714Y-100984580D02*
X161183095Y-101032200D01*
X161183095Y-101032200D02*
X161087857Y-101079819D01*
X161087857Y-101079819D02*
X160849762Y-101079819D01*
X160849762Y-101079819D02*
X160754524Y-101032200D01*
X160754524Y-101032200D02*
X160706905Y-100984580D01*
X108909819Y-62490594D02*
X107909819Y-62490594D01*
X107909819Y-62490594D02*
X107909819Y-62252499D01*
X107909819Y-62252499D02*
X107957438Y-62109642D01*
X107957438Y-62109642D02*
X108052676Y-62014404D01*
X108052676Y-62014404D02*
X108147914Y-61966785D01*
X108147914Y-61966785D02*
X108338390Y-61919166D01*
X108338390Y-61919166D02*
X108481247Y-61919166D01*
X108481247Y-61919166D02*
X108671723Y-61966785D01*
X108671723Y-61966785D02*
X108766961Y-62014404D01*
X108766961Y-62014404D02*
X108862200Y-62109642D01*
X108862200Y-62109642D02*
X108909819Y-62252499D01*
X108909819Y-62252499D02*
X108909819Y-62490594D01*
X107909819Y-61014404D02*
X107909819Y-61490594D01*
X107909819Y-61490594D02*
X108386009Y-61538213D01*
X108386009Y-61538213D02*
X108338390Y-61490594D01*
X108338390Y-61490594D02*
X108290771Y-61395356D01*
X108290771Y-61395356D02*
X108290771Y-61157261D01*
X108290771Y-61157261D02*
X108338390Y-61062023D01*
X108338390Y-61062023D02*
X108386009Y-61014404D01*
X108386009Y-61014404D02*
X108481247Y-60966785D01*
X108481247Y-60966785D02*
X108719342Y-60966785D01*
X108719342Y-60966785D02*
X108814580Y-61014404D01*
X108814580Y-61014404D02*
X108862200Y-61062023D01*
X108862200Y-61062023D02*
X108909819Y-61157261D01*
X108909819Y-61157261D02*
X108909819Y-61395356D01*
X108909819Y-61395356D02*
X108862200Y-61490594D01*
X108862200Y-61490594D02*
X108814580Y-61538213D01*
X134860714Y-76199819D02*
X134860714Y-75199819D01*
X134860714Y-75199819D02*
X135098809Y-75199819D01*
X135098809Y-75199819D02*
X135241666Y-75247438D01*
X135241666Y-75247438D02*
X135336904Y-75342676D01*
X135336904Y-75342676D02*
X135384523Y-75437914D01*
X135384523Y-75437914D02*
X135432142Y-75628390D01*
X135432142Y-75628390D02*
X135432142Y-75771247D01*
X135432142Y-75771247D02*
X135384523Y-75961723D01*
X135384523Y-75961723D02*
X135336904Y-76056961D01*
X135336904Y-76056961D02*
X135241666Y-76152200D01*
X135241666Y-76152200D02*
X135098809Y-76199819D01*
X135098809Y-76199819D02*
X134860714Y-76199819D01*
X136384523Y-76199819D02*
X135813095Y-76199819D01*
X136098809Y-76199819D02*
X136098809Y-75199819D01*
X136098809Y-75199819D02*
X136003571Y-75342676D01*
X136003571Y-75342676D02*
X135908333Y-75437914D01*
X135908333Y-75437914D02*
X135813095Y-75485533D01*
X137003571Y-75199819D02*
X137098809Y-75199819D01*
X137098809Y-75199819D02*
X137194047Y-75247438D01*
X137194047Y-75247438D02*
X137241666Y-75295057D01*
X137241666Y-75295057D02*
X137289285Y-75390295D01*
X137289285Y-75390295D02*
X137336904Y-75580771D01*
X137336904Y-75580771D02*
X137336904Y-75818866D01*
X137336904Y-75818866D02*
X137289285Y-76009342D01*
X137289285Y-76009342D02*
X137241666Y-76104580D01*
X137241666Y-76104580D02*
X137194047Y-76152200D01*
X137194047Y-76152200D02*
X137098809Y-76199819D01*
X137098809Y-76199819D02*
X137003571Y-76199819D01*
X137003571Y-76199819D02*
X136908333Y-76152200D01*
X136908333Y-76152200D02*
X136860714Y-76104580D01*
X136860714Y-76104580D02*
X136813095Y-76009342D01*
X136813095Y-76009342D02*
X136765476Y-75818866D01*
X136765476Y-75818866D02*
X136765476Y-75580771D01*
X136765476Y-75580771D02*
X136813095Y-75390295D01*
X136813095Y-75390295D02*
X136860714Y-75295057D01*
X136860714Y-75295057D02*
X136908333Y-75247438D01*
X136908333Y-75247438D02*
X137003571Y-75199819D01*
D13*
X158703572Y-66749757D02*
X158560715Y-66678328D01*
X158560715Y-66678328D02*
X158346429Y-66678328D01*
X158346429Y-66678328D02*
X158132143Y-66749757D01*
X158132143Y-66749757D02*
X157989286Y-66892614D01*
X157989286Y-66892614D02*
X157917857Y-67035471D01*
X157917857Y-67035471D02*
X157846429Y-67321185D01*
X157846429Y-67321185D02*
X157846429Y-67535471D01*
X157846429Y-67535471D02*
X157917857Y-67821185D01*
X157917857Y-67821185D02*
X157989286Y-67964042D01*
X157989286Y-67964042D02*
X158132143Y-68106900D01*
X158132143Y-68106900D02*
X158346429Y-68178328D01*
X158346429Y-68178328D02*
X158489286Y-68178328D01*
X158489286Y-68178328D02*
X158703572Y-68106900D01*
X158703572Y-68106900D02*
X158775000Y-68035471D01*
X158775000Y-68035471D02*
X158775000Y-67535471D01*
X158775000Y-67535471D02*
X158489286Y-67535471D01*
X159632143Y-66678328D02*
X159632143Y-67035471D01*
X159275000Y-66892614D02*
X159632143Y-67035471D01*
X159632143Y-67035471D02*
X159989286Y-66892614D01*
X159417857Y-67321185D02*
X159632143Y-67035471D01*
X159632143Y-67035471D02*
X159846429Y-67321185D01*
X160775000Y-66678328D02*
X160775000Y-67035471D01*
X160417857Y-66892614D02*
X160775000Y-67035471D01*
X160775000Y-67035471D02*
X161132143Y-66892614D01*
X160560714Y-67321185D02*
X160775000Y-67035471D01*
X160775000Y-67035471D02*
X160989286Y-67321185D01*
X161917857Y-66678328D02*
X161917857Y-67035471D01*
X161560714Y-66892614D02*
X161917857Y-67035471D01*
X161917857Y-67035471D02*
X162275000Y-66892614D01*
X161703571Y-67321185D02*
X161917857Y-67035471D01*
X161917857Y-67035471D02*
X162132143Y-67321185D01*
D12*
X126749819Y-74851904D02*
X127559342Y-74851904D01*
X127559342Y-74851904D02*
X127654580Y-74804285D01*
X127654580Y-74804285D02*
X127702200Y-74756666D01*
X127702200Y-74756666D02*
X127749819Y-74661428D01*
X127749819Y-74661428D02*
X127749819Y-74470952D01*
X127749819Y-74470952D02*
X127702200Y-74375714D01*
X127702200Y-74375714D02*
X127654580Y-74328095D01*
X127654580Y-74328095D02*
X127559342Y-74280476D01*
X127559342Y-74280476D02*
X126749819Y-74280476D01*
X126749819Y-73328095D02*
X126749819Y-73804285D01*
X126749819Y-73804285D02*
X127226009Y-73851904D01*
X127226009Y-73851904D02*
X127178390Y-73804285D01*
X127178390Y-73804285D02*
X127130771Y-73709047D01*
X127130771Y-73709047D02*
X127130771Y-73470952D01*
X127130771Y-73470952D02*
X127178390Y-73375714D01*
X127178390Y-73375714D02*
X127226009Y-73328095D01*
X127226009Y-73328095D02*
X127321247Y-73280476D01*
X127321247Y-73280476D02*
X127559342Y-73280476D01*
X127559342Y-73280476D02*
X127654580Y-73328095D01*
X127654580Y-73328095D02*
X127702200Y-73375714D01*
X127702200Y-73375714D02*
X127749819Y-73470952D01*
X127749819Y-73470952D02*
X127749819Y-73709047D01*
X127749819Y-73709047D02*
X127702200Y-73804285D01*
X127702200Y-73804285D02*
X127654580Y-73851904D01*
X77963095Y-95129819D02*
X77963095Y-94129819D01*
X77963095Y-94606009D02*
X78534523Y-94606009D01*
X78534523Y-95129819D02*
X78534523Y-94129819D01*
X79439285Y-94129819D02*
X79248809Y-94129819D01*
X79248809Y-94129819D02*
X79153571Y-94177438D01*
X79153571Y-94177438D02*
X79105952Y-94225057D01*
X79105952Y-94225057D02*
X79010714Y-94367914D01*
X79010714Y-94367914D02*
X78963095Y-94558390D01*
X78963095Y-94558390D02*
X78963095Y-94939342D01*
X78963095Y-94939342D02*
X79010714Y-95034580D01*
X79010714Y-95034580D02*
X79058333Y-95082200D01*
X79058333Y-95082200D02*
X79153571Y-95129819D01*
X79153571Y-95129819D02*
X79344047Y-95129819D01*
X79344047Y-95129819D02*
X79439285Y-95082200D01*
X79439285Y-95082200D02*
X79486904Y-95034580D01*
X79486904Y-95034580D02*
X79534523Y-94939342D01*
X79534523Y-94939342D02*
X79534523Y-94701247D01*
X79534523Y-94701247D02*
X79486904Y-94606009D01*
X79486904Y-94606009D02*
X79439285Y-94558390D01*
X79439285Y-94558390D02*
X79344047Y-94510771D01*
X79344047Y-94510771D02*
X79153571Y-94510771D01*
X79153571Y-94510771D02*
X79058333Y-94558390D01*
X79058333Y-94558390D02*
X79010714Y-94606009D01*
X79010714Y-94606009D02*
X78963095Y-94701247D01*
X164291667Y-107802200D02*
X164434524Y-107849819D01*
X164434524Y-107849819D02*
X164672619Y-107849819D01*
X164672619Y-107849819D02*
X164767857Y-107802200D01*
X164767857Y-107802200D02*
X164815476Y-107754580D01*
X164815476Y-107754580D02*
X164863095Y-107659342D01*
X164863095Y-107659342D02*
X164863095Y-107564104D01*
X164863095Y-107564104D02*
X164815476Y-107468866D01*
X164815476Y-107468866D02*
X164767857Y-107421247D01*
X164767857Y-107421247D02*
X164672619Y-107373628D01*
X164672619Y-107373628D02*
X164482143Y-107326009D01*
X164482143Y-107326009D02*
X164386905Y-107278390D01*
X164386905Y-107278390D02*
X164339286Y-107230771D01*
X164339286Y-107230771D02*
X164291667Y-107135533D01*
X164291667Y-107135533D02*
X164291667Y-107040295D01*
X164291667Y-107040295D02*
X164339286Y-106945057D01*
X164339286Y-106945057D02*
X164386905Y-106897438D01*
X164386905Y-106897438D02*
X164482143Y-106849819D01*
X164482143Y-106849819D02*
X164720238Y-106849819D01*
X164720238Y-106849819D02*
X164863095Y-106897438D01*
X165196429Y-106849819D02*
X165434524Y-107849819D01*
X165434524Y-107849819D02*
X165625000Y-107135533D01*
X165625000Y-107135533D02*
X165815476Y-107849819D01*
X165815476Y-107849819D02*
X166053572Y-106849819D01*
X166958333Y-107849819D02*
X166386905Y-107849819D01*
X166672619Y-107849819D02*
X166672619Y-106849819D01*
X166672619Y-106849819D02*
X166577381Y-106992676D01*
X166577381Y-106992676D02*
X166482143Y-107087914D01*
X166482143Y-107087914D02*
X166386905Y-107135533D01*
X147159819Y-58708333D02*
X147874104Y-58708333D01*
X147874104Y-58708333D02*
X148016961Y-58755952D01*
X148016961Y-58755952D02*
X148112200Y-58851190D01*
X148112200Y-58851190D02*
X148159819Y-58994047D01*
X148159819Y-58994047D02*
X148159819Y-59089285D01*
X147255057Y-58279761D02*
X147207438Y-58232142D01*
X147207438Y-58232142D02*
X147159819Y-58136904D01*
X147159819Y-58136904D02*
X147159819Y-57898809D01*
X147159819Y-57898809D02*
X147207438Y-57803571D01*
X147207438Y-57803571D02*
X147255057Y-57755952D01*
X147255057Y-57755952D02*
X147350295Y-57708333D01*
X147350295Y-57708333D02*
X147445533Y-57708333D01*
X147445533Y-57708333D02*
X147588390Y-57755952D01*
X147588390Y-57755952D02*
X148159819Y-58327380D01*
X148159819Y-58327380D02*
X148159819Y-57708333D01*
X78063095Y-72654819D02*
X78063095Y-71654819D01*
X78063095Y-72131009D02*
X78634523Y-72131009D01*
X78634523Y-72654819D02*
X78634523Y-71654819D01*
X79015476Y-71654819D02*
X79682142Y-71654819D01*
X79682142Y-71654819D02*
X79253571Y-72654819D01*
X113746667Y-74732200D02*
X113889524Y-74779819D01*
X113889524Y-74779819D02*
X114127619Y-74779819D01*
X114127619Y-74779819D02*
X114222857Y-74732200D01*
X114222857Y-74732200D02*
X114270476Y-74684580D01*
X114270476Y-74684580D02*
X114318095Y-74589342D01*
X114318095Y-74589342D02*
X114318095Y-74494104D01*
X114318095Y-74494104D02*
X114270476Y-74398866D01*
X114270476Y-74398866D02*
X114222857Y-74351247D01*
X114222857Y-74351247D02*
X114127619Y-74303628D01*
X114127619Y-74303628D02*
X113937143Y-74256009D01*
X113937143Y-74256009D02*
X113841905Y-74208390D01*
X113841905Y-74208390D02*
X113794286Y-74160771D01*
X113794286Y-74160771D02*
X113746667Y-74065533D01*
X113746667Y-74065533D02*
X113746667Y-73970295D01*
X113746667Y-73970295D02*
X113794286Y-73875057D01*
X113794286Y-73875057D02*
X113841905Y-73827438D01*
X113841905Y-73827438D02*
X113937143Y-73779819D01*
X113937143Y-73779819D02*
X114175238Y-73779819D01*
X114175238Y-73779819D02*
X114318095Y-73827438D01*
X114651429Y-73779819D02*
X114889524Y-74779819D01*
X114889524Y-74779819D02*
X115080000Y-74065533D01*
X115080000Y-74065533D02*
X115270476Y-74779819D01*
X115270476Y-74779819D02*
X115508572Y-73779819D01*
X116318095Y-74113152D02*
X116318095Y-74779819D01*
X116080000Y-73732200D02*
X115841905Y-74446485D01*
X115841905Y-74446485D02*
X116460952Y-74446485D01*
X195588095Y-72629819D02*
X195588095Y-71629819D01*
X195588095Y-72106009D02*
X196159523Y-72106009D01*
X196159523Y-72629819D02*
X196159523Y-71629819D01*
X197111904Y-71629819D02*
X196635714Y-71629819D01*
X196635714Y-71629819D02*
X196588095Y-72106009D01*
X196588095Y-72106009D02*
X196635714Y-72058390D01*
X196635714Y-72058390D02*
X196730952Y-72010771D01*
X196730952Y-72010771D02*
X196969047Y-72010771D01*
X196969047Y-72010771D02*
X197064285Y-72058390D01*
X197064285Y-72058390D02*
X197111904Y-72106009D01*
X197111904Y-72106009D02*
X197159523Y-72201247D01*
X197159523Y-72201247D02*
X197159523Y-72439342D01*
X197159523Y-72439342D02*
X197111904Y-72534580D01*
X197111904Y-72534580D02*
X197064285Y-72582200D01*
X197064285Y-72582200D02*
X196969047Y-72629819D01*
X196969047Y-72629819D02*
X196730952Y-72629819D01*
X196730952Y-72629819D02*
X196635714Y-72582200D01*
X196635714Y-72582200D02*
X196588095Y-72534580D01*
X162239580Y-110016666D02*
X162287200Y-110064285D01*
X162287200Y-110064285D02*
X162334819Y-110207142D01*
X162334819Y-110207142D02*
X162334819Y-110302380D01*
X162334819Y-110302380D02*
X162287200Y-110445237D01*
X162287200Y-110445237D02*
X162191961Y-110540475D01*
X162191961Y-110540475D02*
X162096723Y-110588094D01*
X162096723Y-110588094D02*
X161906247Y-110635713D01*
X161906247Y-110635713D02*
X161763390Y-110635713D01*
X161763390Y-110635713D02*
X161572914Y-110588094D01*
X161572914Y-110588094D02*
X161477676Y-110540475D01*
X161477676Y-110540475D02*
X161382438Y-110445237D01*
X161382438Y-110445237D02*
X161334819Y-110302380D01*
X161334819Y-110302380D02*
X161334819Y-110207142D01*
X161334819Y-110207142D02*
X161382438Y-110064285D01*
X161382438Y-110064285D02*
X161430057Y-110016666D01*
X161334819Y-109111904D02*
X161334819Y-109588094D01*
X161334819Y-109588094D02*
X161811009Y-109635713D01*
X161811009Y-109635713D02*
X161763390Y-109588094D01*
X161763390Y-109588094D02*
X161715771Y-109492856D01*
X161715771Y-109492856D02*
X161715771Y-109254761D01*
X161715771Y-109254761D02*
X161763390Y-109159523D01*
X161763390Y-109159523D02*
X161811009Y-109111904D01*
X161811009Y-109111904D02*
X161906247Y-109064285D01*
X161906247Y-109064285D02*
X162144342Y-109064285D01*
X162144342Y-109064285D02*
X162239580Y-109111904D01*
X162239580Y-109111904D02*
X162287200Y-109159523D01*
X162287200Y-109159523D02*
X162334819Y-109254761D01*
X162334819Y-109254761D02*
X162334819Y-109492856D01*
X162334819Y-109492856D02*
X162287200Y-109588094D01*
X162287200Y-109588094D02*
X162239580Y-109635713D01*
X176363095Y-73219819D02*
X176363095Y-74029342D01*
X176363095Y-74029342D02*
X176410714Y-74124580D01*
X176410714Y-74124580D02*
X176458333Y-74172200D01*
X176458333Y-74172200D02*
X176553571Y-74219819D01*
X176553571Y-74219819D02*
X176744047Y-74219819D01*
X176744047Y-74219819D02*
X176839285Y-74172200D01*
X176839285Y-74172200D02*
X176886904Y-74124580D01*
X176886904Y-74124580D02*
X176934523Y-74029342D01*
X176934523Y-74029342D02*
X176934523Y-73219819D01*
X177363095Y-73315057D02*
X177410714Y-73267438D01*
X177410714Y-73267438D02*
X177505952Y-73219819D01*
X177505952Y-73219819D02*
X177744047Y-73219819D01*
X177744047Y-73219819D02*
X177839285Y-73267438D01*
X177839285Y-73267438D02*
X177886904Y-73315057D01*
X177886904Y-73315057D02*
X177934523Y-73410295D01*
X177934523Y-73410295D02*
X177934523Y-73505533D01*
X177934523Y-73505533D02*
X177886904Y-73648390D01*
X177886904Y-73648390D02*
X177315476Y-74219819D01*
X177315476Y-74219819D02*
X177934523Y-74219819D01*
X138000057Y-82457738D02*
X137952438Y-82552976D01*
X137952438Y-82552976D02*
X137857200Y-82648214D01*
X137857200Y-82648214D02*
X137714342Y-82791071D01*
X137714342Y-82791071D02*
X137666723Y-82886309D01*
X137666723Y-82886309D02*
X137666723Y-82981547D01*
X137904819Y-82933928D02*
X137857200Y-83029166D01*
X137857200Y-83029166D02*
X137761961Y-83124404D01*
X137761961Y-83124404D02*
X137571485Y-83172023D01*
X137571485Y-83172023D02*
X137238152Y-83172023D01*
X137238152Y-83172023D02*
X137047676Y-83124404D01*
X137047676Y-83124404D02*
X136952438Y-83029166D01*
X136952438Y-83029166D02*
X136904819Y-82933928D01*
X136904819Y-82933928D02*
X136904819Y-82743452D01*
X136904819Y-82743452D02*
X136952438Y-82648214D01*
X136952438Y-82648214D02*
X137047676Y-82552976D01*
X137047676Y-82552976D02*
X137238152Y-82505357D01*
X137238152Y-82505357D02*
X137571485Y-82505357D01*
X137571485Y-82505357D02*
X137761961Y-82552976D01*
X137761961Y-82552976D02*
X137857200Y-82648214D01*
X137857200Y-82648214D02*
X137904819Y-82743452D01*
X137904819Y-82743452D02*
X137904819Y-82933928D01*
X137000057Y-82124404D02*
X136952438Y-82076785D01*
X136952438Y-82076785D02*
X136904819Y-81981547D01*
X136904819Y-81981547D02*
X136904819Y-81743452D01*
X136904819Y-81743452D02*
X136952438Y-81648214D01*
X136952438Y-81648214D02*
X137000057Y-81600595D01*
X137000057Y-81600595D02*
X137095295Y-81552976D01*
X137095295Y-81552976D02*
X137190533Y-81552976D01*
X137190533Y-81552976D02*
X137333390Y-81600595D01*
X137333390Y-81600595D02*
X137904819Y-82172023D01*
X137904819Y-82172023D02*
X137904819Y-81552976D01*
X148554819Y-104229166D02*
X148078628Y-104562499D01*
X148554819Y-104800594D02*
X147554819Y-104800594D01*
X147554819Y-104800594D02*
X147554819Y-104419642D01*
X147554819Y-104419642D02*
X147602438Y-104324404D01*
X147602438Y-104324404D02*
X147650057Y-104276785D01*
X147650057Y-104276785D02*
X147745295Y-104229166D01*
X147745295Y-104229166D02*
X147888152Y-104229166D01*
X147888152Y-104229166D02*
X147983390Y-104276785D01*
X147983390Y-104276785D02*
X148031009Y-104324404D01*
X148031009Y-104324404D02*
X148078628Y-104419642D01*
X148078628Y-104419642D02*
X148078628Y-104800594D01*
X147983390Y-103657737D02*
X147935771Y-103752975D01*
X147935771Y-103752975D02*
X147888152Y-103800594D01*
X147888152Y-103800594D02*
X147792914Y-103848213D01*
X147792914Y-103848213D02*
X147745295Y-103848213D01*
X147745295Y-103848213D02*
X147650057Y-103800594D01*
X147650057Y-103800594D02*
X147602438Y-103752975D01*
X147602438Y-103752975D02*
X147554819Y-103657737D01*
X147554819Y-103657737D02*
X147554819Y-103467261D01*
X147554819Y-103467261D02*
X147602438Y-103372023D01*
X147602438Y-103372023D02*
X147650057Y-103324404D01*
X147650057Y-103324404D02*
X147745295Y-103276785D01*
X147745295Y-103276785D02*
X147792914Y-103276785D01*
X147792914Y-103276785D02*
X147888152Y-103324404D01*
X147888152Y-103324404D02*
X147935771Y-103372023D01*
X147935771Y-103372023D02*
X147983390Y-103467261D01*
X147983390Y-103467261D02*
X147983390Y-103657737D01*
X147983390Y-103657737D02*
X148031009Y-103752975D01*
X148031009Y-103752975D02*
X148078628Y-103800594D01*
X148078628Y-103800594D02*
X148173866Y-103848213D01*
X148173866Y-103848213D02*
X148364342Y-103848213D01*
X148364342Y-103848213D02*
X148459580Y-103800594D01*
X148459580Y-103800594D02*
X148507200Y-103752975D01*
X148507200Y-103752975D02*
X148554819Y-103657737D01*
X148554819Y-103657737D02*
X148554819Y-103467261D01*
X148554819Y-103467261D02*
X148507200Y-103372023D01*
X148507200Y-103372023D02*
X148459580Y-103324404D01*
X148459580Y-103324404D02*
X148364342Y-103276785D01*
X148364342Y-103276785D02*
X148173866Y-103276785D01*
X148173866Y-103276785D02*
X148078628Y-103324404D01*
X148078628Y-103324404D02*
X148031009Y-103372023D01*
X148031009Y-103372023D02*
X147983390Y-103467261D01*
X131934819Y-93274404D02*
X132744342Y-93274404D01*
X132744342Y-93274404D02*
X132839580Y-93226785D01*
X132839580Y-93226785D02*
X132887200Y-93179166D01*
X132887200Y-93179166D02*
X132934819Y-93083928D01*
X132934819Y-93083928D02*
X132934819Y-92893452D01*
X132934819Y-92893452D02*
X132887200Y-92798214D01*
X132887200Y-92798214D02*
X132839580Y-92750595D01*
X132839580Y-92750595D02*
X132744342Y-92702976D01*
X132744342Y-92702976D02*
X131934819Y-92702976D01*
X131934819Y-91798214D02*
X131934819Y-91988690D01*
X131934819Y-91988690D02*
X131982438Y-92083928D01*
X131982438Y-92083928D02*
X132030057Y-92131547D01*
X132030057Y-92131547D02*
X132172914Y-92226785D01*
X132172914Y-92226785D02*
X132363390Y-92274404D01*
X132363390Y-92274404D02*
X132744342Y-92274404D01*
X132744342Y-92274404D02*
X132839580Y-92226785D01*
X132839580Y-92226785D02*
X132887200Y-92179166D01*
X132887200Y-92179166D02*
X132934819Y-92083928D01*
X132934819Y-92083928D02*
X132934819Y-91893452D01*
X132934819Y-91893452D02*
X132887200Y-91798214D01*
X132887200Y-91798214D02*
X132839580Y-91750595D01*
X132839580Y-91750595D02*
X132744342Y-91702976D01*
X132744342Y-91702976D02*
X132506247Y-91702976D01*
X132506247Y-91702976D02*
X132411009Y-91750595D01*
X132411009Y-91750595D02*
X132363390Y-91798214D01*
X132363390Y-91798214D02*
X132315771Y-91893452D01*
X132315771Y-91893452D02*
X132315771Y-92083928D01*
X132315771Y-92083928D02*
X132363390Y-92179166D01*
X132363390Y-92179166D02*
X132411009Y-92226785D01*
X132411009Y-92226785D02*
X132506247Y-92274404D01*
X135483333Y-87367319D02*
X135150000Y-86891128D01*
X134911905Y-87367319D02*
X134911905Y-86367319D01*
X134911905Y-86367319D02*
X135292857Y-86367319D01*
X135292857Y-86367319D02*
X135388095Y-86414938D01*
X135388095Y-86414938D02*
X135435714Y-86462557D01*
X135435714Y-86462557D02*
X135483333Y-86557795D01*
X135483333Y-86557795D02*
X135483333Y-86700652D01*
X135483333Y-86700652D02*
X135435714Y-86795890D01*
X135435714Y-86795890D02*
X135388095Y-86843509D01*
X135388095Y-86843509D02*
X135292857Y-86891128D01*
X135292857Y-86891128D02*
X134911905Y-86891128D01*
X136340476Y-86367319D02*
X136150000Y-86367319D01*
X136150000Y-86367319D02*
X136054762Y-86414938D01*
X136054762Y-86414938D02*
X136007143Y-86462557D01*
X136007143Y-86462557D02*
X135911905Y-86605414D01*
X135911905Y-86605414D02*
X135864286Y-86795890D01*
X135864286Y-86795890D02*
X135864286Y-87176842D01*
X135864286Y-87176842D02*
X135911905Y-87272080D01*
X135911905Y-87272080D02*
X135959524Y-87319700D01*
X135959524Y-87319700D02*
X136054762Y-87367319D01*
X136054762Y-87367319D02*
X136245238Y-87367319D01*
X136245238Y-87367319D02*
X136340476Y-87319700D01*
X136340476Y-87319700D02*
X136388095Y-87272080D01*
X136388095Y-87272080D02*
X136435714Y-87176842D01*
X136435714Y-87176842D02*
X136435714Y-86938747D01*
X136435714Y-86938747D02*
X136388095Y-86843509D01*
X136388095Y-86843509D02*
X136340476Y-86795890D01*
X136340476Y-86795890D02*
X136245238Y-86748271D01*
X136245238Y-86748271D02*
X136054762Y-86748271D01*
X136054762Y-86748271D02*
X135959524Y-86795890D01*
X135959524Y-86795890D02*
X135911905Y-86843509D01*
X135911905Y-86843509D02*
X135864286Y-86938747D01*
D14*
%TO.C,SW2*%
X111850000Y-93345000D02*
X118310000Y-93345000D01*
X111850000Y-93375000D02*
X111850000Y-93345000D01*
X111850000Y-95275000D02*
X111850000Y-97875000D01*
X111850000Y-99805000D02*
X111850000Y-99775000D01*
X111850000Y-99805000D02*
X118310000Y-99805000D01*
X118310000Y-93345000D02*
X118310000Y-93375000D01*
X118310000Y-95275000D02*
X118310000Y-97875000D01*
X118310000Y-99805000D02*
X118310000Y-99775000D01*
%TO.C,SW6*%
X89848904Y-65903002D02*
X91112715Y-67580138D01*
X91389589Y-67083506D02*
X91528006Y-67267194D01*
X91389589Y-67083506D02*
X91820852Y-66758526D01*
X92677434Y-69656591D02*
X92984361Y-70063892D01*
X92699349Y-66096530D02*
X95414711Y-64050359D01*
X92984361Y-70063892D02*
X93399650Y-69750949D01*
X93092724Y-69343645D02*
X93399650Y-69750949D01*
X96014369Y-61256990D02*
X97278184Y-62934125D01*
X96293210Y-63388363D02*
X96724472Y-63063383D01*
X96724472Y-63063383D02*
X96862890Y-63247068D01*
X98427610Y-65323522D02*
X98734535Y-65730824D01*
X98734535Y-65730824D02*
X99149826Y-65417882D01*
X98842901Y-65010577D02*
X99149826Y-65417882D01*
%TO.C,SW3*%
X156670000Y-75170000D02*
X163130000Y-75170000D01*
X156670000Y-75200000D02*
X156670000Y-75170000D01*
X156670000Y-77100000D02*
X156670000Y-79700000D01*
X156670000Y-81630000D02*
X156670000Y-81600000D01*
X156670000Y-81630000D02*
X163130000Y-81630000D01*
X163130000Y-75170000D02*
X163130000Y-75200000D01*
X163130000Y-77100000D02*
X163130000Y-79700000D01*
X163130000Y-81630000D02*
X163130000Y-81600000D01*
%TO.C,D6*%
X111390000Y-60152500D02*
X111390000Y-64037500D01*
X111390000Y-64037500D02*
X113660000Y-64037500D01*
X113660000Y-64037500D02*
X113660000Y-60152500D01*
%TO.C,Q1*%
X134140000Y-82350000D02*
X134140000Y-81700000D01*
X134140000Y-82350000D02*
X134140000Y-83000000D01*
X137260000Y-82350000D02*
X137260000Y-81700000D01*
X137260000Y-82350000D02*
X137260000Y-83000000D01*
X134190000Y-83512500D02*
X133860000Y-83752500D01*
X133860000Y-83272500D01*
X134190000Y-83512500D01*
G36*
X134190000Y-83512500D02*
G01*
X133860000Y-83752500D01*
X133860000Y-83272500D01*
X134190000Y-83512500D01*
G37*
D15*
%TO.C,U1*%
X84030000Y-84182500D02*
X87180000Y-84182500D01*
X84030000Y-93982500D02*
X84030000Y-84182500D01*
X87180000Y-93982500D02*
X84030000Y-93982500D01*
X87180000Y-94252500D02*
X87180000Y-93982500D01*
X89060000Y-81082500D02*
X89680000Y-81082500D01*
X89680000Y-74782500D02*
X100580000Y-74782500D01*
X89680000Y-81082500D02*
X89680000Y-74782500D01*
X90280000Y-96982500D02*
X89060000Y-96982500D01*
X90280000Y-100182500D02*
X90280000Y-96982500D01*
X99980000Y-96982500D02*
X99980000Y-100182500D01*
X100580000Y-74782500D02*
X100580000Y-81082500D01*
X100580000Y-81082500D02*
X101210000Y-81082500D01*
X101210000Y-96982500D02*
X99980000Y-96982500D01*
X103080000Y-84982500D02*
X104630000Y-84982500D01*
X103080000Y-93082500D02*
X103080000Y-94202500D01*
X104630000Y-84982500D02*
X104630000Y-93082500D01*
X104630000Y-93082500D02*
X103080000Y-93082500D01*
D16*
X89180000Y-75732500D02*
G75*
G02*
X88980000Y-75732500I-100000J0D01*
G01*
X88980000Y-75732500D02*
G75*
G02*
X89180000Y-75732500I100000J0D01*
G01*
D14*
%TO.C,SW7*%
X175967187Y-65211864D02*
X176382478Y-65524808D01*
X176274112Y-64804561D02*
X175967187Y-65211864D01*
X176689404Y-65117503D02*
X176382478Y-65524808D01*
X178392539Y-62857364D02*
X178254122Y-63041050D01*
X178392539Y-62857364D02*
X178823802Y-63182345D01*
X179102643Y-61050973D02*
X177838831Y-62728108D01*
X179702301Y-63844341D02*
X182417663Y-65890514D01*
X181717362Y-69544933D02*
X182132653Y-69857876D01*
X182024289Y-69137629D02*
X181717362Y-69544933D01*
X182439579Y-69450571D02*
X182132653Y-69857876D01*
X183296160Y-66552510D02*
X183727425Y-66877489D01*
X183727425Y-66877489D02*
X183589007Y-67061176D01*
X185268110Y-65696985D02*
X184004298Y-67374119D01*
%TO.C,D7*%
X113640000Y-60152500D02*
X113640000Y-64037500D01*
X113640000Y-64037500D02*
X115910000Y-64037500D01*
X115910000Y-64037500D02*
X115910000Y-60152500D01*
%TO.C,R7*%
X140064564Y-84515000D02*
X139610436Y-84515000D01*
X140064564Y-85985000D02*
X139610436Y-85985000D01*
%TO.C,R9*%
X131314564Y-80565000D02*
X130860436Y-80565000D01*
X131314564Y-82035000D02*
X130860436Y-82035000D01*
%TO.C,D9*%
X118140000Y-60152500D02*
X118140000Y-64037500D01*
X118140000Y-64037500D02*
X120410000Y-64037500D01*
X120410000Y-64037500D02*
X120410000Y-60152500D01*
%TO.C,D8*%
X115890000Y-60152500D02*
X115890000Y-64037500D01*
X115890000Y-64037500D02*
X118160000Y-64037500D01*
X118160000Y-64037500D02*
X118160000Y-60152500D01*
%TO.C,SW5*%
X156715000Y-93345000D02*
X156715000Y-93375000D01*
X156715000Y-97875000D02*
X156715000Y-95275000D01*
X156715000Y-99805000D02*
X156715000Y-99775000D01*
X163175000Y-93345000D02*
X156715000Y-93345000D01*
X163175000Y-93345000D02*
X163175000Y-93375000D01*
X163175000Y-97875000D02*
X163175000Y-95275000D01*
X163175000Y-99775000D02*
X163175000Y-99805000D01*
X163175000Y-99805000D02*
X156715000Y-99805000D01*
%TO.C,D5*%
X109140000Y-60152500D02*
X109140000Y-64037500D01*
X109140000Y-64037500D02*
X111410000Y-64037500D01*
X111410000Y-64037500D02*
X111410000Y-60152500D01*
%TO.C,D10*%
X135813748Y-76690000D02*
X136336252Y-76690000D01*
X135813748Y-78160000D02*
X136336252Y-78160000D01*
D17*
%TO.C,G\u002A\u002A\u002A*%
G36*
X155710701Y-64862841D02*
G01*
X155699135Y-64874407D01*
X155687568Y-64862841D01*
X155699135Y-64851274D01*
X155710701Y-64862841D01*
G37*
G36*
X155849499Y-65394899D02*
G01*
X155837933Y-65406466D01*
X155826366Y-65394899D01*
X155837933Y-65383333D01*
X155849499Y-65394899D01*
G37*
G36*
X156080829Y-65487431D02*
G01*
X156069262Y-65498998D01*
X156057696Y-65487431D01*
X156069262Y-65475865D01*
X156080829Y-65487431D01*
G37*
G36*
X156196494Y-62711475D02*
G01*
X156184927Y-62723041D01*
X156173361Y-62711475D01*
X156184927Y-62699908D01*
X156196494Y-62711475D01*
G37*
G36*
X156312158Y-65579963D02*
G01*
X156300592Y-65591529D01*
X156289025Y-65579963D01*
X156300592Y-65568396D01*
X156312158Y-65579963D01*
G37*
G36*
X156335291Y-64492713D02*
G01*
X156323725Y-64504280D01*
X156312158Y-64492713D01*
X156323725Y-64481147D01*
X156335291Y-64492713D01*
G37*
G36*
X156589754Y-65695628D02*
G01*
X156578188Y-65707194D01*
X156566621Y-65695628D01*
X156578188Y-65684061D01*
X156589754Y-65695628D01*
G37*
G36*
X156705419Y-65788160D02*
G01*
X156693852Y-65799726D01*
X156682286Y-65788160D01*
X156693852Y-65776593D01*
X156705419Y-65788160D01*
G37*
G36*
X156797951Y-66944808D02*
G01*
X156786384Y-66956375D01*
X156774818Y-66944808D01*
X156786384Y-66933242D01*
X156797951Y-66944808D01*
G37*
G36*
X156890483Y-62480145D02*
G01*
X156878916Y-62491712D01*
X156867350Y-62480145D01*
X156878916Y-62468579D01*
X156890483Y-62480145D01*
G37*
G36*
X156959882Y-62457012D02*
G01*
X156948315Y-62468579D01*
X156936749Y-62457012D01*
X156948315Y-62445446D01*
X156959882Y-62457012D01*
G37*
G36*
X156983015Y-63382331D02*
G01*
X156971448Y-63393897D01*
X156959882Y-63382331D01*
X156971448Y-63370764D01*
X156983015Y-63382331D01*
G37*
G36*
X156983015Y-64284517D02*
G01*
X156971448Y-64296083D01*
X156959882Y-64284517D01*
X156971448Y-64272950D01*
X156983015Y-64284517D01*
G37*
G36*
X157029280Y-63405464D02*
G01*
X157017714Y-63417030D01*
X157006147Y-63405464D01*
X157017714Y-63393897D01*
X157029280Y-63405464D01*
G37*
G36*
X157098679Y-66042622D02*
G01*
X157087113Y-66054189D01*
X157075546Y-66042622D01*
X157087113Y-66031056D01*
X157098679Y-66042622D01*
G37*
G36*
X157491940Y-64099453D02*
G01*
X157480373Y-64111019D01*
X157468807Y-64099453D01*
X157480373Y-64087886D01*
X157491940Y-64099453D01*
G37*
G36*
X157491940Y-67199271D02*
G01*
X157480373Y-67210837D01*
X157468807Y-67199271D01*
X157480373Y-67187704D01*
X157491940Y-67199271D01*
G37*
G36*
X157538206Y-67222404D02*
G01*
X157526639Y-67233970D01*
X157515073Y-67222404D01*
X157526639Y-67210837D01*
X157538206Y-67222404D01*
G37*
G36*
X157584472Y-64284517D02*
G01*
X157572905Y-64296083D01*
X157561339Y-64284517D01*
X157572905Y-64272950D01*
X157584472Y-64284517D01*
G37*
G36*
X158417259Y-62572677D02*
G01*
X158405692Y-62584243D01*
X158394126Y-62572677D01*
X158405692Y-62561110D01*
X158417259Y-62572677D01*
G37*
G36*
X158717987Y-61346630D02*
G01*
X158706421Y-61358196D01*
X158694854Y-61346630D01*
X158706421Y-61335063D01*
X158717987Y-61346630D01*
G37*
G36*
X159411976Y-61462294D02*
G01*
X159400410Y-61473861D01*
X159388843Y-61462294D01*
X159400410Y-61450728D01*
X159411976Y-61462294D01*
G37*
G36*
X160198497Y-67523132D02*
G01*
X160186931Y-67534699D01*
X160175364Y-67523132D01*
X160186931Y-67511566D01*
X160198497Y-67523132D01*
G37*
G36*
X160753688Y-62572677D02*
G01*
X160742122Y-62584243D01*
X160730556Y-62572677D01*
X160742122Y-62561110D01*
X160753688Y-62572677D01*
G37*
G36*
X160776821Y-62618943D02*
G01*
X160765255Y-62630509D01*
X160753688Y-62618943D01*
X160765255Y-62607376D01*
X160776821Y-62618943D01*
G37*
G36*
X160823087Y-62711475D02*
G01*
X160811521Y-62723041D01*
X160799954Y-62711475D01*
X160811521Y-62699908D01*
X160823087Y-62711475D01*
G37*
G36*
X160938752Y-68980509D02*
G01*
X160927186Y-68992076D01*
X160915619Y-68980509D01*
X160927186Y-68968943D01*
X160938752Y-68980509D01*
G37*
G36*
X160961885Y-63151001D02*
G01*
X160950319Y-63162568D01*
X160938752Y-63151001D01*
X160950319Y-63139435D01*
X160961885Y-63151001D01*
G37*
G36*
X161031284Y-68818579D02*
G01*
X161019718Y-68830145D01*
X161008151Y-68818579D01*
X161019718Y-68807012D01*
X161031284Y-68818579D01*
G37*
G36*
X161170082Y-66528415D02*
G01*
X161158515Y-66539981D01*
X161146949Y-66528415D01*
X161158515Y-66516848D01*
X161170082Y-66528415D01*
G37*
G36*
X161193215Y-63544262D02*
G01*
X161181648Y-63555828D01*
X161170082Y-63544262D01*
X161181648Y-63532695D01*
X161193215Y-63544262D01*
G37*
G36*
X161216348Y-66482149D02*
G01*
X161204781Y-66493715D01*
X161193215Y-66482149D01*
X161204781Y-66470582D01*
X161216348Y-66482149D01*
G37*
G36*
X161239481Y-67546265D02*
G01*
X161227914Y-67557832D01*
X161216348Y-67546265D01*
X161227914Y-67534699D01*
X161239481Y-67546265D01*
G37*
G36*
X161470811Y-63636794D02*
G01*
X161459244Y-63648360D01*
X161447678Y-63636794D01*
X161459244Y-63625227D01*
X161470811Y-63636794D01*
G37*
G36*
X161540209Y-63683059D02*
G01*
X161528643Y-63694626D01*
X161517076Y-63683059D01*
X161528643Y-63671493D01*
X161540209Y-63683059D01*
G37*
G36*
X161864071Y-67014207D02*
G01*
X161852505Y-67025773D01*
X161840938Y-67014207D01*
X161852505Y-67002641D01*
X161864071Y-67014207D01*
G37*
G36*
X161910337Y-67060473D02*
G01*
X161898770Y-67072039D01*
X161887204Y-67060473D01*
X161898770Y-67048906D01*
X161910337Y-67060473D01*
G37*
G36*
X161979736Y-64006921D02*
G01*
X161968169Y-64018488D01*
X161956603Y-64006921D01*
X161968169Y-63995355D01*
X161979736Y-64006921D01*
G37*
G36*
X163367714Y-67870127D02*
G01*
X163356147Y-67881693D01*
X163344581Y-67870127D01*
X163356147Y-67858560D01*
X163367714Y-67870127D01*
G37*
G36*
X163714709Y-65209835D02*
G01*
X163703142Y-65221402D01*
X163691576Y-65209835D01*
X163703142Y-65198269D01*
X163714709Y-65209835D01*
G37*
G36*
X163760974Y-65209835D02*
G01*
X163749408Y-65221402D01*
X163737841Y-65209835D01*
X163749408Y-65198269D01*
X163760974Y-65209835D01*
G37*
G36*
X163784107Y-66112021D02*
G01*
X163772541Y-66123588D01*
X163760974Y-66112021D01*
X163772541Y-66100455D01*
X163784107Y-66112021D01*
G37*
G36*
X163784107Y-66389617D02*
G01*
X163772541Y-66401183D01*
X163760974Y-66389617D01*
X163772541Y-66378050D01*
X163784107Y-66389617D01*
G37*
G36*
X163946038Y-66042622D02*
G01*
X163934472Y-66054189D01*
X163922905Y-66042622D01*
X163934472Y-66031056D01*
X163946038Y-66042622D01*
G37*
G36*
X164107969Y-65950090D02*
G01*
X164096403Y-65961657D01*
X164084836Y-65950090D01*
X164096403Y-65938524D01*
X164107969Y-65950090D01*
G37*
G36*
X164223634Y-66482149D02*
G01*
X164212067Y-66493715D01*
X164200501Y-66482149D01*
X164212067Y-66470582D01*
X164223634Y-66482149D01*
G37*
G36*
X164339299Y-65371766D02*
G01*
X164327732Y-65383333D01*
X164316166Y-65371766D01*
X164327732Y-65360200D01*
X164339299Y-65371766D01*
G37*
G36*
X164385565Y-65811293D02*
G01*
X164373998Y-65822859D01*
X164362432Y-65811293D01*
X164373998Y-65799726D01*
X164385565Y-65811293D01*
G37*
G36*
X164501229Y-65441165D02*
G01*
X164489663Y-65452732D01*
X164478096Y-65441165D01*
X164489663Y-65429599D01*
X164501229Y-65441165D01*
G37*
G36*
X165796676Y-73260109D02*
G01*
X165785109Y-73271675D01*
X165773543Y-73260109D01*
X165785109Y-73248542D01*
X165796676Y-73260109D01*
G37*
G36*
X166028005Y-73005646D02*
G01*
X166016439Y-73017212D01*
X166004872Y-73005646D01*
X166016439Y-72994079D01*
X166028005Y-73005646D01*
G37*
G36*
X166467532Y-73930965D02*
G01*
X166455965Y-73942531D01*
X166444399Y-73930965D01*
X166455965Y-73919398D01*
X166467532Y-73930965D01*
G37*
G36*
X156420112Y-65622373D02*
G01*
X156416937Y-65636126D01*
X156404690Y-65637795D01*
X156385649Y-65629331D01*
X156389268Y-65622373D01*
X156416722Y-65619605D01*
X156420112Y-65622373D01*
G37*
G36*
X158085686Y-62476290D02*
G01*
X158082511Y-62490042D01*
X158070264Y-62491712D01*
X158051223Y-62483248D01*
X158054842Y-62476290D01*
X158082296Y-62473521D01*
X158085686Y-62476290D01*
G37*
G36*
X158941606Y-62892683D02*
G01*
X158938430Y-62906436D01*
X158926184Y-62908105D01*
X158907143Y-62899641D01*
X158910762Y-62892683D01*
X158938215Y-62889914D01*
X158941606Y-62892683D01*
G37*
G36*
X159080404Y-68907255D02*
G01*
X159083172Y-68934708D01*
X159080404Y-68938099D01*
X159066651Y-68934923D01*
X159064982Y-68922677D01*
X159073446Y-68903636D01*
X159080404Y-68907255D01*
G37*
G36*
X159103917Y-68987738D02*
G01*
X159106675Y-69023892D01*
X159102091Y-69032077D01*
X159091577Y-69025177D01*
X159089941Y-69001715D01*
X159095591Y-68977031D01*
X159103917Y-68987738D01*
G37*
G36*
X160190786Y-67357346D02*
G01*
X160193555Y-67384799D01*
X160190786Y-67388190D01*
X160177034Y-67385015D01*
X160175364Y-67372768D01*
X160183828Y-67353727D01*
X160190786Y-67357346D01*
G37*
G36*
X161439967Y-67149149D02*
G01*
X161442735Y-67176603D01*
X161439967Y-67179993D01*
X161426214Y-67176818D01*
X161424545Y-67164571D01*
X161433009Y-67145530D01*
X161439967Y-67149149D01*
G37*
G36*
X161463480Y-67067702D02*
G01*
X161466238Y-67103856D01*
X161461654Y-67112040D01*
X161451140Y-67105141D01*
X161449504Y-67081678D01*
X161455153Y-67056994D01*
X161463480Y-67067702D01*
G37*
G36*
X161811540Y-67474457D02*
G01*
X161804641Y-67484971D01*
X161781178Y-67486607D01*
X161756494Y-67480957D01*
X161767202Y-67472630D01*
X161803356Y-67469873D01*
X161811540Y-67474457D01*
G37*
G36*
X162434684Y-65067182D02*
G01*
X162437453Y-65094636D01*
X162434684Y-65098026D01*
X162420932Y-65094851D01*
X162419262Y-65082604D01*
X162427726Y-65063563D01*
X162434684Y-65067182D01*
G37*
G36*
X162689147Y-65205980D02*
G01*
X162685971Y-65219732D01*
X162673725Y-65221402D01*
X162654684Y-65212938D01*
X162658303Y-65205980D01*
X162685756Y-65203211D01*
X162689147Y-65205980D01*
G37*
G36*
X163452535Y-66246964D02*
G01*
X163449359Y-66260716D01*
X163437113Y-66262386D01*
X163418072Y-66253922D01*
X163421691Y-66246964D01*
X163449144Y-66244195D01*
X163452535Y-66246964D01*
G37*
G36*
X163892061Y-66894687D02*
G01*
X163888886Y-66908439D01*
X163876639Y-66910109D01*
X163857598Y-66901645D01*
X163861217Y-66894687D01*
X163888671Y-66891918D01*
X163892061Y-66894687D01*
G37*
G36*
X164400987Y-65391044D02*
G01*
X164397811Y-65404796D01*
X164385565Y-65406466D01*
X164366524Y-65398002D01*
X164370143Y-65391044D01*
X164397596Y-65388275D01*
X164400987Y-65391044D01*
G37*
G36*
X162138092Y-64189776D02*
G01*
X162162732Y-64211280D01*
X162164800Y-64216483D01*
X162153821Y-64225991D01*
X162130964Y-64204686D01*
X162127891Y-64199977D01*
X162125165Y-64184147D01*
X162138092Y-64189776D01*
G37*
G36*
X164257132Y-65328240D02*
G01*
X164289693Y-65346908D01*
X164284238Y-65358978D01*
X164271265Y-65360200D01*
X164239896Y-65343399D01*
X164235364Y-65337332D01*
X164239088Y-65324186D01*
X164257132Y-65328240D01*
G37*
G36*
X158785604Y-66922733D02*
G01*
X158787386Y-66930511D01*
X158770505Y-66963214D01*
X158764253Y-66967941D01*
X158742902Y-66966884D01*
X158741120Y-66959105D01*
X158758002Y-66926402D01*
X158764253Y-66921675D01*
X158785604Y-66922733D01*
G37*
G36*
X160326317Y-61920647D02*
G01*
X160343078Y-61933570D01*
X160379043Y-61967335D01*
X160378886Y-61982406D01*
X160374827Y-61982786D01*
X160355517Y-61966978D01*
X160334344Y-61942304D01*
X160314338Y-61914903D01*
X160326317Y-61920647D01*
G37*
G36*
X160422398Y-69094862D02*
G01*
X160406694Y-69107741D01*
X160364522Y-69127315D01*
X160348862Y-69130165D01*
X160344724Y-69120619D01*
X160360428Y-69107741D01*
X160402600Y-69088166D01*
X160418260Y-69085316D01*
X160422398Y-69094862D01*
G37*
G36*
X161170082Y-68528603D02*
G01*
X161151857Y-68555096D01*
X161118033Y-68578235D01*
X161082757Y-68595653D01*
X161081883Y-68588664D01*
X161110052Y-68555915D01*
X161148713Y-68515885D01*
X161166389Y-68509609D01*
X161170082Y-68528603D01*
G37*
G36*
X161255354Y-68425907D02*
G01*
X161242432Y-68442668D01*
X161208667Y-68478632D01*
X161193595Y-68478476D01*
X161193215Y-68474417D01*
X161209023Y-68455107D01*
X161233698Y-68433934D01*
X161261098Y-68413927D01*
X161255354Y-68425907D01*
G37*
G36*
X161354437Y-67384334D02*
G01*
X161342919Y-67422351D01*
X161332013Y-67442167D01*
X161313683Y-67460683D01*
X161309588Y-67453733D01*
X161321106Y-67415717D01*
X161332013Y-67395901D01*
X161350343Y-67377385D01*
X161354437Y-67384334D01*
G37*
G36*
X166050476Y-72733087D02*
G01*
X166051138Y-72738252D01*
X166034323Y-72769581D01*
X166028005Y-72774316D01*
X166008201Y-72769072D01*
X166004872Y-72752549D01*
X166016950Y-72720898D01*
X166028005Y-72716484D01*
X166050476Y-72733087D01*
G37*
G36*
X158694243Y-66868651D02*
G01*
X158694500Y-66881192D01*
X158686069Y-66921808D01*
X158671721Y-66933242D01*
X158649505Y-66919958D01*
X158648943Y-66915892D01*
X158660501Y-66883454D01*
X158671721Y-66863843D01*
X158688595Y-66845675D01*
X158694243Y-66868651D01*
G37*
G36*
X160273536Y-68582960D02*
G01*
X160302596Y-68598815D01*
X160290910Y-68612829D01*
X160238768Y-68620500D01*
X160194079Y-68621594D01*
X160124397Y-68618898D01*
X160097465Y-68610775D01*
X160105965Y-68598815D01*
X160154579Y-68582009D01*
X160217151Y-68576724D01*
X160273536Y-68582960D01*
G37*
G36*
X160540138Y-67549961D02*
G01*
X160573581Y-67572336D01*
X160626532Y-67586978D01*
X160695856Y-67597166D01*
X160624529Y-67600632D01*
X160569523Y-67598535D01*
X160537781Y-67588676D01*
X160522921Y-67553176D01*
X160522713Y-67548193D01*
X160530413Y-67537797D01*
X160540138Y-67549961D01*
G37*
G36*
X160824838Y-68789662D02*
G01*
X160782102Y-68831629D01*
X160749406Y-68852698D01*
X160745801Y-68853278D01*
X160730716Y-68849094D01*
X160732483Y-68847495D01*
X160754831Y-68830311D01*
X160798297Y-68794859D01*
X160811521Y-68783879D01*
X160880920Y-68726047D01*
X160824838Y-68789662D01*
G37*
G36*
X161037730Y-68624959D02*
G01*
X160995460Y-68660926D01*
X160969493Y-68681232D01*
X160923569Y-68713711D01*
X160900477Y-68724820D01*
X160900793Y-68719754D01*
X160925117Y-68693813D01*
X160966185Y-68659649D01*
X161010387Y-68627333D01*
X161044117Y-68606935D01*
X161054417Y-68606061D01*
X161037730Y-68624959D01*
G37*
G36*
X161050966Y-67562585D02*
G01*
X161071767Y-67563961D01*
X161097377Y-67567509D01*
X161081013Y-67570355D01*
X161026963Y-67572159D01*
X160961885Y-67572625D01*
X160881580Y-67571861D01*
X160835636Y-67569793D01*
X160828343Y-67566760D01*
X160852004Y-67563961D01*
X160949009Y-67560429D01*
X161050966Y-67562585D01*
G37*
G36*
X161416300Y-67218015D02*
G01*
X161415859Y-67243411D01*
X161402548Y-67288115D01*
X161384162Y-67330674D01*
X161368491Y-67349635D01*
X161368488Y-67349635D01*
X161367654Y-67330699D01*
X161380271Y-67284559D01*
X161382157Y-67279055D01*
X161401382Y-67233744D01*
X161415421Y-67217465D01*
X161416300Y-67218015D01*
G37*
G36*
X162332514Y-72199998D02*
G01*
X162371300Y-72213207D01*
X162437425Y-72226218D01*
X162477095Y-72231625D01*
X162592760Y-72244948D01*
X162448136Y-72255170D01*
X162368689Y-72259289D01*
X162324961Y-72255916D01*
X162306706Y-72242810D01*
X162303555Y-72223543D01*
X162313660Y-72195151D01*
X162332514Y-72199998D01*
G37*
G36*
X155493002Y-65027730D02*
G01*
X155463270Y-65063446D01*
X155456239Y-65071038D01*
X155416660Y-65109944D01*
X155391740Y-65128591D01*
X155390341Y-65128870D01*
X155396342Y-65114345D01*
X155426074Y-65078629D01*
X155433106Y-65071038D01*
X155472684Y-65032131D01*
X155497604Y-65013484D01*
X155499003Y-65013205D01*
X155493002Y-65027730D01*
G37*
G36*
X160282598Y-68370294D02*
G01*
X160336793Y-68378359D01*
X160348862Y-68390619D01*
X160320354Y-68401767D01*
X160258179Y-68409970D01*
X160174911Y-68413679D01*
X160161067Y-68413752D01*
X160068130Y-68410943D01*
X160013935Y-68402878D01*
X160001867Y-68390619D01*
X160030374Y-68379471D01*
X160092550Y-68371268D01*
X160175818Y-68367559D01*
X160189661Y-68367486D01*
X160282598Y-68370294D01*
G37*
G36*
X160915619Y-67723267D02*
G01*
X161008698Y-67725584D01*
X161056301Y-67729062D01*
X161059199Y-67733440D01*
X161018161Y-67738461D01*
X160933956Y-67743865D01*
X160842051Y-67748049D01*
X160762494Y-67749368D01*
X160708693Y-67746532D01*
X160689618Y-67740151D01*
X160691686Y-67737835D01*
X160726198Y-67730191D01*
X160794280Y-67724986D01*
X160883262Y-67723043D01*
X160915619Y-67723267D01*
G37*
G36*
X161904144Y-67300663D02*
G01*
X161909294Y-67311318D01*
X161899454Y-67349693D01*
X161877121Y-67405478D01*
X161876207Y-67407467D01*
X161844164Y-67476866D01*
X161857785Y-67397802D01*
X161863770Y-67346011D01*
X161854038Y-67329018D01*
X161831838Y-67333921D01*
X161804900Y-67337859D01*
X161804677Y-67329029D01*
X161833922Y-67306277D01*
X161873868Y-67295672D01*
X161904144Y-67300663D01*
G37*
G36*
X166065947Y-72868886D02*
G01*
X166092539Y-72902353D01*
X166109311Y-72958180D01*
X166098807Y-72989101D01*
X166080438Y-73014936D01*
X166073539Y-72997558D01*
X166072235Y-72982513D01*
X166070598Y-72935940D01*
X166071532Y-72918897D01*
X166056805Y-72902094D01*
X166051138Y-72901548D01*
X166028678Y-72883944D01*
X166028005Y-72878415D01*
X166039092Y-72856088D01*
X166065947Y-72868886D01*
G37*
G36*
X158098866Y-66712613D02*
G01*
X158091211Y-66757687D01*
X158087047Y-66769374D01*
X158073283Y-66838897D01*
X158082367Y-66926327D01*
X158087163Y-66948620D01*
X158103319Y-67027219D01*
X158105683Y-67061989D01*
X158094185Y-67053287D01*
X158074175Y-67013552D01*
X158045173Y-66929093D01*
X158030932Y-66843540D01*
X158032973Y-66772419D01*
X158047027Y-66736737D01*
X158082810Y-66704547D01*
X158098866Y-66712613D01*
G37*
G36*
X158372981Y-67258173D02*
G01*
X158374747Y-67262886D01*
X158408314Y-67313929D01*
X158459669Y-67329652D01*
X158500075Y-67332627D01*
X158496083Y-67337185D01*
X158467539Y-67343060D01*
X158428086Y-67362432D01*
X158426330Y-67386175D01*
X158434704Y-67417211D01*
X158425022Y-67413609D01*
X158402748Y-67380573D01*
X158384253Y-67346081D01*
X158359864Y-67286151D01*
X158349645Y-67238818D01*
X158349686Y-67236199D01*
X158357179Y-67228178D01*
X158372981Y-67258173D01*
G37*
G36*
X159435348Y-67624985D02*
G01*
X159534018Y-67644223D01*
X159627395Y-67668288D01*
X159699996Y-67693863D01*
X159728264Y-67709384D01*
X159756467Y-67733329D01*
X159758971Y-67739837D01*
X159732149Y-67734307D01*
X159673139Y-67721366D01*
X159597040Y-67704340D01*
X159459845Y-67684009D01*
X159301113Y-67677673D01*
X159244262Y-67679087D01*
X159145473Y-67680792D01*
X159077655Y-67677026D01*
X159044254Y-67668988D01*
X159048714Y-67657873D01*
X159094479Y-67644881D01*
X159128597Y-67638877D01*
X159207799Y-67626397D01*
X159280982Y-67614748D01*
X159284065Y-67614253D01*
X159346869Y-67613890D01*
X159435348Y-67624985D01*
G37*
G36*
X158617407Y-67309961D02*
G01*
X158638375Y-67339099D01*
X158667374Y-67398670D01*
X158699199Y-67475131D01*
X158728646Y-67554936D01*
X158750511Y-67624540D01*
X158759589Y-67670399D01*
X158758859Y-67678112D01*
X158746258Y-67673690D01*
X158722499Y-67634636D01*
X158694789Y-67574174D01*
X158657410Y-67492767D01*
X158627365Y-67452002D01*
X158599665Y-67447923D01*
X158570173Y-67475464D01*
X158545051Y-67497130D01*
X158518753Y-67479952D01*
X158514662Y-67475464D01*
X158497452Y-67449180D01*
X158517979Y-67442204D01*
X158522004Y-67442167D01*
X158547390Y-67431140D01*
X158543114Y-67391576D01*
X158542712Y-67390299D01*
X158534654Y-67355325D01*
X158548554Y-67357478D01*
X158560631Y-67366965D01*
X158598823Y-67384224D01*
X158614834Y-67363836D01*
X158608364Y-67332012D01*
X158606569Y-67307854D01*
X158617407Y-67309961D01*
G37*
G36*
X161835890Y-67108874D02*
G01*
X161845020Y-67117143D01*
X161894056Y-67156174D01*
X161923166Y-67158813D01*
X161940247Y-67125634D01*
X161940657Y-67124089D01*
X161948253Y-67115739D01*
X161953414Y-67147066D01*
X161953919Y-67157423D01*
X161949217Y-67212891D01*
X161934152Y-67245082D01*
X161933470Y-67245537D01*
X161913541Y-67240446D01*
X161910337Y-67224583D01*
X161893345Y-67189333D01*
X161854981Y-67160449D01*
X161814159Y-67149072D01*
X161794983Y-67156645D01*
X161777079Y-67189652D01*
X161754397Y-67247959D01*
X161747865Y-67267558D01*
X161731639Y-67329163D01*
X161734590Y-67359800D01*
X161746693Y-67368342D01*
X161753566Y-67385676D01*
X161724905Y-67412642D01*
X161688042Y-67457333D01*
X161686195Y-67490288D01*
X161680497Y-67539004D01*
X161665053Y-67559814D01*
X161638912Y-67573983D01*
X161632741Y-67553526D01*
X161640224Y-67517887D01*
X161660219Y-67450882D01*
X161689045Y-67364483D01*
X161702953Y-67325147D01*
X161735528Y-67234446D01*
X161762684Y-67158649D01*
X161780185Y-67109585D01*
X161783638Y-67099794D01*
X161800782Y-67086569D01*
X161835890Y-67108874D01*
G37*
G36*
X160129944Y-67902022D02*
G01*
X160131260Y-67953812D01*
X160126163Y-68023266D01*
X160116250Y-68096588D01*
X160103120Y-68159981D01*
X160088371Y-68199650D01*
X160083123Y-68205375D01*
X160062920Y-68227376D01*
X160078798Y-68258475D01*
X160081833Y-68262183D01*
X160105495Y-68298468D01*
X160097458Y-68308095D01*
X160063315Y-68291793D01*
X160011985Y-68253112D01*
X159964042Y-68208617D01*
X159948067Y-68177936D01*
X159950476Y-68170855D01*
X160013433Y-68170855D01*
X160025000Y-68182422D01*
X160036566Y-68170855D01*
X160025000Y-68159289D01*
X160013433Y-68170855D01*
X159950476Y-68170855D01*
X159958142Y-68148325D01*
X159961178Y-68143710D01*
X159979973Y-68113023D01*
X160048133Y-68113023D01*
X160049967Y-68134340D01*
X160058334Y-68136156D01*
X160081891Y-68119364D01*
X160082832Y-68113023D01*
X160074940Y-68090491D01*
X160072631Y-68089890D01*
X160052881Y-68106100D01*
X160048133Y-68113023D01*
X159979973Y-68113023D01*
X159988453Y-68099177D01*
X160026225Y-68032385D01*
X160048316Y-67991575D01*
X160083147Y-67930503D01*
X160110419Y-67890607D01*
X160120616Y-67881693D01*
X160129944Y-67902022D01*
G37*
G36*
X166177718Y-73182469D02*
G01*
X166178638Y-73250177D01*
X166177530Y-73263085D01*
X166179623Y-73321153D01*
X166198319Y-73341074D01*
X166222242Y-73358953D01*
X166229221Y-73396649D01*
X166217427Y-73430252D01*
X166205707Y-73437611D01*
X166167185Y-73440882D01*
X166102632Y-73439952D01*
X166074271Y-73438395D01*
X165984724Y-73420440D01*
X165932403Y-73378523D01*
X165912758Y-73308565D01*
X165912613Y-73303248D01*
X165963820Y-73303248D01*
X165982553Y-73342595D01*
X166009012Y-73381670D01*
X166023715Y-73376141D01*
X166028005Y-73329508D01*
X166015940Y-73282994D01*
X166014606Y-73282327D01*
X166054997Y-73282327D01*
X166062556Y-73317471D01*
X166088302Y-73353567D01*
X166119312Y-73349805D01*
X166139597Y-73310171D01*
X166127847Y-73270102D01*
X166109683Y-73257181D01*
X166067081Y-73252370D01*
X166054997Y-73282327D01*
X166014606Y-73282327D01*
X165993306Y-73271675D01*
X165963969Y-73277805D01*
X165963820Y-73303248D01*
X165912613Y-73303248D01*
X165912341Y-73293235D01*
X165918846Y-73253957D01*
X165945218Y-73223815D01*
X166001743Y-73193007D01*
X166031182Y-73179983D01*
X166110430Y-73151029D01*
X166157129Y-73150639D01*
X166177718Y-73182469D01*
G37*
G36*
X165927565Y-72196177D02*
G01*
X165935456Y-72226945D01*
X165935474Y-72229226D01*
X165940700Y-72271683D01*
X165954604Y-72345303D01*
X165974525Y-72436394D01*
X165981577Y-72466339D01*
X166005941Y-72568977D01*
X166020251Y-72634815D01*
X166025345Y-72672020D01*
X166022061Y-72688757D01*
X166011238Y-72693192D01*
X166004872Y-72693351D01*
X165988857Y-72673192D01*
X165981759Y-72624376D01*
X165981739Y-72621377D01*
X165979070Y-72575096D01*
X165962145Y-72557999D01*
X165917589Y-72561488D01*
X165894991Y-72565608D01*
X165838461Y-72576879D01*
X165806713Y-72584574D01*
X165804564Y-72585532D01*
X165805788Y-72610668D01*
X165817233Y-72668031D01*
X165835715Y-72745566D01*
X165858049Y-72831219D01*
X165881050Y-72912936D01*
X165901534Y-72978663D01*
X165916315Y-73016346D01*
X165919525Y-73020661D01*
X165932591Y-73052036D01*
X165929114Y-73069819D01*
X165932732Y-73096513D01*
X165971587Y-73103961D01*
X166009337Y-73095993D01*
X166012222Y-73079789D01*
X166014771Y-73065804D01*
X166039711Y-73071897D01*
X166082497Y-73073869D01*
X166098446Y-73061792D01*
X166120377Y-73049701D01*
X166128321Y-73057358D01*
X166116148Y-73077317D01*
X166071123Y-73108261D01*
X166005382Y-73142330D01*
X165933263Y-73180621D01*
X165880165Y-73218168D01*
X165858934Y-73244296D01*
X165848435Y-73255233D01*
X165834848Y-73221449D01*
X165831413Y-73207578D01*
X165811937Y-73147449D01*
X165792234Y-73120636D01*
X165777738Y-73130894D01*
X165773543Y-73167577D01*
X165766348Y-73207778D01*
X165750410Y-73213843D01*
X165734766Y-73183082D01*
X165727367Y-73127024D01*
X165727277Y-73119946D01*
X165721374Y-73066975D01*
X165706891Y-73040908D01*
X165704144Y-73040345D01*
X165685843Y-73060737D01*
X165676862Y-73111868D01*
X165679284Y-73173360D01*
X165664082Y-73198333D01*
X165645960Y-73202276D01*
X165618320Y-73209481D01*
X165624234Y-73225496D01*
X165654309Y-73241920D01*
X165699153Y-73250350D01*
X165699726Y-73250368D01*
X165735178Y-73255078D01*
X165733108Y-73263843D01*
X165733060Y-73263863D01*
X165701929Y-73285589D01*
X165709189Y-73303672D01*
X165747061Y-73311528D01*
X165785109Y-73307901D01*
X165840363Y-73301645D01*
X165863188Y-73313166D01*
X165866075Y-73329608D01*
X165876290Y-73375340D01*
X165900879Y-73433808D01*
X165901111Y-73434257D01*
X165921424Y-73469548D01*
X165944631Y-73488986D01*
X165983035Y-73496167D01*
X166048939Y-73494685D01*
X166097741Y-73491712D01*
X166186079Y-73488112D01*
X166236651Y-73492021D01*
X166257502Y-73504494D01*
X166259335Y-73512867D01*
X166240614Y-73547472D01*
X166222744Y-73558362D01*
X166162952Y-73569025D01*
X166074513Y-73570998D01*
X165974029Y-73565225D01*
X165878105Y-73552652D01*
X165804176Y-73534523D01*
X165689593Y-73474520D01*
X165577440Y-73381454D01*
X165480809Y-73267285D01*
X165440243Y-73202085D01*
X165379419Y-73044775D01*
X165359977Y-72880613D01*
X165361197Y-72870337D01*
X165473692Y-72870337D01*
X165478063Y-72904538D01*
X165503832Y-72941437D01*
X165519080Y-72953182D01*
X165555195Y-72983422D01*
X165565346Y-73002477D01*
X165551244Y-73007164D01*
X165530647Y-72994079D01*
X165503347Y-72978193D01*
X165495991Y-73000388D01*
X165495947Y-73004823D01*
X165516203Y-73041026D01*
X165565346Y-73070559D01*
X165612539Y-73094600D01*
X165633745Y-73116509D01*
X165625018Y-73127629D01*
X165588479Y-73121311D01*
X165551871Y-73118577D01*
X165542213Y-73129391D01*
X165558457Y-73155748D01*
X165593455Y-73173032D01*
X165626612Y-73174253D01*
X165637697Y-73161794D01*
X165642396Y-73126571D01*
X165645954Y-73095540D01*
X165655566Y-73046233D01*
X165663240Y-73026141D01*
X165665510Y-72990071D01*
X165657412Y-72959380D01*
X165643104Y-72929590D01*
X165630253Y-72938067D01*
X165615507Y-72970947D01*
X165598234Y-73007943D01*
X165591375Y-73003727D01*
X165589945Y-72981356D01*
X165597967Y-72931900D01*
X165609012Y-72911957D01*
X165632606Y-72873602D01*
X165646996Y-72828015D01*
X165647792Y-72793579D01*
X165639110Y-72785883D01*
X165616301Y-72805046D01*
X165590011Y-72851748D01*
X165587604Y-72857394D01*
X165565482Y-72902194D01*
X165548963Y-72907725D01*
X165537382Y-72892094D01*
X165509257Y-72860688D01*
X165494798Y-72855282D01*
X165473692Y-72870337D01*
X165361197Y-72870337D01*
X165375201Y-72752342D01*
X165459783Y-72752342D01*
X165479822Y-72793949D01*
X165514746Y-72838074D01*
X165547696Y-72868443D01*
X165558965Y-72861308D01*
X165547230Y-72820713D01*
X165531367Y-72787276D01*
X165501168Y-72743162D01*
X165474961Y-72727656D01*
X165471452Y-72728892D01*
X165459783Y-72752342D01*
X165375201Y-72752342D01*
X165379366Y-72717250D01*
X165402920Y-72651705D01*
X165484544Y-72651705D01*
X165499497Y-72695975D01*
X165526507Y-72735426D01*
X165555992Y-72753256D01*
X165566097Y-72750719D01*
X165578341Y-72756591D01*
X165574615Y-72778898D01*
X165576649Y-72794686D01*
X165604786Y-72772641D01*
X165622332Y-72754297D01*
X165658024Y-72709302D01*
X165671640Y-72678972D01*
X165670245Y-72674874D01*
X165645473Y-72677037D01*
X165629733Y-72689110D01*
X165584625Y-72715100D01*
X165549315Y-72696547D01*
X165531874Y-72655305D01*
X165515258Y-72614863D01*
X165494045Y-72616777D01*
X165491228Y-72619418D01*
X165484544Y-72651705D01*
X165402920Y-72651705D01*
X165433076Y-72567787D01*
X165523660Y-72567787D01*
X165535290Y-72611426D01*
X165556674Y-72643104D01*
X165566905Y-72647085D01*
X165586730Y-72628820D01*
X165587071Y-72626215D01*
X165611612Y-72626215D01*
X165629375Y-72644244D01*
X165669302Y-72644566D01*
X165711349Y-72628426D01*
X165722650Y-72619325D01*
X165748971Y-72583156D01*
X165735831Y-72569330D01*
X165685252Y-72579700D01*
X165681011Y-72581152D01*
X165632950Y-72603756D01*
X165611670Y-72625338D01*
X165611612Y-72626215D01*
X165587071Y-72626215D01*
X165588125Y-72618169D01*
X165577720Y-72576536D01*
X165555366Y-72542912D01*
X165532878Y-72533916D01*
X165529792Y-72536130D01*
X165523660Y-72567787D01*
X165433076Y-72567787D01*
X165435035Y-72562336D01*
X165475014Y-72500255D01*
X165588781Y-72500255D01*
X165594268Y-72543836D01*
X165603901Y-72562264D01*
X165631933Y-72577129D01*
X165642767Y-72550233D01*
X165639679Y-72508287D01*
X165627682Y-72463626D01*
X165660722Y-72463626D01*
X165668288Y-72510222D01*
X165673300Y-72515998D01*
X165715481Y-72530738D01*
X165775333Y-72524761D01*
X165830364Y-72500320D01*
X165830458Y-72500252D01*
X165856643Y-72470962D01*
X165846813Y-72454940D01*
X165810285Y-72456206D01*
X165767052Y-72472906D01*
X165725552Y-72492047D01*
X165712209Y-72482914D01*
X165717324Y-72437212D01*
X165718322Y-72431240D01*
X165721806Y-72406081D01*
X165750410Y-72406081D01*
X165760070Y-72436375D01*
X165783420Y-72429400D01*
X165812014Y-72388514D01*
X165816096Y-72379967D01*
X165837905Y-72328026D01*
X165838399Y-72305454D01*
X165816762Y-72300147D01*
X165810717Y-72300090D01*
X165775203Y-72320649D01*
X165753510Y-72372714D01*
X165750410Y-72406081D01*
X165721806Y-72406081D01*
X165724942Y-72383433D01*
X165718449Y-72375727D01*
X165694296Y-72402755D01*
X165694237Y-72402827D01*
X165660722Y-72463626D01*
X165627682Y-72463626D01*
X165626592Y-72459570D01*
X165609251Y-72438894D01*
X165608986Y-72438888D01*
X165593991Y-72457911D01*
X165588781Y-72500255D01*
X165475014Y-72500255D01*
X165524431Y-72423520D01*
X165645002Y-72308453D01*
X165761507Y-72238958D01*
X165847521Y-72201796D01*
X165900563Y-72187665D01*
X165927565Y-72196177D01*
G37*
G36*
X158752687Y-61382306D02*
G01*
X158893522Y-61385159D01*
X158993301Y-61388613D01*
X159057232Y-61393046D01*
X159090524Y-61398835D01*
X159098386Y-61406359D01*
X159097893Y-61407356D01*
X159110483Y-61420330D01*
X159154484Y-61431783D01*
X159215040Y-61439656D01*
X159277299Y-61441894D01*
X159319444Y-61438034D01*
X159355964Y-61432053D01*
X159349823Y-61438462D01*
X159331011Y-61447118D01*
X159313128Y-61460041D01*
X159326832Y-61472690D01*
X159377627Y-61488153D01*
X159423543Y-61499015D01*
X159505556Y-61515099D01*
X159574894Y-61524366D01*
X159608607Y-61525213D01*
X159639155Y-61524876D01*
X159627704Y-61539586D01*
X159620173Y-61545197D01*
X159601975Y-61562230D01*
X159623248Y-61561945D01*
X159637555Y-61558990D01*
X159672826Y-61557077D01*
X159677701Y-61566885D01*
X159684615Y-61587203D01*
X159718720Y-61602167D01*
X159760945Y-61606091D01*
X159785471Y-61599011D01*
X159801292Y-61595856D01*
X159793450Y-61613016D01*
X159788253Y-61633641D01*
X159814210Y-61628421D01*
X159841315Y-61624584D01*
X159837343Y-61639988D01*
X159836560Y-61656987D01*
X159860476Y-61651554D01*
X159887551Y-61647495D01*
X159887875Y-61656218D01*
X159900506Y-61675902D01*
X159945276Y-61709129D01*
X160012805Y-61749031D01*
X160019688Y-61752720D01*
X160097296Y-61801678D01*
X160187008Y-61870142D01*
X160280084Y-61949961D01*
X160367780Y-62032987D01*
X160441358Y-62111069D01*
X160492075Y-62176059D01*
X160509200Y-62209099D01*
X160530501Y-62249076D01*
X160548416Y-62260382D01*
X160560777Y-62274646D01*
X160557058Y-62283515D01*
X160558005Y-62304870D01*
X160565701Y-62306648D01*
X160590269Y-62325773D01*
X160603431Y-62353250D01*
X160623357Y-62384972D01*
X160639424Y-62386748D01*
X160650287Y-62392579D01*
X160645394Y-62413340D01*
X160640891Y-62440262D01*
X160660800Y-62434100D01*
X160680663Y-62427774D01*
X160676222Y-62439784D01*
X160669643Y-62475603D01*
X160680766Y-62511474D01*
X160701813Y-62527510D01*
X160709582Y-62525077D01*
X160720403Y-62530768D01*
X160716181Y-62548521D01*
X160717124Y-62594086D01*
X160734996Y-62636471D01*
X160762596Y-62691303D01*
X160791829Y-62765203D01*
X160799886Y-62789115D01*
X160825473Y-62852253D01*
X160852462Y-62894086D01*
X160862301Y-62901472D01*
X160890002Y-62925399D01*
X160892486Y-62935078D01*
X160878177Y-62946601D01*
X160869423Y-62942848D01*
X160859288Y-62949385D01*
X160870752Y-62991456D01*
X160871551Y-62993532D01*
X160894402Y-63062904D01*
X160907541Y-63116302D01*
X160923447Y-63162959D01*
X160940257Y-63181893D01*
X160952906Y-63203074D01*
X160950620Y-63208346D01*
X160950541Y-63239934D01*
X160964194Y-63296700D01*
X160971845Y-63319944D01*
X160989100Y-63380007D01*
X160993347Y-63420047D01*
X160990965Y-63426505D01*
X160994368Y-63439378D01*
X161001725Y-63440163D01*
X161020843Y-63459013D01*
X161022931Y-63480646D01*
X161033295Y-63511833D01*
X161048634Y-63515345D01*
X161075187Y-63523491D01*
X161077550Y-63531799D01*
X161097797Y-63550824D01*
X161148275Y-63572978D01*
X161213592Y-63593710D01*
X161278354Y-63608474D01*
X161327169Y-63612718D01*
X161340651Y-63609553D01*
X161354831Y-63606237D01*
X161350141Y-63613029D01*
X161361448Y-63630947D01*
X161406028Y-63662624D01*
X161475247Y-63702208D01*
X161502180Y-63716086D01*
X161583889Y-63757613D01*
X161646622Y-63792200D01*
X161699714Y-63826995D01*
X161752504Y-63869146D01*
X161814329Y-63925801D01*
X161894525Y-64004106D01*
X161948895Y-64058047D01*
X162085115Y-64206477D01*
X162187029Y-64350245D01*
X162263028Y-64502516D01*
X162302855Y-64613395D01*
X162324071Y-64670123D01*
X162342105Y-64700695D01*
X162347530Y-64702522D01*
X162357017Y-64717381D01*
X162363800Y-64764744D01*
X162364933Y-64784761D01*
X162371665Y-64854460D01*
X162383715Y-64909063D01*
X162386181Y-64915398D01*
X162395414Y-64957962D01*
X162402477Y-65030891D01*
X162405811Y-65117120D01*
X162407696Y-65278867D01*
X162500228Y-65271204D01*
X162559801Y-65262942D01*
X162595100Y-65251715D01*
X162598489Y-65248255D01*
X162622635Y-65241571D01*
X162680256Y-65238928D01*
X162755807Y-65240777D01*
X162840443Y-65242486D01*
X162910320Y-65239175D01*
X162946708Y-65232567D01*
X162988264Y-65225277D01*
X163063185Y-65220230D01*
X163158624Y-65217497D01*
X163261731Y-65217143D01*
X163359658Y-65219238D01*
X163439556Y-65223849D01*
X163483379Y-65229727D01*
X163535818Y-65237867D01*
X163616512Y-65246502D01*
X163703142Y-65253412D01*
X163901396Y-65280364D01*
X164120364Y-65337087D01*
X164365646Y-65425067D01*
X164394433Y-65436700D01*
X164494202Y-65477558D01*
X164559113Y-65505613D01*
X164597031Y-65525827D01*
X164615816Y-65543161D01*
X164623334Y-65562575D01*
X164626549Y-65583152D01*
X164618553Y-65608238D01*
X164584733Y-65641184D01*
X164520200Y-65685689D01*
X164420065Y-65745453D01*
X164387700Y-65763888D01*
X164292438Y-65817415D01*
X164212484Y-65861664D01*
X164156037Y-65892143D01*
X164131296Y-65904363D01*
X164131102Y-65904406D01*
X164106980Y-65914732D01*
X164049930Y-65941413D01*
X163968538Y-65980379D01*
X163873516Y-66026519D01*
X163775020Y-66073629D01*
X163690690Y-66112074D01*
X163629720Y-66137787D01*
X163601704Y-66146721D01*
X163577141Y-66162810D01*
X163575911Y-66169854D01*
X163562876Y-66190200D01*
X163558561Y-66190247D01*
X163523862Y-66193139D01*
X163489162Y-66202799D01*
X163423327Y-66223298D01*
X163378763Y-66246894D01*
X163367714Y-66262052D01*
X163360150Y-66299653D01*
X163354762Y-66315487D01*
X163368288Y-66338293D01*
X163425343Y-66358639D01*
X163523226Y-66375870D01*
X163658044Y-66389239D01*
X163711984Y-66400713D01*
X163734727Y-66410825D01*
X163775773Y-66418971D01*
X163837482Y-66414997D01*
X163845718Y-66413567D01*
X163898908Y-66407092D01*
X163914231Y-66416282D01*
X163910178Y-66426195D01*
X163909996Y-66444519D01*
X163947641Y-66443624D01*
X163954967Y-66442292D01*
X163995295Y-66437801D01*
X164003836Y-66443628D01*
X164012572Y-66456319D01*
X164059076Y-66476575D01*
X164146041Y-66505426D01*
X164235200Y-66532091D01*
X164298752Y-66543720D01*
X164328545Y-66545522D01*
X164362321Y-66555431D01*
X164374304Y-66593431D01*
X164374811Y-66617037D01*
X164366830Y-66669228D01*
X164335140Y-66697505D01*
X164298816Y-66710158D01*
X164248092Y-66730291D01*
X164223957Y-66750835D01*
X164223634Y-66752890D01*
X164209400Y-66763849D01*
X164201519Y-66760374D01*
X164168266Y-66760455D01*
X164112032Y-66777258D01*
X164091638Y-66785714D01*
X164032712Y-66809292D01*
X163992173Y-66820786D01*
X163985877Y-66820935D01*
X163963084Y-66835495D01*
X163955047Y-66850601D01*
X163926472Y-66872996D01*
X163907864Y-66870875D01*
X163861183Y-66869820D01*
X163823030Y-66881804D01*
X163747331Y-66914725D01*
X163677607Y-66939894D01*
X163656876Y-66945665D01*
X163624886Y-66957635D01*
X163564975Y-66983295D01*
X163502211Y-67011570D01*
X163430987Y-67043203D01*
X163377086Y-67065090D01*
X163354428Y-67072039D01*
X163323751Y-67082430D01*
X163262568Y-67110180D01*
X163180805Y-67150156D01*
X163088388Y-67197227D01*
X162995243Y-67246259D01*
X162911294Y-67292120D01*
X162846468Y-67329678D01*
X162812523Y-67352263D01*
X162754690Y-67399006D01*
X162810351Y-67371574D01*
X162854273Y-67357020D01*
X162886411Y-67373636D01*
X162907406Y-67398937D01*
X162943724Y-67454223D01*
X162984931Y-67526831D01*
X162997949Y-67552049D01*
X163030588Y-67609802D01*
X163057828Y-67645158D01*
X163066716Y-67650364D01*
X163103298Y-67657938D01*
X163126721Y-67665861D01*
X163154184Y-67670712D01*
X163148171Y-67650721D01*
X163141782Y-67631000D01*
X163156320Y-67636821D01*
X163171765Y-67666685D01*
X163167666Y-67679026D01*
X163168529Y-67694643D01*
X163191623Y-67689259D01*
X163218542Y-67685419D01*
X163218684Y-67694471D01*
X163223727Y-67717156D01*
X163255569Y-67732242D01*
X163294745Y-67732339D01*
X163306186Y-67727695D01*
X163320775Y-67724118D01*
X163315865Y-67731275D01*
X163312609Y-67762927D01*
X163320325Y-67776242D01*
X163335534Y-67809091D01*
X163317654Y-67834729D01*
X163263288Y-67854477D01*
X163169037Y-67869654D01*
X163052972Y-67880095D01*
X162949621Y-67887923D01*
X162889846Y-67893747D01*
X162871032Y-67898134D01*
X162890560Y-67901650D01*
X162939754Y-67904585D01*
X163035746Y-67907338D01*
X163130300Y-67907354D01*
X163175923Y-67905929D01*
X163225477Y-67905119D01*
X163258638Y-67914093D01*
X163279411Y-67940654D01*
X163291799Y-67992607D01*
X163299805Y-68077754D01*
X163304693Y-68156946D01*
X163312594Y-68243380D01*
X163326951Y-68297608D01*
X163352516Y-68333658D01*
X163369439Y-68348070D01*
X163478560Y-68434252D01*
X163553288Y-68501510D01*
X163597466Y-68556967D01*
X163614937Y-68607750D01*
X163609543Y-68660982D01*
X163585129Y-68723788D01*
X163579018Y-68736645D01*
X163532189Y-68833569D01*
X163611139Y-68866556D01*
X163665845Y-68888155D01*
X163699659Y-68899179D01*
X163702350Y-68899544D01*
X163726606Y-68907633D01*
X163787322Y-68930227D01*
X163877932Y-68964814D01*
X163991875Y-69008883D01*
X164122585Y-69059924D01*
X164159969Y-69074601D01*
X164400896Y-69170978D01*
X164601083Y-69254909D01*
X164763861Y-69328031D01*
X164892561Y-69391979D01*
X164990514Y-69448389D01*
X165061051Y-69498897D01*
X165100067Y-69536251D01*
X165186107Y-69655667D01*
X165273993Y-69819150D01*
X165363018Y-70024569D01*
X165452472Y-70269795D01*
X165541649Y-70552699D01*
X165629838Y-70871152D01*
X165716332Y-71223024D01*
X165800423Y-71606186D01*
X165819374Y-71698633D01*
X165844957Y-71824058D01*
X165868022Y-71935307D01*
X165886725Y-72023634D01*
X165899224Y-72080289D01*
X165902848Y-72094992D01*
X165895205Y-72128217D01*
X165849432Y-72148623D01*
X165717322Y-72201986D01*
X165588405Y-72291968D01*
X165473344Y-72409533D01*
X165384199Y-72542987D01*
X165353517Y-72607164D01*
X165335011Y-72667604D01*
X165325742Y-72739792D01*
X165322766Y-72839208D01*
X165322663Y-72866848D01*
X165324536Y-72975740D01*
X165332455Y-73054849D01*
X165349466Y-73120560D01*
X165378621Y-73189258D01*
X165385170Y-73202752D01*
X165474004Y-73348027D01*
X165584899Y-73459374D01*
X165728725Y-73547463D01*
X165743658Y-73554616D01*
X165820609Y-73588407D01*
X165884495Y-73607841D01*
X165952923Y-73616011D01*
X166043500Y-73616015D01*
X166084923Y-73614614D01*
X166173996Y-73611731D01*
X166242208Y-73610481D01*
X166278983Y-73611015D01*
X166282522Y-73611758D01*
X166287935Y-73635938D01*
X166301766Y-73690499D01*
X166320254Y-73761191D01*
X166339637Y-73833760D01*
X166356154Y-73893954D01*
X166365067Y-73924545D01*
X166365033Y-73928759D01*
X166361073Y-73932676D01*
X166351561Y-73936306D01*
X166334869Y-73939661D01*
X166309371Y-73942750D01*
X166273438Y-73945585D01*
X166225444Y-73948176D01*
X166163762Y-73950535D01*
X166086764Y-73952673D01*
X165992823Y-73954600D01*
X165880313Y-73956327D01*
X165747605Y-73957865D01*
X165593072Y-73959226D01*
X165415089Y-73960419D01*
X165212026Y-73961455D01*
X164982258Y-73962347D01*
X164724156Y-73963103D01*
X164436095Y-73963736D01*
X164116445Y-73964257D01*
X163763582Y-73964675D01*
X163375876Y-73965003D01*
X162951701Y-73965250D01*
X162489430Y-73965428D01*
X161987436Y-73965547D01*
X161444091Y-73965619D01*
X160857769Y-73965655D01*
X160226841Y-73965664D01*
X160213245Y-73965664D01*
X154048372Y-73965664D01*
X154114112Y-73716985D01*
X154195623Y-73407987D01*
X154266037Y-73139492D01*
X154270764Y-73121311D01*
X155687568Y-73121311D01*
X155699135Y-73132877D01*
X155710701Y-73121311D01*
X155699135Y-73109744D01*
X155687568Y-73121311D01*
X154270764Y-73121311D01*
X154285799Y-73063478D01*
X164709426Y-73063478D01*
X164717890Y-73082519D01*
X164724848Y-73078900D01*
X164727617Y-73051447D01*
X164724848Y-73048056D01*
X164711096Y-73051232D01*
X164709426Y-73063478D01*
X154285799Y-73063478D01*
X154300834Y-73005646D01*
X155687568Y-73005646D01*
X155699135Y-73017212D01*
X155710701Y-73005646D01*
X155699135Y-72994079D01*
X164709426Y-72994079D01*
X164717890Y-73013121D01*
X164724848Y-73009501D01*
X164727617Y-72982048D01*
X164724848Y-72978658D01*
X164711096Y-72981833D01*
X164709426Y-72994079D01*
X155699135Y-72994079D01*
X155687568Y-73005646D01*
X154300834Y-73005646D01*
X154324891Y-72913114D01*
X155710701Y-72913114D01*
X155722268Y-72924681D01*
X155733834Y-72913114D01*
X155722268Y-72901548D01*
X164686293Y-72901548D01*
X164694757Y-72920589D01*
X164701715Y-72916970D01*
X164704484Y-72889516D01*
X164701715Y-72886126D01*
X164687963Y-72889301D01*
X164686293Y-72901548D01*
X155722268Y-72901548D01*
X155710701Y-72913114D01*
X154324891Y-72913114D01*
X154326388Y-72907354D01*
X154348664Y-72820582D01*
X155715211Y-72820582D01*
X155717711Y-72860089D01*
X155724953Y-72863568D01*
X155725875Y-72861505D01*
X155730451Y-72815582D01*
X155727578Y-72797449D01*
X164690803Y-72797449D01*
X164693303Y-72836956D01*
X164700545Y-72840435D01*
X164701467Y-72838372D01*
X164706043Y-72792449D01*
X164702324Y-72768973D01*
X164694961Y-72759540D01*
X164690956Y-72790266D01*
X164690803Y-72797449D01*
X155727578Y-72797449D01*
X155726732Y-72792106D01*
X155719369Y-72782673D01*
X155715364Y-72813398D01*
X155715211Y-72820582D01*
X154348664Y-72820582D01*
X154377712Y-72707428D01*
X154382905Y-72686830D01*
X155735522Y-72686830D01*
X155740619Y-72693351D01*
X155749620Y-72666939D01*
X155764442Y-72605850D01*
X155782554Y-72520914D01*
X155791919Y-72473588D01*
X155865221Y-72186034D01*
X161517076Y-72186034D01*
X161517959Y-72271016D01*
X161522724Y-72319265D01*
X161534546Y-72340307D01*
X161556603Y-72343670D01*
X161569126Y-72342182D01*
X161615892Y-72315839D01*
X161628567Y-72282741D01*
X161643048Y-72246124D01*
X161681558Y-72232020D01*
X161713707Y-72230692D01*
X161769285Y-72236904D01*
X161793823Y-72261344D01*
X161798846Y-72282741D01*
X161817851Y-72317234D01*
X161853354Y-72340742D01*
X161889285Y-72347314D01*
X161909569Y-72331000D01*
X161910337Y-72324018D01*
X161923104Y-72310121D01*
X161955082Y-72322409D01*
X162017291Y-72339785D01*
X162102734Y-72345550D01*
X162189908Y-72339878D01*
X162257306Y-72322945D01*
X162263530Y-72319906D01*
X162304440Y-72305025D01*
X162321769Y-72319906D01*
X162348189Y-72334633D01*
X162405984Y-72343387D01*
X162480641Y-72346057D01*
X162557641Y-72342533D01*
X162622468Y-72332706D01*
X162652113Y-72322409D01*
X162690324Y-72278264D01*
X162693292Y-72210443D01*
X162682816Y-72174751D01*
X162659411Y-72151723D01*
X162605788Y-72139580D01*
X162538235Y-72136171D01*
X162469655Y-72133550D01*
X162444492Y-72127972D01*
X162459951Y-72118700D01*
X162465528Y-72116967D01*
X162527389Y-72107033D01*
X162604032Y-72105043D01*
X162615892Y-72105638D01*
X162689672Y-72109962D01*
X162751569Y-72112988D01*
X162759206Y-72113276D01*
X162790716Y-72120640D01*
X162807515Y-72147852D01*
X162815776Y-72206829D01*
X162817038Y-72224908D01*
X162824622Y-72293128D01*
X162840145Y-72327693D01*
X162869951Y-72341185D01*
X162876138Y-72342182D01*
X162906992Y-72342516D01*
X162922431Y-72324776D01*
X162927711Y-72278024D01*
X162928188Y-72233837D01*
X162930119Y-72164887D01*
X162940273Y-72129488D01*
X162965185Y-72114955D01*
X162991605Y-72110780D01*
X163045190Y-72090349D01*
X163062943Y-72061717D01*
X163063114Y-72047193D01*
X163053305Y-72036660D01*
X163027525Y-72029633D01*
X162979786Y-72025625D01*
X162904099Y-72024151D01*
X162794473Y-72024725D01*
X162644920Y-72026861D01*
X162635181Y-72027018D01*
X162199499Y-72034061D01*
X162204380Y-72132376D01*
X162209262Y-72230692D01*
X162117632Y-72230692D01*
X162026002Y-72230692D01*
X162026002Y-72126593D01*
X162026002Y-72022495D01*
X161924411Y-72022495D01*
X161859405Y-72025892D01*
X161826014Y-72040875D01*
X161809794Y-72074632D01*
X161808318Y-72080280D01*
X161791262Y-72119400D01*
X161756766Y-72133104D01*
X161713324Y-72132329D01*
X161657887Y-72122955D01*
X161635600Y-72099555D01*
X161632788Y-72074544D01*
X161621571Y-72034465D01*
X161580068Y-72022552D01*
X161574909Y-72022495D01*
X161544810Y-72024844D01*
X161527523Y-72038578D01*
X161519501Y-72073732D01*
X161517195Y-72140338D01*
X161517076Y-72186034D01*
X155865221Y-72186034D01*
X155884824Y-72109134D01*
X156022540Y-71743808D01*
X156203776Y-71380655D01*
X156371303Y-71105746D01*
X156589610Y-70808882D01*
X156846972Y-70518968D01*
X157136179Y-70242427D01*
X157182384Y-70204629D01*
X160269722Y-70204629D01*
X160273976Y-70234633D01*
X160281872Y-70234991D01*
X160287395Y-70204030D01*
X160283699Y-70190653D01*
X160273427Y-70181890D01*
X160269722Y-70204629D01*
X157182384Y-70204629D01*
X157450024Y-69985686D01*
X157518611Y-69937960D01*
X160158458Y-69937960D01*
X160178617Y-69972184D01*
X160179644Y-69972953D01*
X160204116Y-70008292D01*
X160204129Y-70028039D01*
X160204138Y-70073407D01*
X160211516Y-70097438D01*
X160225214Y-70116753D01*
X160236626Y-70096804D01*
X160243583Y-70067759D01*
X160246925Y-70012062D01*
X160234166Y-69979249D01*
X160225142Y-69957440D01*
X160238980Y-69948405D01*
X160266608Y-69924080D01*
X160254794Y-69901159D01*
X160222995Y-69894262D01*
X160175748Y-69907453D01*
X160158458Y-69937960D01*
X157518611Y-69937960D01*
X157781298Y-69755170D01*
X158087614Y-69575852D01*
X158170604Y-69529471D01*
X158235356Y-69489236D01*
X158272795Y-69460995D01*
X158278461Y-69452843D01*
X158268316Y-69431912D01*
X158266235Y-69431602D01*
X158231215Y-69443204D01*
X158165663Y-69474838D01*
X158078107Y-69521745D01*
X157977080Y-69579169D01*
X157871110Y-69642350D01*
X157768730Y-69706531D01*
X157741511Y-69724268D01*
X157372580Y-69989357D01*
X157035445Y-70277175D01*
X156732212Y-70584959D01*
X156464987Y-70909948D01*
X156235878Y-71249380D01*
X156046990Y-71600492D01*
X155900429Y-71960525D01*
X155816112Y-72248811D01*
X155789281Y-72365391D01*
X155766461Y-72475407D01*
X155748998Y-72570934D01*
X155738236Y-72644050D01*
X155735522Y-72686830D01*
X154382905Y-72686830D01*
X154421043Y-72535570D01*
X154457416Y-72387636D01*
X154487866Y-72259479D01*
X154513427Y-72146955D01*
X154535134Y-72045920D01*
X154551587Y-71964662D01*
X154637917Y-71541813D01*
X154722011Y-71163034D01*
X154804525Y-70826221D01*
X154886115Y-70529270D01*
X154967438Y-70270076D01*
X155049149Y-70046534D01*
X155131904Y-69856540D01*
X155216361Y-69697990D01*
X155295267Y-69579233D01*
X155345503Y-69518273D01*
X155399890Y-69469153D01*
X155470433Y-69423078D01*
X155569141Y-69371252D01*
X155599266Y-69356541D01*
X155666089Y-69325786D01*
X155761006Y-69284245D01*
X155876974Y-69234794D01*
X155920744Y-69216446D01*
X158557155Y-69216446D01*
X158573651Y-69258981D01*
X158580003Y-69271192D01*
X158621672Y-69306867D01*
X158679508Y-69313664D01*
X158732490Y-69290231D01*
X158740871Y-69281538D01*
X158761034Y-69229512D01*
X158748776Y-69176989D01*
X158713673Y-69136284D01*
X158665301Y-69119709D01*
X158624266Y-69131609D01*
X158615715Y-69147465D01*
X158650621Y-69157690D01*
X158699949Y-69182656D01*
X158713427Y-69214678D01*
X158705429Y-69261487D01*
X158672163Y-69278170D01*
X158625790Y-69261800D01*
X158602488Y-69241387D01*
X158567214Y-69209989D01*
X158557155Y-69216446D01*
X155920744Y-69216446D01*
X156006953Y-69180308D01*
X156143901Y-69123665D01*
X156280778Y-69067740D01*
X156410541Y-69015409D01*
X156526151Y-68969549D01*
X156620565Y-68933037D01*
X156686743Y-68908747D01*
X156717643Y-68899557D01*
X156718025Y-68899544D01*
X156745207Y-68891434D01*
X156797314Y-68871362D01*
X156811251Y-68865611D01*
X156863173Y-68841683D01*
X156879445Y-68819482D01*
X156867149Y-68782993D01*
X156856774Y-68762661D01*
X156844772Y-68726047D01*
X157862067Y-68726047D01*
X157873634Y-68737613D01*
X157885200Y-68726047D01*
X157873634Y-68714480D01*
X157862067Y-68726047D01*
X156844772Y-68726047D01*
X156821981Y-68656522D01*
X156825210Y-68626614D01*
X157684634Y-68626614D01*
X157720913Y-68670957D01*
X157758858Y-68690589D01*
X157799819Y-68698324D01*
X157829102Y-68694041D01*
X157832013Y-68677618D01*
X157827133Y-68671835D01*
X157795225Y-68660406D01*
X157762933Y-68657343D01*
X157719632Y-68638375D01*
X157701000Y-68596414D01*
X157715191Y-68551684D01*
X157718771Y-68547794D01*
X157757237Y-68535153D01*
X157803474Y-68546508D01*
X157835249Y-68574270D01*
X157838934Y-68588808D01*
X157851534Y-68618584D01*
X157861341Y-68621948D01*
X157872518Y-68605020D01*
X157863303Y-68565137D01*
X157837706Y-68518653D01*
X157835196Y-68515303D01*
X157795492Y-68495395D01*
X157744957Y-68505257D01*
X157701398Y-68538319D01*
X157684835Y-68570763D01*
X157684634Y-68626614D01*
X156825210Y-68626614D01*
X156832406Y-68559974D01*
X156888091Y-68472894D01*
X156972801Y-68405106D01*
X157034578Y-68363124D01*
X157079615Y-68327223D01*
X157092491Y-68313367D01*
X157102326Y-68278598D01*
X157112766Y-68211049D01*
X157121817Y-68124133D01*
X157123180Y-68106998D01*
X157129546Y-68043224D01*
X157609894Y-68043224D01*
X157617014Y-68060359D01*
X157627787Y-68073992D01*
X157665862Y-68104287D01*
X157703065Y-68112221D01*
X157721816Y-68095918D01*
X158520622Y-68095918D01*
X158526949Y-68106678D01*
X158530104Y-68108921D01*
X158549711Y-68140526D01*
X158546088Y-68156703D01*
X158542808Y-68179165D01*
X158569884Y-68176735D01*
X158601652Y-68160193D01*
X158624945Y-68138831D01*
X158611607Y-68121695D01*
X158557135Y-68103113D01*
X158556056Y-68102815D01*
X158520622Y-68095918D01*
X157721816Y-68095918D01*
X157722832Y-68095035D01*
X157723270Y-68089890D01*
X157717051Y-68081271D01*
X157752060Y-68081271D01*
X157764592Y-68086192D01*
X157792668Y-68086638D01*
X157811022Y-68084359D01*
X158427292Y-68084359D01*
X158450030Y-68088064D01*
X158480034Y-68083811D01*
X158480392Y-68075914D01*
X158449431Y-68070392D01*
X158436054Y-68074088D01*
X158427292Y-68084359D01*
X157811022Y-68084359D01*
X157858183Y-68078503D01*
X157896767Y-68066757D01*
X157925809Y-68052243D01*
X157913277Y-68047322D01*
X157885200Y-68046876D01*
X157819686Y-68055011D01*
X157781102Y-68066757D01*
X157752060Y-68081271D01*
X157717051Y-68081271D01*
X157707054Y-68067415D01*
X157702029Y-68066757D01*
X157664068Y-68059270D01*
X157638413Y-68050859D01*
X157611388Y-68043624D01*
X157977732Y-68043624D01*
X157999602Y-68054713D01*
X158060365Y-68061954D01*
X158152754Y-68064598D01*
X158180146Y-68064451D01*
X158277205Y-68061740D01*
X158328698Y-68056281D01*
X158335251Y-68047984D01*
X158324727Y-68043624D01*
X158267760Y-68032045D01*
X158192893Y-68025245D01*
X158113320Y-68023226D01*
X158042234Y-68025987D01*
X157992828Y-68033528D01*
X157977732Y-68043624D01*
X157611388Y-68043624D01*
X157609894Y-68043224D01*
X157129546Y-68043224D01*
X157132975Y-68008870D01*
X157136094Y-67994407D01*
X157608340Y-67994407D01*
X157613127Y-68016655D01*
X157631367Y-68002067D01*
X157643040Y-67987154D01*
X157669502Y-67944089D01*
X157677004Y-67920705D01*
X157662949Y-67915082D01*
X157642304Y-67927959D01*
X157613139Y-67970370D01*
X157608340Y-67994407D01*
X157136094Y-67994407D01*
X157147114Y-67943310D01*
X157169719Y-67896622D01*
X157196246Y-67864101D01*
X157233374Y-67818732D01*
X157287416Y-67745426D01*
X157350399Y-67655252D01*
X157400184Y-67580965D01*
X157462861Y-67487244D01*
X157520794Y-67403539D01*
X157566742Y-67340147D01*
X157590107Y-67310865D01*
X157602136Y-67292828D01*
X157676259Y-67292828D01*
X157705442Y-67324692D01*
X157727278Y-67343705D01*
X157792500Y-67398490D01*
X157834226Y-67437509D01*
X157865222Y-67473728D01*
X157891930Y-67510930D01*
X157926475Y-67581156D01*
X157922799Y-67633392D01*
X157884479Y-67662159D01*
X157830051Y-67694132D01*
X157768464Y-67750726D01*
X157715474Y-67816368D01*
X157697481Y-67846994D01*
X157697633Y-67858468D01*
X157722309Y-67838977D01*
X157750968Y-67809227D01*
X157811246Y-67749245D01*
X157871998Y-67698295D01*
X157890984Y-67685118D01*
X157940641Y-67640473D01*
X157953728Y-67588605D01*
X157929210Y-67524863D01*
X157866050Y-67444595D01*
X157828877Y-67405959D01*
X157765574Y-67345888D01*
X157712576Y-67301439D01*
X157679783Y-67280793D01*
X157676737Y-67280236D01*
X157676259Y-67292828D01*
X157602136Y-67292828D01*
X157618513Y-67268272D01*
X157622043Y-67238617D01*
X157590577Y-67212101D01*
X157529090Y-67176843D01*
X157448896Y-67137701D01*
X157361306Y-67099533D01*
X157277633Y-67067197D01*
X157209189Y-67045551D01*
X157167285Y-67039454D01*
X157162047Y-67041068D01*
X157148879Y-67041307D01*
X157154303Y-67029348D01*
X157150300Y-67008234D01*
X157115467Y-67002641D01*
X157066046Y-66996536D01*
X157044033Y-66986549D01*
X157021889Y-66972815D01*
X156978116Y-66960406D01*
X156913616Y-66947914D01*
X156861126Y-66936518D01*
X156789718Y-66918885D01*
X156724977Y-66901411D01*
X156710959Y-66897243D01*
X156676413Y-66887393D01*
X156670905Y-66886116D01*
X156643213Y-66878874D01*
X156591537Y-66864354D01*
X156590182Y-66863965D01*
X156539289Y-66855349D01*
X156520355Y-66865458D01*
X156502246Y-66885772D01*
X156493367Y-66886976D01*
X156479201Y-66876565D01*
X156483973Y-66869626D01*
X156474100Y-66855502D01*
X156429675Y-66838207D01*
X156389513Y-66827998D01*
X156315762Y-66806556D01*
X156279035Y-66779921D01*
X156270766Y-66758149D01*
X156275599Y-66732897D01*
X156301840Y-66704964D01*
X156349014Y-66674124D01*
X157942085Y-66674124D01*
X157942317Y-66794288D01*
X157958077Y-66929154D01*
X157988176Y-67069576D01*
X158031420Y-67206411D01*
X158086618Y-67330511D01*
X158103191Y-67360263D01*
X158152855Y-67422489D01*
X158233597Y-67498923D01*
X158335597Y-67582139D01*
X158449036Y-67664714D01*
X158564093Y-67739222D01*
X158670950Y-67798237D01*
X158700912Y-67812241D01*
X158761546Y-67842617D01*
X158796055Y-67875708D01*
X158816886Y-67927759D01*
X158828974Y-67979391D01*
X158839092Y-68046333D01*
X158849196Y-68147671D01*
X158858332Y-68271541D01*
X158865544Y-68406084D01*
X158867669Y-68460018D01*
X158873923Y-68613903D01*
X158881287Y-68754928D01*
X158889259Y-68876223D01*
X158897337Y-68970919D01*
X158905021Y-69032144D01*
X158910930Y-69052791D01*
X158934008Y-69055471D01*
X158993408Y-69060430D01*
X159079288Y-69066882D01*
X159151730Y-69071994D01*
X159267278Y-69079453D01*
X159341231Y-69078424D01*
X159378093Y-69062259D01*
X159382372Y-69024313D01*
X159358571Y-68957942D01*
X159311197Y-68856499D01*
X159305686Y-68844905D01*
X159268429Y-68761640D01*
X159241990Y-68693156D01*
X159230633Y-68650874D01*
X159230909Y-68644658D01*
X159242647Y-68653536D01*
X159267612Y-68697539D01*
X159301710Y-68768895D01*
X159327963Y-68828929D01*
X159368581Y-68917985D01*
X159406148Y-68988214D01*
X159435400Y-69030366D01*
X159447088Y-69038342D01*
X159484764Y-69029699D01*
X159547230Y-69007642D01*
X159587614Y-68991158D01*
X159656232Y-68966264D01*
X159710269Y-68954646D01*
X159728330Y-68955733D01*
X159755804Y-68960161D01*
X159758971Y-68956543D01*
X159741356Y-68937843D01*
X159694269Y-68899205D01*
X159626348Y-68846928D01*
X159546228Y-68787307D01*
X159462548Y-68726642D01*
X159383944Y-68671228D01*
X159319052Y-68627364D01*
X159276511Y-68601346D01*
X159265745Y-68596923D01*
X159237887Y-68579345D01*
X159191660Y-68536069D01*
X159136894Y-68478078D01*
X159083417Y-68416355D01*
X159041058Y-68361883D01*
X159019646Y-68325645D01*
X159018716Y-68320884D01*
X159032299Y-68323229D01*
X159067260Y-68353599D01*
X159099455Y-68387322D01*
X159158048Y-68443350D01*
X159240147Y-68510850D01*
X159329914Y-68576950D01*
X159347868Y-68589188D01*
X159435096Y-68650455D01*
X159543062Y-68730330D01*
X159657022Y-68817731D01*
X159747137Y-68889296D01*
X159858305Y-68978664D01*
X159941784Y-69042762D01*
X160005518Y-69085828D01*
X160057453Y-69112101D01*
X160105533Y-69125818D01*
X160157704Y-69131217D01*
X160202760Y-69132340D01*
X160270190Y-69134233D01*
X160296531Y-69139091D01*
X160286948Y-69148886D01*
X160267896Y-69157232D01*
X160202806Y-69170470D01*
X160134882Y-69168786D01*
X160080559Y-69166965D01*
X160061555Y-69187082D01*
X160076813Y-69233251D01*
X160105965Y-69281238D01*
X160133649Y-69337311D01*
X160146567Y-69407309D01*
X160147994Y-69501001D01*
X160144061Y-69651365D01*
X160130797Y-69501001D01*
X160116898Y-69407757D01*
X160094556Y-69321020D01*
X160074645Y-69271955D01*
X160040139Y-69220138D01*
X159993598Y-69163931D01*
X159944911Y-69113532D01*
X159903964Y-69079139D01*
X159880646Y-69070951D01*
X159880170Y-69071362D01*
X159883956Y-69094866D01*
X159899499Y-69153477D01*
X159924054Y-69238369D01*
X159954878Y-69340715D01*
X159989225Y-69451688D01*
X160024352Y-69562461D01*
X160057513Y-69664208D01*
X160085966Y-69748101D01*
X160106965Y-69805314D01*
X160112280Y-69817917D01*
X160151104Y-69857520D01*
X160205684Y-69866041D01*
X160259500Y-69845545D01*
X160296033Y-69798098D01*
X160297196Y-69794796D01*
X160308836Y-69751870D01*
X160327724Y-69673140D01*
X160351675Y-69568093D01*
X160370062Y-69484568D01*
X162157020Y-69484568D01*
X162161405Y-69498579D01*
X162199290Y-69526114D01*
X162257331Y-69558495D01*
X162627069Y-69768697D01*
X162985681Y-70015812D01*
X163323766Y-70292389D01*
X163631920Y-70590975D01*
X163804658Y-70784881D01*
X163881454Y-70877122D01*
X163938390Y-70947738D01*
X163985680Y-71010260D01*
X164033539Y-71078220D01*
X164092179Y-71165151D01*
X164096011Y-71170888D01*
X164237347Y-71405659D01*
X164366646Y-71665239D01*
X164479040Y-71937218D01*
X164569657Y-72209182D01*
X164633628Y-72468719D01*
X164654803Y-72595064D01*
X164665407Y-72656294D01*
X164675132Y-72684037D01*
X164681397Y-72674544D01*
X164680932Y-72627334D01*
X164672125Y-72549727D01*
X164656764Y-72456470D01*
X164651951Y-72431648D01*
X164552550Y-72051805D01*
X164409152Y-71680404D01*
X164223659Y-71320083D01*
X163997972Y-70973477D01*
X163733994Y-70643223D01*
X163433627Y-70331958D01*
X163098774Y-70042317D01*
X162741183Y-69783440D01*
X162640201Y-69719717D01*
X162531158Y-69656070D01*
X162422312Y-69596725D01*
X162321922Y-69545907D01*
X162299487Y-69535701D01*
X162627459Y-69535701D01*
X162639025Y-69547267D01*
X162650592Y-69535701D01*
X162639025Y-69524134D01*
X162627459Y-69535701D01*
X162299487Y-69535701D01*
X162238246Y-69507842D01*
X162179543Y-69486754D01*
X162157020Y-69484568D01*
X160370062Y-69484568D01*
X160378504Y-69446217D01*
X160392530Y-69380925D01*
X160421431Y-69246843D01*
X160443731Y-69150740D01*
X160462193Y-69085287D01*
X160479578Y-69043153D01*
X160498646Y-69017010D01*
X160522159Y-68999527D01*
X160539801Y-68990017D01*
X160612564Y-68950071D01*
X160676883Y-68911254D01*
X160719730Y-68884331D01*
X160728330Y-68883246D01*
X160707292Y-68908721D01*
X160701639Y-68915134D01*
X160671382Y-68953983D01*
X160661157Y-68974514D01*
X160681300Y-68985374D01*
X160730924Y-68999712D01*
X160793820Y-69013730D01*
X160853776Y-69023631D01*
X160880920Y-69025995D01*
X160913681Y-69038964D01*
X160915619Y-69041059D01*
X160954692Y-69063766D01*
X161026149Y-69085095D01*
X161116124Y-69102508D01*
X161210749Y-69113462D01*
X161296159Y-69115416D01*
X161314663Y-69114181D01*
X161389433Y-69108519D01*
X161429377Y-69111443D01*
X161445660Y-69126492D01*
X161449437Y-69156925D01*
X161458586Y-69216530D01*
X161478445Y-69287216D01*
X161480308Y-69292478D01*
X161509418Y-69373117D01*
X161523965Y-69280912D01*
X161526481Y-69250251D01*
X161639375Y-69250251D01*
X161669093Y-69302719D01*
X161713560Y-69334492D01*
X161760637Y-69331559D01*
X161796193Y-69315124D01*
X161831864Y-69274597D01*
X161839725Y-69239941D01*
X161838511Y-69188706D01*
X161802204Y-69240755D01*
X161755829Y-69285847D01*
X161710084Y-69285296D01*
X161684717Y-69266128D01*
X161667448Y-69225068D01*
X161684975Y-69186621D01*
X161726951Y-69163544D01*
X161767657Y-69163860D01*
X161807135Y-69171225D01*
X161805654Y-69164129D01*
X161786364Y-69151762D01*
X161726440Y-69135656D01*
X161676029Y-69154346D01*
X161644038Y-69196366D01*
X161639375Y-69250251D01*
X161526481Y-69250251D01*
X161530942Y-69195892D01*
X161529733Y-69102716D01*
X161528263Y-69084608D01*
X161505688Y-68846579D01*
X161494659Y-68715124D01*
X162593157Y-68715124D01*
X162622836Y-68725936D01*
X162668106Y-68710900D01*
X162711104Y-68676126D01*
X162712661Y-68674242D01*
X162726868Y-68625650D01*
X162709824Y-68573770D01*
X162670923Y-68537417D01*
X162641096Y-68530883D01*
X162609297Y-68533458D01*
X162618419Y-68542181D01*
X162646436Y-68553872D01*
X162686682Y-68588322D01*
X162693525Y-68633854D01*
X162668744Y-68672956D01*
X162632899Y-68687218D01*
X162597335Y-68700238D01*
X162593157Y-68715124D01*
X161494659Y-68715124D01*
X161489084Y-68648680D01*
X161485809Y-68598815D01*
X162534927Y-68598815D01*
X162538659Y-68636472D01*
X162543796Y-68645081D01*
X162555947Y-68626007D01*
X162564763Y-68598815D01*
X162566060Y-68561928D01*
X162555894Y-68552549D01*
X162538853Y-68571944D01*
X162534927Y-68598815D01*
X161485809Y-68598815D01*
X161478344Y-68485178D01*
X161473359Y-68350336D01*
X161474021Y-68238421D01*
X161480221Y-68143698D01*
X161491851Y-68060433D01*
X161495668Y-68042784D01*
X161956603Y-68042784D01*
X161977192Y-68069569D01*
X162029005Y-68085900D01*
X162049135Y-68087710D01*
X162071198Y-68084963D01*
X162051861Y-68068932D01*
X162037363Y-68050832D01*
X162063664Y-68034443D01*
X162074994Y-68030500D01*
X162135002Y-68014575D01*
X162170572Y-68008705D01*
X162214884Y-67998266D01*
X162225338Y-67983836D01*
X162197754Y-67974722D01*
X162186005Y-67974354D01*
X162123542Y-67980532D01*
X162055022Y-67995798D01*
X161995611Y-68015628D01*
X161960474Y-68035499D01*
X161956603Y-68042784D01*
X161495668Y-68042784D01*
X161507557Y-67987811D01*
X161516401Y-67955099D01*
X162264012Y-67955099D01*
X162272323Y-67968706D01*
X162280464Y-67974225D01*
X162328335Y-67995751D01*
X162349148Y-67981972D01*
X162349863Y-67974225D01*
X162330271Y-67956307D01*
X162297814Y-67951446D01*
X162264012Y-67955099D01*
X161516401Y-67955099D01*
X161517484Y-67951092D01*
X162430829Y-67951092D01*
X162440521Y-67966904D01*
X162487420Y-67974080D01*
X162497497Y-67974225D01*
X162555597Y-67968195D01*
X162590889Y-67953443D01*
X162592760Y-67951092D01*
X162583068Y-67935281D01*
X162536168Y-67928104D01*
X162526091Y-67927959D01*
X162467991Y-67933989D01*
X162432699Y-67948742D01*
X162430829Y-67951092D01*
X161517484Y-67951092D01*
X161524659Y-67924555D01*
X162637637Y-67924555D01*
X162639025Y-67927959D01*
X162670993Y-67946030D01*
X162708424Y-67951092D01*
X162756865Y-67942360D01*
X162777823Y-67927959D01*
X162767970Y-67912288D01*
X162720619Y-67905024D01*
X162708424Y-67904826D01*
X162655062Y-67910227D01*
X162637637Y-67924555D01*
X161524659Y-67924555D01*
X161529018Y-67908431D01*
X161549452Y-67861812D01*
X161578193Y-67835626D01*
X161624578Y-67817544D01*
X161640040Y-67812841D01*
X161799194Y-67741266D01*
X161938769Y-67627787D01*
X161953181Y-67609125D01*
X162490580Y-67609125D01*
X162496612Y-67629215D01*
X162544594Y-67649535D01*
X162635941Y-67670681D01*
X162772068Y-67693247D01*
X162774873Y-67693660D01*
X162780241Y-67682406D01*
X162769420Y-67665742D01*
X162726194Y-67635212D01*
X162659362Y-67607678D01*
X162588609Y-67589350D01*
X162533620Y-67586435D01*
X162525081Y-67588670D01*
X162490580Y-67609125D01*
X161953181Y-67609125D01*
X162058745Y-67472430D01*
X162072951Y-67444514D01*
X162696858Y-67444514D01*
X162715779Y-67462432D01*
X162764011Y-67492765D01*
X162828761Y-67528759D01*
X162897233Y-67563657D01*
X162956633Y-67590704D01*
X162994166Y-67603142D01*
X162997586Y-67603310D01*
X162990273Y-67590155D01*
X162956940Y-67559128D01*
X162952752Y-67555613D01*
X162888392Y-67516296D01*
X162828221Y-67495042D01*
X162773908Y-67471392D01*
X162748977Y-67438919D01*
X162728060Y-67410821D01*
X162704046Y-67418531D01*
X162696858Y-67444514D01*
X162072951Y-67444514D01*
X162159100Y-67275220D01*
X162212643Y-67128235D01*
X162245369Y-67032939D01*
X162280502Y-66941842D01*
X162308171Y-66879467D01*
X162339798Y-66790814D01*
X162354283Y-66694462D01*
X162351229Y-66605265D01*
X162347603Y-66593658D01*
X162701819Y-66593658D01*
X162705305Y-66607234D01*
X162749145Y-66599073D01*
X162832398Y-66567223D01*
X162845117Y-66561662D01*
X162883835Y-66546080D01*
X162923735Y-66534924D01*
X162970880Y-66528303D01*
X163031332Y-66526323D01*
X163111156Y-66529094D01*
X163216412Y-66536723D01*
X163353164Y-66549318D01*
X163527476Y-66566987D01*
X163606392Y-66575218D01*
X163668094Y-66578239D01*
X163702461Y-66573005D01*
X163705226Y-66566486D01*
X163694346Y-66557455D01*
X163669701Y-66548691D01*
X163625739Y-66539293D01*
X163556902Y-66528357D01*
X163457637Y-66514983D01*
X163322387Y-66498266D01*
X163184019Y-66481818D01*
X162919358Y-66450673D01*
X162819685Y-66509086D01*
X162739632Y-66560292D01*
X162701819Y-66593658D01*
X162347603Y-66593658D01*
X162330240Y-66538078D01*
X162317719Y-66521643D01*
X162285397Y-66495666D01*
X162261563Y-66505124D01*
X162242589Y-66528415D01*
X162217740Y-66594898D01*
X162217667Y-66655646D01*
X162219549Y-66724688D01*
X162210230Y-66780914D01*
X162209489Y-66782877D01*
X162196420Y-66809775D01*
X162190930Y-66796116D01*
X162189558Y-66765528D01*
X162181874Y-66719323D01*
X162167246Y-66701912D01*
X162131713Y-66718823D01*
X162084293Y-66759961D01*
X162038578Y-66810937D01*
X162008157Y-66857360D01*
X162002869Y-66875956D01*
X161995419Y-66902054D01*
X161972947Y-66890941D01*
X161936820Y-66879671D01*
X161872988Y-66888080D01*
X161820947Y-66901895D01*
X161752087Y-66919954D01*
X161703511Y-66928715D01*
X161688984Y-66927796D01*
X161691121Y-66902769D01*
X161705901Y-66845871D01*
X161730246Y-66768742D01*
X161733943Y-66757862D01*
X161774788Y-66634333D01*
X161799402Y-66548275D01*
X161809000Y-66494308D01*
X161804798Y-66467054D01*
X161800540Y-66462975D01*
X161776428Y-66472415D01*
X161727952Y-66506774D01*
X161664440Y-66559263D01*
X161646557Y-66575093D01*
X161510009Y-66697654D01*
X161532704Y-66838581D01*
X161543861Y-66916323D01*
X161544772Y-66958904D01*
X161534299Y-66976526D01*
X161516961Y-66979508D01*
X161475424Y-66987043D01*
X161464435Y-66993594D01*
X161434496Y-67003104D01*
X161376126Y-67010193D01*
X161350424Y-67011655D01*
X161280030Y-67024889D01*
X161193590Y-67055822D01*
X161102878Y-67098274D01*
X161019666Y-67146068D01*
X160955727Y-67193024D01*
X160922835Y-67232963D01*
X160921604Y-67236715D01*
X160903192Y-67272727D01*
X160889788Y-67280236D01*
X160873080Y-67299599D01*
X160869353Y-67325688D01*
X160850203Y-67377653D01*
X160798642Y-67405392D01*
X160723507Y-67405639D01*
X160681701Y-67395047D01*
X160599751Y-67381369D01*
X160546089Y-67402740D01*
X160522582Y-67458237D01*
X160521655Y-67473916D01*
X160518592Y-67507149D01*
X160506067Y-67497095D01*
X160497780Y-67483376D01*
X160466111Y-67456060D01*
X160410766Y-67456461D01*
X160403610Y-67457820D01*
X160339578Y-67459321D01*
X160312175Y-67439744D01*
X160292271Y-67390628D01*
X160305061Y-67364931D01*
X160334319Y-67365287D01*
X160369128Y-67356354D01*
X160439179Y-67320341D01*
X160544860Y-67257014D01*
X160686562Y-67166140D01*
X160864673Y-67047486D01*
X160872161Y-67042428D01*
X161025993Y-66937963D01*
X161145930Y-66854967D01*
X161236795Y-66789581D01*
X161303411Y-66737948D01*
X161350602Y-66696208D01*
X161383190Y-66660504D01*
X161405999Y-66626978D01*
X161416769Y-66606765D01*
X161452749Y-66516848D01*
X161620113Y-66516848D01*
X161641444Y-66502235D01*
X161686253Y-66464013D01*
X161741945Y-66413142D01*
X161800899Y-66360023D01*
X161846992Y-66322488D01*
X161862660Y-66313054D01*
X163275182Y-66313054D01*
X163288764Y-66328206D01*
X163316432Y-66318765D01*
X163338568Y-66291836D01*
X163339285Y-66289840D01*
X163332058Y-66272423D01*
X163311815Y-66276411D01*
X163279996Y-66300049D01*
X163275182Y-66313054D01*
X161862660Y-66313054D01*
X161869321Y-66309043D01*
X161892649Y-66291436D01*
X161924031Y-66250819D01*
X161948507Y-66205543D01*
X161944548Y-66169943D01*
X161924031Y-66135154D01*
X161891166Y-66093921D01*
X161866681Y-66077322D01*
X161847847Y-66096983D01*
X161821722Y-66147021D01*
X161807309Y-66181837D01*
X161770297Y-66262154D01*
X161719408Y-66352967D01*
X161688117Y-66401601D01*
X161648302Y-66461922D01*
X161623975Y-66503640D01*
X161620113Y-66516848D01*
X161452749Y-66516848D01*
X161455054Y-66511088D01*
X161484088Y-66403967D01*
X161501692Y-66298692D01*
X161505692Y-66208549D01*
X161493913Y-66146827D01*
X161492536Y-66144090D01*
X161474125Y-66114024D01*
X161459136Y-66113248D01*
X161438784Y-66146690D01*
X161420764Y-66184339D01*
X161375355Y-66264191D01*
X161318909Y-66343068D01*
X161307608Y-66356497D01*
X161275144Y-66392516D01*
X161263270Y-66401298D01*
X161273000Y-66379306D01*
X161305349Y-66323003D01*
X161328360Y-66284179D01*
X161389543Y-66175989D01*
X161428337Y-66095433D01*
X161443265Y-66046014D01*
X161435028Y-66031056D01*
X161411111Y-66045157D01*
X161362456Y-66082397D01*
X161298907Y-66135179D01*
X161288888Y-66143805D01*
X161215392Y-66204270D01*
X161117794Y-66280298D01*
X161010068Y-66361169D01*
X160927186Y-66421294D01*
X160761340Y-66550025D01*
X160613092Y-66689749D01*
X160472775Y-66850768D01*
X160330724Y-67043380D01*
X160297328Y-67092433D01*
X160238067Y-67179936D01*
X160199209Y-67233534D01*
X160175421Y-67257766D01*
X160161371Y-67257174D01*
X160151725Y-67236299D01*
X160147082Y-67220366D01*
X160135837Y-67150743D01*
X160129593Y-67049146D01*
X160128251Y-66929590D01*
X160130154Y-66861670D01*
X160345697Y-66861670D01*
X160359450Y-66859142D01*
X160395276Y-66825102D01*
X160421740Y-66795442D01*
X160482466Y-66726164D01*
X160540997Y-66661029D01*
X160568625Y-66631178D01*
X160605396Y-66597863D01*
X160672229Y-66542666D01*
X160762015Y-66471246D01*
X160867642Y-66389267D01*
X160973452Y-66308821D01*
X161132430Y-66188110D01*
X161256678Y-66091223D01*
X161349353Y-66015432D01*
X161413614Y-65958009D01*
X161452618Y-65916227D01*
X161469523Y-65887359D01*
X161470811Y-65879273D01*
X161456288Y-65839812D01*
X161421890Y-65790905D01*
X161381370Y-65749112D01*
X161348480Y-65730998D01*
X161347683Y-65730995D01*
X161309904Y-65747703D01*
X161247073Y-65792863D01*
X161165316Y-65860741D01*
X161070755Y-65945605D01*
X160969514Y-66041719D01*
X160867717Y-66143350D01*
X160771485Y-66244763D01*
X160686944Y-66340225D01*
X160652630Y-66381854D01*
X160583486Y-66471633D01*
X160518512Y-66561969D01*
X160460264Y-66648282D01*
X160411301Y-66725991D01*
X160374180Y-66790512D01*
X160351460Y-66837266D01*
X160345697Y-66861670D01*
X160130154Y-66861670D01*
X160131711Y-66806084D01*
X160139875Y-66692642D01*
X160151420Y-66609380D01*
X160219566Y-66325136D01*
X160311107Y-66044706D01*
X160349717Y-65946444D01*
X160385483Y-65856193D01*
X160413016Y-65779391D01*
X160428159Y-65727965D01*
X160429827Y-65716562D01*
X160420225Y-65687985D01*
X160393925Y-65698023D01*
X160354685Y-65743792D01*
X160317184Y-65803008D01*
X160223774Y-65963264D01*
X160151805Y-66082832D01*
X160101131Y-66161945D01*
X160071604Y-66200836D01*
X160063841Y-66204840D01*
X160070103Y-66181755D01*
X160095205Y-66128028D01*
X160134618Y-66052947D01*
X160161407Y-66004762D01*
X160207352Y-65919754D01*
X160241653Y-65848707D01*
X160259597Y-65801797D01*
X160260832Y-65790102D01*
X160242311Y-65793331D01*
X160199411Y-65826115D01*
X160137670Y-65882714D01*
X160062625Y-65957390D01*
X159979815Y-66044404D01*
X159894775Y-66138017D01*
X159813044Y-66232491D01*
X159740158Y-66322087D01*
X159712037Y-66358861D01*
X159637542Y-66463215D01*
X159562823Y-66575502D01*
X159499440Y-66678050D01*
X159475525Y-66720314D01*
X159388709Y-66881193D01*
X159544923Y-66995624D01*
X159642657Y-67070696D01*
X159747992Y-67156972D01*
X159837018Y-67234785D01*
X159972898Y-67359515D01*
X160030105Y-67290959D01*
X160087311Y-67222404D01*
X160075280Y-67323902D01*
X160059925Y-67395042D01*
X160036081Y-67450141D01*
X160027494Y-67461153D01*
X159996591Y-67484189D01*
X159967593Y-67474039D01*
X159948716Y-67457970D01*
X159906086Y-67426818D01*
X159873242Y-67427545D01*
X159841293Y-67464354D01*
X159809923Y-67523592D01*
X159775584Y-67586453D01*
X159746696Y-67614708D01*
X159713241Y-67617358D01*
X159706999Y-67616054D01*
X159515137Y-67575201D01*
X159351799Y-67547994D01*
X159223436Y-67535450D01*
X159191991Y-67534699D01*
X159104138Y-67528897D01*
X159042756Y-67507913D01*
X159005446Y-67481269D01*
X158976566Y-67453143D01*
X158957531Y-67421391D01*
X158945519Y-67375294D01*
X158937705Y-67304131D01*
X158931427Y-67200266D01*
X158925275Y-67082656D01*
X158949784Y-67082656D01*
X158952333Y-67169334D01*
X158953821Y-67198991D01*
X158963317Y-67317019D01*
X158981692Y-67397177D01*
X159015782Y-67447819D01*
X159072422Y-67477297D01*
X159158446Y-67493963D01*
X159198963Y-67498542D01*
X159308005Y-67512508D01*
X159424300Y-67531622D01*
X159492942Y-67545331D01*
X159605624Y-67568572D01*
X159682868Y-67578033D01*
X159733784Y-67572419D01*
X159767484Y-67550437D01*
X159793078Y-67510793D01*
X159797326Y-67502102D01*
X159824258Y-67430068D01*
X159819698Y-67384388D01*
X159779643Y-67360606D01*
X159700087Y-67354269D01*
X159665242Y-67355215D01*
X159582193Y-67356120D01*
X159531801Y-67348065D01*
X159500846Y-67328085D01*
X159490989Y-67316149D01*
X159469843Y-67265469D01*
X159470521Y-67231725D01*
X159462477Y-67190090D01*
X159424513Y-67146657D01*
X159371050Y-67112847D01*
X159316504Y-67100083D01*
X159305791Y-67101233D01*
X159252030Y-67091191D01*
X159230566Y-67069293D01*
X159188312Y-67033752D01*
X159120177Y-67003700D01*
X159046532Y-66985797D01*
X158987747Y-66986705D01*
X158982872Y-66988312D01*
X158963734Y-67001709D01*
X158953144Y-67029969D01*
X158949784Y-67082656D01*
X158925275Y-67082656D01*
X158919523Y-66972692D01*
X158724113Y-66779470D01*
X158647063Y-66704274D01*
X158582109Y-66642747D01*
X158536130Y-66601276D01*
X158516052Y-66586247D01*
X158507868Y-66606815D01*
X158509546Y-66661262D01*
X158519260Y-66738703D01*
X158535183Y-66828252D01*
X158555487Y-66919023D01*
X158578346Y-67000130D01*
X158591875Y-67038007D01*
X158628363Y-67133304D01*
X158644726Y-67191228D01*
X158640011Y-67216509D01*
X158613265Y-67213882D01*
X158563534Y-67188078D01*
X158561840Y-67187091D01*
X158421560Y-67079042D01*
X158307510Y-66936592D01*
X158223597Y-66765865D01*
X158174954Y-66580650D01*
X158147309Y-66509054D01*
X158099460Y-66474713D01*
X158040206Y-66480828D01*
X157992977Y-66514482D01*
X157958575Y-66577807D01*
X157942085Y-66674124D01*
X156349014Y-66674124D01*
X156355871Y-66669641D01*
X156444073Y-66622218D01*
X156478962Y-66604520D01*
X156523592Y-66582984D01*
X157040847Y-66582984D01*
X157168078Y-66572937D01*
X157264623Y-66565536D01*
X157376781Y-66557254D01*
X157445674Y-66552326D01*
X157525547Y-66546761D01*
X157586326Y-66542615D01*
X157613388Y-66540872D01*
X157629879Y-66521769D01*
X157630738Y-66513522D01*
X157609738Y-66501785D01*
X157553695Y-66497740D01*
X157473043Y-66500575D01*
X157378216Y-66509479D01*
X157279650Y-66523640D01*
X157187779Y-66542247D01*
X157156512Y-66550394D01*
X157040847Y-66582984D01*
X156523592Y-66582984D01*
X156581149Y-66555210D01*
X156679466Y-66511344D01*
X156759496Y-66479197D01*
X156791410Y-66468522D01*
X156794999Y-66467200D01*
X158903051Y-66467200D01*
X158908727Y-66528433D01*
X158933194Y-66571274D01*
X158987611Y-66614920D01*
X158989800Y-66616426D01*
X159055199Y-66658950D01*
X159091845Y-66673817D01*
X159107566Y-66661698D01*
X159107997Y-66656119D01*
X159393664Y-66656119D01*
X159412386Y-66643503D01*
X159452788Y-66591340D01*
X159491224Y-66534734D01*
X159559983Y-66433424D01*
X159638559Y-66322482D01*
X159703882Y-66234005D01*
X159760427Y-66165152D01*
X159841049Y-66074254D01*
X159936517Y-65971377D01*
X160037604Y-65866592D01*
X160077107Y-65826835D01*
X160177646Y-65725343D01*
X160248126Y-65650657D01*
X160292329Y-65598040D01*
X160314041Y-65562754D01*
X160317045Y-65540059D01*
X160312662Y-65531890D01*
X160275034Y-65503597D01*
X160256581Y-65498998D01*
X160228817Y-65515138D01*
X160177402Y-65558827D01*
X160109343Y-65622964D01*
X160031650Y-65700449D01*
X159951332Y-65784181D01*
X159875396Y-65867062D01*
X159810852Y-65941992D01*
X159777037Y-65984790D01*
X159670493Y-66131691D01*
X159586307Y-66258705D01*
X159515481Y-66379964D01*
X159470445Y-66466169D01*
X159422405Y-66566503D01*
X159396908Y-66630136D01*
X159393664Y-66656119D01*
X159107997Y-66656119D01*
X159110267Y-66626730D01*
X159105300Y-66554454D01*
X159094110Y-66465748D01*
X159078867Y-66372290D01*
X159061743Y-66285755D01*
X159044906Y-66217821D01*
X159030527Y-66180164D01*
X159026557Y-66176323D01*
X159001123Y-66189741D01*
X158970886Y-66235908D01*
X158941114Y-66302415D01*
X158917076Y-66376855D01*
X158904041Y-66446821D01*
X158903051Y-66467200D01*
X156794999Y-66467200D01*
X156847474Y-66447869D01*
X156876205Y-66428029D01*
X156876957Y-66421147D01*
X156882780Y-66410733D01*
X156898423Y-66414559D01*
X156944636Y-66415688D01*
X157026318Y-66399942D01*
X157136430Y-66368708D01*
X157144945Y-66366001D01*
X157172525Y-66360761D01*
X157230877Y-66351290D01*
X157278479Y-66343994D01*
X157349003Y-66330403D01*
X157398506Y-66315262D01*
X157412235Y-66306613D01*
X157440803Y-66296820D01*
X157463764Y-66301082D01*
X157477609Y-66298170D01*
X157455991Y-66269148D01*
X157439613Y-66252612D01*
X157389546Y-66214745D01*
X157351347Y-66205354D01*
X157347081Y-66207068D01*
X157330878Y-66211877D01*
X157335592Y-66204607D01*
X157336070Y-66200561D01*
X158741443Y-66200561D01*
X158745559Y-66217225D01*
X158767988Y-66191824D01*
X158808866Y-66124284D01*
X158868328Y-66014532D01*
X158880838Y-65990629D01*
X158922364Y-65905824D01*
X158951393Y-65836368D01*
X158964020Y-65792198D01*
X158962721Y-65782432D01*
X158937227Y-65784624D01*
X158900785Y-65821251D01*
X158859256Y-65883646D01*
X158818505Y-65963139D01*
X158787610Y-66041331D01*
X158755505Y-66141905D01*
X158741443Y-66200561D01*
X157336070Y-66200561D01*
X157339206Y-66174028D01*
X157311993Y-66142954D01*
X157267305Y-66124631D01*
X157253922Y-66123588D01*
X157222409Y-66117792D01*
X157221595Y-66108626D01*
X157212245Y-66089492D01*
X157172259Y-66055167D01*
X157111888Y-66012115D01*
X157041381Y-65966802D01*
X156970988Y-65925691D01*
X156910959Y-65895249D01*
X156871542Y-65881939D01*
X156863746Y-65882919D01*
X156847886Y-65885601D01*
X156853062Y-65873528D01*
X156845448Y-65847466D01*
X156808449Y-65812341D01*
X156755457Y-65776717D01*
X156699863Y-65749157D01*
X156655060Y-65738226D01*
X156644233Y-65739980D01*
X156621487Y-65741371D01*
X156622997Y-65732683D01*
X156619859Y-65703598D01*
X156590364Y-65678140D01*
X156553365Y-65669773D01*
X156540927Y-65674078D01*
X156523869Y-65677817D01*
X156528216Y-65666924D01*
X156520858Y-65643510D01*
X156483800Y-65618820D01*
X156433010Y-65598974D01*
X156384460Y-65590088D01*
X156354119Y-65598282D01*
X156352995Y-65599798D01*
X156338327Y-65611857D01*
X156335646Y-65595862D01*
X156314590Y-65570237D01*
X156257572Y-65535153D01*
X156173123Y-65493838D01*
X156114838Y-65468844D01*
X162396876Y-65468844D01*
X162407073Y-65490087D01*
X162436612Y-65489742D01*
X162480047Y-65477496D01*
X162551089Y-65458452D01*
X162615892Y-65441521D01*
X162704369Y-65422281D01*
X162818480Y-65402422D01*
X162937776Y-65385393D01*
X162974439Y-65381023D01*
X163070302Y-65369179D01*
X163147583Y-65357579D01*
X163195597Y-65347934D01*
X163205769Y-65343973D01*
X163189084Y-65340397D01*
X163135005Y-65340122D01*
X163052274Y-65343001D01*
X162962887Y-65348018D01*
X162819254Y-65360281D01*
X162683493Y-65377321D01*
X162565266Y-65397495D01*
X162474234Y-65419163D01*
X162421046Y-65440063D01*
X162396876Y-65468844D01*
X156114838Y-65468844D01*
X156069773Y-65449519D01*
X155956052Y-65405425D01*
X155840490Y-65364784D01*
X155731619Y-65330824D01*
X155637967Y-65306773D01*
X155568067Y-65295858D01*
X155544272Y-65296395D01*
X155503168Y-65297218D01*
X155493525Y-65286615D01*
X155484144Y-65271709D01*
X155456878Y-65267668D01*
X155411229Y-65251576D01*
X155393961Y-65229727D01*
X155403008Y-65193381D01*
X155445312Y-65136489D01*
X155515480Y-65063930D01*
X155608118Y-64980587D01*
X155717834Y-64891339D01*
X155787270Y-64839708D01*
X156080829Y-64839708D01*
X156092395Y-64851274D01*
X156103962Y-64839708D01*
X156092395Y-64828141D01*
X156080829Y-64839708D01*
X155787270Y-64839708D01*
X155839232Y-64801070D01*
X155849481Y-64794097D01*
X156154739Y-64794097D01*
X156178597Y-64790872D01*
X156236989Y-64776062D01*
X156320394Y-64752222D01*
X156393480Y-64730004D01*
X156486412Y-64702070D01*
X156563841Y-64682405D01*
X156637744Y-64669513D01*
X156720098Y-64661900D01*
X156822881Y-64658069D01*
X156958069Y-64656526D01*
X156983015Y-64656393D01*
X157131973Y-64656685D01*
X157246477Y-64659947D01*
X157338298Y-64667270D01*
X157419209Y-64679746D01*
X157500983Y-64698466D01*
X157535226Y-64707579D01*
X157636139Y-64737570D01*
X157730469Y-64769737D01*
X157801131Y-64798157D01*
X157812821Y-64803840D01*
X157866510Y-64825970D01*
X157900267Y-64829410D01*
X157904693Y-64825441D01*
X157899564Y-64793943D01*
X157877794Y-64736976D01*
X157858427Y-64695748D01*
X157814892Y-64627443D01*
X157757701Y-64575749D01*
X157680603Y-64538637D01*
X157577346Y-64514078D01*
X157441677Y-64500044D01*
X157267344Y-64494506D01*
X157237477Y-64494283D01*
X157083397Y-64495468D01*
X156960257Y-64502289D01*
X156852854Y-64517013D01*
X156745985Y-64541906D01*
X156624447Y-64579236D01*
X156589754Y-64590857D01*
X156523888Y-64615605D01*
X156442773Y-64649543D01*
X156356344Y-64688032D01*
X156274535Y-64726428D01*
X156207281Y-64760091D01*
X156164515Y-64784380D01*
X156154739Y-64794097D01*
X155849481Y-64794097D01*
X155953597Y-64723262D01*
X156023981Y-64676220D01*
X156078197Y-64637516D01*
X156105133Y-64615104D01*
X156105662Y-64614419D01*
X156137321Y-64594393D01*
X156163494Y-64586354D01*
X156208429Y-64570638D01*
X156275884Y-64540366D01*
X156323725Y-64516376D01*
X156378238Y-64486399D01*
X156403847Y-64469302D01*
X156397706Y-64468195D01*
X156369285Y-64469295D01*
X156370736Y-64456808D01*
X156402163Y-64442256D01*
X156423987Y-64445042D01*
X156456594Y-64442970D01*
X156516727Y-64429709D01*
X156593051Y-64408813D01*
X156674233Y-64383838D01*
X156748940Y-64358339D01*
X156805835Y-64335870D01*
X156833587Y-64319987D01*
X156834116Y-64316399D01*
X156851420Y-64311655D01*
X156904761Y-64306662D01*
X156983924Y-64302287D01*
X157014286Y-64301116D01*
X157102346Y-64295540D01*
X157170492Y-64286466D01*
X157177079Y-64284517D01*
X157237477Y-64284517D01*
X157249044Y-64296083D01*
X157260610Y-64284517D01*
X157283743Y-64284517D01*
X157295310Y-64296083D01*
X157306876Y-64284517D01*
X157295310Y-64272950D01*
X157283743Y-64284517D01*
X157260610Y-64284517D01*
X157249044Y-64272950D01*
X157237477Y-64284517D01*
X157177079Y-64284517D01*
X157207275Y-64275583D01*
X157210489Y-64272200D01*
X157238191Y-64253498D01*
X157289721Y-64252065D01*
X157345850Y-64268240D01*
X157348880Y-64269745D01*
X157394688Y-64284664D01*
X157464926Y-64299112D01*
X157497723Y-64304002D01*
X157564065Y-64310658D01*
X157596593Y-64305662D01*
X157607009Y-64285660D01*
X157607605Y-64272508D01*
X157599780Y-64235130D01*
X157589119Y-64226684D01*
X157570058Y-64207169D01*
X157546377Y-64158921D01*
X157541356Y-64145719D01*
X157514177Y-64092915D01*
X157484389Y-64065736D01*
X157478876Y-64064753D01*
X157449076Y-64051026D01*
X157445674Y-64040255D01*
X157460089Y-64026990D01*
X157470696Y-64031221D01*
X157476541Y-64025433D01*
X157457187Y-63986952D01*
X157415351Y-63919977D01*
X157353751Y-63828711D01*
X157275105Y-63717354D01*
X157208075Y-63625227D01*
X157129967Y-63523729D01*
X157043980Y-63419706D01*
X156955636Y-63318973D01*
X156870457Y-63227349D01*
X156793963Y-63150650D01*
X156731677Y-63094694D01*
X156689119Y-63065298D01*
X156674625Y-63063204D01*
X156662667Y-63062264D01*
X156666905Y-63053075D01*
X156657438Y-63028225D01*
X156618358Y-62986036D01*
X156558065Y-62935543D01*
X156556646Y-62934470D01*
X156458707Y-62864043D01*
X156371288Y-62807664D01*
X156299862Y-62768069D01*
X156249907Y-62747995D01*
X156226896Y-62750180D01*
X156233402Y-62772881D01*
X156236167Y-62788973D01*
X156226303Y-62785000D01*
X156212139Y-62752778D01*
X156216990Y-62700224D01*
X156236757Y-62647086D01*
X156243903Y-62638271D01*
X156832650Y-62638271D01*
X156925182Y-62656190D01*
X157009737Y-62667981D01*
X157104107Y-62674879D01*
X157125895Y-62675442D01*
X157229008Y-62683458D01*
X157361642Y-62703473D01*
X157509540Y-62732525D01*
X157658441Y-62767657D01*
X157794087Y-62805908D01*
X157859060Y-62827629D01*
X158119961Y-62945609D01*
X158371396Y-63107046D01*
X158610470Y-63309600D01*
X158834289Y-63550931D01*
X158967393Y-63723542D01*
X159024687Y-63800796D01*
X159072979Y-63861340D01*
X159105490Y-63896902D01*
X159114362Y-63902823D01*
X159140534Y-63887368D01*
X159160208Y-63869266D01*
X161530601Y-63869266D01*
X161561003Y-63898202D01*
X161574909Y-63908804D01*
X161646896Y-63969241D01*
X161734340Y-64053902D01*
X161825025Y-64149933D01*
X161906735Y-64244479D01*
X161959890Y-64313906D01*
X162062543Y-64488812D01*
X162151054Y-64695900D01*
X162215020Y-64903324D01*
X162238764Y-64992437D01*
X162259112Y-65061537D01*
X162273017Y-65100599D01*
X162276541Y-65105737D01*
X162279340Y-65084855D01*
X162276767Y-65030458D01*
X162270440Y-64964308D01*
X162226378Y-64751937D01*
X162145256Y-64537102D01*
X162033508Y-64333106D01*
X161897570Y-64153254D01*
X161857381Y-64110383D01*
X161770012Y-64026523D01*
X161684848Y-63953218D01*
X161610025Y-63896776D01*
X161553681Y-63863505D01*
X161530955Y-63857290D01*
X161530601Y-63869266D01*
X159160208Y-63869266D01*
X159181996Y-63849218D01*
X159191277Y-63839443D01*
X159227945Y-63794881D01*
X159244308Y-63753923D01*
X159240104Y-63704470D01*
X159215067Y-63634423D01*
X159185342Y-63567395D01*
X159052983Y-63328074D01*
X158889544Y-63118889D01*
X158698460Y-62943395D01*
X158483167Y-62805147D01*
X158417259Y-62772788D01*
X158194173Y-62691193D01*
X157937014Y-62634349D01*
X157651136Y-62602803D01*
X157341896Y-62597103D01*
X157014649Y-62617798D01*
X156959882Y-62623720D01*
X156832650Y-62638271D01*
X156243903Y-62638271D01*
X156259570Y-62618943D01*
X156289025Y-62618943D01*
X156300592Y-62630509D01*
X156312158Y-62618943D01*
X156300592Y-62607376D01*
X156289025Y-62618943D01*
X156259570Y-62618943D01*
X156261173Y-62616966D01*
X156309172Y-62601609D01*
X156353425Y-62602970D01*
X156393229Y-62605641D01*
X156395679Y-62588730D01*
X156392988Y-62584023D01*
X156387144Y-62564722D01*
X156399282Y-62569334D01*
X156429662Y-62570992D01*
X156497120Y-62565465D01*
X156593190Y-62553729D01*
X156709409Y-62536762D01*
X156778767Y-62525567D01*
X156951448Y-62498881D01*
X157099440Y-62481744D01*
X157242965Y-62472589D01*
X157402246Y-62469852D01*
X157491940Y-62470378D01*
X157658382Y-62472325D01*
X157784181Y-62474190D01*
X157874961Y-62476238D01*
X157936344Y-62478737D01*
X157973953Y-62481954D01*
X157993410Y-62486155D01*
X158000337Y-62491608D01*
X158000865Y-62494538D01*
X158021241Y-62506869D01*
X158072051Y-62519982D01*
X158091375Y-62523404D01*
X158160918Y-62536774D01*
X158215773Y-62551085D01*
X158222401Y-62553425D01*
X158250158Y-62557685D01*
X158246355Y-62542174D01*
X158245468Y-62524821D01*
X158265560Y-62529100D01*
X158291031Y-62549268D01*
X158290661Y-62560085D01*
X158303490Y-62575894D01*
X158344900Y-62596887D01*
X158398647Y-62616788D01*
X158448487Y-62629323D01*
X158472505Y-62630328D01*
X158501630Y-62643449D01*
X158509966Y-62653926D01*
X158544054Y-62676185D01*
X158585514Y-62684818D01*
X158625556Y-62692729D01*
X158634154Y-62704531D01*
X158643546Y-62726412D01*
X158669553Y-62745014D01*
X158720270Y-62767142D01*
X158735145Y-62760070D01*
X158727345Y-62742600D01*
X158724633Y-62726695D01*
X158736536Y-62731774D01*
X158752292Y-62763825D01*
X158749201Y-62781614D01*
X158748934Y-62810954D01*
X158758239Y-62815573D01*
X158790864Y-62829223D01*
X158828164Y-62856056D01*
X158901382Y-62917465D01*
X158946951Y-62953830D01*
X158972174Y-62970418D01*
X158984355Y-62972499D01*
X158987015Y-62970649D01*
X158988585Y-62944311D01*
X158982326Y-62886285D01*
X158972275Y-62824412D01*
X158958625Y-62737072D01*
X158950055Y-62657401D01*
X158948454Y-62618943D01*
X158946085Y-62575365D01*
X158935033Y-62573184D01*
X158926650Y-62584243D01*
X158907705Y-62602109D01*
X158903405Y-62591392D01*
X158917491Y-62556029D01*
X158923082Y-62551461D01*
X158935978Y-62521544D01*
X158935684Y-62486480D01*
X158920134Y-62381958D01*
X158907722Y-62316141D01*
X158896293Y-62281772D01*
X158883696Y-62271594D01*
X158872966Y-62275014D01*
X158857547Y-62279226D01*
X158862368Y-62272002D01*
X158864077Y-62241177D01*
X158850801Y-62217587D01*
X158833690Y-62193099D01*
X158848162Y-62197789D01*
X158851002Y-62199474D01*
X158874542Y-62198368D01*
X158879918Y-62169215D01*
X158869929Y-62130899D01*
X158855420Y-62121584D01*
X158841604Y-62107412D01*
X158845219Y-62098451D01*
X158842509Y-62077174D01*
X158833458Y-62075318D01*
X158817963Y-62057322D01*
X158823005Y-62026155D01*
X158827816Y-61991705D01*
X158813262Y-61992657D01*
X158796865Y-61992002D01*
X158799755Y-61977471D01*
X158800357Y-61938755D01*
X158787292Y-61882185D01*
X158766311Y-61824007D01*
X158743167Y-61780466D01*
X158725314Y-61767206D01*
X158706030Y-61752042D01*
X158701414Y-61732506D01*
X158689892Y-61679137D01*
X159486400Y-61679137D01*
X159513123Y-61721051D01*
X159568497Y-61784640D01*
X159697544Y-61944371D01*
X159829501Y-62141890D01*
X159960450Y-62369224D01*
X160086478Y-62618403D01*
X160203667Y-62881454D01*
X160308103Y-63150406D01*
X160395871Y-63417286D01*
X160429917Y-63538478D01*
X160449066Y-63603922D01*
X160469879Y-63636058D01*
X160505570Y-63646380D01*
X160554281Y-63646645D01*
X160641633Y-63641727D01*
X160735966Y-63631764D01*
X160753385Y-63629296D01*
X160826535Y-63610730D01*
X160862031Y-63584202D01*
X160863914Y-63578625D01*
X160859139Y-63544582D01*
X160841346Y-63475169D01*
X160813200Y-63378543D01*
X160777363Y-63262860D01*
X160736501Y-63136279D01*
X160693276Y-63006956D01*
X160650352Y-62883049D01*
X160610394Y-62772714D01*
X160576064Y-62684108D01*
X160558166Y-62642329D01*
X160527166Y-62573105D01*
X160505816Y-62522657D01*
X160499226Y-62503832D01*
X160488398Y-62480579D01*
X160459927Y-62428554D01*
X160419837Y-62358738D01*
X160417347Y-62354485D01*
X160271968Y-62150601D01*
X160091749Y-61971001D01*
X159884594Y-61822268D01*
X159658409Y-61710988D01*
X159633392Y-61701567D01*
X159544756Y-61671671D01*
X159496351Y-61663436D01*
X159486400Y-61679137D01*
X158689892Y-61679137D01*
X158685733Y-61659872D01*
X158655669Y-61599804D01*
X158619299Y-61566928D01*
X158608678Y-61564567D01*
X158586615Y-61558571D01*
X158596305Y-61551150D01*
X158606124Y-61530069D01*
X158582622Y-61484886D01*
X158567584Y-61464300D01*
X158539644Y-61426420D01*
X158529106Y-61401815D01*
X158541997Y-61387817D01*
X158584341Y-61381755D01*
X158662164Y-61380962D01*
X158752687Y-61382306D01*
G37*
D14*
%TO.C,U5*%
X128785000Y-49800000D02*
X128785000Y-55960000D01*
X128785000Y-49800000D02*
X147025000Y-49800000D01*
X128785000Y-74760000D02*
X128785000Y-75540000D01*
X128785000Y-75540000D02*
X129785000Y-75540000D01*
X147025000Y-49800000D02*
X147025000Y-56215000D01*
X147025000Y-74760000D02*
X147025000Y-75540000D01*
X147025000Y-75540000D02*
X146025000Y-75540000D01*
X128780000Y-56685000D02*
X128280000Y-56685000D01*
X128780000Y-56185000D01*
X128780000Y-56685000D01*
G36*
X128780000Y-56685000D02*
G01*
X128280000Y-56685000D01*
X128780000Y-56185000D01*
X128780000Y-56685000D01*
G37*
%TO.C,SW1*%
X162175000Y-110525000D02*
X162175000Y-111315000D01*
X162775000Y-112325000D02*
X168475000Y-112325000D01*
X164025000Y-109475000D02*
X165725000Y-109475000D01*
X164225000Y-112325000D02*
X164225000Y-113615000D01*
X164225000Y-113615000D02*
X164425000Y-113825000D01*
X164425000Y-113825000D02*
X165325000Y-113825000D01*
X165525000Y-113615000D02*
X165325000Y-113825000D01*
X165525000Y-113615000D02*
X165525000Y-112325000D01*
X167025000Y-109475000D02*
X167225000Y-109475000D01*
X169075000Y-111315000D02*
X169075000Y-110525000D01*
%TO.C,J2*%
X149145000Y-57045000D02*
X150475000Y-57045000D01*
X149145000Y-58375000D02*
X149145000Y-57045000D01*
X151745000Y-57045000D02*
X169585000Y-57045000D01*
X151745000Y-59705000D02*
X151745000Y-57045000D01*
X151745000Y-59705000D02*
X169585000Y-59705000D01*
X169585000Y-59705000D02*
X169585000Y-57045000D01*
%TO.C,SW4*%
X111850000Y-75145000D02*
X118310000Y-75145000D01*
X111850000Y-75175000D02*
X111850000Y-75145000D01*
X111850000Y-77075000D02*
X111850000Y-79675000D01*
X111850000Y-81605000D02*
X111850000Y-81575000D01*
X111850000Y-81605000D02*
X118310000Y-81605000D01*
X118310000Y-75145000D02*
X118310000Y-75175000D01*
X118310000Y-77075000D02*
X118310000Y-79675000D01*
X118310000Y-81605000D02*
X118310000Y-81575000D01*
%TO.C,C5*%
X159465000Y-109588748D02*
X159465000Y-110111252D01*
X160935000Y-109588748D02*
X160935000Y-110111252D01*
D15*
%TO.C,U2*%
X168650000Y-84100000D02*
X171800000Y-84100000D01*
X168650000Y-93900000D02*
X168650000Y-84100000D01*
X171800000Y-93900000D02*
X168650000Y-93900000D01*
X171800000Y-94170000D02*
X171800000Y-93900000D01*
X173680000Y-81000000D02*
X174300000Y-81000000D01*
X174300000Y-74700000D02*
X185200000Y-74700000D01*
X174300000Y-81000000D02*
X174300000Y-74700000D01*
X174900000Y-96900000D02*
X173680000Y-96900000D01*
X174900000Y-100100000D02*
X174900000Y-96900000D01*
X184600000Y-96900000D02*
X184600000Y-100100000D01*
X185200000Y-74700000D02*
X185200000Y-81000000D01*
X185200000Y-81000000D02*
X185830000Y-81000000D01*
X185830000Y-96900000D02*
X184600000Y-96900000D01*
X187700000Y-84900000D02*
X189250000Y-84900000D01*
X187700000Y-93000000D02*
X187700000Y-94120000D01*
X189250000Y-84900000D02*
X189250000Y-93000000D01*
X189250000Y-93000000D02*
X187700000Y-93000000D01*
D16*
X173800000Y-75650000D02*
G75*
G02*
X173600000Y-75650000I-100000J0D01*
G01*
X173600000Y-75650000D02*
G75*
G02*
X173800000Y-75650000I100000J0D01*
G01*
D14*
%TO.C,Q2*%
X138290000Y-82362500D02*
X138290000Y-81712500D01*
X138290000Y-82362500D02*
X138290000Y-83012500D01*
X141410000Y-82362500D02*
X141410000Y-81712500D01*
X141410000Y-82362500D02*
X141410000Y-83012500D01*
X138340000Y-83525000D02*
X138010000Y-83765000D01*
X138010000Y-83285000D01*
X138340000Y-83525000D01*
G36*
X138340000Y-83525000D02*
G01*
X138010000Y-83765000D01*
X138010000Y-83285000D01*
X138340000Y-83525000D01*
G37*
%TO.C,R8*%
X145715000Y-103835436D02*
X145715000Y-104289564D01*
X147185000Y-103835436D02*
X147185000Y-104289564D01*
%TO.C,U6*%
X133320000Y-92512500D02*
X133320000Y-90562500D01*
X133320000Y-92512500D02*
X133320000Y-94462500D01*
X143440000Y-92512500D02*
X143440000Y-90562500D01*
X143440000Y-92512500D02*
X143440000Y-94462500D01*
X133375000Y-95212500D02*
X133045000Y-95452500D01*
X133045000Y-94972500D01*
X133375000Y-95212500D01*
G36*
X133375000Y-95212500D02*
G01*
X133045000Y-95452500D01*
X133045000Y-94972500D01*
X133375000Y-95212500D01*
G37*
%TO.C,R6*%
X135877064Y-84527500D02*
X135422936Y-84527500D01*
X135877064Y-85997500D02*
X135422936Y-85997500D01*
%TD*%
M02*
